0
SECTION
2
HEADER
9
$INSUNITS
70
4
9
$ACADVER
1
AC1014
9
$HANDSEED
5
FFFF
0
ENDSEC
0
SECTION
2
TABLES
0
TABLE
2
VPORT
5
8
100
AcDbSymbolTable
0
ENDTAB
0
TABLE
2
LTYPE
5
5
100
AcDbSymbolTable
0
LTYPE
5
14
100
AcDbSymbolTableRecord
100
AcDbLinetypeTableRecord
2
BYBLOCK
70
0
0
LTYPE
5
15
100
AcDbSymbolTableRecord
100
AcDbLinetypeTableRecord
2
BYLAYER
70
0
0
ENDTAB
0
TABLE
2
LAYER
5
2
100
AcDbSymbolTable
70
2
0
LAYER
5
50
100
AcDbSymbolTableRecord
100
AcDbLayerTableRecord
2
0
70
0
6
CONTINUOUS
0
ENDTAB
0
TABLE
2
STYLE
5
3
100
AcDbSymbolTable
70
1
0
STYLE
5
11
100
AcDbSymbolTableRecord
100
AcDbTextStyleTableRecord
2
STANDARD
70
0
0
ENDTAB
0
TABLE
2
VIEW
5
6
100
AcDbSymbolTable
70
0
0
ENDTAB
0
TABLE
2
UCS
5
7
100
AcDbSymbolTable
70
0
0
ENDTAB
0
TABLE
2
APPID
5
9
100
AcDbSymbolTable
70
2
0
APPID
5
12
100
AcDbSymbolTableRecord
100
AcDbRegAppTableRecord
2
ACAD
70
0
0
ENDTAB
0
TABLE
2
DIMSTYLE
5
A
100
AcDbSymbolTable
70
1
0
ENDTAB
0
TABLE
2
BLOCK_RECORD
5
1
100
AcDbSymbolTable
70
1
0
BLOCK_RECORD
5
1F
100
AcDbSymbolTableRecord
100
AcDbBlockTableRecord
2
*MODEL_SPACE
0
BLOCK_RECORD
5
1B
100
AcDbSymbolTableRecord
100
AcDbBlockTableRecord
2
*PAPER_SPACE
0
ENDTAB
0
ENDSEC
0
SECTION
2
BLOCKS
0
BLOCK
5
20
100
AcDbEntity
100
AcDbBlockBegin
2
*MODEL_SPACE
0
ENDBLK
5
21
100
AcDbEntity
100
AcDbBlockEnd
0
BLOCK
5
1C
100
AcDbEntity
100
AcDbBlockBegin
2
*PAPER_SPACE
0
ENDBLK
5
1D
100
AcDbEntity
100
AcDbBlockEnd
0
ENDSEC
0
SECTION
2
ENTITIES
0
LWPOLYLINE
5
100
100
AcDbEntity
8
0
100
AcDbPolyline
90
8
70
1
43
0.0
10
40.801391427009563
20
23.000000000000007
10
-30.398608572990451
20
23.000000000000007
10
-30.398608572990451
20
-23
10
42.801391427009548
20
-23
10
42.801391427009548
20
-11.999999999999996
10
59.801391427009555
20
-11.999999999999996
10
59.801391427009555
20
29.000000000000007
10
40.801391427009563
20
29.000000000000007
0
LWPOLYLINE
5
101
100
AcDbEntity
8
0
100
AcDbPolyline
90
4
70
1
43
0.0
10
74.688608572990461
20
65.308608572990408
10
84.308608572990451
20
65.308608572990408
42
0.99999999999999989
10
84.308608572990451
20
68.308608572990423
10
74.688608572990447
20
68.308608572990423
42
0.99999999999999989
0
LWPOLYLINE
5
102
100
AcDbEntity
8
0
100
AcDbPolyline
90
4
70
1
43
0.0
10
74.688608572990447
20
57.688608572990404
10
84.308608572990451
20
57.688608572990404
42
0.99999999999999989
10
84.308608572990451
20
60.688608572990418
10
74.688608572990447
20
60.688608572990418
42
0.99999999999999989
0
LWPOLYLINE
5
103
100
AcDbEntity
8
0
100
AcDbPolyline
90
4
70
1
43
0.0
10
70.148608572990426
20
40.448608572990409
10
70.148608572990426
20
60.948608572990409
42
0.99999999999999989
10
64.648608572990426
20
60.948608572990409
10
64.648608572990426
20
40.448608572990409
42
0.99999999999999989
0
LWPOLYLINE
5
104
100
AcDbEntity
8
0
100
AcDbPolyline
90
4
70
1
43
0.0
10
101.69860857299042
20
55.698608572990409
10
101.69860857299042
20
45.698608572990409
10
105.69860857299041
20
45.698608572990409
10
105.69860857299041
20
55.698608572990409
0
LWPOLYLINE
5
105
100
AcDbEntity
8
0
100
AcDbPolyline
90
4
70
1
43
0.0
10
56.698608572990423
20
50.198608572990423
10
56.698608572990423
20
40.198608572990423
42
0.99999999999999989
10
61.698608572990423
20
40.198608572990423
10
61.698608572990423
20
50.198608572990423
42
0.99999999999999989
0
LWPOLYLINE
5
106
100
AcDbEntity
8
0
100
AcDbPolyline
90
6
70
1
43
0.0
10
58.759650900989591
20
-63.944550749118136
10
62.912415900989622
20
-69.944550749118136
42
0.53531697397504918
10
65.824541449699254
20
-69.893212409015391
10
69.671776449699237
20
-63.893212409015412
42
0.59297915851122329
10
68.198608572990395
20
-61.198608572990395
10
60.198608572990409
20
-61.198608572990409
42
0.60495482664770062
0
CIRCLE
5
107
100
AcDbEntity
8
0
100
AcDbCircle
10
99.198608572990423
20
68.198608572990409
30
0
40
1.4999999999999858
210
0
220
-0
230
1
0
CIRCLE
5
108
100
AcDbEntity
8
0
100
AcDbCircle
10
99.198608572990423
20
33.198608572990416
30
0
40
1.5000000000000036
210
0
220
-0
230
1
0
CIRCLE
5
109
100
AcDbEntity
8
0
100
AcDbCircle
10
64.198608572990423
20
68.198608572990409
30
0
40
1.5000000000000036
210
0
220
-0
230
1
0
CIRCLE
5
110
100
AcDbEntity
8
0
100
AcDbCircle
10
64.198608572990423
20
33.198608572990416
30
0
40
1.4999999999999947
210
0
220
-0
230
1
0
LWPOLYLINE
5
111
100
AcDbEntity
8
0
100
AcDbPolyline
90
4
70
1
43
0.0
10
97.698608572990381
20
-10.999999999999996
10
97.698608572990366
20
9.5000000000000462
42
0.99999999999999989
10
91.698608572990395
20
9.4999999999999929
10
91.698608572990395
20
-10.999999999999996
42
0.99999999999999989
0
CIRCLE
5
112
100
AcDbEntity
8
0
100
AcDbCircle
10
77.198608572990381
20
24.000000000000007
30
0
40
1.5000000000000036
210
0
220
-0
230
1
0
CIRCLE
5
113
100
AcDbEntity
8
0
100
AcDbCircle
10
112.19860857299038
20
24.000000000000007
30
0
40
1.5000000000000036
210
0
220
-0
230
1
0
CIRCLE
5
114
100
AcDbEntity
8
0
100
AcDbCircle
10
112.19860857299038
20
-30.999999999999996
30
0
40
1.5000000000000036
210
0
220
-0
230
1
0
CIRCLE
5
115
100
AcDbEntity
8
0
100
AcDbCircle
10
77.198608572990381
20
-10.999999999999993
30
0
40
1.5000000000000036
210
0
220
-0
230
1
0
CIRCLE
5
116
100
AcDbEntity
8
0
100
AcDbCircle
10
112.19860857299038
20
-10.999999999999996
30
0
40
1.5000000000000036
210
0
220
-0
230
1
0
CIRCLE
5
117
100
AcDbEntity
8
0
100
AcDbCircle
10
77.198608572990381
20
-30.999999999999982
30
0
40
1.5000000000000036
210
0
220
-0
230
1
0
CIRCLE
5
118
100
AcDbEntity
8
0
100
AcDbCircle
10
92.62013274099985
20
-56.870132741002323
30
0
40
12.5
210
0
220
-0
230
1
0
LWPOLYLINE
5
119
100
AcDbEntity
8
0
100
AcDbPolyline
90
4
70
1
43
0.0
10
-38.398608572990447
20
-23
10
-38.398608572990447
20
23.000000000000007
10
-112.19860857299045
20
23.000000000000007
10
-112.19860857299045
20
-23
0
CIRCLE
5
120
100
AcDbEntity
8
0
100
AcDbCircle
10
115.99999999999996
20
38.000000000000021
30
0
40
3.100000000000005
210
0
220
0
230
1
0
CIRCLE
5
121
100
AcDbEntity
8
0
100
AcDbCircle
10
-116.00000000000003
20
38.000000000000021
30
0
40
3.100000000000005
210
0
220
0
230
1
0
CIRCLE
5
122
100
AcDbEntity
8
0
100
AcDbCircle
10
-116.00000000000003
20
-37.999999999999964
30
0
40
3.100000000000005
210
0
220
0
230
1
0
CIRCLE
5
123
100
AcDbEntity
8
0
100
AcDbCircle
10
116.00000000000001
20
-37.999999999999986
30
0
40
3.100000000000005
210
0
220
0
230
1
0
LINE
5
124
100
AcDbEntity
8
0
100
AcDbLine
10
-109.19860857299045
20
69.998710938949742
30
0
11
-109.19860857299045
21
54.998369768790525
31
0
0
SPLINE
5
125
100
AcDbEntity
8
0
100
AcDbSpline
70
0
71
3
72
17
73
13
74
0
42
0.000000001
43
0.0000000001
44
0.0000000001
40
-3.9269664479895576
40
-3.9269664479895576
40
-3.9269664479895576
40
-3.9269664479895576
40
-3.5342795507896754
40
-3.5342795507896754
40
-3.5342795507896754
40
-3.1415926535897931
40
-3.1415926535897931
40
-3.1415926535897931
40
-2.7489057563899109
40
-2.7489057563899109
40
-2.7489057563899109
40
-2.3562188591900286
40
-2.3562188591900286
40
-2.3562188591900286
40
-2.3562188591900286
10
-109.19860857299048
20
54.998369768790525
30
0
10
-109.19860857301015
20
53.582802036508085
30
0
10
-109.47907614738283
20
52.173015098705022
30
0
10
-110.02068017518948
20
50.865448644287326
30
0
10
-110.56230180777473
20
49.557839687567693
30
0
10
-111.36096308084561
20
48.362549759439055
30
0
10
-112.36175642013819
20
47.361756420141546
30
0
10
-113.3625497594354
20
46.360963080839426
30
0
10
-114.55783968757054
20
45.562301807773494
30
0
10
-115.86544864428738
20
45.020680175189383
30
0
10
-117.17301509870114
20
44.479076147384347
30
0
10
-118.58280203650592
20
44.198608573000229
30
0
10
-119.99836976879756
20
44.198608572990388
30
0
0
LINE
5
126
100
AcDbEntity
8
0
100
AcDbLine
10
-119.99836976879756
20
44.198608572990395
30
0
11
-119.99871093892548
21
44.198608572990388
31
0
0
SPLINE
5
127
100
AcDbEntity
8
0
100
AcDbSpline
70
0
71
3
72
17
73
13
74
0
42
0.000000001
43
0.0000000001
44
0.0000000001
40
-3.926966447989559
40
-3.926966447989559
40
-3.926966447989559
40
-3.926966447989559
40
-3.5342795507896749
40
-3.5342795507896749
40
-3.5342795507896749
40
-3.1415926535897909
40
-3.1415926535897909
40
-3.1415926535897909
40
-2.7489057563899073
40
-2.7489057563899073
40
-2.7489057563899073
40
-2.3562188591900282
40
-2.3562188591900282
40
-2.3562188591900282
40
-2.3562188591900282
10
-119.9987109389255
20
44.198608572990388
30
0
10
-120.41605716083382
20
44.198608572988945
30
0
10
-120.8377845854757
20
44.114707627189148
30
0
10
-121.22327888461848
20
43.955032939598325
30
0
10
-121.60873068090326
20
43.79537585701641
30
0
10
-121.96638536810082
20
43.556399975115937
30
0
10
-122.26139267161088
20
43.261392671607325
30
0
10
-122.55639997511631
20
42.966385368103346
30
0
10
-122.79537585701317
20
42.608730680909105
30
0
10
-122.95503293959912
20
42.223278884616647
30
0
10
-123.11470762719196
20
41.837784585471113
30
0
10
-123.19860857299047
20
41.416057160836658
30
0
10
-123.19860857299047
20
40.998710938928902
30
0
0
LINE
5
128
100
AcDbEntity
8
0
100
AcDbLine
10
-123.19860857299047
20
40.998710938928909
30
0
11
-123.19860857299045
21
-40.998710938928923
31
0
0
SPLINE
5
129
100
AcDbEntity
8
0
100
AcDbSpline
70
0
71
3
72
17
73
13
74
0
42
0.000000001
43
0.0000000001
44
0.0000000001
40
-3.9269664479895585
40
-3.9269664479895585
40
-3.9269664479895585
40
-3.9269664479895585
40
-3.5342795507896758
40
-3.5342795507896758
40
-3.5342795507896758
40
-3.1415926535897931
40
-3.1415926535897931
40
-3.1415926535897931
40
-2.74890575638991
40
-2.74890575638991
40
-2.74890575638991
40
-2.3562188591900273
40
-2.3562188591900273
40
-2.3562188591900273
40
-2.3562188591900273
10
-123.19860857299045
20
-40.998710938928923
30
0
10
-123.19860857299045
20
-41.416057160831997
30
0
10
-123.11470762718956
20
-41.837784585469819
30
0
10
-122.95503293959668
20
-42.223278884622637
30
0
10
-122.79537585701718
20
-42.608730680906497
30
0
10
-122.55639997511864
20
-42.966385368101015
30
0
10
-122.26139267161085
20
-43.261392671607354
30
0
10
-121.96638536809964
20
-43.556399975117145
30
0
10
-121.60873068090194
20
-43.795375857018435
30
0
10
-121.22327888462139
20
-43.955032939597132
30
0
10
-120.83778458547701
20
-44.11470762718718
30
0
10
-120.41605716083265
20
-44.198608572987524
30
0
10
-119.99871093892203
20
-44.198608572990423
30
0
0
LINE
5
130
100
AcDbEntity
8
0
100
AcDbLine
10
-119.99871093892203
20
-44.198608572990423
30
0
11
-119.99836976881144
21
-44.198608572990409
31
0
0
SPLINE
5
131
100
AcDbEntity
8
0
100
AcDbSpline
70
0
71
3
72
17
73
13
74
0
42
0.000000001
43
0.0000000001
44
0.0000000001
40
-3.9269664479895563
40
-3.9269664479895563
40
-3.9269664479895563
40
-3.9269664479895563
40
-3.534279550789674
40
-3.534279550789674
40
-3.534279550789674
40
-3.1415926535897922
40
-3.1415926535897922
40
-3.1415926535897922
40
-2.7489057563899104
40
-2.7489057563899104
40
-2.7489057563899104
40
-2.3562188591900286
40
-2.3562188591900286
40
-2.3562188591900286
40
-2.3562188591900286
10
-119.99836976881143
20
-44.198608572990409
30
0
10
-118.58280203650493
20
-44.198608572980582
30
0
10
-117.17301509868639
20
-44.479076147391353
30
0
10
-115.86544864428789
20
-45.020680175189213
30
0
10
-114.55783968757828
20
-45.562301807769444
30
0
10
-113.36254975943653
20
-46.360963080838303
30
0
10
-112.36175642013818
20
-47.361756420141589
30
0
10
-111.36096308084674
20
-48.362549759437918
30
0
10
-110.56230180776615
20
-49.557839687569626
30
0
10
-110.02068017518752
20
-50.865448644292059
30
0
10
-109.47907614739243
20
-52.173015098700631
30
0
10
-109.19860857301015
20
-53.582802036506493
30
0
10
-109.19860857299048
20
-54.99836976879056
30
0
0
LINE
5
132
100
AcDbEntity
8
0
100
AcDbLine
10
-109.19860857299048
20
-54.998369768790553
30
0
11
-109.19860857299045
21
-69.998710938921974
31
0
0
SPLINE
5
133
100
AcDbEntity
8
0
100
AcDbSpline
70
0
71
3
72
17
73
13
74
0
42
0.000000001
43
0.0000000001
44
0.0000000001
40
-3.9269664479895585
40
-3.9269664479895585
40
-3.9269664479895585
40
-3.9269664479895585
40
-3.5342795507896758
40
-3.5342795507896758
40
-3.5342795507896758
40
-3.1415926535897931
40
-3.1415926535897931
40
-3.1415926535897931
40
-2.7489057563899104
40
-2.7489057563899104
40
-2.7489057563899104
40
-2.3562188591900277
40
-2.3562188591900277
40
-2.3562188591900277
40
-2.3562188591900277
10
-109.19860857299045
20
-69.99871093892196
30
0
10
-109.19860857298757
20
-70.416057160836147
30
0
10
-109.11470762718871
20
-70.837784585470516
30
0
10
-108.95503293959615
20
-71.223278884623852
30
0
10
-108.79537585701898
20
-71.608730680903548
30
0
10
-108.55639997511815
20
-71.966385368097164
30
0
10
-108.26139267160563
20
-72.261392671612569
30
0
10
-107.96638536810471
20
-72.556399975116392
30
0
10
-107.60873068091183
20
-72.795375857012644
30
0
10
-107.22327888461798
20
-72.955032939598553
30
0
10
-106.83778458547188
20
-73.114707627190995
30
0
10
-106.41605716084081
20
-73.19860857298751
30
0
10
-105.99871093892203
20
-73.198608572990409
30
0
0
LINE
5
134
100
AcDbEntity
8
0
100
AcDbLine
10
-105.99871093892203
20
-73.198608572990409
30
0
11
105.99871093894976
21
-73.198608572990395
31
0
0
SPLINE
5
135
100
AcDbEntity
8
0
100
AcDbSpline
70
0
71
3
72
17
73
13
74
0
42
0.000000001
43
0.0000000001
44
0.0000000001
40
-3.9269664479895554
40
-3.9269664479895554
40
-3.9269664479895554
40
-3.9269664479895554
40
-3.534279550789674
40
-3.534279550789674
40
-3.534279550789674
40
-3.1415926535897931
40
-3.1415926535897931
40
-3.1415926535897931
40
-2.7489057563899122
40
-2.7489057563899122
40
-2.7489057563899122
40
-2.3562188591900308
40
-2.3562188591900308
40
-2.3562188591900308
40
-2.3562188591900308
10
105.99871093894976
20
-73.198608572990409
30
0
10
106.41605716082688
20
-73.198608572999092
30
0
10
106.83778458545468
20
-73.114707627195216
30
0
10
107.22327888462385
20
-72.955032939596094
30
0
10
107.60873068090355
20
-72.795375857018939
30
0
10
107.96638536809716
20
-72.556399975118097
30
0
10
108.26139267161254
20
-72.26139267160562
30
0
10
108.55639997511869
20
-71.96638536810238
30
0
10
108.79537585701661
20
-71.608730680909161
30
0
10
108.95503293959609
20
-71.223278884623852
30
0
10
109.11470762719031
20
-70.837784585466537
30
0
10
109.19860857299041
20
-70.416057160833887
30
0
10
109.19860857299041
20
-69.998710938928923
30
0
0
LINE
5
136
100
AcDbEntity
8
0
100
AcDbLine
10
109.19860857299041
20
-69.998710938928937
30
0
11
109.19860857299041
21
-54.998369768804416
31
0
0
SPLINE
5
137
100
AcDbEntity
8
0
100
AcDbSpline
70
0
71
3
72
17
73
13
74
0
42
0.000000001
43
0.0000000001
44
0.0000000001
40
-3.9269664479895576
40
-3.9269664479895576
40
-3.9269664479895576
40
-3.9269664479895576
40
-3.5342795507896754
40
-3.5342795507896754
40
-3.5342795507896754
40
-3.1415926535897931
40
-3.1415926535897931
40
-3.1415926535897931
40
-2.7489057563899109
40
-2.7489057563899109
40
-2.7489057563899109
40
-2.3562188591900286
40
-2.3562188591900286
40
-2.3562188591900286
40
-2.3562188591900286
10
109.19860857299041
20
-54.998369768804437
30
0
10
109.19860857299041
20
-53.582802036498848
30
0
10
109.4790761473964
20
-52.173015098695821
30
0
10
110.02068017518695
20
-50.865448644293267
30
0
10
110.56230180776593
20
-49.557839687565078
30
0
10
111.36096308084782
20
-48.36254975943676
30
0
10
112.36175642013811
20
-47.361756420141568
30
0
10
113.36254975943531
20
-46.36096308083944
30
0
10
114.55783968757046
20
-45.562301807773494
30
0
10
115.8654486442873
20
-45.020680175189426
30
0
10
117.17301509870103
20
-44.47907614738439
30
0
10
118.58280203650573
20
-44.198608573000243
30
0
10
119.99836976879747
20
-44.198608572990409
30
0
0
LINE
5
138
100
AcDbEntity
8
0
100
AcDbLine
10
119.99836976879747
20
-44.198608572990416
30
0
11
119.99871093892196
21
-44.198608572990409
31
0
0
SPLINE
5
139
100
AcDbEntity
8
0
100
AcDbSpline
70
0
71
3
72
17
73
13
74
0
42
0.000000001
43
0.0000000001
44
0.0000000001
40
-3.926966447989559
40
-3.926966447989559
40
-3.926966447989559
40
-3.926966447989559
40
-3.5342795507896763
40
-3.5342795507896763
40
-3.5342795507896763
40
-3.1415926535897931
40
-3.1415926535897931
40
-3.1415926535897931
40
-2.7489057563899104
40
-2.7489057563899104
40
-2.7489057563899104
40
-2.3562188591900277
40
-2.3562188591900277
40
-2.3562188591900277
40
-2.3562188591900277
10
119.99871093892196
20
-44.198608572990423
30
0
10
120.41605716083849
20
-44.198608572987524
30
0
10
120.83778458547107
20
-44.114707627189858
30
0
10
121.22327888462084
20
-43.955032939597331
30
0
10
121.60873068090848
20
-43.795375857015429
30
0
10
121.9663853681034
20
-43.556399975116221
30
0
10
122.2613926716073
20
-43.261392671610821
30
0
10
122.556399975117
20
-42.966385368099651
30
0
10
122.79537585701854
20
-42.608730680904365
30
0
10
122.95503293959609
20
-42.223278884623845
30
0
10
123.11470762719027
20
-41.837784585466565
30
0
10
123.19860857299037
20
-41.416057160833844
30
0
10
123.19860857299037
20
-40.998710938928923
30
0
0
LINE
5
140
100
AcDbEntity
8
0
100
AcDbLine
10
123.19860857299037
20
-40.99871093892893
30
0
11
123.19860857299039
21
40.998710938949756
31
0
0
SPLINE
5
141
100
AcDbEntity
8
0
100
AcDbSpline
70
0
71
3
72
17
73
13
74
0
42
0.000000001
43
0.0000000001
44
0.0000000001
40
-3.9269664479895581
40
-3.9269664479895581
40
-3.9269664479895581
40
-3.9269664479895581
40
-3.5342795507896754
40
-3.5342795507896754
40
-3.5342795507896754
40
-3.1415926535897927
40
-3.1415926535897927
40
-3.1415926535897927
40
-2.74890575638991
40
-2.74890575638991
40
-2.74890575638991
40
-2.3562188591900273
40
-2.3562188591900273
40
-2.3562188591900273
40
-2.3562188591900273
10
123.19860857299039
20
40.998710938949742
30
0
10
123.19860857299909
20
41.416057160825105
30
0
10
123.11470762719446
20
41.837784585457968
30
0
10
122.95503293959661
20
42.223278884622601
30
0
10
122.79537585701709
20
42.608730680906497
30
0
10
122.55639997511858
20
42.966385368101015
30
0
10
122.26139267161082
20
43.261392671607339
30
0
10
121.96638536809728
20
43.556399975119433
30
0
10
121.60873068090552
20
43.795375857018115
30
0
10
121.22327888462385
20
43.955032939596101
30
0
10
120.83778458547047
20
44.11470762718865
30
0
10
120.41605716083622
20
44.19860857298751
30
0
10
119.99871093892195
20
44.198608572990409
30
0
0
LINE
5
142
100
AcDbEntity
8
0
100
AcDbLine
10
119.99871093892195
20
44.198608572990409
30
0
11
119.99836976881134
21
44.198608572990395
31
0
0
SPLINE
5
143
100
AcDbEntity
8
0
100
AcDbSpline
70
0
71
3
72
17
73
13
74
0
42
0.000000001
43
0.0000000001
44
0.0000000001
40
-3.9269664479895563
40
-3.9269664479895563
40
-3.9269664479895563
40
-3.9269664479895563
40
-3.534279550789674
40
-3.534279550789674
40
-3.534279550789674
40
-3.1415926535897922
40
-3.1415926535897922
40
-3.1415926535897922
40
-2.7489057563899104
40
-2.7489057563899104
40
-2.7489057563899104
40
-2.3562188591900286
40
-2.3562188591900286
40
-2.3562188591900286
40
-2.3562188591900286
10
119.99836976881134
20
44.198608572990388
30
0
10
118.58280203650483
20
44.198608572980561
30
0
10
117.17301509868631
20
44.479076147391332
30
0
10
115.86544864428781
20
45.020680175189192
30
0
10
114.55783968757821
20
45.56230180776943
30
0
10
113.36254975943648
20
46.360963080838289
30
0
10
112.36175642013812
20
47.361756420141568
30
0
10
111.36096308084439
20
48.362549759440228
30
0
10
110.56230180777482
20
49.557839687572226
30
0
10
110.02068017518992
20
50.865448644286104
30
0
10
109.47907614738691
20
52.173015098690065
30
0
10
109.1986085729806
20
53.582802036504148
30
0
10
109.19860857299044
20
54.998369768811379
30
0
0
LINE
5
144
100
AcDbEntity
8
0
100
AcDbLine
10
109.19860857299044
20
54.998369768811372
30
0
11
109.19860857299042
21
69.998710938928909
31
0
0
SPLINE
5
145
100
AcDbEntity
8
0
100
AcDbSpline
70
0
71
3
72
17
73
13
74
0
42
0.000000001
43
0.0000000001
44
0.0000000001
40
-3.9269664479895585
40
-3.9269664479895585
40
-3.9269664479895585
40
-3.9269664479895585
40
-3.5342795507896758
40
-3.5342795507896758
40
-3.5342795507896758
40
-3.1415926535897931
40
-3.1415926535897931
40
-3.1415926535897931
40
-2.7489057563899104
40
-2.7489057563899104
40
-2.7489057563899104
40
-2.3562188591900277
40
-2.3562188591900277
40
-2.3562188591900277
40
-2.3562188591900277
10
109.19860857299042
20
69.998710938928909
30
0
10
109.19860857299042
20
70.416057160833844
30
0
10
109.11470762719033
20
70.837784585466537
30
0
10
108.95503293959614
20
71.223278884623852
30
0
10
108.79537585701897
20
71.608730680903548
30
0
10
108.55639997511814
20
71.96638536809715
30
0
10
108.26139267160565
20
72.261392671612555
30
0
10
107.96638536810241
20
72.556399975118694
30
0
10
107.60873068090916
20
72.795375857016609
30
0
10
107.22327888462388
20
72.955032939596094
30
0
10
106.83778458546658
20
73.114707627190285
30
0
10
106.41605716083379
20
73.198608572990409
30
0
10
105.99871093892892
20
73.198608572990409
30
0
0
LINE
5
146
100
AcDbEntity
8
0
100
AcDbLine
10
105.99871093892892
20
73.198608572990409
30
0
11
-105.99871093894984
21
73.198608572990381
31
0
0
SPLINE
5
147
100
AcDbEntity
8
0
100
AcDbSpline
70
0
71
3
72
17
73
13
74
0
42
0.000000001
43
0.0000000001
44
0.0000000001
40
-3.9269664479895554
40
-3.9269664479895554
40
-3.9269664479895554
40
-3.9269664479895554
40
-3.534279550789674
40
-3.534279550789674
40
-3.534279550789674
40
-3.1415926535897931
40
-3.1415926535897931
40
-3.1415926535897931
40
-2.7489057563899122
40
-2.7489057563899122
40
-2.7489057563899122
40
-2.3562188591900308
40
-2.3562188591900308
40
-2.3562188591900308
40
-2.3562188591900308
10
-105.99871093894983
20
73.198608572990395
30
0
10
-106.41605716082695
20
73.198608572999078
30
0
10
-106.83778458545477
20
73.114707627195202
30
0
10
-107.22327888462394
20
72.955032939596066
30
0
10
-107.60873068090365
20
72.795375857018897
30
0
10
-107.96638536809724
20
72.556399975118083
30
0
10
-108.26139267161264
20
72.261392671605591
30
0
10
-108.55639997511878
20
71.966385368102337
30
0
10
-108.79537585701669
20
71.608730680909147
30
0
10
-108.95503293959619
20
71.223278884623824
30
0
10
-109.1147076271953
20
70.837784585454699
30
0
10
-109.19860857299918
20
70.416057160826938
30
0
10
-109.19860857299048
20
69.998710938949742
30
0
0
ENDSEC
0
SECTION
2
OBJECTS
0
DICTIONARY
5
C
100
AcDbDictionary
3
ACAD_GROUP
350
D
3
ACAD_MLINESTYLE
350
17
0
DICTIONARY
5
D
100
AcDbDictionary
0
DICTIONARY
5
1A
330
C
100
AcDbDictionary
0
DICTIONARY
5
17
100
AcDbDictionary
0
ENDSEC
0
EOF
