<?xml version="1.0" encoding="UTF-8"?>
<svg xmlns="http://www.w3.org/2000/svg" style="display: none;">
  
  <defs>
    <style>
      .fill-current { fill: currentColor; }
      .stroke-current { 
        fill: none; 
        stroke: currentColor; 
        stroke-linecap: round; 
        stroke-linejoin: round; 
        stroke-width: 15px; 
      }
    </style>
  </defs>

  <symbol id="icon-solar" viewBox="0 0 713.42 367.02">
    <path class="fill-current" d="M172.81,232.18l-50.45,63.42h89.68c5.11,0,9.94-2.33,13.12-6.33l45.41-57.09h-97.77Z"/>
    <path class="fill-current" d="M157.06,232.18H59.29l-43.53,54.73c-2.79,3.51-.29,8.69,4.19,8.69h86.67l50.45-63.42Z"/>
    <path class="fill-current" d="M229.56,159.05l-50.45,63.42h97.77l43.53-54.73c2.79-3.51.29-8.69-4.19-8.69h-86.67Z"/>
    <path class="fill-current" d="M213.82,159.05h-89.68c-5.11,0-9.94,2.33-13.12,6.33l-45.41,57.09h97.77l50.45-63.42Z"/>
    <path class="fill-current" d="M413.24,232.18l-50.45,63.42h89.68c5.11,0,9.94-2.33,13.12-6.33l45.41-57.09h-97.77Z"/>
    <path class="fill-current" d="M397.49,232.18h-97.77l-43.53,54.73c-2.79,3.51-.29,8.69,4.19,8.69h86.67l50.45-63.42Z"/>
    <path class="fill-current" d="M469.99,159.05l-50.45,63.42h97.77l43.53-54.73c2.79-3.51.29-8.69-4.19-8.69h-86.67Z"/>
    <path class="fill-current" d="M454.25,159.05h-89.68c-5.11,0-9.94,2.33-13.12,6.33l-45.41,57.09h97.77l50.45-63.42Z"/>
    <path class="fill-current" d="M297.93,73.12l-50.45,63.42h89.68c5.11,0,9.94-2.33,13.12-6.33l45.41-57.09h-97.77Z"/>
    <path class="fill-current" d="M282.19,73.12h-97.77l-43.53,54.73c-2.79,3.51-.29,8.69,4.19,8.69h86.67l50.45-63.42Z"/>
    <path class="fill-current" d="M354.69,0l-50.45,63.42h97.77l43.53-54.73c2.79-3.51.29-8.69-4.19-8.69h-86.67Z"/>
    <path class="fill-current" d="M338.95,0h-89.68c-5.11,0-9.94,2.33-13.12,6.33l-45.41,57.09h97.77L338.95,0Z"/>
    <path class="fill-current" d="M538.36,73.12l-50.45,63.42h89.68c5.11,0,9.94-2.33,13.12-6.33l45.41-57.09h-97.77Z"/>
    <path class="fill-current" d="M522.62,73.12h-97.77l-43.53,54.73c-2.79,3.51-.29,8.69,4.19,8.69h86.67l50.45-63.42Z"/>
    <path class="fill-current" d="M595.12,0l-50.45,63.42h97.77l43.53-54.73c2.79-3.51.29-8.69-4.19-8.69h-86.67Z"/>
    <path class="fill-current" d="M579.38,0h-89.68c-5.11,0-9.94,2.33-13.12,6.33l-45.41,57.09h97.77L579.38,0Z"/>
    <path stroke="currentColor" stroke-width="15" stroke-linecap="round" stroke-linejoin="round" fill="none" d="M7.5,315.6h446.38c11.62,0,22.62-5.23,29.96-14.25L705.92,18.72"/>
    <line stroke="currentColor" stroke-width="15" stroke-linecap="round" stroke-linejoin="round" fill="none" x1="7.5" y1="359.52" x2="705.92" y2="359.52"/>
    <line stroke="currentColor" stroke-width="15" stroke-linecap="round" stroke-linejoin="round" fill="none" x1="644.65" y1="96.7" x2="644.65" y2="359.52"/>
    <line stroke="currentColor" stroke-width="15" stroke-linecap="round" stroke-linejoin="round" fill="none" x1="622.98" y1="124.27" x2="622.98" y2="359.52"/>
    <line stroke="currentColor" stroke-width="15" stroke-linecap="round" stroke-linejoin="round" fill="none" x1="525.63" y1="248.17" x2="525.63" y2="359.52"/>
    <line stroke="currentColor" stroke-width="15" stroke-linecap="round" stroke-linejoin="round" fill="none" x1="505.27" y1="359.52" x2="505.27" y2="274.09"/>
    <line stroke="currentColor" stroke-width="15" stroke-linecap="round" stroke-linejoin="round" fill="none" x1="110.44" y1="359.52" x2="110.44" y2="315.6"/>
    <line stroke="currentColor" stroke-width="15" stroke-linecap="round" stroke-linejoin="round" fill="none" x1="85.83" y1="359.52" x2="85.83" y2="315.6"/>
    <line stroke="currentColor" stroke-width="15" stroke-linecap="round" stroke-linejoin="round" fill="none" x1="622.98" y1="263.89" x2="562.02" y2="201.86"/>
  </symbol>

  <symbol id="icon-waermepumpe" viewBox="0 0 529.32 435.99">
    <path class="fill-current" d="M497.29,0H32.03C14.34,0,0,14.34,0,32.03v371.93c0,17.69,14.34,32.03,32.03,32.03h465.26c17.69,0,32.03-14.34,32.03-32.03V32.03c0-17.69-14.34-32.03-32.03-32.03ZM33.19,13.39h462.94c9.57,0,17.5,6.95,19.07,16.07H14.12c1.57-9.12,9.5-16.07,19.07-16.07ZM496.13,422.6H33.19c-10.7,0-19.37-8.67-19.37-19.37V42.85h501.68v360.38c0,10.7-8.67,19.37-19.37,19.37Z"/>
    <path class="fill-current" d="M346.2,63.75H66.14c-15.33,0-27.75,12.43-27.75,27.75v277.64c0,15.33,12.43,27.75,27.75,27.75h280.06c15.33,0,27.75-12.43,27.75-27.75V91.5c0-15.33-12.43-27.75-27.75-27.75ZM346.92,77.25c7.83,0,14.17,6.34,14.17,14.17v102.09c-13.22-55.86-55.83-100.35-110.6-116.26h96.43ZM351.42,230.46c0,80.39-65.17,145.56-145.56,145.56S60.3,310.85,60.3,230.46,125.47,84.9,205.86,84.9s145.56,65.17,145.56,145.56ZM64.95,77.25h96.43c-54.77,15.91-97.38,60.4-110.6,116.26v-102.09c0-7.83,6.34-14.17,14.17-14.17ZM64.95,383.51c-7.83,0-14.17-6.34-14.17-14.17v-102.09c13.22,55.86,55.83,100.35,110.6,116.26h-96.43ZM346.92,383.51h-96.43c54.77-15.91,97.38-60.4,110.6-116.26v102.09c0,7.83-6.34,14.17-14.17,14.17Z"/>
    <path class="fill-current" d="M312.21,178.82c-21.08-8.99-44.6,4.76-53.95,10.22-3.24,1.89-12.39,7.55-20.69,16.43-1.5-1.91-3.17-3.67-4.99-5.28,1.68-14.02-3.27-35.33,9.17-52.76,10.11-14.17,24.76-16.07,24.27-26.25-.38-7.92-9.56-13.42-13.28-15.65-28.19-16.88-84.82-13.55-98.52,18.57-8.99,21.08,4.76,44.6,10.22,53.95,1.89,3.24,7.55,12.39,16.43,20.69-1.91,1.5-3.67,3.17-5.28,4.99-14.02-1.68-35.33,3.27-52.76-9.17-14.17-10.11-16.07-24.76-26.25-24.27-7.92.38-13.42,9.56-15.65,13.28-16.88,28.19-13.55,84.82,18.57,98.52,21.08,8.99,44.6-4.76,53.95-10.22,3.24-1.89,12.39-7.55,20.69-16.43,1.5,1.91,3.17,3.67,4.99,5.28-1.68,14.02,3.27,35.33-9.17,52.76-10.11,14.17-24.76,16.07-24.27,26.25.38,7.92,9.56,13.42,13.28,15.65,28.19,16.88,84.82,13.55,98.52-18.57,8.99-21.08-4.76-44.6-10.22-53.95-1.89-3.24-7.55-12.39-16.43-20.69,1.91-1.5,3.67-3.17,5.28-4.99,14.02,1.68,35.33-3.27,52.76,9.17,14.17,10.11,16.07,24.76,26.25,24.27,7.92-.38,13.42-9.56,15.65-13.28,16.88-28.19,13.55-84.82-18.57-98.52ZM205.86,256.74c-14.59,0-26.42-11.83-26.42-26.42s11.83-26.42,26.42-26.42,26.42,11.83,26.42,26.42-11.83,26.42-26.42,26.42Z"/>
    <rect class="fill-current" x="396.75" y="144.28" width="96" height="13.93" rx="6.96" ry="6.96"/>
    <rect class="fill-current" x="396.75" y="184.06" width="96" height="13.93" rx="6.96" ry="6.96"/>
    <rect class="fill-current" x="397.78" y="223.84" width="96" height="13.93" rx="6.96" ry="6.96"/>
    <rect class="fill-current" x="396.96" y="263.62" width="96" height="13.93" rx="6.96" ry="6.96"/>
    <rect class="fill-current" x="396.75" y="303.4" width="96" height="13.93" rx="6.96" ry="6.96"/>
    <rect class="fill-current" x="396.75" y="343.46" width="96" height="13.93" rx="6.96" ry="6.96"/>
    <rect class="fill-current" x="396.96" y="383.51" width="96" height="13.93" rx="6.96" ry="6.96"/>
  </symbol>

  <symbol id="icon-wechselrichter" viewBox="0 0 397.55 364.15">
      <rect class="fill-current" x="74.44" y="323.69" width="13.86" height="40.45" rx="6.93" ry="6.93"/>
      <rect class="fill-current" x="98.47" y="323.69" width="13.86" height="40.45" rx="6.93" ry="6.93"/>
      <rect class="fill-current" x="122.5" y="323.69" width="13.86" height="40.45" rx="6.93" ry="6.93"/>
      <rect class="fill-current" x="146.52" y="323.69" width="13.86" height="40.45" rx="6.93" ry="6.93"/>
      <rect class="fill-current" x="170.55" y="323.69" width="13.86" height="40.45" rx="6.93" ry="6.93"/>
      <path class="fill-current" d="M248.81,328.67h42.32v20.23c0,8.42-6.83,15.25-15.25,15.25h-11.82c-8.42,0-15.25-6.83-15.25-15.25v-20.23h0Z"/>
      <path class="fill-current" d="M309.16,328.67h42.32v20.23c0,8.42-6.83,15.25-15.25,15.25h-11.82c-8.42,0-15.25-6.83-15.25-15.25v-20.23h0Z"/>
      
      <path class="fill-current" d="M367.27,0H30.28C13.56,0,0,13.56,0,30.28v273.84c0,16.72,13.56,30.28,30.28,30.28h336.99c16.72,0,30.28-13.56,30.28-30.28V30.28c0-16.72-13.56-30.28-30.28-30.28ZM42.28,174.13h-24.75c-3.04,0-5.51-2.47-5.51-5.51s2.47-5.51,5.51-5.51h24.75c3.04,0,5.51,2.47,5.51,5.51s-2.47,5.51-5.51,5.51ZM42.28,148.22h-24.75c-3.04,0-5.51-2.47-5.51-5.51s2.47-5.51,5.51-5.51h24.75c3.04,0,5.51,2.47,5.51,5.51s-2.47,5.51-5.51,5.51ZM42.28,122.3h-24.75c-3.04,0-5.51-2.47-5.51-5.51s2.47-5.51,5.51-5.51h24.75c3.04,0,5.51,2.47,5.51,5.51s-2.47,5.51-5.51,5.51ZM47.79,90.87c0,3.04-2.47,5.51-5.51,5.51h-24.75c-3.04,0-5.51-2.47-5.51-5.51h0c0-3.04,2.47-5.51,5.51-5.51h24.75c3.04,0,5.51,2.47,5.51,5.51h0ZM42.28,70.46h-24.75c-3.04,0-5.51-2.47-5.51-5.51s2.47-5.51,5.51-5.51h24.75c3.04,0,5.51,2.47,5.51,5.51s-2.47,5.51-5.51,5.51ZM384.16,302.15c0,10.16-8.24,18.39-18.39,18.39H79.42c-10.16,0-18.39-8.24-18.39-18.39V33.21c0-10.16,8.24-18.39,18.39-18.39h286.35c10.16,0,18.39,8.24,18.39,18.39v268.94Z"/>
      
      <path class="fill-current" d="M283.88,101.31c3.32,0,6.03,2.7,6.03,6.03v122.58c0,3.32-2.7,6.03-6.03,6.03h-122.58c-3.32,0-6.03-2.7-6.03-6.03v-122.58c0-3.32,2.7-6.03,6.03-6.03h122.58M283.88,87.31h-122.58c-11.06,0-20.03,8.97-20.03,20.03v122.58c0,11.06,8.97,20.03,20.03,20.03h122.58c11.06,0,20.03-8.97,20.03-20.03v-122.58c0-11.06-8.97-20.03-20.03-20.03h0Z"/>
      <rect class="fill-current" x="120.84" y="161.32" width="203.11" height="13.99" transform="translate(-53.88 206.56) rotate(-45)"/>
      
      <path stroke="currentColor" stroke-width="15" stroke-linecap="round" stroke-linejoin="round" fill="none" d="M172.19,131.92c3.15-4.74,7.27-9.05,12.14-9.11,10.36-.11,15.24,19.1,25.55,18.96,3.29-.05,7.44-2.07,12.21-9.38"/>
      <line stroke="currentColor" stroke-width="15" stroke-linecap="round" stroke-linejoin="round" fill="none" x1="232.57" y1="201.38" x2="272.28" y2="201.38"/>
      <line stroke="currentColor" stroke-width="15" stroke-linecap="round" stroke-linejoin="round" fill="none" x1="232.57" y1="218.32" x2="245.37" y2="218.32"/>
      <line stroke="currentColor" stroke-width="15" stroke-linecap="round" stroke-linejoin="round" fill="none" x1="259.48" y1="218.32" x2="272.28" y2="218.32"/>
      
      <circle class="fill-current" cx="84.31" cy="38.22" r="11.01"/>
      <circle class="fill-current" cx="359.88" cy="38.22" r="11.01"/>
      <circle class="fill-current" cx="360.38" cy="297.46" r="11.01"/>
      <circle class="fill-current" cx="84.8" cy="297.46" r="11.01"/>
  </symbol>
</svg>
