<svg width="36" height="34" viewBox="0 0 36 34" fill="none" xmlns="http://www.w3.org/2000/svg">
<path d="M17.9375 0.5C27.6173 0.5 35.4959 8.06826 35.4961 17.4424C35.4961 25.4514 29.8689 31.7981 24.085 33.2158C23.8432 33.2751 23.5947 33.147 23.502 32.916L19.5674 23.0996C19.517 22.9737 19.5197 22.8327 19.5752 22.709C19.6307 22.5852 19.7347 22.4894 19.8623 22.4434C21.0069 22.0307 21.8359 21.4433 22.3838 20.6543C22.9323 19.8643 23.2334 18.8226 23.2334 17.4424C23.2332 14.8227 20.944 12.4754 18.0576 12.4707C14.9888 12.466 12.7279 14.8197 12.7637 17.4355C12.7826 18.8133 13.1288 19.9265 13.7119 20.7676C14.2933 21.6061 15.1288 22.2022 16.1758 22.5225C16.3108 22.5638 16.4224 22.6603 16.4824 22.7881C16.5424 22.916 16.5448 23.064 16.4902 23.1943L12.4287 32.8955C12.3332 33.1235 12.0845 33.2478 11.8447 33.1875C6.17933 31.7634 0.5 25.332 0.5 17.4424C0.500172 8.07291 8.25311 0.500151 17.9375 0.5Z" stroke="url(#paint0_linear_562_315)" stroke-linecap="round" stroke-linejoin="round"/>
<defs>
<linearGradient id="paint0_linear_562_315" x1="34.9963" y1="16.865" x2="1" y2="16.865" gradientUnits="userSpaceOnUse">
<stop stop-color="#6C6F6C"/>
<stop offset="0.5" stop-color="#CFD5CF"/>
<stop offset="1" stop-color="#6C6F6C"/>
</linearGradient>
</defs>
</svg>
