<?xml version="1.0" encoding="UTF-8"?>
<svg id="Ebene_2" data-name="Ebene 2" xmlns="http://www.w3.org/2000/svg" viewBox="0 0 853.28 172.49">
  <defs>
    <style>
      .cls-1 {
        fill: #fff;
      }
    </style>
  </defs>
  <g id="svg2">
    <g id="g12">
      <path id="path14" class="cls-1" d="M217.75,31.77h87.49v17.79h-34.3v91.16h-18.26V49.56h-34.93v-17.79Z"/>
    </g>
    <path id="path16" class="cls-1" d="M280.39,62.15h17.94v78.56h-17.94V62.15Z"/>
    <g id="g20">
      <g id="g26">
        <path id="path28" class="cls-1" d="M306.31,140.71V62.15h17.95v3.93s11.49-5.82,20.15-5.82c20.62,0,26.77,14.49,26.77,39.36v41.09h-17.95v-40.94c0-13.38-1.89-23.14-12.28-23.14-6.93,0-16.69,3.94-16.69,3.94v60.14s-17.95,0-17.95,0Z"/>
      </g>
      <g id="g30">
        <path id="path32" class="cls-1" d="M465.82,95.22c0-13.07-4.09-19.84-14.96-19.84s-15.27,7.24-15.43,19.84h30.38ZM480.63,125.28l.31,13.38s-14.8,3.78-29.91,3.78c-24.4,0-33.53-14.01-33.53-40.15s11.49-42.03,33.38-42.03,32.75,13.23,32.75,35.9l-1.25,12.75h-46.76c.15,10.39,4.56,17.79,16.84,17.79,11.18,0,28.19-1.42,28.19-1.42"/>
      </g>
      <g id="g34">
        <path id="path36" class="cls-1" d="M487.56,62.15h17.94v8.34s9.76-7.56,22.83-10.23v19.21c-14.32,2.83-22.83,7.55-22.83,7.55v53.69h-17.94V62.15Z"/>
      </g>
      <g id="g54">
        <path id="path56" class="cls-1" d="M400.86,98.99l22.04-36.84h-20.16l-18.1,29.44-7.22,1.01c.12,2.7.12,5.1.12,7.02v10.27l7.57-1.14,18.42,31.96h20.31l-22.99-41.72ZM358.83,56.62c12.24,5.36,16.48,17.67,17.95,28.45V29.56h-17.95v27.06Z"/>
      </g>
      <g id="g60">
        <path id="path62" class="cls-1" d="M109.37,62.15h-18.27v78.56h18.27c0-26.19,0-52.37,0-78.56Z"/>
      </g>
      <g id="g64">
        <path id="path66" class="cls-1" d="M28.77,31.77v17.79h31.72v91.16h18.26V49.56h30.86v-17.79H28.77Z"/>
      </g>
      <g id="g68">
        <path id="path70" class="cls-1" d="M0,0v10.36h162.13v141.41h10.35V0H0ZM10.36,20.72H0v151.77h172.49v-10.36H10.36s0-141.41,0-141.41Z"/>
      </g>
      <path id="path62-1" class="cls-1" d="M142.26,31.75h-18.26v108.94h18.26c0-36.27,0-72.66,0-108.94Z"/>
    </g>
    <path id="path62-3" class="cls-1" d="M135.21,140.71v-18.27h-44.06v18.26c14.69,0,29.37,0,44.06,0h0Z"/>
    <g id="text3122">
      <path id="path3899" class="cls-1" d="M543.69,59.75h14.27v40.8c0,11.25,2.04,19.36,6.12,24.33,4.08,4.92,10.69,7.38,19.83,7.38s15.68-2.46,19.76-7.38c4.08-4.97,6.12-13.08,6.12-24.33v-63.77h14.27v65.53c0,13.69-3.4,24.02-10.2,31.01-6.75,6.98-16.73,10.48-29.95,10.48s-23.3-3.49-30.09-10.48c-6.75-6.98-10.12-17.32-10.12-31.01v-42.55"/>
      <path id="path3901" class="cls-1" d="M697.13,94.22v47.53h-12.94v-47.11c0-7.45-1.45-13.03-4.36-16.73-2.91-3.7-7.27-5.55-13.08-5.55-6.98,0-12.49,2.23-16.52,6.68-4.03,4.45-6.05,10.52-6.05,18.21v44.51h-13.01V63h13.01v12.23c3.09-4.73,6.73-8.27,10.9-10.62,4.22-2.34,9.07-3.52,14.55-3.52,9.05,0,15.89,2.81,20.53,8.44,4.64,5.58,6.96,13.8,6.96,24.68"/>
      <path id="path3903" class="cls-1" d="M706.17,63h12.94v78.75h-12.94V63M706.17,32.34h12.94v16.38h-12.94v-16.38"/>
      <path id="path3905" class="cls-1" d="M747.81,40.64v22.36h26.65v10.05h-26.65v42.75c0,6.42.87,10.55,2.6,12.37,1.78,1.83,5.37,2.74,10.76,2.74h13.29v10.83h-13.29c-9.98,0-16.88-1.85-20.67-5.55-3.8-3.75-5.7-10.55-5.7-20.39v-42.75h-9.49v-10.05h9.49v-22.36h13.01"/>
      <path id="path3907" class="cls-1" d="M818.69,149.42c-3.66,9.37-7.22,15.49-10.69,18.35-3.47,2.86-8.11,4.29-13.92,4.29h-10.34v-10.83h7.59c3.56,0,6.33-.84,8.3-2.53,1.97-1.69,4.15-5.67,6.54-11.95l2.32-5.91-31.85-77.48h13.71l24.61,61.59,24.61-61.59h13.71l-34.59,86.06"/>
    </g>
  </g>
</svg>