<?xml version="1.0" encoding="UTF-8"?>
<svg id="Ebene_2" data-name="Ebene 2" xmlns="http://www.w3.org/2000/svg" viewBox="0 0 832.5 178.75">
  <defs>
    <style>
      .cls-1 {
        fill: none;
      }

      .cls-2 {
        fill: #fff;
      }
    </style>
  </defs>
  <g id="svg2">
    <rect class="cls-1" width="832.5" height="178.75"/>
    <g id="g16">
      <path id="path22" class="cls-2" d="M217.75,31.77h87.49v17.79h-34.3v91.15h-18.27V49.56h-34.93v-17.79Z"/>
      <path id="path24" class="cls-2" d="M280.39,140.71h17.94V62.15h-17.94v78.56Z"/>
    </g>
    <g id="g26">
      <rect class="cls-1" width="831.25" height="177.5"/>
      <g id="g28">
        <path id="path34" class="cls-2" d="M306.31,140.71V62.15h17.95v3.94s11.49-5.83,20.15-5.83c20.62,0,26.76,14.48,26.76,39.36v41.09h-17.95v-40.93c0-13.38-1.89-23.14-12.28-23.14-6.92,0-16.68,3.94-16.68,3.94v60.14s-17.95,0-17.95,0Z"/>
        <path id="path36" class="cls-2" d="M465.83,95.21c0-13.07-4.09-19.84-14.96-19.84s-15.27,7.25-15.42,19.84h30.38,0ZM480.62,125.28l.31,13.38s-14.8,3.78-29.91,3.78c-24.4,0-33.53-14.01-33.53-40.15s11.49-42.04,33.37-42.04,32.74,13.23,32.74,35.9l-1.26,12.75h-46.76c.15,10.4,4.56,17.79,16.84,17.79,11.18,0,28.18-1.42,28.18-1.42"/>
        <path id="path38" class="cls-2" d="M487.56,62.15h17.94v8.34s9.76-7.56,22.83-10.23v19.21c-14.32,2.83-22.83,7.55-22.83,7.55v53.69h-17.94V62.15Z"/>
        <path id="path40" class="cls-2" d="M648.03,100.57c0-19.37-5.51-29.75-20.62-29.75-16.05,0-20.94,9.44-20.94,29.44s3.3,31.8,20.94,31.8,20.62-12.28,20.62-31.49M660.15,100.57c0,25.66-7.08,41.72-32.74,41.72s-33.06-14.8-33.06-42.04c0-25.51,8.19-39.83,33.06-39.83s32.74,14.8,32.74,40.15"/>
        <path id="path42" class="cls-2" d="M665.12,61.99h11.81v10.4s11.81-8.97,26.13-11.97v12.28c-14.01,2.84-26.13,10.55-26.13,10.55v57.46h-11.81V61.99Z"/>
        <path id="path44" class="cls-2" d="M749.66,87.34c0-11.49-5.99-17-17.64-17-10.86,0-16.68,6.45-16.68,17s5.35,16.85,16.37,16.85,17.95-5.2,17.95-16.85M723.05,138.98c-5.67,4.56-8.82,7.87-8.82,14.01,0,10.86,7.56,14.96,21.57,14.96s22.51-5.35,22.51-15.74-5.98-12.6-19.37-12.6c-5.51,0-15.89-.62-15.89-.62M702.42,153.94c0-8.66,5.2-14.17,12.6-19.68-2.99-1.89-4.41-5.83-4.41-10.71,0-2.99,5.36-12.75,5.36-12.75-6.46-3.62-12.44-10.23-12.44-23.46,0-17.48,12.44-26.92,28.65-26.92,7.24,0,14.33,2.05,14.33,2.05l24.09-.47v9.92h-14.64c2.83,2.99,5.5,7.87,5.5,15.43,0,18.89-11.18,26.61-29.75,26.61-1.42,0-5.36-.31-6.93-.63,0,0-2.83,6.93-2.83,8.98,0,6.29,1.1,7.24,17.94,7.24,21.26,0,30.39,4.41,30.39,22.2s-14.01,26.61-34.64,26.61-33.22-6.29-33.22-24.4"/>
        <path id="path46" class="cls-2" d="M820.58,96.95c0-18.74-6.29-26.45-19.04-26.45s-20.32,8.18-20.47,26.45h39.51ZM829.24,130.48l.32,9.29s-15.9,2.52-29.12,2.52c-23.14,0-31.33-15.27-31.33-40.46,0-28.02,12.44-41.4,32.43-41.4s30.85,11.96,30.85,36.84l-.63,8.97h-50.54c0,14.48,4.73,25.67,20,25.67,11.18,0,28.02-1.42,28.02-1.42"/>
        <path id="path48" class="cls-2" d="M400.86,98.99l22.04-36.84h-20.15l-18.11,29.44-7.22,1.01c.12,2.7.12,5.1.12,7.02v10.27l7.57-1.14,18.42,31.96h20.31l-22.98-41.72h0ZM358.83,56.62c12.24,5.36,16.49,17.67,17.95,28.45V29.57h-17.95v27.06Z"/>
        <path id="path50" class="cls-2" d="M534.93,42.47h64.71v-11.34h-64.71v11.34ZM546.9,59.72h-11.97v80.99h11.97v-44.39h43.29v-11.02h-43.29v-25.58Z"/>
        <path id="path52" class="cls-2" d="M112.35,62.15h-18.27v78.56h18.27v-39.04h28.36v-16.68h-28.36s0-22.83,0-22.83Z"/>
        <path id="path54" class="cls-2" d="M31.77,31.77v17.79h31.72v91.15h18.26V49.56h58.96v-17.79s-108.94,0-108.94,0Z"/>
        <path id="path56" class="cls-2" d="M0,0v10.35h162.13v141.41h10.36V0H0ZM10.36,20.71H0v151.77h172.49v-10.36H10.36s0-141.42,0-141.42Z"/>
      </g>
    </g>
  </g>
</svg>