<?xml version="1.0" encoding="UTF-8"?>
<svg id="Ebene_2" data-name="Ebene 2" xmlns="http://www.w3.org/2000/svg" viewBox="0 0 477.6 111.36">
  <defs>
    <style>
      .cls-1 {
        fill: #fff;
      }
    </style>
  </defs>
  <g id="svg8632">
    <g id="g114">
      <g id="g120">
        <path id="path122" class="cls-1" d="M4.56,0c.08.54.23,1.09.23,1.63.01,18.04.01,36.08.01,54.11v1.6h100.56q1.62,0,1.62,1.61,0,2.71-2.74,2.71H2.3q-1.8,0-1.8-1.85c0-19.4,0-38.8.02-58.19,0-.54.29-1.08.44-1.62h3.6Z"/>
      </g>
      <g id="g124">
        <path id="path126" class="cls-1" d="M3.21,99.34c2.6,0,5.08.06,7.54-.02,1.61-.06,2.76-1.49,2.68-3.09-.07-1.52-1.23-2.62-2.85-2.64-2.2-.03-4.39-.01-6.59,0-.26,0-.52.09-.79.14v5.61ZM3.16,108.21c3.24,0,6.35.08,9.45-.03,1.44-.06,2.35-1.46,2.28-3.03-.07-1.43-1.15-2.61-2.59-2.64-2.76-.05-5.51-.04-8.27.01-.29,0-.81.44-.82.69-.08,1.62-.04,3.25-.04,4.99M0,90.24c3.43,0,6.86,0,10.29.02,3.45.02,6.28,2.5,6.39,5.94.05,1.35-.64,2.72-1.03,4.23,1.14.83,2.04,2.14,2.41,3.81.56,2.51-.71,5.17-3.14,6.5-.34.19-.67.41-1,.61H0s0-21.12,0-21.12Z"/>
      </g>
      <g id="g128">
        <path id="path130" class="cls-1" d="M364.62,101c0-4.21-3.12-7.41-7.25-7.42-4.14-.01-7.37,3.12-7.39,7.16-.02,4.22,3.11,7.47,7.2,7.49,4.21.01,7.44-3.12,7.45-7.23M354.78,111.36c-.76-.34-1.53-.65-2.27-1.02-4.19-2.11-6.31-6.49-5.8-10.42.67-5.18,4.11-8.6,8.89-9.47,6.21-1.13,12.33,3.96,12.32,10.52,0,4.37-2.93,8.44-7.04,9.92-.37.13-.71.32-1.07.48h-5.04Z"/>
      </g>
      <g id="g132">
        <path id="path134" class="cls-1" d="M390.86,93.6v8.65c1.51,0,2.9.02,4.3,0,2.29-.03,4.1-1.76,4.25-4.03.15-2.3-1.51-4.39-3.81-4.59-1.54-.13-3.1-.02-4.74-.02M387.41,111.36c0-6.55.05-13.1,0-19.65,0-1.17.36-1.53,1.5-1.47,2.46.13,4.95-.03,7.4.25,3.01.35,5.6,2.88,6.17,5.6.7,3.33-.59,6.41-3.44,8.26-.13.08-.24.19-.46.36,1.4,2.23,2.79,4.44,4.18,6.65h-3.84c-.69-1.11-1.5-2.17-2.04-3.35-1.02-2.27-2.68-2.98-5.05-2.64-.78.11-1.13.22-1.1,1.09.07,1.63.03,3.27.03,4.91h-3.36Z"/>
      </g>
      <g id="g136">
        <path id="path138" class="cls-1" d="M430.34,111.36c-2.25-.7-4.14-1.91-5.75-3.68-3.7-4.08-3.05-11.3,1.19-14.83,4.95-4.11,11.82-2.97,15.36,1.76-.78.62-1.57,1.25-2.43,1.93-1.29-1.39-2.69-2.39-4.53-2.8-4.27-.96-8.45,2.33-8.72,6.34-.22,3.17.89,5.58,3.55,7.16,2.63,1.57,5.34,1.37,7.9-.32,1.01-.67,1.01-.75.75-2.8-1.19,0-2.41-.06-3.62.02-1.11.07-1.59-.23-1.53-1.45.11-2.16-.21-1.87,1.96-1.89,1.88-.01,3.76.03,5.63-.02.8-.02,1.05.27,1.02,1.04-.05,1.16-.16,2.34.02,3.47.32,2.05-.78,3.26-2.3,4.19-1.17.72-2.46,1.26-3.7,1.88h-4.8Z"/>
      </g>
      <g id="g140">
        <path id="path142" class="cls-1" d="M280.55,93.59v8.65c1.57,0,3.04.02,4.52,0,2.27-.04,4.11-1.89,4.21-4.21.1-2.2-1.63-4.25-3.86-4.41-1.58-.12-3.18-.02-4.86-.02M277.3,111.36c0-6.6.02-13.19-.02-19.79,0-1.07.29-1.39,1.34-1.33,2.47.13,4.96-.04,7.4.26,3.3.4,5.64,2.75,6.3,5.87.64,3.03-.65,6.09-3.33,7.9-.19.13-.39.26-.66.45,1.46,2.25,2.89,4.45,4.32,6.64h-4.08c-.62-1.08-1.36-2.12-1.85-3.26-1.01-2.37-2.73-3.11-5.18-2.73-.77.12-1.14.26-1.11,1.11.04,1.63,0,3.26-.02,4.88,0,0-3.12,0-3.12,0Z"/>
      </g>
      <g id="g144">
        <path id="path146" class="cls-1" d="M462.25,111.36c0-6.59.04-13.19,0-19.78,0-1.06.27-1.36,1.34-1.34,4.23.06,8.47.05,12.7,0,1.01-.01,1.4.33,1.28,1.32-.02.2-.03.4,0,.6.15,1.08-.25,1.48-1.39,1.45-3.03-.07-6.07-.02-9.11-.02h-1.39v7.88c.39.02.81.06,1.23.06,2.2,0,4.39.02,6.59,0,.69,0,1.02.16,1,.93-.07,2.94.32,2.33-2.29,2.38-1.88.03-3.76.03-5.63,0-.69-.01-1.05.16-1,.93.05.75.01,1.51.01,2.42.48.02.9.07,1.32.07,3.2,0,6.39.03,9.59-.01.85,0,1.15.26,1.09,1.1-.05.67.01,1.36.03,2.04h-15.35Z"/>
      </g>
      <g id="g148">
        <path id="path150" class="cls-1" d="M161.2,111.36v-20.78c.1-.05.19-.1.29-.15,4.78,4.54,9.56,9.08,14.47,13.75.04-.46.09-.74.09-1.03,0-3.84.04-7.67-.02-11.5-.02-1.09.27-1.56,1.39-1.4.5.07,1.03.01,1.76.01v21.1h-.48c-.07-.1-.12-.21-.2-.29-4.39-4.23-8.79-8.46-13.19-12.68-.24-.23-.55-.4-1-.71v13.68h-3.12Z"/>
      </g>
      <g id="g152">
        <path id="path154" class="cls-1" d="M239.64,111.36c.07-2.11.19-4.23.2-6.34.03-4.56.03-9.12,0-13.68,0-.83.23-1.11,1.08-1.1,4.32.04,8.63.03,12.95,0,.83,0,1.2.28,1.11,1.12,0,.08,0,.16,0,.24q.02,1.98-1.91,1.98h-9.99v7.89h8.71v3.19h-5.61c-.8,0-1.61-.06-2.39.04-.28.03-.71.41-.74.67-.09.9-.03,1.81-.03,2.87h11.75v3.12h-15.11Z"/>
      </g>
      <g id="g156">
        <path id="path158" class="cls-1" d="M201.74,111.36c0-6.6.03-13.2-.02-19.8,0-1.08.32-1.47,1.36-1.31.27.04.56.03.84,0,.92-.1,1.17.34,1.15,1.2-.04,2.64-.01,5.27-.01,7.64.88-.76,1.95-1.55,2.88-2.5,1.64-1.69,3.23-3.43,4.76-5.22.75-.88,1.57-1.25,2.71-1.13.74.08,1.49.01,2.58.01-.88,1.03-1.54,1.83-2.25,2.6-1.46,1.59-2.93,3.17-4.41,4.73-.66.69-.78,1.26-.19,2.16,2.4,3.68,4.69,7.43,7.01,11.15.08.13.1.3.15.45h-3.84c-.84-1.44-1.65-2.9-2.52-4.32-1.2-1.96-2.45-3.9-3.75-5.97-.86.91-1.55,1.73-2.33,2.44-.75.68-1,1.45-.97,2.45.05,1.8,0,3.6-.02,5.4h-3.12Z"/>
      </g>
      <g id="g160">
        <path id="path162" class="cls-1" d="M314.24,111.36c.01-6.52.05-13.03,0-19.55,0-1.19.28-1.6,1.53-1.57,4.16.08,8.31.06,12.47,0,1.06-.01,1.39.27,1.34,1.34-.11,2.28.27,1.99-1.97,2-3.28.01-6.55,0-9.93,0v7.91h8.69v3.3h-8.78v6.56h-3.36Z"/>
      </g>
      <g id="g164">
        <path id="path166" class="cls-1" d="M43.42,111.36c0-2.24.2-4.5-.05-6.7-.14-1.21-.96-2.39-1.62-3.49-2.01-3.31-4.09-6.57-6.14-9.85-.16-.25-.24-.56-.44-1.04,1.2,0,2.22-.07,3.23.04.33.04.68.5.9.85,1.9,3,3.78,6.01,5.76,9.18,1.05-1.64,2.04-3.2,3.03-4.76,1-1.59,1.99-3.18,3.01-4.76.16-.24.46-.52.71-.53,1.02-.06,2.04-.03,3.37-.03-.7,1.17-1.22,2.08-1.78,2.97-1.95,3.11-3.95,6.19-5.84,9.33-.45.74-.71,1.68-.75,2.55-.1,2.07-.02,4.15,0,6.23h-3.36Z"/>
      </g>
      <g id="g168">
        <path id="path170" class="cls-1" d="M103.87,111.36v-17.78c-2.1,0-4.09-.06-6.07.02-1.1.05-1.46-.27-1.41-1.39.11-2.25-.24-1.94,2.02-1.95,4.95-.01,9.91.02,14.87-.03,1.07-.01,1.39.33,1.36,1.38-.06,1.97,0,1.97-1.94,1.97h-5.71v17.78s-3.12,0-3.12,0Z"/>
      </g>
      <g id="g176">
        <path id="path178" class="cls-1" d="M135.05,111.36c0-6.55,0-13.1,0-19.65,0-1.45,0-1.4,1.71-1.47,1.11-.05,1.64.15,1.63,1.47-.05,6.55,0,13.1,0,19.65h-3.36Z"/>
      </g>
      <g id="g192">
        <path id="path194" class="cls-1" d="M225.19,28.79V4.56h-1.57c-32.98,0-65.96,0-98.94,0q-1.6,0-1.6-1.63,0-2.68,2.71-2.68h102.18q1.6,0,1.6,1.63v58.19q0,1.59-1.52,1.59-2.8,0-2.8-2.83v-25.65h-97.85v28.46c-1.31,0-2.5.03-3.68-.03-.22-.01-.5-.34-.6-.58-.11-.28-.04-.63-.04-.95,0-9.96.02-19.92-.03-29.88,0-1.14.29-1.47,1.45-1.47,33.02.03,66.04.03,99.06.03h1.62Z"/>
      </g>
      <g id="g196">
        <path id="path198" class="cls-1" d="M470.12,4.54h-101.81V.22h1.45c34.46,0,68.92,0,103.38-.03,1.16,0,1.57.21,1.56,1.49-.06,10-.05,20,0,30,0,1.15-.31,1.46-1.47,1.46-33.02-.03-66.04-.02-99.06-.02h-1.68v1.55c0,8.56-.02,17.12.02,25.68,0,1.03-.21,1.47-1.32,1.36-.94-.1-1.9-.02-2.92-.02V28.81h101.84s0-24.27,0-24.27Z"/>
      </g>
      <g id="g200">
        <path id="path202" class="cls-1" d="M249.74,61.64h-4.02V28.82h101.78V4.61h-101.78V.29c.4-.02.82-.06,1.24-.06,34.54,0,69.07,0,103.61-.03,1.14,0,1.38.36,1.38,1.42-.04,9.96-.02,19.92-.02,29.87q0,1.63-1.6,1.63h-100.58s0,28.52,0,28.52Z"/>
      </g>
      <g id="g204">
        <path id="path206" class="cls-1" d="M51.54,22.73c0-7.08.02-14.16-.02-21.24,0-.97.23-1.31,1.26-1.3,3.09.04,3.09,0,3.09,3.05,0,13.56-.01,27.12.03,40.68,0,1.13-.27,1.51-1.44,1.48-2.91-.08-2.91-.02-2.91-2.98v-19.68Z"/>
      </g>
      <g id="g208">
        <path id="path210" class="cls-1" d="M102.71,45.37V.23c1.26,0,2.48-.03,3.69.03.2,0,.45.35.55.59.1.24.03.55.03.83,0,14.08-.01,28.15.03,42.23,0,1.12-.24,1.61-1.44,1.48-.9-.1-1.82-.02-2.86-.02"/>
      </g>
      <g id="g212">
        <path id="path214" class="cls-1" d="M351.92,53.52c0,2.36-.03,4.71.01,7.07.01.81-.2,1.11-1.06,1.12-3.28.03-3.28.06-3.28-3.2,0-4.07.02-8.15-.02-12.22,0-.86.2-1.18,1.12-1.18,3.22,0,3.22-.04,3.22,3.15v5.27Z"/>
      </g>
    </g>
  </g>
</svg>