<?xml version="1.0" encoding="UTF-8" standalone="no"?>
<svg
   version="1.1"
   id="svg8632"
   viewBox="0 0 592.77096 77.150852"
   height="21.773685mm"
   width="167.29314mm"
   xmlns="http://www.w3.org/2000/svg"
   xmlns:svg="http://www.w3.org/2000/svg"
   xmlns:rdf="http://www.w3.org/1999/02/22-rdf-syntax-ns#"
   xmlns:cc="http://creativecommons.org/ns#"
   xmlns:dc="http://purl.org/dc/elements/1.1/">
  <defs
     id="defs8634">
    <clipPath
       id="clipPath116"
       clipPathUnits="userSpaceOnUse">
      <path
         id="path118"
         d="M 0,1224 H 1800 V 0 H 0 Z" />
    </clipPath>
  </defs>
  <metadata
     id="metadata8637">
    <rdf:RDF>
      <cc:Work
         rdf:about="">
        <dc:format>image/svg+xml</dc:format>
        <dc:type
           rdf:resource="http://purl.org/dc/dcmitype/StillImage" />
      </cc:Work>
    </rdf:RDF>
  </metadata>
  <g
     transform="translate(-2.832832,-911.33377)"
     id="layer1">
    <g
       id="g112"
       transform="matrix(1.25,0,0,-1.25,-818.88621,1228.4334)">
      <g
         clip-path="url(#clipPath116)"
         id="g114">
        <g
           transform="translate(661.4375,253.6797)"
           id="g120"
           style="fill:#ffffff">
          <path
             id="path122"
             style="fill:#ffffff;fill-opacity:1;fill-rule:nonzero;stroke:none"
             d="m 0,0 c 0.08,-0.543 0.229,-1.087 0.23,-1.631 0.012,-18.038 0.01,-36.076 0.01,-54.114 v -1.597 h 1.615 98.94 c 1.619,0 1.619,-0.001 1.62,-1.613 10e-4,-2.709 10e-4,-2.709 -2.738,-2.709 H -2.261 c -1.801,0 -1.801,0 -1.801,1.846 0,19.397 -0.004,38.796 0.019,58.193 0.001,0.542 0.29,1.084 0.445,1.625 z" />
        </g>
        <g
           transform="translate(882.0679,224.8945)"
           id="g192"
           style="fill:#ffffff">
          <path
             id="path194"
             style="fill:#ffffff;fill-opacity:1;fill-rule:nonzero;stroke:none"
             d="m 0,0 v 24.225 h -1.569 c -32.98,0 -65.96,0 -98.94,10e-4 -1.597,0 -1.597,0 -1.597,1.628 -0.001,2.676 0,2.676 2.711,2.676 H 2.782 c 1.595,0 1.595,0 1.595,-1.634 v -58.193 c 0,-1.59 -10e-4,-1.59 -1.518,-1.591 -2.8,-0.002 -2.8,-0.002 -2.8,2.825 v 24.117 1.533 h -97.85 v -28.464 c -1.312,0 -2.497,-0.029 -3.677,0.027 -0.216,0.011 -0.504,0.338 -0.597,0.581 -0.107,0.282 -0.04,0.631 -0.04,0.951 -10e-4,9.959 0.018,19.918 -0.027,29.877 -0.005,1.143 0.288,1.467 1.451,1.466 C -67.662,-0.006 -34.642,0 -1.622,0 Z" />
        </g>
        <g
           transform="translate(1127.0029,249.1357)"
           id="g196"
           style="fill:#ffffff">
          <path
             id="path198"
             style="fill:#ffffff;fill-opacity:1;fill-rule:nonzero;stroke:none"
             d="m 0,0 h -101.808 v 4.324 h 1.453 c 34.46,0 68.92,-0.005 103.38,0.025 C 4.187,4.35 4.596,4.137 4.589,2.854 4.528,-7.145 4.536,-17.145 4.581,-27.144 c 0.005,-1.153 -0.314,-1.462 -1.465,-1.461 -33.021,0.03 -66.042,0.024 -99.063,0.024 h -1.677 v -1.545 c 0,-8.56 -0.017,-17.118 0.022,-25.678 0.005,-1.025 -0.213,-1.467 -1.315,-1.356 -0.939,0.095 -1.896,0.019 -2.919,0.019 v 32.874 H 0 Z" />
        </g>
        <g
           transform="translate(906.6182,192.0371)"
           id="g200"
           style="fill:#ffffff">
          <path
             id="path202"
             style="fill:#ffffff;fill-opacity:1;fill-rule:nonzero;stroke:none"
             d="M 0,0 H -4.016 V 32.819 H 97.761 V 57.035 H -4.021 v 4.32 c 0.401,0.022 0.822,0.065 1.242,0.065 34.536,0.004 69.072,-0.003 103.608,0.029 1.145,0.001 1.379,-0.358 1.375,-1.424 -0.037,-9.958 -0.021,-19.916 -0.021,-29.874 0,-1.632 -0.001,-1.633 -1.599,-1.633 H 1.652 0 Z" />
        </g>
        <g
           transform="translate(708.4229,230.9473)"
           id="g204"
           style="fill:#ffffff">
          <path
             id="path206"
             style="fill:#ffffff;fill-opacity:1;fill-rule:nonzero;stroke:none"
             d="M 0,0 C 0,7.079 0.017,14.159 -0.02,21.238 -0.025,22.211 0.214,22.55 1.238,22.537 4.33,22.498 4.33,22.541 4.33,19.491 4.33,5.933 4.316,-7.626 4.355,-21.185 4.358,-22.319 4.087,-22.695 2.91,-22.663 0.001,-22.584 0,-22.642 0,-19.679 Z" />
        </g>
        <g
           transform="translate(759.5859,208.3125)"
           id="g208"
           style="fill:#ffffff">
          <path
             id="path210"
             style="fill:#ffffff;fill-opacity:1;fill-rule:nonzero;stroke:none"
             d="m 0,0 v 45.139 c 1.256,0 2.477,0.026 3.693,-0.029 C 3.891,45.102 4.145,44.759 4.24,44.518 4.335,44.274 4.266,43.966 4.266,43.687 4.266,29.61 4.253,15.534 4.291,1.459 4.293,0.335 4.048,-0.147 2.855,-0.02 1.955,0.077 1.036,0 0,0" />
        </g>
        <g
           transform="translate(1008.8008,200.1553)"
           id="g212"
           style="fill:#ffffff">
          <path
             id="path214"
             style="fill:#ffffff;fill-opacity:1;fill-rule:nonzero;stroke:none"
             d="m 0,0 c 0,-2.356 -0.028,-4.714 0.015,-7.069 0.014,-0.808 -0.2,-1.108 -1.064,-1.115 -3.276,-0.027 -3.276,-0.058 -3.276,3.2 0,4.073 0.021,8.147 -0.017,12.22 C -4.351,8.098 -4.146,8.42 -3.218,8.42 0,8.421 0,8.456 0,5.271 Z" />
        </g>
        <g
           transform="translate(660.0859,154.3437)"
           id="g220" />
      </g>
    </g>
  </g>
</svg>
