<?xml version="1.0" encoding="UTF-8"?>
<svg id="Ebene_2" data-name="Ebene 2" xmlns="http://www.w3.org/2000/svg" viewBox="0 0 474.22 61.72">
  <defs>
    <style>
      .cls-1 {
        fill: #fff;
      }
    </style>
  </defs>
  <g id="svg8632">
    <g id="g120">
      <path id="path122" class="cls-1" d="M4.06,0c.08.54.23,1.09.23,1.63.01,18.04.01,36.08.01,54.11v1.6h100.56q1.62,0,1.62,1.61,0,2.71-2.74,2.71H1.8Q0,61.66,0,59.82C0,40.42,0,21.02.02,1.62c0-.54.29-1.08.44-1.62h3.6Z"/>
    </g>
    <g id="g192">
      <path id="path194" class="cls-1" d="M224.69,28.79V4.56h-1.57c-32.98,0-65.96,0-98.94,0q-1.6,0-1.6-1.63,0-2.68,2.71-2.68h102.18q1.6,0,1.6,1.63v58.19q0,1.59-1.52,1.59-2.8,0-2.8-2.83v-25.65h-97.85v28.46c-1.31,0-2.5.03-3.68-.03-.22-.01-.5-.34-.6-.58-.11-.28-.04-.63-.04-.95,0-9.96.02-19.92-.03-29.88,0-1.14.29-1.47,1.45-1.47,33.02.03,66.04.03,99.06.03h1.62Z"/>
    </g>
    <g id="g196">
      <path id="path198" class="cls-1" d="M469.63,4.54h-101.81V.22h1.45c34.46,0,68.92,0,103.38-.03,1.16,0,1.57.21,1.56,1.49-.06,10-.05,20,0,30,0,1.15-.31,1.46-1.47,1.46-33.02-.03-66.04-.02-99.06-.02h-1.68v1.55c0,8.56-.02,17.12.02,25.68,0,1.03-.21,1.47-1.32,1.36-.94-.1-1.9-.02-2.92-.02V28.81h101.84s0-24.27,0-24.27Z"/>
    </g>
    <g id="g200">
      <path id="path202" class="cls-1" d="M249.24,61.64h-4.02V28.82h101.78V4.61h-101.78V.29c.4-.02.82-.06,1.24-.06,34.54,0,69.07,0,103.61-.03,1.14,0,1.38.36,1.38,1.42-.04,9.96-.02,19.92-.02,29.87q0,1.63-1.6,1.63h-100.58s0,28.52,0,28.52Z"/>
    </g>
    <g id="g204">
      <path id="path206" class="cls-1" d="M51.05,22.73c0-7.08.02-14.16-.02-21.24,0-.97.23-1.31,1.26-1.3,3.09.04,3.09,0,3.09,3.05,0,13.56-.01,27.12.03,40.68,0,1.13-.27,1.51-1.44,1.48-2.91-.08-2.91-.02-2.91-2.98v-19.68Z"/>
    </g>
    <g id="g208">
      <path id="path210" class="cls-1" d="M102.21,45.37V.23c1.26,0,2.48-.03,3.69.03.2,0,.45.35.55.59.1.24.03.55.03.83,0,14.08-.01,28.15.03,42.23,0,1.12-.24,1.61-1.44,1.48-.9-.1-1.82-.02-2.86-.02"/>
    </g>
  </g>
</svg>