<svg width="2874" height="1328" viewBox="0 0 2874 1328" fill="none" xmlns="http://www.w3.org/2000/svg">
<path opacity="0.7" d="M83.7715 19.3317H19.332V83.7711M83.7715 19.3317V83.7711M83.7715 19.3317H148.211M83.7715 83.7711H19.332M83.7715 83.7711V148.211M83.7715 83.7711H148.211M19.332 83.7711V148.211M83.7715 148.211H19.332M83.7715 148.211V212.65M83.7715 148.211H148.211M19.332 148.211V212.65M83.7715 212.65H19.332M83.7715 212.65V277.09M83.7715 212.65H148.211M19.332 212.65V277.09M83.7715 277.09H19.332M83.7715 277.09V341.529M83.7715 277.09H148.211M19.332 277.09V341.529M83.7715 341.529H19.332M83.7715 341.529V405.968M83.7715 341.529H148.211M19.332 341.529V405.968M83.7715 405.968H19.332M83.7715 405.968V470.408M83.7715 405.968H148.211M19.332 405.968V470.408M83.7715 470.408H19.332M83.7715 470.408V534.847M83.7715 470.408H148.211M19.332 470.408V534.847M83.7715 534.847H19.332M83.7715 534.847V599.287M83.7715 534.847H148.211M19.332 534.847V599.287M83.7715 599.287H19.332M83.7715 599.287V663.726M83.7715 599.287H148.211M19.332 599.287V663.726M83.7715 663.726H19.332M83.7715 663.726V728.166M83.7715 663.726H148.211M19.332 663.726V728.166M83.7715 728.166H19.332M83.7715 728.166V792.605M83.7715 728.166H148.211M19.332 728.166V792.605M83.7715 792.605H19.332M83.7715 792.605V857.045M83.7715 792.605H148.211M19.332 792.605V857.045M83.7715 857.045H19.332M83.7715 857.045V921.484M83.7715 857.045H148.211M19.332 857.045V921.484M83.7715 921.484H19.332M83.7715 921.484V985.924M83.7715 921.484H148.211M19.332 921.484V985.924M83.7715 985.924H19.332M83.7715 985.924V1050.36M83.7715 985.924H148.211M19.332 985.924V1050.36M83.7715 1050.36H19.332M83.7715 1050.36V1114.8M83.7715 1050.36H148.211M19.332 1050.36V1114.8M83.7715 1114.8H19.332M83.7715 1114.8V1179.24M83.7715 1114.8H148.211M19.332 1114.8V1179.24M83.7715 1179.24H19.332M83.7715 1179.24V1243.68M83.7715 1179.24H148.211M19.332 1179.24V1243.68M83.7715 1243.68H19.332M83.7715 1243.68V1308.12M83.7715 1243.68H148.211M19.332 1243.68V1308.12H83.7715M83.7715 1308.12H148.211M148.211 19.3317V83.7711M148.211 19.3317H212.65M148.211 83.7711V148.211M148.211 83.7711H212.65M148.211 148.211V212.65M148.211 148.211H212.65M148.211 212.65V277.09M148.211 212.65H212.65M148.211 277.09V341.529M148.211 277.09H212.65M148.211 341.529V405.968M148.211 341.529H212.65M148.211 405.968V470.408M148.211 405.968H212.65M148.211 470.408V534.847M148.211 470.408H212.65M148.211 534.847V599.287M148.211 534.847H212.65M148.211 599.287V663.726M148.211 599.287H212.65M148.211 663.726V728.166M148.211 663.726H212.65M148.211 728.166V792.605M148.211 728.166H212.65M148.211 792.605V857.045M148.211 792.605H212.65M148.211 857.045V921.484M148.211 857.045H212.65M148.211 921.484V985.924M148.211 921.484H212.65M148.211 985.924V1050.36M148.211 985.924H212.65M148.211 1050.36V1114.8M148.211 1050.36H212.65M148.211 1114.8V1179.24M148.211 1114.8H212.65M148.211 1179.24V1243.68M148.211 1179.24H212.65M148.211 1243.68V1308.12M148.211 1243.68H212.65M148.211 1308.12H212.65M212.65 19.3317V83.7711M212.65 19.3317H277.09M212.65 83.7711V148.211M212.65 83.7711H277.09M212.65 148.211V212.65M212.65 148.211H277.09M212.65 212.65V277.09M212.65 212.65H277.09M212.65 277.09V341.529M212.65 277.09H277.09M212.65 341.529V405.968M212.65 341.529H277.09M212.65 405.968V470.408M212.65 405.968H277.09M212.65 470.408V534.847M212.65 470.408H277.09M212.65 534.847V599.287M212.65 534.847H277.09M212.65 599.287V663.726M212.65 599.287H277.09M212.65 663.726V728.166M212.65 663.726H277.09M212.65 728.166V792.605M212.65 728.166H277.09M212.65 792.605V857.045M212.65 792.605H277.09M212.65 857.045V921.484M212.65 857.045H277.09M212.65 921.484V985.924M212.65 921.484H277.09M212.65 985.924V1050.36M212.65 985.924H277.09M212.65 1050.36V1114.8M212.65 1050.36H277.09M212.65 1114.8V1179.24M212.65 1114.8H277.09M212.65 1179.24V1243.68M212.65 1179.24H277.09M212.65 1243.68V1308.12M212.65 1243.68H277.09M212.65 1308.12H277.09M277.09 19.3317V83.7711M277.09 19.3317H341.529M277.09 83.7711V148.211M277.09 83.7711H341.529M277.09 148.211V212.65M277.09 148.211H341.529M277.09 212.65V277.09M277.09 212.65H341.529M277.09 277.09V341.529M277.09 277.09H341.529M277.09 341.529V405.968M277.09 341.529H341.529M277.09 405.968V470.408M277.09 405.968H341.529M277.09 470.408V534.847M277.09 470.408H341.529M277.09 534.847V599.287M277.09 534.847H341.529M277.09 599.287V663.726M277.09 599.287H341.529M277.09 663.726V728.166M277.09 663.726H341.529M277.09 728.166V792.605M277.09 728.166H341.529M277.09 792.605V857.045M277.09 792.605H341.529M277.09 857.045V921.484M277.09 857.045H341.529M277.09 921.484V985.924M277.09 921.484H341.529M277.09 985.924V1050.36M277.09 985.924H341.529M277.09 1050.36V1114.8M277.09 1050.36H341.529M277.09 1114.8V1179.24M277.09 1114.8H341.529M277.09 1179.24V1243.68M277.09 1179.24H341.529M277.09 1243.68V1308.12M277.09 1243.68H341.529M277.09 1308.12H341.529M341.529 19.3317V83.7711M341.529 19.3317H405.969M341.529 83.7711V148.211M341.529 83.7711H405.969M341.529 148.211V212.65M341.529 148.211H405.969M341.529 212.65V277.09M341.529 212.65H405.969M341.529 277.09V341.529M341.529 277.09H405.969M341.529 341.529V405.968M341.529 341.529H405.969M341.529 405.968V470.408M341.529 405.968H405.969M341.529 470.408V534.847M341.529 470.408H405.969M341.529 534.847V599.287M341.529 534.847H405.969M341.529 599.287V663.726M341.529 599.287H405.969M341.529 663.726V728.166M341.529 663.726H405.969M341.529 728.166V792.605M341.529 728.166H405.969M341.529 792.605V857.045M341.529 792.605H405.969M341.529 857.045V921.484M341.529 857.045H405.969M341.529 921.484V985.924M341.529 921.484H405.969M341.529 985.924V1050.36M341.529 985.924H405.969M341.529 1050.36V1114.8M341.529 1050.36H405.969M341.529 1114.8V1179.24M341.529 1114.8H405.969M341.529 1179.24V1243.68M341.529 1179.24H405.969M341.529 1243.68V1308.12M341.529 1243.68H405.969M341.529 1308.12H405.969M405.969 19.3317V83.7711M405.969 19.3317H470.408M405.969 83.7711V148.211M405.969 83.7711H470.408M405.969 148.211V212.65M405.969 148.211H470.408M405.969 212.65V277.09M405.969 212.65H470.408M405.969 277.09V341.529M405.969 277.09H470.408M405.969 341.529V405.968M405.969 341.529H470.408M405.969 405.968V470.408M405.969 405.968H470.408M405.969 470.408V534.847M405.969 470.408H470.408M405.969 534.847V599.287M405.969 534.847H470.408M405.969 599.287V663.726M405.969 599.287H470.408M405.969 663.726V728.166M405.969 663.726H470.408M405.969 728.166V792.605M405.969 728.166H470.408M405.969 792.605V857.045M405.969 792.605H470.408M405.969 857.045V921.484M405.969 857.045H470.408M405.969 921.484V985.924M405.969 921.484H470.408M405.969 985.924V1050.36M405.969 985.924H470.408M405.969 1050.36V1114.8M405.969 1050.36H470.408M405.969 1114.8V1179.24M405.969 1114.8H470.408M405.969 1179.24V1243.68M405.969 1179.24H470.408M405.969 1243.68V1308.12M405.969 1243.68H470.408M405.969 1308.12H470.408M470.408 19.3317V83.7711M470.408 19.3317H534.848M470.408 83.7711V148.211M470.408 83.7711H534.848M470.408 148.211V212.65M470.408 148.211H534.848M470.408 212.65V277.09M470.408 212.65H534.848M470.408 277.09V341.529M470.408 277.09H534.848M470.408 341.529V405.968M470.408 341.529H534.848M470.408 405.968V470.408M470.408 405.968H534.848M470.408 470.408V534.847M470.408 470.408H534.848M470.408 534.847V599.287M470.408 534.847H534.848M470.408 599.287V663.726M470.408 599.287H534.848M470.408 663.726V728.166M470.408 663.726H534.848M470.408 728.166V792.605M470.408 728.166H534.848M470.408 792.605V857.045M470.408 792.605H534.848M470.408 857.045V921.484M470.408 857.045H534.848M470.408 921.484V985.924M470.408 921.484H534.848M470.408 985.924V1050.36M470.408 985.924H534.848M470.408 1050.36V1114.8M470.408 1050.36H534.848M470.408 1114.8V1179.24M470.408 1114.8H534.848M470.408 1179.24V1243.68M470.408 1179.24H534.848M470.408 1243.68V1308.12M470.408 1243.68H534.848M470.408 1308.12H534.848M534.848 19.3317V83.7711M534.848 19.3317H599.287M534.848 83.7711V148.211M534.848 83.7711H599.287M534.848 148.211V212.65M534.848 148.211H599.287M534.848 212.65V277.09M534.848 212.65H599.287M534.848 277.09V341.529M534.848 277.09H599.287M534.848 341.529V405.968M534.848 341.529H599.287M534.848 405.968V470.408M534.848 405.968H599.287M534.848 470.408V534.847M534.848 470.408H599.287M534.848 534.847V599.287M534.848 534.847H599.287M534.848 599.287V663.726M534.848 599.287H599.287M534.848 663.726V728.166M534.848 663.726H599.287M534.848 728.166V792.605M534.848 728.166H599.287M534.848 792.605V857.045M534.848 792.605H599.287M534.848 857.045V921.484M534.848 857.045H599.287M534.848 921.484V985.924M534.848 921.484H599.287M534.848 985.924V1050.36M534.848 985.924H599.287M534.848 1050.36V1114.8M534.848 1050.36H599.287M534.848 1114.8V1179.24M534.848 1114.8H599.287M534.848 1179.24V1243.68M534.848 1179.24H599.287M534.848 1243.68V1308.12M534.848 1243.68H599.287M534.848 1308.12H599.287M599.287 19.3317V83.7711M599.287 19.3317H663.727M599.287 83.7711V148.211M599.287 83.7711H663.727M599.287 148.211V212.65M599.287 148.211H663.727M599.287 212.65V277.09M599.287 212.65H663.727M599.287 277.09V341.529M599.287 277.09H663.727M599.287 341.529V405.968M599.287 341.529H663.727M599.287 405.968V470.408M599.287 405.968H663.727M599.287 470.408V534.847M599.287 470.408H663.727M599.287 534.847V599.287M599.287 534.847H663.727M599.287 599.287V663.726M599.287 599.287H663.727M599.287 663.726V728.166M599.287 663.726H663.727M599.287 728.166V792.605M599.287 728.166H663.727M599.287 792.605V857.045M599.287 792.605H663.727M599.287 857.045V921.484M599.287 857.045H663.727M599.287 921.484V985.924M599.287 921.484H663.727M599.287 985.924V1050.36M599.287 985.924H663.727M599.287 1050.36V1114.8M599.287 1050.36H663.727M599.287 1114.8V1179.24M599.287 1114.8H663.727M599.287 1179.24V1243.68M599.287 1179.24H663.727M599.287 1243.68V1308.12M599.287 1243.68H663.727M599.287 1308.12H663.727M663.727 19.3317V83.7711M663.727 19.3317H728.166M663.727 83.7711V148.211M663.727 83.7711H728.166M663.727 148.211V212.65M663.727 148.211H728.166M663.727 212.65V277.09M663.727 212.65H728.166M663.727 277.09V341.529M663.727 277.09H728.166M663.727 341.529V405.968M663.727 341.529H728.166M663.727 405.968V470.408M663.727 405.968H728.166M663.727 470.408V534.847M663.727 470.408H728.166M663.727 534.847V599.287M663.727 534.847H728.166M663.727 599.287V663.726M663.727 599.287H728.166M663.727 663.726V728.166M663.727 663.726H728.166M663.727 728.166V792.605M663.727 728.166H728.166M663.727 792.605V857.045M663.727 792.605H728.166M663.727 857.045V921.484M663.727 857.045H728.166M663.727 921.484V985.924M663.727 921.484H728.166M663.727 985.924V1050.36M663.727 985.924H728.166M663.727 1050.36V1114.8M663.727 1050.36H728.166M663.727 1114.8V1179.24M663.727 1114.8H728.166M663.727 1179.24V1243.68M663.727 1179.24H728.166M663.727 1243.68V1308.12M663.727 1243.68H728.166M663.727 1308.12H728.166M728.166 19.3317V83.7711M728.166 19.3317H792.606M728.166 83.7711V148.211M728.166 83.7711H792.606M728.166 148.211V212.65M728.166 148.211H792.606M728.166 212.65V277.09M728.166 212.65H792.606M728.166 277.09V341.529M728.166 277.09H792.606M728.166 341.529V405.968M728.166 341.529H792.606M728.166 405.968V470.408M728.166 405.968H792.606M728.166 470.408V534.847M728.166 470.408H792.606M728.166 534.847V599.287M728.166 534.847H792.606M728.166 599.287V663.726M728.166 599.287H792.606M728.166 663.726V728.166M728.166 663.726H792.606M728.166 728.166V792.605M728.166 728.166H792.606M728.166 792.605V857.045M728.166 792.605H792.606M728.166 857.045V921.484M728.166 857.045H792.606M728.166 921.484V985.924M728.166 921.484H792.606M728.166 985.924V1050.36M728.166 985.924H792.606M728.166 1050.36V1114.8M728.166 1050.36H792.606M728.166 1114.8V1179.24M728.166 1114.8H792.606M728.166 1179.24V1243.68M728.166 1179.24H792.606M728.166 1243.68V1308.12M728.166 1243.68H792.606M728.166 1308.12H792.606M792.606 19.3317V83.7711M792.606 19.3317H857.045M792.606 83.7711V148.211M792.606 83.7711H857.045M792.606 148.211V212.65M792.606 148.211H857.045M792.606 212.65V277.09M792.606 212.65H857.045M792.606 277.09V341.529M792.606 277.09H857.045M792.606 341.529V405.968M792.606 341.529H857.045M792.606 405.968V470.408M792.606 405.968H857.045M792.606 470.408V534.847M792.606 470.408H857.045M792.606 534.847V599.287M792.606 534.847H857.045M792.606 599.287V663.726M792.606 599.287H857.045M792.606 663.726V728.166M792.606 663.726H857.045M792.606 728.166V792.605M792.606 728.166H857.045M792.606 792.605V857.045M792.606 792.605H857.045M792.606 857.045V921.484M792.606 857.045H857.045M792.606 921.484V985.924M792.606 921.484H857.045M792.606 985.924V1050.36M792.606 985.924H857.045M792.606 1050.36V1114.8M792.606 1050.36H857.045M792.606 1114.8V1179.24M792.606 1114.8H857.045M792.606 1179.24V1243.68M792.606 1179.24H857.045M792.606 1243.68V1308.12M792.606 1243.68H857.045M792.606 1308.12H857.045M857.045 19.3317V83.7711M857.045 19.3317H921.485M857.045 83.7711V148.211M857.045 83.7711H921.485M857.045 148.211V212.65M857.045 148.211H921.485M857.045 212.65V277.09M857.045 212.65H921.485M857.045 277.09V341.529M857.045 277.09H921.485M857.045 341.529V405.968M857.045 341.529H921.485M857.045 405.968V470.408M857.045 405.968H921.485M857.045 470.408V534.847M857.045 470.408H921.485M857.045 534.847V599.287M857.045 534.847H921.485M857.045 599.287V663.726M857.045 599.287H921.485M857.045 663.726V728.166M857.045 663.726H921.485M857.045 728.166V792.605M857.045 728.166H921.485M857.045 792.605V857.045M857.045 792.605H921.485M857.045 857.045V921.484M857.045 857.045H921.485M857.045 921.484V985.924M857.045 921.484H921.485M857.045 985.924V1050.36M857.045 985.924H921.485M857.045 1050.36V1114.8M857.045 1050.36H921.485M857.045 1114.8V1179.24M857.045 1114.8H921.485M857.045 1179.24V1243.68M857.045 1179.24H921.485M857.045 1243.68V1308.12M857.045 1243.68H921.485M857.045 1308.12H921.485M921.485 19.3317V83.7711M921.485 19.3317H985.924M921.485 83.7711V148.211M921.485 83.7711H985.924M921.485 148.211V212.65M921.485 148.211H985.924M921.485 212.65V277.09M921.485 212.65H985.924M921.485 277.09V341.529M921.485 277.09H985.924M921.485 341.529V405.968M921.485 341.529H985.924M921.485 405.968V470.408M921.485 405.968H985.924M921.485 470.408V534.847M921.485 470.408H985.924M921.485 534.847V599.287M921.485 534.847H985.924M921.485 599.287V663.726M921.485 599.287H985.924M921.485 663.726V728.166M921.485 663.726H985.924M921.485 728.166V792.605M921.485 728.166H985.924M921.485 792.605V857.045M921.485 792.605H985.924M921.485 857.045V921.484M921.485 857.045H985.924M921.485 921.484V985.924M921.485 921.484H985.924M921.485 985.924V1050.36M921.485 985.924H985.924M921.485 1050.36V1114.8M921.485 1050.36H985.924M921.485 1114.8V1179.24M921.485 1114.8H985.924M921.485 1179.24V1243.68M921.485 1179.24H985.924M921.485 1243.68V1308.12M921.485 1243.68H985.924M921.485 1308.12H985.924M985.924 19.3317V83.7711M985.924 19.3317H1050.36M985.924 83.7711V148.211M985.924 83.7711H1050.36M985.924 148.211V212.65M985.924 148.211H1050.36M985.924 212.65V277.09M985.924 212.65H1050.36M985.924 277.09V341.529M985.924 277.09H1050.36M985.924 341.529V405.968M985.924 341.529H1050.36M985.924 405.968V470.408M985.924 405.968H1050.36M985.924 470.408V534.847M985.924 470.408H1050.36M985.924 534.847V599.287M985.924 534.847H1050.36M985.924 599.287V663.726M985.924 599.287H1050.36M985.924 663.726V728.166M985.924 663.726H1050.36M985.924 728.166V792.605M985.924 728.166H1050.36M985.924 792.605V857.045M985.924 792.605H1050.36M985.924 857.045V921.484M985.924 857.045H1050.36M985.924 921.484V985.924M985.924 921.484H1050.36M985.924 985.924V1050.36M985.924 985.924H1050.36M985.924 1050.36V1114.8M985.924 1050.36H1050.36M985.924 1114.8V1179.24M985.924 1114.8H1050.36M985.924 1179.24V1243.68M985.924 1179.24H1050.36M985.924 1243.68V1308.12M985.924 1243.68H1050.36M985.924 1308.12H1050.36M1050.36 19.3317V83.7711M1050.36 19.3317H1114.8M1050.36 83.7711V148.211M1050.36 83.7711H1114.8M1050.36 148.211V212.65M1050.36 148.211H1114.8M1050.36 212.65V277.09M1050.36 212.65H1114.8M1050.36 277.09V341.529M1050.36 277.09H1114.8M1050.36 341.529V405.968M1050.36 341.529H1114.8M1050.36 405.968V470.408M1050.36 405.968H1114.8M1050.36 470.408V534.847M1050.36 470.408H1114.8M1050.36 534.847V599.287M1050.36 534.847H1114.8M1050.36 599.287V663.726M1050.36 599.287H1114.8M1050.36 663.726V728.166M1050.36 663.726H1114.8M1050.36 728.166V792.605M1050.36 728.166H1114.8M1050.36 792.605V857.045M1050.36 792.605H1114.8M1050.36 857.045V921.484M1050.36 857.045H1114.8M1050.36 921.484V985.924M1050.36 921.484H1114.8M1050.36 985.924V1050.36M1050.36 985.924H1114.8M1050.36 1050.36V1114.8M1050.36 1050.36H1114.8M1050.36 1114.8V1179.24M1050.36 1114.8H1114.8M1050.36 1179.24V1243.68M1050.36 1179.24H1114.8M1050.36 1243.68V1308.12M1050.36 1243.68H1114.8M1050.36 1308.12H1114.8M1114.8 19.3317V83.7711M1114.8 19.3317H1179.24M1114.8 83.7711V148.211M1114.8 83.7711H1179.24M1114.8 148.211V212.65M1114.8 148.211H1179.24M1114.8 212.65V277.09M1114.8 212.65H1179.24M1114.8 277.09V341.529M1114.8 277.09H1179.24M1114.8 341.529V405.968M1114.8 341.529H1179.24M1114.8 405.968V470.408M1114.8 405.968H1179.24M1114.8 470.408V534.847M1114.8 470.408H1179.24M1114.8 534.847V599.287M1114.8 534.847H1179.24M1114.8 599.287V663.726M1114.8 599.287H1179.24M1114.8 663.726V728.166M1114.8 663.726H1179.24M1114.8 728.166V792.605M1114.8 728.166H1179.24M1114.8 792.605V857.045M1114.8 792.605H1179.24M1114.8 857.045V921.484M1114.8 857.045H1179.24M1114.8 921.484V985.924M1114.8 921.484H1179.24M1114.8 985.924V1050.36M1114.8 985.924H1179.24M1114.8 1050.36V1114.8M1114.8 1050.36H1179.24M1114.8 1114.8V1179.24M1114.8 1114.8H1179.24M1114.8 1179.24V1243.68M1114.8 1179.24H1179.24M1114.8 1243.68V1308.12M1114.8 1243.68H1179.24M1114.8 1308.12H1179.24M1179.24 19.3317V83.7711M1179.24 19.3317H1243.68M1179.24 83.7711V148.211M1179.24 83.7711H1243.68M1179.24 148.211V212.65M1179.24 148.211H1243.68M1179.24 212.65V277.09M1179.24 212.65H1243.68M1179.24 277.09V341.529M1179.24 277.09H1243.68M1179.24 341.529V405.968M1179.24 341.529H1243.68M1179.24 405.968V470.408M1179.24 405.968H1243.68M1179.24 470.408V534.847M1179.24 470.408H1243.68M1179.24 534.847V599.287M1179.24 534.847H1243.68M1179.24 599.287V663.726M1179.24 599.287H1243.68M1179.24 663.726V728.166M1179.24 663.726H1243.68M1179.24 728.166V792.605M1179.24 728.166H1243.68M1179.24 792.605V857.045M1179.24 792.605H1243.68M1179.24 857.045V921.484M1179.24 857.045H1243.68M1179.24 921.484V985.924M1179.24 921.484H1243.68M1179.24 985.924V1050.36M1179.24 985.924H1243.68M1179.24 1050.36V1114.8M1179.24 1050.36H1243.68M1179.24 1114.8V1179.24M1179.24 1114.8H1243.68M1179.24 1179.24V1243.68M1179.24 1179.24H1243.68M1179.24 1243.68V1308.12M1179.24 1243.68H1243.68M1179.24 1308.12H1243.68M1243.68 19.3317V83.7711M1243.68 19.3317H1308.12M1243.68 83.7711V148.211M1243.68 83.7711H1308.12M1243.68 148.211V212.65M1243.68 148.211H1308.12M1243.68 212.65V277.09M1243.68 212.65H1308.12M1243.68 277.09V341.529M1243.68 277.09H1308.12M1243.68 341.529V405.968M1243.68 341.529H1308.12M1243.68 405.968V470.408M1243.68 405.968H1308.12M1243.68 470.408V534.847M1243.68 470.408H1308.12M1243.68 534.847V599.287M1243.68 534.847H1308.12M1243.68 599.287V663.726M1243.68 599.287H1308.12M1243.68 663.726V728.166M1243.68 663.726H1308.12M1243.68 728.166V792.605M1243.68 728.166H1308.12M1243.68 792.605V857.045M1243.68 792.605H1308.12M1243.68 857.045V921.484M1243.68 857.045H1308.12M1243.68 921.484V985.924M1243.68 921.484H1308.12M1243.68 985.924V1050.36M1243.68 985.924H1308.12M1243.68 1050.36V1114.8M1243.68 1050.36H1308.12M1243.68 1114.8V1179.24M1243.68 1114.8H1308.12M1243.68 1179.24V1243.68M1243.68 1179.24H1308.12M1243.68 1243.68V1308.12M1243.68 1243.68H1308.12M1243.68 1308.12H1308.12M1308.12 19.3317V83.7711M1308.12 19.3317H1372.56M1308.12 83.7711V148.211M1308.12 83.7711H1372.56M1308.12 148.211V212.65M1308.12 148.211H1372.56M1308.12 212.65V277.09M1308.12 212.65H1372.56M1308.12 277.09V341.529M1308.12 277.09H1372.56M1308.12 341.529V405.968M1308.12 341.529H1372.56M1308.12 405.968V470.408M1308.12 405.968H1372.56M1308.12 470.408V534.847M1308.12 470.408H1372.56M1308.12 534.847V599.287M1308.12 534.847H1372.56M1308.12 599.287V663.726M1308.12 599.287H1372.56M1308.12 663.726V728.166M1308.12 663.726H1372.56M1308.12 728.166V792.605M1308.12 728.166H1372.56M1308.12 792.605V857.045M1308.12 792.605H1372.56M1308.12 857.045V921.484M1308.12 857.045H1372.56M1308.12 921.484V985.924M1308.12 921.484H1372.56M1308.12 985.924V1050.36M1308.12 985.924H1372.56M1308.12 1050.36V1114.8M1308.12 1050.36H1372.56M1308.12 1114.8V1179.24M1308.12 1114.8H1372.56M1308.12 1179.24V1243.68M1308.12 1179.24H1372.56M1308.12 1243.68V1308.12M1308.12 1243.68H1372.56M1308.12 1308.12H1372.56M1372.56 19.3317V83.7711M1372.56 19.3317H1437M1372.56 83.7711V148.211M1372.56 83.7711H1437M1372.56 148.211V212.65M1372.56 148.211H1437M1372.56 212.65V277.09M1372.56 212.65H1437M1372.56 277.09V341.529M1372.56 277.09H1437M1372.56 341.529V405.968M1372.56 341.529H1437M1372.56 405.968V470.408M1372.56 405.968H1437M1372.56 470.408V534.847M1372.56 470.408H1437M1372.56 534.847V599.287M1372.56 534.847H1437M1372.56 599.287V663.726M1372.56 599.287H1437M1372.56 663.726V728.166M1372.56 663.726H1437M1372.56 728.166V792.605M1372.56 728.166H1437M1372.56 792.605V857.045M1372.56 792.605H1437M1372.56 857.045V921.484M1372.56 857.045H1437M1372.56 921.484V985.924M1372.56 921.484H1437M1372.56 985.924V1050.36M1372.56 985.924H1437M1372.56 1050.36V1114.8M1372.56 1050.36H1437M1372.56 1114.8V1179.24M1372.56 1114.8H1437M1372.56 1179.24V1243.68M1372.56 1179.24H1437M1372.56 1243.68V1308.12M1372.56 1243.68H1437M1372.56 1308.12H1437M1437 19.3317V83.7711M1437 19.3317H1501.44M1437 83.7711V148.211M1437 83.7711H1501.44M1437 148.211V212.65M1437 148.211H1501.44M1437 212.65V277.09M1437 212.65H1501.44M1437 277.09V341.529M1437 277.09H1501.44M1437 341.529V405.968M1437 341.529H1501.44M1437 405.968V470.408M1437 405.968H1501.44M1437 470.408V534.847M1437 470.408H1501.44M1437 534.847V599.287M1437 534.847H1501.44M1437 599.287V663.726M1437 599.287H1501.44M1437 663.726V728.166M1437 663.726H1501.44M1437 728.166V792.605M1437 728.166H1501.44M1437 792.605V857.045M1437 792.605H1501.44M1437 857.045V921.484M1437 857.045H1501.44M1437 921.484V985.924M1437 921.484H1501.44M1437 985.924V1050.36M1437 985.924H1501.44M1437 1050.36V1114.8M1437 1050.36H1501.44M1437 1114.8V1179.24M1437 1114.8H1501.44M1437 1179.24V1243.68M1437 1179.24H1501.44M1437 1243.68V1308.12M1437 1243.68H1501.44M1437 1308.12H1501.44M1501.44 19.3317V83.7711M1501.44 19.3317H1565.88M1501.44 83.7711V148.211M1501.44 83.7711H1565.88M1501.44 148.211V212.65M1501.44 148.211H1565.88M1501.44 212.65V277.09M1501.44 212.65H1565.88M1501.44 277.09V341.529M1501.44 277.09H1565.88M1501.44 341.529V405.968M1501.44 341.529H1565.88M1501.44 405.968V470.408M1501.44 405.968H1565.88M1501.44 470.408V534.847M1501.44 470.408H1565.88M1501.44 534.847V599.287M1501.44 534.847H1565.88M1501.44 599.287V663.726M1501.44 599.287H1565.88M1501.44 663.726V728.166M1501.44 663.726H1565.88M1501.44 728.166V792.605M1501.44 728.166H1565.88M1501.44 792.605V857.045M1501.44 792.605H1565.88M1501.44 857.045V921.484M1501.44 857.045H1565.88M1501.44 921.484V985.924M1501.44 921.484H1565.88M1501.44 985.924V1050.36M1501.44 985.924H1565.88M1501.44 1050.36V1114.8M1501.44 1050.36H1565.88M1501.44 1114.8V1179.24M1501.44 1114.8H1565.88M1501.44 1179.24V1243.68M1501.44 1179.24H1565.88M1501.44 1243.68V1308.12M1501.44 1243.68H1565.88M1501.44 1308.12H1565.88M1565.88 19.3317V83.7711M1565.88 19.3317H1630.32M1565.88 83.7711V148.211M1565.88 83.7711H1630.32M1565.88 148.211V212.65M1565.88 148.211H1630.32M1565.88 212.65V277.09M1565.88 212.65H1630.32M1565.88 277.09V341.529M1565.88 277.09H1630.32M1565.88 341.529V405.968M1565.88 341.529H1630.32M1565.88 405.968V470.408M1565.88 405.968H1630.32M1565.88 470.408V534.847M1565.88 470.408H1630.32M1565.88 534.847V599.287M1565.88 534.847H1630.32M1565.88 599.287V663.726M1565.88 599.287H1630.32M1565.88 663.726V728.166M1565.88 663.726H1630.32M1565.88 728.166V792.605M1565.88 728.166H1630.32M1565.88 792.605V857.045M1565.88 792.605H1630.32M1565.88 857.045V921.484M1565.88 857.045H1630.32M1565.88 921.484V985.924M1565.88 921.484H1630.32M1565.88 985.924V1050.36M1565.88 985.924H1630.32M1565.88 1050.36V1114.8M1565.88 1050.36H1630.32M1565.88 1114.8V1179.24M1565.88 1114.8H1630.32M1565.88 1179.24V1243.68M1565.88 1179.24H1630.32M1565.88 1243.68V1308.12M1565.88 1243.68H1630.32M1565.88 1308.12H1630.32M1630.32 19.3317V83.7711M1630.32 19.3317H1694.76M1630.32 83.7711V148.211M1630.32 83.7711H1694.76M1630.32 148.211V212.65M1630.32 148.211H1694.76M1630.32 212.65V277.09M1630.32 212.65H1694.76M1630.32 277.09V341.529M1630.32 277.09H1694.76M1630.32 341.529V405.968M1630.32 341.529H1694.76M1630.32 405.968V470.408M1630.32 405.968H1694.76M1630.32 470.408V534.847M1630.32 470.408H1694.76M1630.32 534.847V599.287M1630.32 534.847H1694.76M1630.32 599.287V663.726M1630.32 599.287H1694.76M1630.32 663.726V728.166M1630.32 663.726H1694.76M1630.32 728.166V792.605M1630.32 728.166H1694.76M1630.32 792.605V857.045M1630.32 792.605H1694.76M1630.32 857.045V921.484M1630.32 857.045H1694.76M1630.32 921.484V985.924M1630.32 921.484H1694.76M1630.32 985.924V1050.36M1630.32 985.924H1694.76M1630.32 1050.36V1114.8M1630.32 1050.36H1694.76M1630.32 1114.8V1179.24M1630.32 1114.8H1694.76M1630.32 1179.24V1243.68M1630.32 1179.24H1694.76M1630.32 1243.68V1308.12M1630.32 1243.68H1694.76M1630.32 1308.12H1694.76M1694.76 19.3317V83.7711M1694.76 19.3317H1759.2M1694.76 83.7711V148.211M1694.76 83.7711H1759.2M1694.76 148.211V212.65M1694.76 148.211H1759.2M1694.76 212.65V277.09M1694.76 212.65H1759.2M1694.76 277.09V341.529M1694.76 277.09H1759.2M1694.76 341.529V405.968M1694.76 341.529H1759.2M1694.76 405.968V470.408M1694.76 405.968H1759.2M1694.76 470.408V534.847M1694.76 470.408H1759.2M1694.76 534.847V599.287M1694.76 534.847H1759.2M1694.76 599.287V663.726M1694.76 599.287H1759.2M1694.76 663.726V728.166M1694.76 663.726H1759.2M1694.76 728.166V792.605M1694.76 728.166H1759.2M1694.76 792.605V857.045M1694.76 792.605H1759.2M1694.76 857.045V921.484M1694.76 857.045H1759.2M1694.76 921.484V985.924M1694.76 921.484H1759.2M1694.76 985.924V1050.36M1694.76 985.924H1759.2M1694.76 1050.36V1114.8M1694.76 1050.36H1759.2M1694.76 1114.8V1179.24M1694.76 1114.8H1759.2M1694.76 1179.24V1243.68M1694.76 1179.24H1759.2M1694.76 1243.68V1308.12M1694.76 1243.68H1759.2M1694.76 1308.12H1759.2M1759.2 19.3317V83.7711M1759.2 19.3317H1823.64M1759.2 83.7711V148.211M1759.2 83.7711H1823.64M1759.2 148.211V212.65M1759.2 148.211H1823.64M1759.2 212.65V277.09M1759.2 212.65H1823.64M1759.2 277.09V341.529M1759.2 277.09H1823.64M1759.2 341.529V405.968M1759.2 341.529H1823.64M1759.2 405.968V470.408M1759.2 405.968H1823.64M1759.2 470.408V534.847M1759.2 470.408H1823.64M1759.2 534.847V599.287M1759.2 534.847H1823.64M1759.2 599.287V663.726M1759.2 599.287H1823.64M1759.2 663.726V728.166M1759.2 663.726H1823.64M1759.2 728.166V792.605M1759.2 728.166H1823.64M1759.2 792.605V857.045M1759.2 792.605H1823.64M1759.2 857.045V921.484M1759.2 857.045H1823.64M1759.2 921.484V985.924M1759.2 921.484H1823.64M1759.2 985.924V1050.36M1759.2 985.924H1823.64M1759.2 1050.36V1114.8M1759.2 1050.36H1823.64M1759.2 1114.8V1179.24M1759.2 1114.8H1823.64M1759.2 1179.24V1243.68M1759.2 1179.24H1823.64M1759.2 1243.68V1308.12M1759.2 1243.68H1823.64M1759.2 1308.12H1823.64M1823.64 19.3317V83.7711M1823.64 19.3317H1888.08M1823.64 83.7711V148.211M1823.64 83.7711H1888.08M1823.64 148.211V212.65M1823.64 148.211H1888.08M1823.64 212.65V277.09M1823.64 212.65H1888.08M1823.64 277.09V341.529M1823.64 277.09H1888.08M1823.64 341.529V405.968M1823.64 341.529H1888.08M1823.64 405.968V470.408M1823.64 405.968H1888.08M1823.64 470.408V534.847M1823.64 470.408H1888.08M1823.64 534.847V599.287M1823.64 534.847H1888.08M1823.64 599.287V663.726M1823.64 599.287H1888.08M1823.64 663.726V728.166M1823.64 663.726H1888.08M1823.64 728.166V792.605M1823.64 728.166H1888.08M1823.64 792.605V857.045M1823.64 792.605H1888.08M1823.64 857.045V921.484M1823.64 857.045H1888.08M1823.64 921.484V985.924M1823.64 921.484H1888.08M1823.64 985.924V1050.36M1823.64 985.924H1888.08M1823.64 1050.36V1114.8M1823.64 1050.36H1888.08M1823.64 1114.8V1179.24M1823.64 1114.8H1888.08M1823.64 1179.24V1243.68M1823.64 1179.24H1888.08M1823.64 1243.68V1308.12M1823.64 1243.68H1888.08M1823.64 1308.12H1888.08M1888.08 19.3317V83.7711M1888.08 19.3317H1952.52M1888.08 83.7711V148.211M1888.08 83.7711H1952.52M1888.08 148.211V212.65M1888.08 148.211H1952.52M1888.08 212.65V277.09M1888.08 212.65H1952.52M1888.08 277.09V341.529M1888.08 277.09H1952.52M1888.08 341.529V405.968M1888.08 341.529H1952.52M1888.08 405.968V470.408M1888.08 405.968H1952.52M1888.08 470.408V534.847M1888.08 470.408H1952.52M1888.08 534.847V599.287M1888.08 534.847H1952.52M1888.08 599.287V663.726M1888.08 599.287H1952.52M1888.08 663.726V728.166M1888.08 663.726H1952.52M1888.08 728.166V792.605M1888.08 728.166H1952.52M1888.08 792.605V857.045M1888.08 792.605H1952.52M1888.08 857.045V921.484M1888.08 857.045H1952.52M1888.08 921.484V985.924M1888.08 921.484H1952.52M1888.08 985.924V1050.36M1888.08 985.924H1952.52M1888.08 1050.36V1114.8M1888.08 1050.36H1952.52M1888.08 1114.8V1179.24M1888.08 1114.8H1952.52M1888.08 1179.24V1243.68M1888.08 1179.24H1952.52M1888.08 1243.68V1308.12M1888.08 1243.68H1952.52M1888.08 1308.12H1952.52M1952.52 19.3317V83.7711M1952.52 19.3317H2016.96M1952.52 83.7711V148.211M1952.52 83.7711H2016.96M1952.52 148.211V212.65M1952.52 148.211H2016.96M1952.52 212.65V277.09M1952.52 212.65H2016.96M1952.52 277.09V341.529M1952.52 277.09H2016.96M1952.52 341.529V405.968M1952.52 341.529H2016.96M1952.52 405.968V470.408M1952.52 405.968H2016.96M1952.52 470.408V534.847M1952.52 470.408H2016.96M1952.52 534.847V599.287M1952.52 534.847H2016.96M1952.52 599.287V663.726M1952.52 599.287H2016.96M1952.52 663.726V728.166M1952.52 663.726H2016.96M1952.52 728.166V792.605M1952.52 728.166H2016.96M1952.52 792.605V857.045M1952.52 792.605H2016.96M1952.52 857.045V921.484M1952.52 857.045H2016.96M1952.52 921.484V985.924M1952.52 921.484H2016.96M1952.52 985.924V1050.36M1952.52 985.924H2016.96M1952.52 1050.36V1114.8M1952.52 1050.36H2016.96M1952.52 1114.8V1179.24M1952.52 1114.8H2016.96M1952.52 1179.24V1243.68M1952.52 1179.24H2016.96M1952.52 1243.68V1308.12M1952.52 1243.68H2016.96M1952.52 1308.12H2016.96M2016.96 19.3317V83.7711M2016.96 19.3317H2081.4M2016.96 83.7711V148.211M2016.96 83.7711H2081.4M2016.96 148.211V212.65M2016.96 148.211H2081.4M2016.96 212.65V277.09M2016.96 212.65H2081.4M2016.96 277.09V341.529M2016.96 277.09H2081.4M2016.96 341.529V405.968M2016.96 341.529H2081.4M2016.96 405.968V470.408M2016.96 405.968H2081.4M2016.96 470.408V534.847M2016.96 470.408H2081.4M2016.96 534.847V599.287M2016.96 534.847H2081.4M2016.96 599.287V663.726M2016.96 599.287H2081.4M2016.96 663.726V728.166M2016.96 663.726H2081.4M2016.96 728.166V792.605M2016.96 728.166H2081.4M2016.96 792.605V857.045M2016.96 792.605H2081.4M2016.96 857.045V921.484M2016.96 857.045H2081.4M2016.96 921.484V985.924M2016.96 921.484H2081.4M2016.96 985.924V1050.36M2016.96 985.924H2081.4M2016.96 1050.36V1114.8M2016.96 1050.36H2081.4M2016.96 1114.8V1179.24M2016.96 1114.8H2081.4M2016.96 1179.24V1243.68M2016.96 1179.24H2081.4M2016.96 1243.68V1308.12M2016.96 1243.68H2081.4M2016.96 1308.12H2081.4M2081.4 19.3317V83.7711M2081.4 19.3317H2145.83M2081.4 83.7711V148.211M2081.4 83.7711H2145.83M2081.4 148.211V212.65M2081.4 148.211H2145.83M2081.4 212.65V277.09M2081.4 212.65H2145.83M2081.4 277.09V341.529M2081.4 277.09H2145.83M2081.4 341.529V405.968M2081.4 341.529H2145.83M2081.4 405.968V470.408M2081.4 405.968H2145.83M2081.4 470.408V534.847M2081.4 470.408H2145.83M2081.4 534.847V599.287M2081.4 534.847H2145.83M2081.4 599.287V663.726M2081.4 599.287H2145.83M2081.4 663.726V728.166M2081.4 663.726H2145.83M2081.4 728.166V792.605M2081.4 728.166H2145.83M2081.4 792.605V857.045M2081.4 792.605H2145.83M2081.4 857.045V921.484M2081.4 857.045H2145.83M2081.4 921.484V985.924M2081.4 921.484H2145.83M2081.4 985.924V1050.36M2081.4 985.924H2145.83M2081.4 1050.36V1114.8M2081.4 1050.36H2145.83M2081.4 1114.8V1179.24M2081.4 1114.8H2145.83M2081.4 1179.24V1243.68M2081.4 1179.24H2145.83M2081.4 1243.68V1308.12M2081.4 1243.68H2145.83M2081.4 1308.12H2145.83M2145.83 19.3317V83.7711M2145.83 19.3317H2210.27M2145.83 83.7711V148.211M2145.83 83.7711H2210.27M2145.83 148.211V212.65M2145.83 148.211H2210.27M2145.83 212.65V277.09M2145.83 212.65H2210.27M2145.83 277.09V341.529M2145.83 277.09H2210.27M2145.83 341.529V405.968M2145.83 341.529H2210.27M2145.83 405.968V470.408M2145.83 405.968H2210.27M2145.83 470.408V534.847M2145.83 470.408H2210.27M2145.83 534.847V599.287M2145.83 534.847H2210.27M2145.83 599.287V663.726M2145.83 599.287H2210.27M2145.83 663.726V728.166M2145.83 663.726H2210.27M2145.83 728.166V792.605M2145.83 728.166H2210.27M2145.83 792.605V857.045M2145.83 792.605H2210.27M2145.83 857.045V921.484M2145.83 857.045H2210.27M2145.83 921.484V985.924M2145.83 921.484H2210.27M2145.83 985.924V1050.36M2145.83 985.924H2210.27M2145.83 1050.36V1114.8M2145.83 1050.36H2210.27M2145.83 1114.8V1179.24M2145.83 1114.8H2210.27M2145.83 1179.24V1243.68M2145.83 1179.24H2210.27M2145.83 1243.68V1308.12M2145.83 1243.68H2210.27M2145.83 1308.12H2210.27M2210.27 19.3317V83.7711M2210.27 19.3317H2274.71M2210.27 83.7711V148.211M2210.27 83.7711H2274.71M2210.27 148.211V212.65M2210.27 148.211H2274.71M2210.27 212.65V277.09M2210.27 212.65H2274.71M2210.27 277.09V341.529M2210.27 277.09H2274.71M2210.27 341.529V405.968M2210.27 341.529H2274.71M2210.27 405.968V470.408M2210.27 405.968H2274.71M2210.27 470.408V534.847M2210.27 470.408H2274.71M2210.27 534.847V599.287M2210.27 534.847H2274.71M2210.27 599.287V663.726M2210.27 599.287H2274.71M2210.27 663.726V728.166M2210.27 663.726H2274.71M2210.27 728.166V792.605M2210.27 728.166H2274.71M2210.27 792.605V857.045M2210.27 792.605H2274.71M2210.27 857.045V921.484M2210.27 857.045H2274.71M2210.27 921.484V985.924M2210.27 921.484H2274.71M2210.27 985.924V1050.36M2210.27 985.924H2274.71M2210.27 1050.36V1114.8M2210.27 1050.36H2274.71M2210.27 1114.8V1179.24M2210.27 1114.8H2274.71M2210.27 1179.24V1243.68M2210.27 1179.24H2274.71M2210.27 1243.68V1308.12M2210.27 1243.68H2274.71M2210.27 1308.12H2274.71M2274.71 19.3317V83.7711M2274.71 19.3317H2339.15M2274.71 83.7711V148.211M2274.71 83.7711H2339.15M2274.71 148.211V212.65M2274.71 148.211H2339.15M2274.71 212.65V277.09M2274.71 212.65H2339.15M2274.71 277.09V341.529M2274.71 277.09H2339.15M2274.71 341.529V405.968M2274.71 341.529H2339.15M2274.71 405.968V470.408M2274.71 405.968H2339.15M2274.71 470.408V534.847M2274.71 470.408H2339.15M2274.71 534.847V599.287M2274.71 534.847H2339.15M2274.71 599.287V663.726M2274.71 599.287H2339.15M2274.71 663.726V728.166M2274.71 663.726H2339.15M2274.71 728.166V792.605M2274.71 728.166H2339.15M2274.71 792.605V857.045M2274.71 792.605H2339.15M2274.71 857.045V921.484M2274.71 857.045H2339.15M2274.71 921.484V985.924M2274.71 921.484H2339.15M2274.71 985.924V1050.36M2274.71 985.924H2339.15M2274.71 1050.36V1114.8M2274.71 1050.36H2339.15M2274.71 1114.8V1179.24M2274.71 1114.8H2339.15M2274.71 1179.24V1243.68M2274.71 1179.24H2339.15M2274.71 1243.68V1308.12M2274.71 1243.68H2339.15M2274.71 1308.12H2339.15M2339.15 19.3317V83.7711M2339.15 19.3317H2403.59M2339.15 83.7711V148.211M2339.15 83.7711H2403.59M2339.15 148.211V212.65M2339.15 148.211H2403.59M2339.15 212.65V277.09M2339.15 212.65H2403.59M2339.15 277.09V341.529M2339.15 277.09H2403.59M2339.15 341.529V405.968M2339.15 341.529H2403.59M2339.15 405.968V470.408M2339.15 405.968H2403.59M2339.15 470.408V534.847M2339.15 470.408H2403.59M2339.15 534.847V599.287M2339.15 534.847H2403.59M2339.15 599.287V663.726M2339.15 599.287H2403.59M2339.15 663.726V728.166M2339.15 663.726H2403.59M2339.15 728.166V792.605M2339.15 728.166H2403.59M2339.15 792.605V857.045M2339.15 792.605H2403.59M2339.15 857.045V921.484M2339.15 857.045H2403.59M2339.15 921.484V985.924M2339.15 921.484H2403.59M2339.15 985.924V1050.36M2339.15 985.924H2403.59M2339.15 1050.36V1114.8M2339.15 1050.36H2403.59M2339.15 1114.8V1179.24M2339.15 1114.8H2403.59M2339.15 1179.24V1243.68M2339.15 1179.24H2403.59M2339.15 1243.68V1308.12M2339.15 1243.68H2403.59M2339.15 1308.12H2403.59M2403.59 19.3317V83.7711M2403.59 19.3317H2468.03M2403.59 83.7711V148.211M2403.59 83.7711H2468.03M2403.59 148.211V212.65M2403.59 148.211H2468.03M2403.59 212.65V277.09M2403.59 212.65H2468.03M2403.59 277.09V341.529M2403.59 277.09H2468.03M2403.59 341.529V405.968M2403.59 341.529H2468.03M2403.59 405.968V470.408M2403.59 405.968H2468.03M2403.59 470.408V534.847M2403.59 470.408H2468.03M2403.59 534.847V599.287M2403.59 534.847H2468.03M2403.59 599.287V663.726M2403.59 599.287H2468.03M2403.59 663.726V728.166M2403.59 663.726H2468.03M2403.59 728.166V792.605M2403.59 728.166H2468.03M2403.59 792.605V857.045M2403.59 792.605H2468.03M2403.59 857.045V921.484M2403.59 857.045H2468.03M2403.59 921.484V985.924M2403.59 921.484H2468.03M2403.59 985.924V1050.36M2403.59 985.924H2468.03M2403.59 1050.36V1114.8M2403.59 1050.36H2468.03M2403.59 1114.8V1179.24M2403.59 1114.8H2468.03M2403.59 1179.24V1243.68M2403.59 1179.24H2468.03M2403.59 1243.68V1308.12M2403.59 1243.68H2468.03M2403.59 1308.12H2468.03M2468.03 19.3317V83.7711M2468.03 19.3317H2532.47M2468.03 83.7711V148.211M2468.03 83.7711H2532.47M2468.03 148.211V212.65M2468.03 148.211H2532.47M2468.03 212.65V277.09M2468.03 212.65H2532.47M2468.03 277.09V341.529M2468.03 277.09H2532.47M2468.03 341.529V405.968M2468.03 341.529H2532.47M2468.03 405.968V470.408M2468.03 405.968H2532.47M2468.03 470.408V534.847M2468.03 470.408H2532.47M2468.03 534.847V599.287M2468.03 534.847H2532.47M2468.03 599.287V663.726M2468.03 599.287H2532.47M2468.03 663.726V728.166M2468.03 663.726H2532.47M2468.03 728.166V792.605M2468.03 728.166H2532.47M2468.03 792.605V857.045M2468.03 792.605H2532.47M2468.03 857.045V921.484M2468.03 857.045H2532.47M2468.03 921.484V985.924M2468.03 921.484H2532.47M2468.03 985.924V1050.36M2468.03 985.924H2532.47M2468.03 1050.36V1114.8M2468.03 1050.36H2532.47M2468.03 1114.8V1179.24M2468.03 1114.8H2532.47M2468.03 1179.24V1243.68M2468.03 1179.24H2532.47M2468.03 1243.68V1308.12M2468.03 1243.68H2532.47M2468.03 1308.12H2532.47M2532.47 19.3317V83.7711M2532.47 19.3317H2596.91M2532.47 83.7711V148.211M2532.47 83.7711H2596.91M2532.47 148.211V212.65M2532.47 148.211H2596.91M2532.47 212.65V277.09M2532.47 212.65H2596.91M2532.47 277.09V341.529M2532.47 277.09H2596.91M2532.47 341.529V405.968M2532.47 341.529H2596.91M2532.47 405.968V470.408M2532.47 405.968H2596.91M2532.47 470.408V534.847M2532.47 470.408H2596.91M2532.47 534.847V599.287M2532.47 534.847H2596.91M2532.47 599.287V663.726M2532.47 599.287H2596.91M2532.47 663.726V728.166M2532.47 663.726H2596.91M2532.47 728.166V792.605M2532.47 728.166H2596.91M2532.47 792.605V857.045M2532.47 792.605H2596.91M2532.47 857.045V921.484M2532.47 857.045H2596.91M2532.47 921.484V985.924M2532.47 921.484H2596.91M2532.47 985.924V1050.36M2532.47 985.924H2596.91M2532.47 1050.36V1114.8M2532.47 1050.36H2596.91M2532.47 1114.8V1179.24M2532.47 1114.8H2596.91M2532.47 1179.24V1243.68M2532.47 1179.24H2596.91M2532.47 1243.68V1308.12M2532.47 1243.68H2596.91M2532.47 1308.12H2596.91M2596.91 19.3317V83.7711M2596.91 19.3317H2661.35M2596.91 83.7711V148.211M2596.91 83.7711H2661.35M2596.91 148.211V212.65M2596.91 148.211H2661.35M2596.91 212.65V277.09M2596.91 212.65H2661.35M2596.91 277.09V341.529M2596.91 277.09H2661.35M2596.91 341.529V405.968M2596.91 341.529H2661.35M2596.91 405.968V470.408M2596.91 405.968H2661.35M2596.91 470.408V534.847M2596.91 470.408H2661.35M2596.91 534.847V599.287M2596.91 534.847H2661.35M2596.91 599.287V663.726M2596.91 599.287H2661.35M2596.91 663.726V728.166M2596.91 663.726H2661.35M2596.91 728.166V792.605M2596.91 728.166H2661.35M2596.91 792.605V857.045M2596.91 792.605H2661.35M2596.91 857.045V921.484M2596.91 857.045H2661.35M2596.91 921.484V985.924M2596.91 921.484H2661.35M2596.91 985.924V1050.36M2596.91 985.924H2661.35M2596.91 1050.36V1114.8M2596.91 1050.36H2661.35M2596.91 1114.8V1179.24M2596.91 1114.8H2661.35M2596.91 1179.24V1243.68M2596.91 1179.24H2661.35M2596.91 1243.68V1308.12M2596.91 1243.68H2661.35M2596.91 1308.12H2661.35M2661.35 19.3317V83.7711M2661.35 19.3317H2725.79M2661.35 83.7711V148.211M2661.35 83.7711H2725.79M2661.35 148.211V212.65M2661.35 148.211H2725.79M2661.35 212.65V277.09M2661.35 212.65H2725.79M2661.35 277.09V341.529M2661.35 277.09H2725.79M2661.35 341.529V405.968M2661.35 341.529H2725.79M2661.35 405.968V470.408M2661.35 405.968H2725.79M2661.35 470.408V534.847M2661.35 470.408H2725.79M2661.35 534.847V599.287M2661.35 534.847H2725.79M2661.35 599.287V663.726M2661.35 599.287H2725.79M2661.35 663.726V728.166M2661.35 663.726H2725.79M2661.35 728.166V792.605M2661.35 728.166H2725.79M2661.35 792.605V857.045M2661.35 792.605H2725.79M2661.35 857.045V921.484M2661.35 857.045H2725.79M2661.35 921.484V985.924M2661.35 921.484H2725.79M2661.35 985.924V1050.36M2661.35 985.924H2725.79M2661.35 1050.36V1114.8M2661.35 1050.36H2725.79M2661.35 1114.8V1179.24M2661.35 1114.8H2725.79M2661.35 1179.24V1243.68M2661.35 1179.24H2725.79M2661.35 1243.68V1308.12M2661.35 1243.68H2725.79M2661.35 1308.12H2725.79M2725.79 19.3317V83.7711M2725.79 19.3317H2790.23M2725.79 83.7711V148.211M2725.79 83.7711H2790.23M2725.79 148.211V212.65M2725.79 148.211H2790.23M2725.79 212.65V277.09M2725.79 212.65H2790.23M2725.79 277.09V341.529M2725.79 277.09H2790.23M2725.79 341.529V405.968M2725.79 341.529H2790.23M2725.79 405.968V470.408M2725.79 405.968H2790.23M2725.79 470.408V534.847M2725.79 470.408H2790.23M2725.79 534.847V599.287M2725.79 534.847H2790.23M2725.79 599.287V663.726M2725.79 599.287H2790.23M2725.79 663.726V728.166M2725.79 663.726H2790.23M2725.79 728.166V792.605M2725.79 728.166H2790.23M2725.79 792.605V857.045M2725.79 792.605H2790.23M2725.79 857.045V921.484M2725.79 857.045H2790.23M2725.79 921.484V985.924M2725.79 921.484H2790.23M2725.79 985.924V1050.36M2725.79 985.924H2790.23M2725.79 1050.36V1114.8M2725.79 1050.36H2790.23M2725.79 1114.8V1179.24M2725.79 1114.8H2790.23M2725.79 1179.24V1243.68M2725.79 1179.24H2790.23M2725.79 1243.68V1308.12M2725.79 1243.68H2790.23M2725.79 1308.12H2790.23M2790.23 19.3317V83.7711M2790.23 19.3317H2854.67V83.7711M2790.23 83.7711V148.211M2790.23 83.7711H2854.67M2790.23 148.211V212.65M2790.23 148.211H2854.67M2790.23 212.65V277.09M2790.23 212.65H2854.67M2790.23 277.09V341.529M2790.23 277.09H2854.67M2790.23 341.529V405.968M2790.23 341.529H2854.67M2790.23 405.968V470.408M2790.23 405.968H2854.67M2790.23 470.408V534.847M2790.23 470.408H2854.67M2790.23 534.847V599.287M2790.23 534.847H2854.67M2790.23 599.287V663.726M2790.23 599.287H2854.67M2790.23 663.726V728.166M2790.23 663.726H2854.67M2790.23 728.166V792.605M2790.23 728.166H2854.67M2790.23 792.605V857.045M2790.23 792.605H2854.67M2790.23 857.045V921.484M2790.23 857.045H2854.67M2790.23 921.484V985.924M2790.23 921.484H2854.67M2790.23 985.924V1050.36M2790.23 985.924H2854.67M2790.23 1050.36V1114.8M2790.23 1050.36H2854.67M2790.23 1114.8V1179.24M2790.23 1114.8H2854.67M2790.23 1179.24V1243.68M2790.23 1179.24H2854.67M2790.23 1243.68V1308.12M2790.23 1243.68H2854.67M2790.23 1308.12H2854.67V1243.68M2854.67 83.7711V148.211M2854.67 148.211V212.65M2854.67 212.65V277.09M2854.67 277.09V341.529M2854.67 341.529V405.968M2854.67 405.968V470.408M2854.67 470.408V534.847M2854.67 534.847V599.287M2854.67 599.287V663.726M2854.67 663.726V728.166M2854.67 728.166V792.605M2854.67 792.605V857.045M2854.67 857.045V921.484M2854.67 921.484V985.924M2854.67 985.924V1050.36M2854.67 1050.36V1114.8M2854.67 1114.8V1179.24M2854.67 1179.24V1243.68" stroke="url(#paint0_radial_1062_701)" stroke-opacity="0.6" stroke-width="0.805493"/>
<path opacity="0.8" d="M277.09 257.758V277.09M277.09 277.09V296.421M277.09 277.09H257.758M277.09 277.09H296.422M277.09 773.274V792.605M277.09 792.605V811.937M277.09 792.605H257.758M277.09 792.605H296.422M277.09 1288.79V1308.12M277.09 1308.12V1327.45M277.09 1308.12H257.758M277.09 1308.12H296.422M792.606 257.758V277.09M792.606 277.09V296.421M792.606 277.09H773.274M792.606 277.09H811.937M792.606 773.274V792.605M792.606 792.605V811.937M792.606 792.605H773.274M792.606 792.605H811.937M792.606 1288.79V1308.12M792.606 1308.12V1327.45M792.606 1308.12H773.274M792.606 1308.12H811.937M1308.12 257.758V277.09M1308.12 277.09V296.421M1308.12 277.09H1288.79M1308.12 277.09H1327.45M1308.12 773.274V792.605M1308.12 792.605V811.937M1308.12 792.605H1288.79M1308.12 792.605H1327.45M1308.12 1288.79V1308.12M1308.12 1308.12V1327.45M1308.12 1308.12H1288.79M1308.12 1308.12H1327.45M1823.64 257.758V277.09M1823.64 277.09V296.421M1823.64 277.09H1804.31M1823.64 277.09H1842.97M1823.64 773.274V792.605M1823.64 792.605V811.937M1823.64 792.605H1804.31M1823.64 792.605H1842.97M1823.64 1288.79V1308.12M1823.64 1308.12V1327.45M1823.64 1308.12H1804.31M1823.64 1308.12H1842.97M2339.15 257.758V277.09M2339.15 277.09V296.421M2339.15 277.09H2319.82M2339.15 277.09H2358.48M2339.15 773.274V792.605M2339.15 792.605V811.937M2339.15 792.605H2319.82M2339.15 792.605H2358.48M2339.15 1288.79V1308.12M2339.15 1308.12V1327.45M2339.15 1308.12H2319.82M2339.15 1308.12H2358.48M2854.67 257.758V277.09M2854.67 277.09V296.421M2854.67 277.09H2835.34M2854.67 277.09H2874M2854.67 773.274V792.605M2854.67 792.605V811.937M2854.67 792.605H2835.34M2854.67 792.605H2874M2854.67 1288.79V1308.12M2854.67 1308.12V1327.45M2854.67 1308.12H2835.34M2854.67 1308.12H2874M277.09 0V19.3318M277.09 19.3318V38.6637M277.09 19.3318H257.758M277.09 19.3318H296.422M277.09 515.516V534.848M277.09 534.848V554.179M277.09 534.848H257.758M277.09 534.848H296.422M277.09 1031.03V1050.36M277.09 1050.36V1069.69M277.09 1050.36H257.758M277.09 1050.36H296.422M792.606 0V19.3318M792.606 19.3318V38.6637M792.606 19.3318H773.274M792.606 19.3318H811.937M792.606 515.516V534.848M792.606 534.848V554.179M792.606 534.848H773.274M792.606 534.848H811.937M792.606 1031.03V1050.36M792.606 1050.36V1069.69M792.606 1050.36H773.274M792.606 1050.36H811.937M1308.12 0V19.3318M1308.12 19.3318V38.6637M1308.12 19.3318H1288.79M1308.12 19.3318H1327.45M1308.12 515.516V534.848M1308.12 534.848V554.179M1308.12 534.848H1288.79M1308.12 534.848H1327.45M1308.12 1031.03V1050.36M1308.12 1050.36V1069.69M1308.12 1050.36H1288.79M1308.12 1050.36H1327.45M1823.64 0V19.3318M1823.64 19.3318V38.6637M1823.64 19.3318H1804.31M1823.64 19.3318H1842.97M1823.64 515.516V534.848M1823.64 534.848V554.179M1823.64 534.848H1804.31M1823.64 534.848H1842.97M1823.64 1031.03V1050.36M1823.64 1050.36V1069.69M1823.64 1050.36H1804.31M1823.64 1050.36H1842.97M2339.15 0V19.3318M2339.15 19.3318V38.6637M2339.15 19.3318H2319.82M2339.15 19.3318H2358.48M2339.15 515.516V534.848M2339.15 534.848V554.179M2339.15 534.848H2319.82M2339.15 534.848H2358.48M2339.15 1031.03V1050.36M2339.15 1050.36V1069.69M2339.15 1050.36H2319.82M2339.15 1050.36H2358.48M2854.67 0V19.3318M2854.67 19.3318V38.6637M2854.67 19.3318H2835.34M2854.67 19.3318H2874M2854.67 515.516V534.848M2854.67 534.848V554.179M2854.67 534.848H2835.34M2854.67 534.848H2874M2854.67 1031.03V1050.36M2854.67 1050.36V1069.69M2854.67 1050.36H2835.34M2854.67 1050.36H2874M19.3318 257.758V277.09M19.3318 277.09V296.421M19.3318 277.09H0M19.3318 277.09H38.6637M19.3318 773.274V792.605M19.3318 792.605V811.937M19.3318 792.605H0M19.3318 792.605H38.6637M19.3318 1288.79V1308.12M19.3318 1308.12V1327.45M19.3318 1308.12H0M19.3318 1308.12H38.6637M534.848 257.758V277.09M534.848 277.09V296.421M534.848 277.09H515.516M534.848 277.09H554.18M534.848 773.274V792.605M534.848 792.605V811.937M534.848 792.605H515.516M534.848 792.605H554.18M534.848 1288.79V1308.12M534.848 1308.12V1327.45M534.848 1308.12H515.516M534.848 1308.12H554.18M1050.36 257.758V277.09M1050.36 277.09V296.421M1050.36 277.09H1031.03M1050.36 277.09H1069.7M1050.36 773.274V792.605M1050.36 792.605V811.937M1050.36 792.605H1031.03M1050.36 792.605H1069.7M1050.36 1288.79V1308.12M1050.36 1308.12V1327.45M1050.36 1308.12H1031.03M1050.36 1308.12H1069.7M1565.88 257.758V277.09M1565.88 277.09V296.421M1565.88 277.09H1546.55M1565.88 277.09H1585.21M1565.88 773.274V792.605M1565.88 792.605V811.937M1565.88 792.605H1546.55M1565.88 792.605H1585.21M1565.88 1288.79V1308.12M1565.88 1308.12V1327.45M1565.88 1308.12H1546.55M1565.88 1308.12H1585.21M2081.39 257.758V277.09M2081.39 277.09V296.421M2081.39 277.09H2062.06M2081.39 277.09H2100.73M2081.39 773.274V792.605M2081.39 792.605V811.937M2081.39 792.605H2062.06M2081.39 792.605H2100.73M2081.39 1288.79V1308.12M2081.39 1308.12V1327.45M2081.39 1308.12H2062.06M2081.39 1308.12H2100.73M2596.91 257.758V277.09M2596.91 277.09V296.421M2596.91 277.09H2577.58M2596.91 277.09H2616.24M2596.91 773.274V792.605M2596.91 792.605V811.937M2596.91 792.605H2577.58M2596.91 792.605H2616.24M2596.91 1288.79V1308.12M2596.91 1308.12V1327.45M2596.91 1308.12H2577.58M2596.91 1308.12H2616.24M19.3318 9.50355e-05V19.3319M19.3318 19.3319V38.6638M19.3318 19.3319H0M19.3318 19.3319H38.6637M19.3318 515.516V534.848M19.3318 534.848V554.179M19.3318 534.848H0M19.3318 534.848H38.6637M19.3318 1031.03V1050.36M19.3318 1050.36V1069.69M19.3318 1050.36H0M19.3318 1050.36H38.6637M534.848 0V19.3318M534.848 19.3318V38.6637M534.848 19.3318H515.516M534.848 19.3318H554.18M534.848 515.516V534.848M534.848 534.848V554.179M534.848 534.848H515.516M534.848 534.848H554.18M534.848 1031.03V1050.36M534.848 1050.36V1069.69M534.848 1050.36H515.516M534.848 1050.36H554.18M1050.36 0V19.3318M1050.36 19.3318V38.6637M1050.36 19.3318H1031.03M1050.36 19.3318H1069.7M1050.36 515.516V534.848M1050.36 534.848V554.179M1050.36 534.848H1031.03M1050.36 534.848H1069.7M1050.36 1031.03V1050.36M1050.36 1050.36V1069.69M1050.36 1050.36H1031.03M1050.36 1050.36H1069.7M1565.88 0V19.3318M1565.88 19.3318V38.6637M1565.88 19.3318H1546.55M1565.88 19.3318H1585.21M1565.88 515.516V534.848M1565.88 534.848V554.179M1565.88 534.848H1546.55M1565.88 534.848H1585.21M1565.88 1031.03V1050.36M1565.88 1050.36V1069.69M1565.88 1050.36H1546.55M1565.88 1050.36H1585.21M2081.39 0V19.3318M2081.39 19.3318V38.6637M2081.39 19.3318H2062.06M2081.39 19.3318H2100.73M2081.39 515.516V534.848M2081.39 534.848V554.179M2081.39 534.848H2062.06M2081.39 534.848H2100.73M2081.39 1031.03V1050.36M2081.39 1050.36V1069.69M2081.39 1050.36H2062.06M2081.39 1050.36H2100.73M2596.91 0V19.3318M2596.91 19.3318V38.6637M2596.91 19.3318H2577.58M2596.91 19.3318H2616.24M2596.91 515.516V534.848M2596.91 534.848V554.179M2596.91 534.848H2577.58M2596.91 534.848H2616.24M2596.91 1031.03V1050.36M2596.91 1050.36V1069.69M2596.91 1050.36H2577.58M2596.91 1050.36H2616.24" stroke="url(#paint1_radial_1062_701)" stroke-opacity="0.6" stroke-width="1.61099"/>
<defs>
<radialGradient id="paint0_radial_1062_701" cx="0" cy="0" r="1" gradientUnits="userSpaceOnUse" gradientTransform="translate(1437 663.726) rotate(90) scale(644.395 1417.67)">
<stop stop-color="#2563EB"/>
<stop offset="1" stop-color="#2563EB" stop-opacity="0"/>
</radialGradient>
<radialGradient id="paint1_radial_1062_701" cx="0" cy="0" r="1" gradientUnits="userSpaceOnUse" gradientTransform="translate(1437 663.726) rotate(90) scale(663.726 1437)">
<stop stop-color="#2563EB"/>
<stop offset="1" stop-color="#2563EB" stop-opacity="0"/>
</radialGradient>
</defs>
</svg>
