<svg width="456" height="768" viewBox="0 0 456 768" fill="none" xmlns="http://www.w3.org/2000/svg">
<path d="M282 439.5H174C173.448 439.5 173 439.948 173 440.5V486.5C173 487.052 173.448 487.5 174 487.5H282C282.552 487.5 283 487.052 283 486.5V440.5C283 439.948 282.552 439.5 282 439.5Z" stroke="#D61F1F" stroke-width="10" stroke-miterlimit="3.99393"/>
<path d="M282 367.5H174C173.448 367.5 173 367.948 173 368.5V414.5C173 415.052 173.448 415.5 174 415.5H282C282.552 415.5 283 415.052 283 414.5V368.5C283 367.948 282.552 367.5 282 367.5Z" stroke="#D61F1F" stroke-width="10" stroke-miterlimit="3.99393"/>
<path d="M282 295.5H174C173.448 295.5 173 295.948 173 296.5V342.5C173 343.052 173.448 343.5 174 343.5H282C282.552 343.5 283 343.052 283 342.5V296.5C283 295.948 282.552 295.5 282 295.5Z" stroke="#D61F1F" stroke-width="10" stroke-miterlimit="3.99393"/>
<path d="M282 223.5H174C173.448 223.5 173 223.948 173 224.5V270.5C173 271.052 173.448 271.5 174 271.5H282C282.552 271.5 283 271.052 283 270.5V224.5C283 223.948 282.552 223.5 282 223.5Z" stroke="#D61F1F" stroke-width="10" stroke-miterlimit="3.99393"/>
<path d="M281 151.5H173C172.448 151.5 172 151.948 172 152.5V198.5C172 199.052 172.448 199.5 173 199.5H281C281.552 199.5 282 199.052 282 198.5V152.5C282 151.948 281.552 151.5 281 151.5Z" stroke="#D61F1F" stroke-width="10" stroke-miterlimit="3.99393"/>
<path d="M408.5 0C434.734 0 456 21.2665 456 47.5V720.5C456 746.734 434.734 768 408.5 768H47.5C21.2665 768 0 746.734 0 720.5V47.5C0 21.2665 21.2665 0 47.5 0H408.5ZM393.75 737H408.5C417.613 737 425 729.613 425 720.5V47.5C425 38.3873 417.613 31 408.5 31H393.75V737ZM76.75 737H378.75V31H76.75V737ZM47.5 31C38.3873 31 31 38.3873 31 47.5V720.5C31 729.613 38.3873 737 47.5 737H61.75V31H47.5Z" fill="#68707B"/>
<path d="M284.75 515.5H169.75C155.943 515.5 144.75 504.307 144.75 490.5V148.5C144.75 134.693 155.943 123.5 169.75 123.5H284.75C298.557 123.5 309.75 134.693 309.75 148.5V490.5C309.75 504.307 298.557 515.5 284.75 515.5Z" stroke="#D61F1F" stroke-width="17"/>
<path d="M186.618 637.217L238.517 562.563C240.396 559.86 244.627 561.718 243.907 564.931L232.796 614.563C232.516 615.813 233.466 617 234.747 617H264.111C267.338 617 269.237 620.626 267.398 623.279L215.612 697.993C213.712 700.735 209.427 698.793 210.236 695.556L222.629 645.985C222.944 644.723 221.99 643.5 220.688 643.5H189.902C186.672 643.5 184.774 639.869 186.618 637.217Z" fill="#68707B"/>
</svg>
