<svg width="456" height="768" viewBox="0 0 456 768" fill="none" xmlns="http://www.w3.org/2000/svg">
<path d="M408.5 0C434.734 0 456 21.2665 456 47.5V720.5C456 746.734 434.734 768 408.5 768H47.5C21.2665 768 0 746.734 0 720.5V47.5C0 21.2665 21.2665 0 47.5 0H408.5ZM47.5 31C38.3873 31 31 38.3873 31 47.5V720.5C31 729.613 38.3873 737 47.5 737H61.75V31H47.5ZM76.75 737H378.75V31H76.75V737ZM393.75 737H408.5C417.613 737 425 729.613 425 720.5V47.5C425 38.3873 417.613 31 408.5 31H393.75V737ZM238.517 562.562C240.396 559.86 244.626 561.718 243.907 564.931L232.796 614.563C232.516 615.813 233.466 617 234.747 617H264.11C267.338 617 269.237 620.626 267.398 623.278L215.612 697.993C213.712 700.735 209.427 698.793 210.236 695.557L222.629 645.985C222.944 644.723 221.99 643.5 220.688 643.5H189.902C186.672 643.5 184.774 639.869 186.618 637.217L238.517 562.562ZM284.75 115C303.252 115 318.25 129.998 318.25 148.5V490.5C318.25 509.002 303.252 524 284.75 524H169.75C151.248 524 136.25 509.002 136.25 490.5V148.5C136.25 129.998 151.248 115 169.75 115H284.75ZM169.75 132C160.637 132 153.25 139.387 153.25 148.5V490.5C153.25 499.613 160.637 507 169.75 507H284.75C293.863 507 301.25 499.613 301.25 490.5V148.5C301.25 139.387 293.863 132 284.75 132H169.75ZM282 434.5C285.314 434.5 288 437.186 288 440.5V486.5C288 489.814 285.314 492.5 282 492.5H174C170.686 492.5 168 489.814 168 486.5V440.5C168 437.186 170.686 434.5 174 434.5H282ZM282 362.5C285.314 362.5 288 365.186 288 368.5V414.5C288 417.814 285.314 420.5 282 420.5H174C170.686 420.5 168 417.814 168 414.5V368.5C168 365.186 170.686 362.5 174 362.5H282ZM282 290.5C285.314 290.5 288 293.186 288 296.5V342.5C288 345.814 285.314 348.5 282 348.5H174C170.686 348.5 168 345.814 168 342.5V296.5C168 293.186 170.686 290.5 174 290.5H282ZM282 218.5C285.314 218.5 288 221.186 288 224.5V270.5C288 273.814 285.314 276.5 282 276.5H174C170.686 276.5 168 273.814 168 270.5V224.5C168 221.186 170.686 218.5 174 218.5H282ZM281 146.5C284.314 146.5 287 149.186 287 152.5V198.5C287 201.814 284.314 204.5 281 204.5H173C169.686 204.5 167 201.814 167 198.5V152.5C167 149.186 169.686 146.5 173 146.5H281Z" fill="#68707B"/>
</svg>
