<svg width="488" height="577" viewBox="0 0 488 577" fill="none" xmlns="http://www.w3.org/2000/svg">
<path d="M443.5 0C468.077 0 488 19.9233 488 44.5V531.927C488 556.503 468.077 576.427 443.5 576.427H44.5C19.9233 576.427 0 556.503 0 531.927V44.5C0 19.9233 19.9233 0 44.5 0H443.5ZM44.5 25C33.7304 25 25 33.7305 25 44.5V531.927C25 542.696 33.7305 551.427 44.5 551.427H443.5C454.27 551.427 463 542.696 463 531.927V44.5C463 33.7304 454.27 25 443.5 25H44.5ZM258.118 352.938C259.997 350.236 264.228 352.094 263.51 355.306L252.494 404.507C252.214 405.757 253.165 406.944 254.446 406.944H283.555C286.782 406.944 288.681 410.57 286.843 413.223L235.478 487.329C233.577 490.07 229.293 488.129 230.102 484.893L242.386 435.759C242.701 434.497 241.746 433.274 240.445 433.273H209.923C206.693 433.273 204.795 429.642 206.639 426.99L258.118 352.938ZM396.441 80.4785C409.42 80.4787 419.941 90.9999 419.941 103.979V262.807C419.941 275.785 409.42 286.306 396.441 286.307H97.5205C84.5418 286.307 74.0205 275.785 74.0205 262.807V103.979C74.0205 90.9998 84.5418 80.4785 97.5205 80.4785H396.441ZM99.0205 261.307H394.941V105.479H99.0205V261.307ZM268.954 218.109C273.924 218.11 277.954 222.139 277.954 227.109C277.954 232.08 273.924 236.109 268.953 236.109H132.721C127.75 236.109 123.722 232.08 123.722 227.109C123.722 222.139 127.751 218.109 132.722 218.109H268.954ZM361.241 218.109C366.211 218.11 370.241 222.139 370.241 227.109C370.241 232.08 366.211 236.109 361.24 236.109H301.669C296.699 236.109 292.67 232.08 292.67 227.109C292.67 222.139 296.699 218.109 301.67 218.109H361.241ZM164.502 130.702C165.197 130.702 165.868 130.804 166.502 130.993C167.136 130.804 167.807 130.702 168.502 130.702H204.244C204.939 130.702 205.61 130.804 206.244 130.993C206.878 130.804 207.55 130.702 208.245 130.702H243.987C244.682 130.702 245.353 130.805 245.986 130.993C246.62 130.804 247.292 130.702 247.987 130.702H283.729C284.424 130.702 285.095 130.805 285.729 130.993C286.363 130.804 287.034 130.702 287.729 130.702H323.472C324.167 130.702 324.838 130.804 325.472 130.993C326.106 130.804 326.777 130.702 327.473 130.702H363.215C367.081 130.702 370.215 133.836 370.215 137.702V187.354C370.215 191.22 367.08 194.354 363.215 194.354H327.473C326.777 194.354 326.106 194.25 325.472 194.062C324.838 194.25 324.167 194.354 323.472 194.354H287.729C287.034 194.354 286.363 194.25 285.729 194.062C285.095 194.25 284.424 194.354 283.729 194.354H247.987C247.292 194.354 246.62 194.25 245.986 194.062C245.353 194.25 244.682 194.354 243.987 194.354H208.245C207.55 194.354 206.878 194.25 206.244 194.062C205.61 194.25 204.939 194.354 204.244 194.354H168.502C167.807 194.354 167.136 194.25 166.502 194.062C165.868 194.25 165.197 194.354 164.502 194.354H128.76C124.894 194.354 121.76 191.22 121.76 187.354V137.702C121.76 133.836 124.894 130.702 128.76 130.702H164.502ZM131.76 184.354H161.502V140.702H131.76V184.354ZM171.502 184.354H201.244V140.702H171.502V184.354ZM211.245 184.354H240.987V140.702H211.245V184.354ZM250.987 184.354H280.729V140.702H250.987V184.354ZM290.729 184.354H320.472V140.702H290.729V184.354ZM330.473 184.354H360.215V140.702H330.473V184.354Z" fill="#68707B"/>
</svg>
