<svg width="295" height="13" viewBox="0 0 295 13" fill="none" xmlns="http://www.w3.org/2000/svg">
<g clip-path="url(#clip0_1004_566)">
<path d="M295 7.29004L63.8535 13L60.6863 12.9922C44.9045 12.9125 29.9285 12.2395 18.7023 11.0967C6.72755 9.87766 -1.10837e-06 8.22395 0 6.5C0.000565474 4.77612 6.72805 3.12327 18.7023 1.9043C30.6769 0.685283 46.9186 3.27859e-07 63.8535 0L295 7.29004Z" fill="#05B4FF"/>
<path d="M209 7.04695L51.507 11L49.349 10.9946C38.5959 10.9394 28.392 10.4735 20.7429 9.68233C12.5839 8.83838 8 7.6935 8 6.5C8.00039 5.30654 12.5842 4.16226 20.7429 3.31836C28.9019 2.47443 39.9683 2 51.507 2L209 7.04695Z" fill="white"/>
</g>
<defs>
<clipPath id="clip0_1004_566">
<rect width="295" height="13" fill="white"/>
</clipPath>
</defs>
</svg>
