<?xml version="1.0" encoding="UTF-8" standalone="no"?>
<svg
   width="599.02911"
   height="515.9411"
   viewBox="0 0 599.02911 515.9411"
   fill="none"
   version="1.1"
   id="svg4"
   sodipodi:docname="energy-manager.svg"
   inkscape:version="1.2.2 (b0a8486541, 2022-12-01)"
   xmlns:inkscape="http://www.inkscape.org/namespaces/inkscape"
   xmlns:sodipodi="http://sodipodi.sourceforge.net/DTD/sodipodi-0.dtd"
   xmlns="http://www.w3.org/2000/svg"
   xmlns:svg="http://www.w3.org/2000/svg">
  <defs
     id="defs8" />
  <sodipodi:namedview
     id="namedview6"
     pagecolor="#ffffff"
     bordercolor="#666666"
     borderopacity="1.0"
     inkscape:showpageshadow="2"
     inkscape:pageopacity="0.0"
     inkscape:pagecheckerboard="0"
     inkscape:deskcolor="#d1d1d1"
     showgrid="false"
     inkscape:zoom="0.56093177"
     inkscape:cx="661.39952"
     inkscape:cy="-170.25244"
     inkscape:window-width="2533"
     inkscape:window-height="1360"
     inkscape:window-x="2560"
     inkscape:window-y="25"
     inkscape:window-maximized="1"
     inkscape:current-layer="svg4" />
  <g
     id="g1274"
     transform="translate(44.75005,-39.2939)">
    <path
       fill-rule="evenodd"
       clip-rule="evenodd"
       d="m 459.853,39.2939 c 26.33,10e-5 47.676,21.3459 47.676,47.6768 V 507.559 c 0,26.331 -21.345,47.676 -47.676,47.676 H 47.6768 C 21.3458,555.235 0,533.89 0,507.559 V 86.9707 C 8.65895e-5,60.6398 21.3458,39.2939 47.6768,39.2939 Z m 22.676,439.0951 c -6.744,3.653 -14.468,5.728 -22.676,5.728 H 47.6768 C 39.468,484.117 31.744,482.042 25,478.389 v 29.17 c 0,12.523 10.1529,22.676 22.6768,22.676 H 459.853 c 12.523,0 22.676,-10.153 22.676,-22.676 z m -362.97,41.405 H 95.0879 v -24.471 h 24.4711 z m 48.941,0 H 144.029 V 495.323 H 168.5 Z m 48.941,0 h -24.47 v -24.471 h 24.47 z m 48.941,0 h -24.47 v -24.471 h 24.47 z m 48.941,0 h -24.47 v -24.471 h 24.47 z m 48.942,0 h -24.471 v -24.471 h 24.471 z m 48.941,0 h -24.471 v -24.471 h 24.471 z M 47.6768,145.353 C 35.153,145.353 25.0002,155.506 25,168.029 V 436.44 c 0,12.524 10.1529,22.677 22.6768,22.677 H 459.853 c 12.523,0 22.676,-10.153 22.676,-22.677 V 168.029 c 0,-12.523 -10.153,-22.676 -22.676,-22.676 z m 266.1172,14.206 c 12.702,0 23,10.297 23,23 v 240.882 c 0,12.703 -10.298,23 -23,23 H 57.6172 c -12.7022,0 -22.9998,-10.297 -23,-23 V 182.559 c 1e-4,-12.703 10.2977,-23 23,-23 z m -256.1768,20 c -1.6566,0 -2.9999,1.343 -3,3 v 240.882 c 2e-4,1.657 1.3435,3 3,3 H 313.794 c 1.657,0 3,-1.343 3,-3 V 182.559 c 0,-1.657 -1.343,-3 -3,-3 z M 388.735,264 c 15.838,0 28.676,12.839 28.676,28.677 0,15.837 -12.838,28.675 -28.676,28.676 -15.837,-0.001 -28.676,-12.839 -28.676,-28.676 0,-15.838 12.839,-28.677 28.676,-28.677 z m 0,11.471 c -9.502,0 -17.206,7.703 -17.206,17.206 0,9.502 7.704,17.206 17.206,17.206 9.503,0 17.206,-7.704 17.206,-17.206 0,-9.503 -7.703,-17.206 -17.206,-17.206 z M 206.206,264.324 c 5.523,0 10,4.477 10,10 0,5.523 -4.477,10 -10,10 H 74.4414 c -5.5226,0 -9.9996,-4.477 -10,-10 0,-5.523 4.4772,-10 10,-10 z m 51.765,-35.941 c 5.522,0 10,4.477 10,10 -10e-4,5.522 -4.478,10 -10,10 H 74.4414 c -5.5227,0 -9.9997,-4.478 -10,-10 0,-5.523 4.4772,-10 10,-10 z m 0,-35.942 c 5.522,0.001 10,4.478 10,10 0,5.523 -4.478,10 -10,10 H 74.4414 c -5.5228,0 -9.9999,-4.477 -10,-10 0,-5.522 4.4772,-10 10,-10 z M 47.6768,64.2939 C 35.1529,64.2939 25.0001,74.4469 25,86.9707 v 39.1103 c 6.744,-3.653 14.4681,-5.728 22.6768,-5.728 H 459.853 c 8.208,0 15.932,2.075 22.676,5.728 V 86.9707 c 0,-12.5238 -10.153,-22.6767 -22.676,-22.6768 z M 119.559,104.559 H 95.0879 V 80.0879 h 24.4711 z m 48.941,0 H 144.029 V 80.0879 H 168.5 Z m 48.941,0 h -24.47 V 80.0879 h 24.47 z m 48.941,0 h -24.47 V 80.0879 h 24.47 z m 48.941,0 h -24.47 V 80.0879 h 24.47 z m 48.942,0 H 339.794 V 80.0879 h 24.471 z m 48.941,0 H 388.735 V 80.0879 h 24.471 z"
       fill="#68707b"
       id="path2"
       sodipodi:nodetypes="cssssscsccsscssssccccccccccccccccccccccccccccccccccccscssssssssssssccsssccsssssssscssssssssssscssscsscsscssscscsccsscscsccccccccccccccccccccccccccccccccccc" />
  </g>
  <g
     id="g1271"
     transform="translate(38.74475,-50.71966)">
    <path
       fill-rule="evenodd"
       clip-rule="evenodd"
       d="m 547.66735,242.54321 c 6.968,0 12.617,5.649 12.617,12.617 v 107.059 c 0,6.968 -5.649,12.617 -12.617,12.618 h -22.559 v -132.294 z m -15.294,92.529 c 0,2.956 2.396,5.353 5.353,5.353 2.955,-10e-4 5.352,-2.397 5.352,-5.353 v -53.147 c 0,-2.956 -2.396,-5.353 -5.352,-5.353 -2.957,0 -5.353,2.396 -5.353,5.353 z"
       fill="#68707b"
       id="path2-6"
       sodipodi:nodetypes="ssscccsscsssss" />
  </g>
  <g
     id="g1268"
     transform="translate(50.74475,193.79162)">
    <path
       d="m -38.12775,130.32593 c -6.968,0 -12.617,-5.649 -12.617,-12.617 v -107.059 c 0,-6.968 5.649,-12.617 12.617,-12.618 h 22.559 v 132.294 z m 15.294,-92.529 c 0,-2.956 -2.396,-5.353 -5.353,-5.353 -2.955,10e-4 -5.352,2.397 -5.352,5.353 v 53.147 c 0,2.956 2.396,5.353 5.352,5.353 2.957,0 5.353,-2.396 5.353,-5.353 z"
       style="clip-rule:evenodd;fill:#68707b;fill-rule:evenodd"
       id="path1242"
       sodipodi:nodetypes="ssscccsscsssss" />
  </g>
</svg>
