<svg width="838" height="607" viewBox="0 0 838 607" fill="none" xmlns="http://www.w3.org/2000/svg">
<path fill-rule="evenodd" clip-rule="evenodd" d="M669.267 215.926C711.24 215.926 745.267 249.952 745.267 291.926C745.267 333.899 711.24 367.926 669.267 367.926C627.293 367.926 593.267 333.899 593.267 291.926C593.267 249.952 627.293 215.926 669.267 215.926ZM159.514 215.924C201.487 215.924 235.514 249.95 235.514 291.924C235.514 333.898 201.488 367.924 159.514 367.924C117.54 367.924 83.5139 333.898 83.5139 291.924C83.514 249.95 117.54 215.924 159.514 215.924ZM669.267 240.926C641.1 240.926 618.267 263.759 618.267 291.926C618.267 320.092 641.1 342.926 669.267 342.926C697.433 342.926 720.267 320.092 720.267 291.926C720.267 263.759 697.433 240.926 669.267 240.926ZM159.514 240.924C131.348 240.924 108.514 263.758 108.514 291.924C108.514 320.09 131.347 342.924 159.514 342.924C187.68 342.924 210.514 320.09 210.514 291.924C210.514 263.758 187.68 240.924 159.514 240.924ZM196.792 7.8644C256.215 1.72813 330.41 -3.14889 387.002 2.48452C418.229 5.59299 437.585 8.26332 468.34 17.4455C504.928 28.369 540.464 49.7418 568.84 68.8673C583.054 78.4475 595.839 87.7247 605.97 94.8693C616.702 102.438 623.511 106.898 627.082 108.39C638.227 113.045 654.609 115.514 677.851 119.815C700.267 123.963 727.163 129.588 756.244 140.753C773.062 147.209 786.764 152.489 797.867 160.622C809.595 169.212 817.739 180.373 825.583 197.12C829.766 206.05 831.302 211.747 833.414 220.486C837.271 236.435 837.588 255.439 837.091 269.797C836.838 277.109 836.362 283.487 835.948 288.047C835.74 290.33 835.548 292.167 835.406 293.446C835.334 294.086 835.276 294.588 835.234 294.938C835.213 295.112 835.196 295.249 835.184 295.346C835.178 295.394 835.173 295.433 835.169 295.461C835.167 295.475 835.165 295.487 835.164 295.496C835.164 295.501 835.164 295.505 835.163 295.508C835.163 295.509 835.163 295.512 835.162 295.513C835.159 295.513 835.123 295.508 834.766 295.462V295.465L835.162 295.516C835.021 296.612 834.741 297.658 834.344 298.636C833.534 301.684 831.58 304.431 828.656 306.17C814.614 314.519 798.58 318.926 782.243 318.926H765.267C765.159 318.926 765.051 318.925 764.944 318.922C763.335 318.881 761.803 318.537 760.401 317.944C760.214 317.864 760.029 317.781 759.847 317.694C755.657 315.675 752.767 311.388 752.767 306.426V291.926C752.767 245.534 715.159 207.926 668.767 207.926C622.375 207.926 584.767 245.534 584.767 291.926V306.426C584.767 308.09 584.438 309.677 583.848 311.129C582.432 316.479 577.559 320.423 571.764 320.423H256.764C252.101 320.423 248.037 317.868 245.889 314.083C244.245 311.967 243.264 309.311 243.264 306.424V291.924C243.264 245.532 205.656 207.924 159.264 207.924C112.872 207.924 75.264 245.532 75.2639 291.924V300.189C75.2799 300.991 75.2157 301.781 75.0822 302.553C75.0666 302.644 75.05 302.735 75.0324 302.825C75.0118 302.931 74.9893 303.035 74.966 303.14C74.9379 303.267 74.9091 303.393 74.8772 303.519C74.8648 303.567 74.852 303.615 74.8391 303.663C74.3938 305.327 73.6118 306.852 72.5735 308.166C71.3016 309.779 69.6328 311.087 67.674 311.921C67.6515 311.931 67.6292 311.941 67.6067 311.95C67.4554 312.014 67.3022 312.073 67.1477 312.131C66.3433 312.432 65.5004 312.655 64.6272 312.785C64.5346 312.801 64.4322 312.819 64.3205 312.836C63.9254 312.897 63.4097 312.969 62.7864 313.038C61.5416 313.177 59.849 313.309 57.8108 313.329C53.7592 313.37 48.175 312.97 41.9553 311.194C29.0746 307.513 14.4536 298.156 5.32736 277.469C3.52645 273.386 2.38853 267.61 1.63108 262.263C0.816174 256.51 0.255712 249.821 0.0685757 243.142C-0.11766 236.494 0.0578189 229.555 0.812716 223.374C1.49771 217.766 2.8683 210.733 6.36447 205.489C9.82062 200.306 13.1632 195.894 15.6428 192.776C15.9962 192.331 16.3337 191.912 16.6516 191.52L15.7151 161.299C15.0042 138.371 23.9428 116.197 40.3547 100.171L86.6565 54.9582C89.4539 52.2265 88.9545 47.5958 85.6389 45.5236C79.785 41.8646 78.0055 34.153 81.6643 28.299C82.3148 27.2581 83.0935 26.346 83.967 25.5705C85.7998 23.5283 88.3126 22.0711 91.2307 21.59L91.3733 22.4572C91.3746 22.4571 91.3759 22.4573 91.3772 22.4572C91.2429 21.639 91.2341 21.5918 91.2346 21.589C91.2363 21.5887 91.24 21.5876 91.2434 21.5871C91.2501 21.586 91.2597 21.5851 91.2717 21.5832C91.2962 21.5791 91.3319 21.5731 91.3781 21.5656C91.4712 21.5504 91.6083 21.5282 91.7873 21.4992C92.1454 21.4411 92.6738 21.3555 93.3645 21.2453C94.7464 21.0247 96.7793 20.704 99.3996 20.3009C104.64 19.4947 112.235 18.358 121.689 17.0294C140.591 14.373 166.95 10.9461 196.792 7.8644ZM214.977 31.1876C209.689 31.6882 204.477 32.2043 199.361 32.7326C169.891 35.7757 143.843 39.1616 125.167 41.7863C120.52 42.4393 116.331 43.0449 112.661 43.5861C115.006 53.6846 112.313 64.8466 104.122 72.8449L57.8205 118.058C46.4191 129.191 40.2096 144.596 40.7033 160.524L41.758 194.536C41.7678 194.851 41.7645 195.164 41.7512 195.474C41.8633 198.568 40.8373 201.708 38.6233 204.209C38.6181 204.215 38.6094 204.224 38.5979 204.237C38.5674 204.272 38.5154 204.333 38.4426 204.417C38.2965 204.586 38.068 204.852 37.7688 205.206C37.1695 205.916 36.2877 206.98 35.2112 208.334C33.0499 211.052 30.1429 214.891 27.1643 219.359C27.3139 219.134 27.0323 219.503 26.6301 220.957C26.257 222.306 25.9067 224.125 25.6281 226.405C25.0705 230.971 24.8949 236.592 25.0588 242.442C25.2218 248.259 25.7114 254.007 26.384 258.756C26.7203 261.13 27.0884 263.152 27.4543 264.746C27.6364 265.539 27.805 266.172 27.9514 266.652C28.0235 266.888 28.0852 267.069 28.1321 267.198C28.174 267.315 28.1976 267.372 28.2004 267.379C34.0733 280.691 42.4534 285.334 48.8225 287.154C49.3392 287.302 49.8499 287.431 50.3508 287.546C52.6486 229.377 100.531 182.924 159.264 182.924C219.463 182.924 268.264 231.725 268.264 291.924V295.423H559.767V291.926C559.767 231.727 608.568 182.926 668.767 182.926C728.966 182.926 777.767 231.727 777.767 291.926V293.926H782.243C792.192 293.926 801.986 291.669 810.899 287.358C810.946 286.866 811 286.341 811.05 285.787C811.432 281.583 811.873 275.68 812.107 268.932C812.583 255.167 812.151 238.92 809.115 226.361C807.164 218.295 806.095 214.452 802.945 207.726C796.195 193.316 790.342 186.099 783.095 180.791C775.224 175.026 764.973 170.884 747.283 164.093C720.365 153.759 695.26 148.46 673.302 144.397C652.169 140.486 631.802 137.454 617.447 131.458C610.768 128.668 601.438 122.265 591.562 115.3C581.084 107.911 568.79 98.9819 554.867 89.5978C527.126 70.8997 494.375 51.4195 461.739 41.5675C462.806 41.9813 463.877 42.4023 464.948 42.8351C492.057 53.7833 530.837 76.1853 555.461 95.7716C561.668 100.708 567.262 105.691 571.631 110.473C575.683 114.908 579.944 120.504 581.538 126.682C582.41 130.058 582.668 134.343 580.862 138.705C579.021 143.148 575.685 146.112 572.263 147.944C566.143 151.221 558.164 151.766 550.211 151.413C449.034 146.928 243.956 138.409 171.472 130.859C162.518 129.926 154.697 126.625 148.804 120.96C142.923 115.306 139.745 108.046 138.785 100.574C136.908 85.9477 143.306 70.2055 154.925 58.5861C169.308 44.2023 191.41 36.0394 214.977 31.1876ZM425.226 165.974C427.106 163.272 431.336 165.132 430.616 168.344L421.769 207.822C421.489 209.072 422.439 210.26 423.72 210.26H447.12C450.349 210.26 452.247 213.888 450.406 216.54L408.506 276.931C406.605 279.671 402.321 277.728 403.131 274.492L412.957 235.226C413.273 233.963 412.319 232.741 411.018 232.74H386.421C383.19 232.74 381.292 229.107 383.138 226.455L425.226 165.974ZM341.752 116.833C417.191 120.641 498.165 124.081 551.319 126.438C551.682 126.454 552.032 126.464 552.37 126.474C549.277 123.215 545.07 119.451 539.899 115.338C517.163 97.2544 480.474 76.0667 455.586 66.0158C414.16 49.2858 377.098 48.4554 330.99 48.424L341.752 116.833ZM305.695 48.4992C281.504 48.7668 256.032 49.8657 233.141 53.3449C205.123 57.6033 183.815 65.0526 172.604 76.2638C165.296 83.5724 162.883 91.9438 163.582 97.3917C163.912 99.957 164.869 101.726 166.129 102.937C167.377 104.137 169.704 105.538 174.062 105.992C203.991 109.11 257.113 112.406 316.237 115.519L305.695 48.4992Z" fill="#68707B"/>
<path d="M278.5 570.75L278.5 462.75C278.5 462.198 278.053 461.75 277.5 461.75L231.5 461.75C230.948 461.75 230.5 462.198 230.5 462.75L230.5 570.75C230.5 571.302 230.948 571.75 231.5 571.75L277.5 571.75C278.053 571.75 278.5 571.302 278.5 570.75Z" stroke="#D61F1F" stroke-width="10" stroke-miterlimit="3.99393"/>
<path d="M350.5 570.75L350.5 462.75C350.5 462.198 350.053 461.75 349.5 461.75L303.5 461.75C302.948 461.75 302.5 462.198 302.5 462.75L302.5 570.75C302.5 571.302 302.948 571.75 303.5 571.75L349.5 571.75C350.053 571.75 350.5 571.302 350.5 570.75Z" stroke="#D61F1F" stroke-width="10" stroke-miterlimit="3.99393"/>
<path d="M422.5 570.75L422.5 462.75C422.5 462.198 422.053 461.75 421.5 461.75L375.5 461.75C374.948 461.75 374.5 462.198 374.5 462.75L374.5 570.75C374.5 571.302 374.948 571.75 375.5 571.75L421.5 571.75C422.053 571.75 422.5 571.302 422.5 570.75Z" stroke="#D61F1F" stroke-width="10" stroke-miterlimit="3.99393"/>
<path d="M494.5 570.75L494.5 462.75C494.5 462.198 494.053 461.75 493.5 461.75L447.5 461.75C446.948 461.75 446.5 462.198 446.5 462.75L446.5 570.75C446.5 571.302 446.948 571.75 447.5 571.75L493.5 571.75C494.053 571.75 494.5 571.302 494.5 570.75Z" stroke="#D61F1F" stroke-width="10" stroke-miterlimit="3.99393"/>
<path d="M566.5 569.75L566.5 461.75C566.5 461.198 566.053 460.75 565.5 460.75L519.5 460.75C518.948 460.75 518.5 461.198 518.5 461.75L518.5 569.75C518.5 570.302 518.948 570.75 519.5 570.75L565.5 570.75C566.053 570.75 566.5 570.302 566.5 569.75Z" stroke="#D61F1F" stroke-width="10" stroke-miterlimit="3.99393"/>
<path d="M202.5 573.5L202.5 458.5C202.5 444.693 213.693 433.5 227.5 433.5L569.5 433.5C583.307 433.5 594.5 444.693 594.5 458.5L594.5 573.5C594.5 587.307 583.307 598.5 569.5 598.5L227.5 598.5C213.693 598.5 202.5 587.307 202.5 573.5Z" stroke="#D61F1F" stroke-width="17"/>
</svg>
