<svg width="663" height="546" viewBox="0 0 663 546" fill="none" xmlns="http://www.w3.org/2000/svg">
<path d="M622.881 0C645.038 1.03244e-05 663 17.9587 663 40.1123V505.888C663 528.041 645.038 546 622.881 546H40.1191C17.9615 546 0 528.041 0 505.888V40.1123C0 17.9587 17.9615 2.69127e-05 40.1191 0H622.881ZM17.3105 504.974C17.3105 518.373 28.17 529.231 41.5723 529.231H621.428C634.83 529.231 645.689 518.373 645.689 504.974V53.6621H17.3105V504.974ZM608.739 480.278C613.554 480.278 617.457 484.18 617.457 488.994V489.007C617.457 493.821 613.554 497.723 608.739 497.723H505.931C501.116 497.723 497.213 493.821 497.213 489.007V488.994C497.213 484.18 501.116 480.278 505.931 480.278H608.739ZM433.633 79.8359C452.822 79.8359 468.392 95.3898 468.392 114.588V462.282C468.392 481.468 452.834 497.034 433.633 497.034H82.8438C63.6547 497.034 48.0859 481.48 48.0859 462.282V114.588C48.0859 95.4023 63.6422 79.8359 82.8438 79.8359H433.633ZM63.6045 462.533C63.6047 472.339 71.5462 480.278 81.3535 480.278H202.137C133.535 460.354 80.1633 404.638 63.6045 334.684V462.533ZM452.283 334.684C435.724 404.638 382.353 460.354 313.751 480.278H434.535C444.342 480.278 452.283 472.339 452.283 462.533V334.684ZM257.85 106.322C157.157 106.323 75.5293 187.936 75.5293 288.61C75.5294 389.284 157.157 470.898 257.85 470.898C358.542 470.898 440.171 389.284 440.171 288.61C440.171 187.936 358.542 106.322 257.85 106.322ZM193.168 155.413C210.328 115.189 281.26 111.018 316.569 132.157C321.229 134.95 332.727 141.838 333.203 151.757C333.816 164.505 315.467 166.885 302.804 184.63C287.222 206.458 293.423 233.145 291.318 250.702C293.598 252.718 295.69 254.923 297.568 257.314C307.964 246.194 319.425 239.106 323.483 236.739C335.195 229.902 364.655 212.682 391.059 223.94C431.29 241.097 435.461 312.016 414.318 347.319C411.525 351.978 404.636 363.474 394.716 363.95C381.965 364.563 379.585 346.217 361.837 333.556C340.005 317.977 313.313 324.176 295.752 322.072C293.735 324.351 291.531 326.443 289.139 328.321C300.261 338.715 307.35 350.173 309.718 354.231C316.557 365.941 333.78 395.396 322.52 421.795C305.36 462.019 234.428 466.19 199.118 445.051C194.459 442.258 182.96 435.37 182.484 425.451C181.871 412.703 200.221 410.323 212.884 392.578C228.465 370.75 222.265 344.063 224.369 326.506C222.09 324.49 219.998 322.285 218.119 319.894C207.723 331.014 196.263 338.102 192.204 340.469C180.493 347.306 151.033 364.526 124.629 353.268C84.397 336.111 80.2261 265.192 101.369 229.889C104.162 225.23 111.052 213.734 120.972 213.258C133.722 212.645 136.102 230.991 153.851 243.651C175.683 259.23 202.375 253.032 219.936 255.136C221.952 252.857 224.156 250.765 226.549 248.887C215.426 238.492 208.337 227.033 205.97 222.976C199.131 211.266 181.908 181.812 193.168 155.413ZM608.477 430.123C613.291 430.123 617.194 434.025 617.194 438.839V438.852C617.194 443.665 613.291 447.567 608.477 447.567H505.667C500.852 447.567 496.949 443.665 496.949 438.852V438.839C496.949 434.025 500.852 430.123 505.667 430.123H608.477ZM608.477 379.955C613.291 379.955 617.194 383.857 617.194 388.671V388.684C617.194 393.497 613.291 397.399 608.477 397.399H505.667C500.853 397.399 496.949 393.497 496.949 388.684V388.671C496.949 383.857 500.852 379.955 505.667 379.955H608.477ZM608.739 330.138C613.554 330.138 617.457 334.04 617.457 338.854V338.866C617.457 343.68 613.554 347.582 608.739 347.582H505.931C501.116 347.582 497.213 343.68 497.213 338.866V338.854C497.213 334.04 501.116 330.138 505.931 330.138H608.739ZM257.85 255.349C239.575 255.349 224.758 270.163 224.758 288.435C224.758 306.706 239.575 321.521 257.85 321.521C276.124 321.521 290.942 306.706 290.942 288.435C290.942 270.163 276.124 255.349 257.85 255.349ZM609.767 280.32C614.581 280.32 618.484 284.222 618.484 289.036V289.049C618.484 293.862 614.581 297.765 609.767 297.765H506.957C502.143 297.765 498.239 293.862 498.239 289.049V289.036C498.239 284.222 502.142 280.32 506.957 280.32H609.767ZM608.477 230.503C613.291 230.503 617.194 234.405 617.194 239.219V239.231C617.194 244.045 613.291 247.947 608.477 247.947H505.667C500.853 247.947 496.949 244.045 496.949 239.231V239.219C496.949 234.405 500.852 230.503 505.667 230.503H608.477ZM81.3535 96.7422C71.5461 96.7422 63.6045 104.682 63.6045 114.487V242.337C80.1632 172.382 133.535 116.667 202.137 96.7422H81.3535ZM313.751 96.7422C382.353 116.667 435.724 172.382 452.283 242.337V114.487C452.283 104.682 444.342 96.7424 434.535 96.7422H313.751ZM608.477 180.686C613.291 180.686 617.194 184.588 617.194 189.401V189.414C617.194 194.228 613.291 198.13 608.477 198.13H505.667C500.853 198.13 496.949 194.228 496.949 189.414V189.401C496.949 184.588 500.852 180.686 505.667 180.686H608.477ZM41.5723 16.7686C29.5854 16.7686 19.6521 25.4724 17.6855 36.8936H645.314C643.348 25.4724 633.415 16.7686 621.428 16.7686H41.5723Z" fill="#6C757D"/>
</svg>
