<svg width="615" height="563" viewBox="0 0 615 563" fill="none" xmlns="http://www.w3.org/2000/svg">
<path d="M568.157 0C594.023 0 615 20.9644 615 46.8145V470.189C615 496.04 594.023 517.005 568.157 517.005H543.73V539.423C543.73 552.441 533.165 563 520.14 563H501.854C488.829 563 478.263 552.441 478.263 539.423V517.005H450.371V539.423C450.371 552.441 439.805 563 426.779 563H408.494C395.469 563 384.904 552.441 384.903 539.423V517.005H285.277V552.271C285.277 558.188 280.478 562.984 274.558 562.984C268.637 562.984 263.837 558.188 263.837 552.271V517.005H248.104V552.271C248.103 558.188 243.304 562.984 237.384 562.984C231.463 562.984 226.663 558.188 226.663 552.271V517.005H210.945V552.271C210.945 558.188 206.145 562.984 200.225 562.984C194.304 562.984 189.505 558.188 189.505 552.271V517.005H173.771V552.271C173.771 558.188 168.971 562.984 163.051 562.984C157.13 562.984 152.331 558.188 152.331 552.271V517.005H136.598V552.271C136.598 558.188 131.798 562.984 125.877 562.984C119.956 562.984 115.157 558.188 115.157 552.271V517.005H46.8428C20.9773 517.005 0 496.04 0 470.189V46.8145C0.000233419 20.9644 20.9775 0 46.8428 0H568.157ZM122.86 22.9131C107.159 22.9133 94.4122 35.6369 94.4121 51.3447V467.144C94.4121 482.836 107.143 495.576 122.86 495.576H565.837C581.539 495.576 594.286 482.852 594.286 467.144V51.3447C594.286 35.6522 581.554 22.9131 565.837 22.9131H122.86ZM131.184 442.871C140.59 442.871 148.216 450.492 148.216 459.893C148.216 469.294 140.59 476.915 131.184 476.915C121.777 476.915 114.151 469.294 114.151 459.893C114.151 450.492 121.777 442.871 131.184 442.871ZM557.499 442.871C566.906 442.871 574.531 450.492 574.531 459.893C574.531 469.294 566.906 476.915 557.499 476.915C548.092 476.915 540.467 469.294 540.467 459.893C540.467 450.492 548.092 442.871 557.499 442.871ZM439.155 134.987C456.265 134.987 470.142 148.856 470.142 165.955V355.472C470.142 372.571 456.265 386.439 439.155 386.439H249.527C232.418 386.439 218.541 372.571 218.541 355.472V165.955C218.541 148.856 232.418 134.987 249.527 134.987H439.155ZM254.719 364.794H439.155C444.307 364.794 448.483 360.605 448.483 355.472V171.143L254.719 364.794ZM249.527 156.632C244.376 156.632 240.199 160.822 240.199 165.955V348.715L432.396 156.632H249.527ZM379.581 332.537C382.342 332.537 384.581 334.776 384.581 337.537C384.581 340.298 382.342 342.537 379.581 342.537H359.78C357.019 342.537 354.78 340.299 354.78 337.537C354.78 334.776 357.019 332.537 359.78 332.537H379.581ZM421.21 332.537C423.971 332.537 426.21 334.776 426.21 337.537C426.21 340.299 423.971 342.537 421.21 342.537H401.409C398.648 342.537 396.409 340.299 396.409 337.537C396.409 334.776 398.648 332.537 401.409 332.537H421.21ZM421.211 306.347C423.972 306.347 426.211 308.586 426.211 311.347C426.211 314.108 423.972 316.346 421.211 316.347H359.78C357.019 316.347 354.78 314.108 354.78 311.347C354.78 308.585 357.019 306.347 359.78 306.347H421.211ZM27.1182 252.179C22.4156 252.179 18.5949 255.998 18.5947 260.697C18.5947 265.397 22.4155 269.217 27.1182 269.217H65.4062C70.109 269.217 73.9297 265.397 73.9297 260.697C73.9295 255.997 70.1089 252.179 65.4062 252.179H27.1182ZM27.1182 212.12C22.4156 212.12 18.595 215.939 18.5947 220.639C18.5947 225.339 22.4155 229.158 27.1182 229.158H65.4062C70.109 229.158 73.9297 225.339 73.9297 220.639C73.9295 215.939 70.1088 212.12 65.4062 212.12H27.1182ZM285.102 184.873C290.788 184.813 295.404 187.44 299.105 190.618C302.742 193.741 305.986 197.832 308.854 201.429C311.871 205.211 314.513 208.496 317.288 210.882C319.996 213.209 322.311 214.215 324.605 214.186C327.324 214.143 332.44 212.582 339.382 201.95C340.892 199.638 343.99 198.988 346.302 200.497C348.614 202.007 349.264 205.106 347.755 207.418C339.941 219.386 332.217 224.072 324.756 224.186H324.218C318.782 224.099 314.345 221.538 310.77 218.465C307.143 215.348 303.904 211.259 301.037 207.665C298.022 203.885 295.375 200.596 292.591 198.205C289.873 195.872 287.537 194.849 285.213 194.872C282.966 194.901 280.557 195.907 277.948 198.059C275.332 200.217 272.835 203.271 270.537 206.726C269.008 209.025 265.905 209.65 263.605 208.121C261.306 206.592 260.682 203.488 262.211 201.188C264.786 197.315 267.913 193.374 271.585 190.345C275.263 187.311 279.807 184.938 285.093 184.873H285.102ZM27.1182 172.046C22.4155 172.046 18.5947 175.865 18.5947 180.565C18.5949 185.265 22.4156 189.084 27.1182 189.084H65.4062C70.1089 189.084 73.9295 185.265 73.9297 180.565C73.9297 175.865 70.109 172.046 65.4062 172.046H27.1182ZM27.1182 131.973C22.4155 131.973 18.5947 135.791 18.5947 140.491C18.5948 145.191 22.4156 149.01 27.1182 149.01H65.4062C70.1089 149.01 73.9296 145.191 73.9297 140.491C73.9297 135.791 70.109 131.973 65.4062 131.973H27.1182ZM27.1182 91.8984C22.4155 91.8986 18.5947 95.7171 18.5947 100.417C18.5947 105.117 22.4155 108.935 27.1182 108.936H65.4062C70.109 108.935 73.9297 105.117 73.9297 100.417C73.9297 95.717 70.109 91.8985 65.4062 91.8984H27.1182ZM130.426 42.0684C139.832 42.0685 147.458 49.6898 147.458 59.0908C147.458 68.4918 139.832 76.1131 130.426 76.1133C121.019 76.1133 113.394 68.4919 113.394 59.0908C113.394 49.6897 121.019 42.0684 130.426 42.0684ZM556.726 42.0684C566.132 42.0684 573.758 49.6897 573.758 59.0908C573.758 68.4918 566.132 76.1133 556.726 76.1133C547.319 76.1133 539.693 68.4919 539.693 59.0908C539.693 49.6897 547.319 42.0684 556.726 42.0684Z" fill="#6C757D"/>
</svg>
