<svg width="1000" height="1000" viewBox="0 0 1000 1000" fill="none" xmlns="http://www.w3.org/2000/svg">
<path d="M930.703 281.449C935.822 274.936 945.252 273.805 951.766 278.924C958.279 284.043 959.41 293.473 954.291 299.986L900.859 367.976V707.498H942.497C950.781 707.498 957.497 714.214 957.497 722.498C957.497 730.782 950.781 737.498 942.497 737.498H57.5039C49.2197 737.498 42.504 730.782 42.5039 722.498C42.5039 714.214 49.2196 707.498 57.5039 707.498H141.759V681.854H57.5039C49.2198 681.854 42.5042 675.138 42.5039 666.854C42.5039 658.569 49.2196 651.854 57.5039 651.854H156.682C156.707 651.853 156.733 651.853 156.759 651.853C156.785 651.853 156.81 651.853 156.836 651.854H207.865C207.891 651.853 207.917 651.853 207.942 651.853C207.968 651.853 207.994 651.853 208.02 651.854H623.128C633.322 651.853 642.973 647.272 649.426 639.366L825.407 415.435C825.531 415.269 825.659 415.107 825.79 414.947L930.703 281.449ZM171.759 707.498H192.942V681.854H171.759V707.498ZM672.885 658.067C672.832 658.134 672.779 658.201 672.726 658.268C660.577 673.195 642.365 681.853 623.128 681.854H222.942V707.498H673.246V657.607L672.885 658.067ZM703.246 619.433V707.498H720.045V598.057L703.246 619.433ZM750.045 559.883V707.498H822.4V607.476L761.409 545.422L750.045 559.883ZM852.4 429.639V707.498H870.859V406.15L852.4 429.639ZM183.103 631.514H73.2793C67.6028 631.514 64.4349 624.951 67.9697 620.504L123.129 551.163H247.029L183.103 631.514ZM333.309 623.494C329.279 628.562 323.159 631.514 316.684 631.514H203.047L266.974 551.163H390.849L333.309 623.494ZM487.76 631.514H377.937C372.26 631.514 369.092 624.951 372.627 620.504L427.786 551.163H551.687L487.76 631.514ZM637.966 623.494C633.936 628.562 627.816 631.514 621.341 631.514H507.704L571.631 551.163H695.506L637.966 623.494ZM780.098 521.64L822.4 564.678V467.812L780.098 521.64ZM255.024 538.86H131.137L188.678 466.53C192.707 461.463 198.827 458.51 205.302 458.51H318.951L255.024 538.86ZM448.693 458.51C454.37 458.51 457.538 465.073 454.003 469.521L398.845 538.86H274.957L338.884 458.51H448.693ZM559.683 538.86H435.795L493.335 466.53C497.364 461.462 503.485 458.51 509.96 458.51H623.609L559.683 538.86ZM753.352 458.51C759.028 458.51 762.195 465.074 758.66 469.521L703.502 538.86H579.614L643.541 458.51H753.352ZM341.659 429.991H231.836C226.16 429.991 222.992 423.428 226.526 418.981L281.686 349.641H405.586L341.659 429.991ZM491.853 421.971C487.823 427.039 481.703 429.991 475.228 429.991H361.591L425.518 349.641H549.393L491.853 421.971ZM646.316 429.991H536.493C530.817 429.991 527.649 423.428 531.184 418.981L586.343 349.641H710.243L646.316 429.991ZM796.51 421.971C792.48 427.039 786.36 429.991 779.885 429.991H666.248L730.175 349.641H854.05L796.51 421.971ZM413.581 337.351H289.693L347.234 265.02C351.264 259.952 357.384 257 363.858 257H477.495L413.581 337.351ZM607.25 257C612.927 257 616.095 263.563 612.56 268.01L557.401 337.351H433.514L497.44 257H607.25ZM718.239 337.351H594.352L651.892 265.02C655.921 259.952 662.042 257 668.517 257H782.153L718.239 337.351ZM911.908 257C917.585 257 920.752 263.563 917.217 268.01L862.059 337.351H738.171L802.098 257H911.908Z" fill="#6C757D"/>
</svg>
