<svg width="659" height="658" viewBox="0 0 659 658" fill="none" xmlns="http://www.w3.org/2000/svg">
<path d="M329.5 518.157C339.94 518.157 348.402 526.62 348.402 537.06V638.615C348.402 649.055 339.94 657.518 329.5 657.518C319.06 657.518 310.598 649.054 310.598 638.614V537.059C310.598 526.619 319.06 518.157 329.5 518.157ZM464.391 463.649C471.773 456.267 483.74 456.268 491.122 463.649L562.934 535.46C570.315 542.842 570.315 554.81 562.934 562.191C555.552 569.573 543.583 569.573 536.201 562.191L464.391 490.381C457.009 482.999 457.009 471.031 464.391 463.649ZM170.007 462.167C177.389 454.785 189.357 454.785 196.739 462.167C204.121 469.549 204.121 481.517 196.739 488.898L124.929 560.709C117.547 568.091 105.578 568.091 98.1963 560.709C90.8147 553.327 90.8147 541.359 98.1963 533.978L170.007 462.167ZM329.129 176.796C412.851 176.796 480.721 244.666 480.722 328.388C480.722 412.11 412.851 479.98 329.129 479.98C245.407 479.98 177.537 412.11 177.537 328.388C177.537 244.666 245.407 176.796 329.129 176.796ZM120.458 309.485C130.898 309.485 139.36 317.948 139.36 328.388C139.36 338.827 130.898 347.29 120.458 347.29H18.9023C8.46283 347.29 0 338.827 0 328.388C0.000214389 317.948 8.46297 309.486 18.9023 309.485H120.458ZM640.098 309.485C650.537 309.486 659 317.948 659 328.388C659 338.827 650.537 347.29 640.098 347.29H538.542C528.102 347.29 519.64 338.827 519.64 328.388C519.64 317.948 528.102 309.485 538.542 309.485H640.098ZM98.1973 95.9736C105.579 88.5917 117.547 88.5917 124.929 95.9736L196.739 167.784C204.121 175.166 204.121 187.134 196.739 194.516C189.357 201.897 177.39 201.898 170.008 194.516L98.1973 122.705C90.8153 115.323 90.8154 103.356 98.1973 95.9736ZM536.201 95.9736C543.583 88.5917 555.551 88.5917 562.933 95.9736C570.314 103.356 570.315 115.323 562.933 122.705L491.122 194.516C483.74 201.898 471.772 201.898 464.39 194.516C457.008 187.134 457.008 175.166 464.39 167.784L536.201 95.9736ZM329.5 0C339.94 4.56327e-07 348.402 8.46284 348.402 18.9023V120.458C348.402 130.898 339.94 139.36 329.5 139.36C319.06 139.36 310.598 130.898 310.598 120.458V18.9023C310.598 8.46284 319.06 -9.78281e-09 329.5 0Z" fill="#68707B"/>
</svg>
