<svg width="655" height="564" viewBox="0 0 655 564" fill="none" xmlns="http://www.w3.org/2000/svg">
<g clip-path="url(#clip0_1281_511)">
<path d="M503.62 0.0500572C529.34 -1.07994 552.52 15.4801 559.79 40.1801L652.32 354.53C660.74 383.15 645.26 413.34 617.1 423.2L219.6 562.37C208.55 566.24 196.98 558.04 196.98 546.33V525.26C196.98 519.16 196.23 513.09 194.74 507.18L192.54 498.46L108.05 510.59C96.3598 512.27 85.2998 504.82 82.4598 493.36L0.679769 163.46C-1.75023 153.66 2.48977 143.43 11.1398 138.22L89.8398 90.8301L87.7898 82.7001C85.8798 75.1001 82.7698 67.8601 78.5798 61.2401L68.0498 44.5801C61.0698 33.5401 68.6298 19.0801 81.6798 18.5101L503.62 0.0500572ZM548.28 43.5801C542.57 24.1701 524.36 11.1601 504.15 12.0501L82.1998 30.5001C78.3598 30.6701 76.1398 34.9201 78.1898 38.1701L88.7198 54.8301C93.5798 62.5301 97.1998 70.9401 99.4198 79.7701L206.37 504.25C208.1 511.12 208.98 518.18 208.98 525.26V546.33C208.98 549.78 212.38 552.19 215.63 551.05L613.13 411.88C635.25 404.14 647.42 380.41 640.8 357.93L548.27 43.5801H548.28Z" fill="#68707B"/>
<mask id="mask0_1281_511" style="mask-type:luminance" maskUnits="userSpaceOnUse" x="218" y="462" width="40" height="43">
<path d="M229.01 504.4L218.71 469.03L247.51 462.37L257.72 497.25L229.01 504.4Z" fill="white"/>
</mask>
<g mask="url(#mask0_1281_511)">
<path d="M233.22 465.68C231.23 466.14 229.47 467.07 228 468.36C226.53 469.65 225.34 471.31 224.49 473.21C223.64 475.11 223.13 477.27 223.01 479.55C222.89 481.83 223.16 484.26 223.87 486.7C224.58 489.14 225.67 491.37 227.02 493.31C228.37 495.25 229.99 496.89 231.77 498.17C233.55 499.45 235.48 500.35 237.47 500.82C239.46 501.29 241.49 501.3 243.48 500.82C245.47 500.34 247.2 499.37 248.65 498.05C250.1 496.73 251.26 495.08 252.08 493.18C252.9 491.28 253.39 489.14 253.5 486.88C253.61 484.62 253.33 482.23 252.63 479.82C251.93 477.41 250.86 475.21 249.53 473.3C248.2 471.39 246.61 469.75 244.86 468.47C243.11 467.19 241.2 466.27 239.22 465.78C237.24 465.29 235.22 465.24 233.23 465.7" fill="#68707B"/>
</g>
<mask id="mask1_1281_511" style="mask-type:luminance" maskUnits="userSpaceOnUse" x="112" y="51" width="40" height="43">
<path d="M122.69 93.56L112.39 58.2L141.18 51.54L151.38 86.42L122.69 93.56Z" fill="white"/>
</mask>
<g mask="url(#mask1_1281_511)">
<path d="M126.88 54.85C124.89 55.31 123.14 56.24 121.66 57.53C120.18 58.82 119 60.48 118.15 62.38C117.3 64.28 116.79 66.44 116.67 68.72C116.55 71 116.82 73.43 117.53 75.87C118.24 78.31 119.33 80.54 120.68 82.48C122.03 84.42 123.65 86.06 125.43 87.34C127.21 88.62 129.14 89.52 131.13 89.99C133.12 90.46 135.15 90.48 137.13 89.99C139.11 89.5 140.85 88.54 142.3 87.22C143.75 85.9 144.91 84.25 145.73 82.35C146.55 80.45 147.04 78.31 147.15 76.05C147.26 73.79 146.98 71.4 146.28 68.99C145.58 66.58 144.51 64.38 143.18 62.47C141.85 60.56 140.26 58.92 138.51 57.64C136.76 56.36 134.85 55.44 132.87 54.95C130.89 54.46 128.87 54.41 126.88 54.87" fill="#68707B"/>
</g>
<mask id="mask2_1281_511" style="mask-type:luminance" maskUnits="userSpaceOnUse" x="498" y="29" width="31" height="33">
<path d="M506.36 61.5101L498.85 34.1101L521.19 29.1001L528.65 56.2201L506.36 61.5101Z" fill="white"/>
</mask>
<g mask="url(#mask2_1281_511)">
<path d="M510.08 31.59C508.54 31.94 507.17 32.65 506.02 33.64C504.87 34.63 503.93 35.91 503.25 37.37C502.57 38.83 502.15 40.5 502.03 42.27C501.91 44.04 502.09 45.91 502.61 47.81C503.13 49.71 503.94 51.43 504.96 52.94C505.98 54.45 507.21 55.73 508.57 56.73C509.93 57.73 511.41 58.44 512.94 58.82C514.47 59.2 516.04 59.23 517.58 58.86C519.12 58.49 520.48 57.77 521.62 56.76C522.76 55.75 523.68 54.48 524.34 53.01C525 51.54 525.41 49.89 525.52 48.14C525.63 46.39 525.45 44.53 524.94 42.66C524.43 40.79 523.63 39.08 522.62 37.58C521.61 36.08 520.4 34.81 519.06 33.81C517.72 32.81 516.25 32.08 514.73 31.7C513.21 31.32 511.64 31.26 510.1 31.61" fill="#68707B"/>
</g>
<mask id="mask3_1281_511" style="mask-type:luminance" maskUnits="userSpaceOnUse" x="587" y="357" width="31" height="33">
<path d="M595.69 389.46L587.75 362.19L609.97 357.01L617.86 383.98L595.69 389.46Z" fill="white"/>
</mask>
<g mask="url(#mask3_1281_511)">
<path d="M598.92 359.58C597.38 359.94 596.03 360.66 594.9 361.66C593.77 362.66 592.85 363.94 592.2 365.41C591.55 366.88 591.15 368.54 591.06 370.3C590.97 372.06 591.18 373.93 591.72 375.81C592.26 377.69 593.1 379.41 594.15 380.91C595.2 382.41 596.44 383.67 597.81 384.66C599.18 385.65 600.67 386.35 602.2 386.71C603.73 387.07 605.3 387.09 606.84 386.71C608.38 386.33 609.71 385.59 610.84 384.58C611.97 383.57 612.86 382.29 613.5 380.82C614.14 379.35 614.52 377.7 614.6 375.95C614.68 374.2 614.47 372.35 613.93 370.49C613.39 368.63 612.56 366.93 611.53 365.45C610.5 363.97 609.27 362.71 607.92 361.72C606.57 360.73 605.09 360.02 603.56 359.65C602.03 359.28 600.47 359.24 598.93 359.59" fill="#68707B"/>
</g>
<mask id="mask4_1281_511" style="mask-type:luminance" maskUnits="userSpaceOnUse" x="223" y="309" width="280" height="109">
<path d="M238.83 417.47L223.52 342.92L488.859 309.96L502.109 365.22L238.83 417.47Z" fill="white"/>
</mask>
<g mask="url(#mask4_1281_511)">
<path d="M233.53 366.34L230.94 366.9C230.94 366.9 230.94 366.97 230.94 367C230.94 367.03 230.94 367.06 230.94 367.09C230.94 367.12 230.94 367.15 230.94 367.18C230.94 367.21 230.94 367.24 230.94 367.27L230.92 367.57C230.92 367.62 230.92 367.67 230.91 367.73C230.9 367.79 230.91 367.84 230.91 367.89C230.91 367.94 230.91 368 230.93 368.05C230.95 368.1 230.95 368.16 230.97 368.21C231.82 371.44 232.68 374.66 233.53 377.89C234.38 381.12 235.24 384.35 236.1 387.58C236.96 390.81 237.82 394.05 238.68 397.28C239.54 400.51 240.4 403.76 241.26 407L242.82 412.86C242.84 412.94 242.86 413.02 242.88 413.09C242.9 413.16 242.92 413.24 242.94 413.3C242.96 413.36 242.98 413.43 243 413.5C243.02 413.57 243.04 413.62 243.06 413.68C243.08 413.73 243.1 413.77 243.12 413.81C243.14 413.85 243.16 413.88 243.18 413.92C243.2 413.96 243.22 413.98 243.25 414C243.28 414.02 243.3 414.04 243.32 414.06C243.34 414.08 243.37 414.09 243.4 414.1C243.43 414.11 243.46 414.12 243.5 414.12C243.54 414.12 243.57 414.12 243.61 414.12C243.65 414.12 243.7 414.12 243.74 414.11C243.75 414.11 243.76 414.11 243.77 414.11C243.78 414.11 243.79 414.11 243.8 414.11C243.81 414.11 243.82 414.11 243.83 414.11C243.84 414.11 243.85 414.11 243.86 414.11C243.91 414.11 243.95 414.09 244 414.08C244.05 414.07 244.09 414.06 244.14 414.05C244.19 414.04 244.24 414.03 244.29 414.01C244.34 413.99 244.39 413.99 244.44 413.97L312.5 395.92C312.6 395.89 312.69 395.87 312.78 395.85C312.87 395.83 312.95 395.8 313.04 395.78C313.13 395.76 313.2 395.73 313.27 395.71C313.34 395.69 313.41 395.66 313.47 395.63C313.53 395.61 313.58 395.58 313.63 395.56C313.68 395.54 313.72 395.51 313.76 395.48C313.8 395.45 313.83 395.42 313.85 395.39C313.87 395.36 313.9 395.32 313.92 395.29C313.94 395.25 313.95 395.22 313.96 395.17C313.97 395.12 313.98 395.08 313.98 395.03C313.98 394.98 313.98 394.92 313.98 394.86C313.98 394.8 313.97 394.73 313.96 394.66C313.95 394.58 313.93 394.5 313.91 394.42C313.89 394.34 313.87 394.25 313.84 394.15C313.81 394.05 313.79 393.96 313.77 393.87C313.75 393.78 313.72 393.67 313.69 393.57L313.67 393.5C313.66 393.45 313.64 393.39 313.63 393.34C313.62 393.29 313.6 393.23 313.59 393.18C313.58 393.13 313.56 393.08 313.54 393.03C313.52 392.98 313.51 392.93 313.49 392.89C313.47 392.85 313.46 392.81 313.44 392.78C313.42 392.75 313.41 392.72 313.39 392.69C313.37 392.66 313.36 392.64 313.34 392.62C313.32 392.6 313.3 392.58 313.28 392.57C313.26 392.56 313.24 392.55 313.22 392.54C313.2 392.53 313.17 392.53 313.15 392.52C313.13 392.51 313.09 392.52 313.06 392.52C313.03 392.52 312.99 392.52 312.96 392.52H312.94H312.92H312.9H312.88C312.85 392.52 312.81 392.53 312.77 392.54C312.73 392.55 312.7 392.56 312.66 392.57C312.62 392.58 312.59 392.59 312.55 392.6C312.51 392.61 312.48 392.62 312.44 392.63L245.43 410.16L244.06 405.01C243.23 401.88 242.39 398.75 241.56 395.63C240.73 392.51 239.9 389.38 239.06 386.26C238.22 383.14 237.4 380.02 236.57 376.9C235.74 373.78 234.91 370.67 234.08 367.56L234.02 367.38C234.02 367.38 234 367.31 233.99 367.27C233.98 367.23 233.96 367.2 233.95 367.16C233.94 367.12 233.92 367.09 233.9 367.05C233.88 367.01 233.87 366.98 233.86 366.95L233.75 366.7C233.75 366.7 233.72 366.64 233.71 366.61C233.7 366.58 233.68 366.55 233.67 366.52C233.66 366.49 233.64 366.46 233.63 366.43C233.62 366.4 233.6 366.37 233.59 366.34" fill="#68707B"/>
<path d="M243.84 414.1C243.84 414.1 243.82 414.1 243.81 414.1C243.8 414.1 243.79 414.1 243.78 414.1C243.77 414.1 243.76 414.1 243.75 414.1C243.74 414.1 243.73 414.1 243.72 414.1C243.67 414.1 243.63 414.11 243.59 414.11C243.55 414.11 243.51 414.11 243.48 414.11C243.45 414.11 243.41 414.1 243.38 414.09C243.35 414.08 243.33 414.07 243.3 414.05C243.27 414.03 243.25 414.01 243.23 413.99C243.21 413.97 243.19 413.94 243.16 413.91C243.13 413.88 243.12 413.84 243.1 413.8C243.08 413.76 243.06 413.72 243.04 413.67C243.02 413.61 243 413.55 242.98 413.49C242.96 413.43 242.94 413.36 242.92 413.29C242.9 413.22 242.88 413.15 242.86 413.08C242.84 413.01 242.82 412.93 242.8 412.85L241.24 406.99C240.38 403.75 239.52 400.51 238.66 397.27C237.8 394.03 236.94 390.8 236.08 387.57C235.22 384.34 234.36 381.11 233.51 377.88C232.66 374.65 231.8 371.43 230.95 368.2C230.93 368.15 230.92 368.09 230.91 368.04C230.9 367.99 230.9 367.93 230.89 367.88C230.88 367.83 230.89 367.77 230.89 367.72C230.89 367.67 230.89 367.61 230.9 367.56L230.92 367.26C230.92 367.26 230.92 367.2 230.92 367.17C230.92 367.14 230.92 367.11 230.92 367.08C230.92 367.05 230.92 367.02 230.92 366.99C230.92 366.96 230.92 366.93 230.92 366.89L233.51 366.33C233.51 366.33 233.54 366.39 233.55 366.42C233.56 366.45 233.58 366.48 233.59 366.51C233.6 366.54 233.62 366.57 233.63 366.6C233.64 366.63 233.66 366.66 233.67 366.69L233.78 366.94C233.78 366.94 233.81 367.01 233.82 367.04C233.83 367.07 233.85 367.11 233.87 367.15C233.89 367.19 233.9 367.22 233.91 367.26C233.92 367.3 233.93 367.33 233.94 367.37L234 367.55C234.83 370.66 235.66 373.78 236.49 376.89C237.32 380 238.15 383.13 238.98 386.25C239.81 389.37 240.64 392.49 241.48 395.62C242.32 398.75 243.15 401.87 243.98 405L245.35 410.15L312.36 392.62C312.36 392.62 312.43 392.6 312.47 392.59C312.51 392.58 312.54 392.57 312.58 392.56C312.62 392.55 312.65 392.54 312.69 392.53C312.73 392.52 312.76 392.51 312.8 392.51H312.82H312.84H312.86H312.88C312.92 392.51 312.95 392.51 312.98 392.51C313.01 392.51 313.04 392.51 313.07 392.51C313.1 392.51 313.12 392.52 313.14 392.53C313.16 392.54 313.18 392.55 313.2 392.56C313.22 392.57 313.24 392.59 313.26 392.61C313.28 392.63 313.29 392.65 313.31 392.68C313.33 392.71 313.34 392.74 313.36 392.77C313.38 392.8 313.39 392.84 313.41 392.88C313.43 392.92 313.45 392.97 313.46 393.02C313.47 393.07 313.49 393.12 313.51 393.17C313.53 393.22 313.54 393.28 313.55 393.33C313.56 393.38 313.58 393.44 313.59 393.49L313.61 393.56C313.64 393.66 313.66 393.76 313.69 393.86C313.72 393.96 313.74 394.05 313.76 394.14C313.78 394.23 313.81 394.32 313.83 394.41C313.85 394.5 313.87 394.58 313.88 394.65C313.89 394.72 313.9 394.79 313.9 394.85C313.9 394.91 313.9 394.97 313.9 395.02C313.9 395.07 313.9 395.12 313.88 395.16C313.86 395.2 313.86 395.24 313.84 395.28C313.82 395.32 313.8 395.35 313.77 395.38C313.74 395.41 313.71 395.44 313.68 395.47C313.65 395.5 313.6 395.52 313.55 395.55C313.5 395.58 313.45 395.6 313.39 395.62C313.33 395.65 313.26 395.67 313.19 395.7C313.12 395.73 313.04 395.75 312.96 395.77C312.88 395.79 312.79 395.82 312.7 395.84C312.61 395.86 312.52 395.89 312.42 395.91L244.36 413.96C244.36 413.96 244.26 413.98 244.21 414C244.16 414.02 244.11 414.02 244.06 414.04C244.01 414.06 243.96 414.06 243.92 414.07C243.88 414.08 243.83 414.09 243.78 414.1M234.76 363.72L228.73 365V366.73L228.71 366.92L228.68 367.28C228.68 367.36 228.68 367.46 228.68 367.56C228.68 367.66 228.68 367.77 228.68 367.89C228.68 368.01 228.7 368.14 228.72 368.27C228.74 368.4 228.77 368.54 228.8 368.68C229.65 371.91 230.51 375.14 231.37 378.37C232.23 381.6 233.09 384.84 233.95 388.08C234.81 391.32 235.67 394.56 236.53 397.8C237.39 401.04 238.25 404.29 239.11 407.53L240.69 413.47C240.71 413.56 240.74 413.65 240.76 413.74C240.78 413.83 240.81 413.92 240.83 414C240.85 414.08 240.88 414.17 240.91 414.25C240.94 414.33 240.96 414.41 240.99 414.48C241.06 414.66 241.13 414.82 241.22 414.97C241.31 415.12 241.4 415.26 241.5 415.4C241.6 415.54 241.71 415.65 241.83 415.76C241.95 415.87 242.07 415.97 242.2 416.05C242.34 416.14 242.48 416.21 242.63 416.27C242.78 416.33 242.93 416.37 243.09 416.41C243.25 416.45 243.41 416.46 243.58 416.46C243.75 416.46 243.92 416.46 244.09 416.43L244.31 416.39C244.37 416.38 244.43 416.37 244.49 416.35C244.55 416.33 244.61 416.32 244.68 416.31C244.75 416.3 244.81 416.28 244.88 416.26C244.95 416.24 245.01 416.22 245.08 416.21L313.09 398.01C313.2 397.98 313.3 397.95 313.4 397.93C313.5 397.91 313.6 397.87 313.7 397.85C313.8 397.83 313.89 397.79 313.97 397.76C314.05 397.73 314.14 397.7 314.22 397.67C314.28 397.65 314.37 397.61 314.47 397.56C314.57 397.51 314.7 397.44 314.83 397.34C314.96 397.24 315.1 397.13 315.22 396.98C315.34 396.83 315.47 396.66 315.57 396.44C315.68 396.23 315.75 396.01 315.79 395.81C315.83 395.61 315.85 395.4 315.86 395.22C315.87 395.04 315.86 394.87 315.84 394.74C315.82 394.61 315.81 394.49 315.8 394.42C315.78 394.32 315.76 394.22 315.74 394.11C315.72 394 315.69 393.9 315.66 393.79C315.63 393.68 315.6 393.57 315.57 393.45C315.54 393.33 315.51 393.22 315.48 393.1L314.56 393.3L315.45 393.02C315.43 392.95 315.41 392.87 315.39 392.8C315.37 392.73 315.35 392.65 315.33 392.58C315.31 392.51 315.29 392.44 315.26 392.37C315.23 392.3 315.21 392.24 315.19 392.18C315.13 392.02 315.07 391.87 314.99 391.74C314.91 391.61 314.83 391.47 314.75 391.35C314.67 391.23 314.56 391.12 314.46 391.02C314.36 390.92 314.25 390.83 314.13 390.75C314.01 390.67 313.89 390.6 313.77 390.55C313.65 390.5 313.52 390.45 313.38 390.42C313.24 390.39 313.11 390.37 312.97 390.36C312.83 390.35 312.69 390.36 312.55 390.38C312.54 390.38 312.53 390.38 312.52 390.38C312.51 390.38 312.5 390.38 312.49 390.38C312.48 390.38 312.47 390.38 312.46 390.38C312.45 390.38 312.44 390.38 312.43 390.38C312.38 390.38 312.33 390.4 312.28 390.41C312.23 390.42 312.17 390.43 312.12 390.45C312.07 390.47 312.01 390.48 311.95 390.49C311.89 390.5 311.83 390.52 311.76 390.54L246.87 407.35L246.09 404.44C245.26 401.32 244.43 398.2 243.6 395.09C242.77 391.98 241.94 388.86 241.11 385.74C240.28 382.62 239.45 379.51 238.62 376.4C237.79 373.29 236.96 370.17 236.13 367.06L236.05 366.81C236.03 366.74 236.01 366.68 235.98 366.62C235.95 366.56 235.93 366.5 235.91 366.44C235.89 366.38 235.86 366.33 235.84 366.27C235.82 366.21 235.79 366.16 235.77 366.12L234.75 363.72" fill="#68707B"/>
<path d="M372.11 335.67L372.38 336.63L313.94 349.23C313.85 349.25 313.75 349.27 313.67 349.29C313.59 349.31 313.5 349.33 313.42 349.35C313.34 349.37 313.26 349.39 313.19 349.41C313.12 349.43 313.05 349.45 312.99 349.47C312.93 349.49 312.88 349.52 312.83 349.54C312.78 349.56 312.74 349.59 312.71 349.61C312.68 349.63 312.64 349.66 312.62 349.69C312.6 349.72 312.57 349.75 312.56 349.78C312.54 349.81 312.53 349.85 312.52 349.89C312.51 349.93 312.5 349.98 312.5 350.02C312.5 350.06 312.5 350.12 312.5 350.18C312.5 350.24 312.51 350.3 312.53 350.37C312.53 350.41 312.54 350.45 312.55 350.49C312.56 350.53 312.57 350.57 312.57 350.61C312.57 350.65 312.59 350.69 312.6 350.73C312.61 350.77 312.62 350.81 312.63 350.85L312.8 351.47C312.82 351.53 312.83 351.59 312.85 351.65C312.87 351.71 312.88 351.77 312.9 351.82C312.92 351.87 312.93 351.93 312.95 351.98C312.97 352.03 312.98 352.08 313 352.12C313.01 352.15 313.02 352.18 313.04 352.21C313.06 352.24 313.07 352.27 313.08 352.3C313.09 352.33 313.11 352.35 313.13 352.38C313.15 352.41 313.17 352.43 313.19 352.44C313.21 352.45 313.23 352.47 313.25 352.47C313.27 352.47 313.3 352.49 313.32 352.49C313.34 352.49 313.38 352.49 313.41 352.49C313.44 352.49 313.48 352.49 313.51 352.49C313.52 352.49 313.53 352.49 313.54 352.49C313.55 352.49 313.56 352.49 313.57 352.49C313.58 352.49 313.59 352.49 313.61 352.49C313.63 352.49 313.63 352.49 313.65 352.49C313.68 352.49 313.72 352.48 313.75 352.47C313.78 352.46 313.82 352.46 313.85 352.45C313.88 352.44 313.92 352.44 313.95 352.43C313.98 352.42 314.02 352.41 314.05 352.41L371.61 339.82L371.94 340.77L376.08 355.76L369.49 357.33C365.47 358.29 361.4 359.26 357.3 360.24C353.2 361.22 348.99 362.22 344.77 363.23C340.51 364.24 336.22 365.27 331.88 366.3C327.54 367.33 323.08 368.39 318.61 369.45C318.55 369.47 318.48 369.48 318.41 369.5C318.34 369.52 318.28 369.55 318.22 369.58C318.16 369.61 318.11 369.65 318.06 369.69C318.01 369.73 317.98 369.78 317.95 369.84C317.92 369.9 317.91 369.96 317.9 370.02C317.89 370.08 317.9 370.16 317.9 370.23C317.9 370.3 317.92 370.38 317.94 370.46C317.96 370.54 317.98 370.62 318 370.69C318.37 372.04 318.74 373.38 319.11 374.73C319.48 376.08 319.85 377.43 320.22 378.78C320.59 380.13 320.96 381.48 321.33 382.83C321.7 384.18 322.07 385.53 322.43 386.89L323.83 392.11C323.83 392.11 323.83 392.15 323.85 392.17C323.87 392.19 323.87 392.22 323.88 392.25C323.89 392.28 323.9 392.31 323.92 392.34C323.94 392.37 323.95 392.4 323.97 392.43L324.19 392.65L324.33 392.72L324.43 392.74C324.57 392.71 324.71 392.68 324.84 392.65C324.97 392.62 325.12 392.58 325.25 392.55C325.38 392.52 325.53 392.48 325.66 392.44C325.79 392.4 325.94 392.37 326.07 392.33L326.64 392.17L321.19 372.14L376.89 358.66L381.57 375.6C381.6 375.71 381.63 375.81 381.66 375.91C381.69 376.01 381.72 376.11 381.74 376.2C381.76 376.29 381.79 376.38 381.82 376.46C381.85 376.54 381.87 376.61 381.9 376.68C381.93 376.75 381.95 376.81 381.98 376.86C382.01 376.91 382.03 376.96 382.06 377C382.09 377.04 382.11 377.08 382.14 377.11C382.17 377.14 382.19 377.17 382.22 377.19C382.25 377.21 382.28 377.23 382.32 377.25C382.36 377.27 382.39 377.28 382.43 377.28C382.47 377.28 382.51 377.28 382.56 377.28C382.61 377.28 382.66 377.28 382.72 377.27C382.73 377.27 382.75 377.27 382.76 377.27C382.77 377.27 382.79 377.27 382.8 377.27C382.81 377.27 382.83 377.27 382.84 377.27C382.85 377.27 382.87 377.27 382.88 377.27C382.93 377.27 382.98 377.25 383.04 377.24C383.1 377.23 383.15 377.21 383.21 377.2C383.27 377.19 383.33 377.17 383.39 377.15C383.45 377.13 383.51 377.12 383.58 377.1C383.63 377.09 383.67 377.08 383.71 377.07C383.75 377.06 383.79 377.05 383.83 377.04C383.87 377.03 383.91 377.02 383.94 377C383.97 376.98 384.01 376.97 384.04 376.96C384.07 376.95 384.09 376.94 384.11 376.92C384.13 376.9 384.15 376.89 384.17 376.88C384.19 376.87 384.2 376.85 384.21 376.83C384.22 376.81 384.23 376.8 384.24 376.78C384.25 376.75 384.26 376.73 384.26 376.7C384.26 376.67 384.26 376.64 384.26 376.62C384.26 376.6 384.26 376.56 384.26 376.53C384.26 376.5 384.26 376.47 384.24 376.45C384.24 376.4 384.22 376.35 384.21 376.3C384.2 376.25 384.19 376.2 384.17 376.15C384.15 376.1 384.14 376.05 384.13 375.99C384.12 375.93 384.1 375.88 384.09 375.83L373.5 337.55C373.48 337.49 373.47 337.43 373.45 337.38C373.43 337.33 373.42 337.27 373.4 337.22C373.38 337.17 373.37 337.12 373.35 337.07C373.33 337.02 373.32 336.98 373.3 336.93C373.3 336.9 373.28 336.87 373.27 336.85C373.26 336.83 373.25 336.79 373.23 336.77C373.21 336.75 373.2 336.72 373.18 336.7C373.16 336.68 373.14 336.66 373.12 336.64C373.1 336.63 373.09 336.62 373.07 336.61C373.05 336.6 373.03 336.59 373 336.59C372.97 336.59 372.95 336.59 372.92 336.58C372.89 336.57 372.86 336.58 372.83 336.58C372.83 336.58 372.82 336.58 372.81 336.58C372.8 336.58 372.8 336.58 372.79 336.58C372.78 336.58 372.78 336.58 372.77 336.58C372.76 336.58 372.76 336.58 372.75 336.58C372.72 336.58 372.69 336.58 372.66 336.59C372.63 336.6 372.6 336.6 372.57 336.61C372.54 336.62 372.51 336.62 372.48 336.63C372.45 336.64 372.42 336.64 372.39 336.65L372.07 335.7" fill="#68707B"/>
<path d="M313.64 352.48C313.64 352.48 313.62 352.48 313.6 352.48C313.58 352.48 313.58 352.48 313.56 352.48C313.54 352.48 313.54 352.48 313.53 352.48C313.52 352.48 313.51 352.48 313.5 352.48C313.46 352.48 313.43 352.48 313.4 352.48C313.37 352.48 313.34 352.48 313.31 352.48C313.28 352.48 313.26 352.47 313.24 352.46C313.22 352.45 313.2 352.44 313.18 352.43C313.16 352.41 313.14 352.39 313.12 352.37C313.1 352.35 313.08 352.32 313.07 352.29C313.06 352.26 313.04 352.23 313.03 352.2C313.02 352.17 313 352.14 312.99 352.11C312.97 352.07 312.96 352.02 312.94 351.97C312.92 351.92 312.91 351.87 312.89 351.81C312.87 351.75 312.86 351.7 312.84 351.64C312.82 351.58 312.81 351.52 312.79 351.46L312.62 350.84C312.62 350.84 312.6 350.76 312.59 350.72C312.58 350.68 312.57 350.64 312.56 350.6C312.55 350.56 312.54 350.52 312.54 350.48C312.54 350.44 312.53 350.4 312.52 350.36C312.51 350.29 312.5 350.23 312.49 350.17C312.48 350.11 312.49 350.06 312.49 350.01C312.49 349.96 312.49 349.92 312.51 349.88C312.53 349.84 312.53 349.8 312.55 349.77C312.57 349.74 312.59 349.71 312.61 349.68C312.63 349.65 312.67 349.63 312.7 349.6C312.73 349.57 312.78 349.55 312.82 349.53C312.86 349.51 312.92 349.48 312.98 349.46C313.04 349.44 313.11 349.42 313.18 349.4C313.25 349.38 313.33 349.36 313.41 349.34C313.49 349.32 313.57 349.3 313.66 349.28C313.75 349.26 313.84 349.24 313.93 349.22L372.37 336.62L372.1 335.66L372.42 336.61C372.42 336.61 372.48 336.6 372.51 336.59C372.54 336.58 372.57 336.58 372.6 336.57C372.63 336.56 372.66 336.56 372.69 336.55C372.72 336.54 372.75 336.54 372.78 336.54C372.78 336.54 372.79 336.54 372.8 336.54C372.81 336.54 372.81 336.54 372.82 336.54C372.83 336.54 372.83 336.54 372.84 336.54C372.85 336.54 372.85 336.54 372.86 336.54C372.89 336.54 372.92 336.54 372.95 336.54C372.98 336.54 373 336.54 373.03 336.55C373.06 336.56 373.08 336.56 373.1 336.57C373.12 336.58 373.14 336.59 373.15 336.6C373.17 336.62 373.19 336.64 373.21 336.66C373.23 336.68 373.24 336.71 373.26 336.73C373.28 336.75 373.29 336.78 373.3 336.81C373.31 336.84 373.32 336.87 373.33 336.89C373.35 336.93 373.36 336.98 373.38 337.03C373.4 337.08 373.41 337.13 373.43 337.18C373.45 337.23 373.46 337.28 373.48 337.34C373.5 337.4 373.51 337.45 373.53 337.51L384.12 375.79C384.13 375.84 384.15 375.9 384.16 375.95C384.17 376 384.19 376.06 384.2 376.11C384.21 376.16 384.23 376.21 384.24 376.26C384.25 376.31 384.26 376.36 384.27 376.41C384.27 376.44 384.28 376.46 384.29 376.49C384.3 376.52 384.29 376.55 384.29 376.58C384.29 376.61 384.29 376.64 384.29 376.66C384.29 376.68 384.28 376.71 384.27 376.74C384.27 376.76 384.25 376.78 384.24 376.79C384.23 376.8 384.21 376.82 384.2 376.84C384.19 376.86 384.16 376.87 384.14 376.88C384.12 376.89 384.09 376.9 384.07 376.92C384.04 376.94 384 376.95 383.97 376.96C383.94 376.97 383.9 376.98 383.86 377C383.82 377.02 383.78 377.02 383.74 377.03C383.7 377.04 383.65 377.05 383.61 377.06C383.55 377.08 383.49 377.09 383.42 377.11C383.35 377.13 383.3 377.14 383.24 377.16C383.18 377.18 383.12 377.19 383.07 377.2C383.02 377.21 382.96 377.22 382.91 377.23C382.9 377.23 382.88 377.23 382.87 377.23C382.86 377.23 382.84 377.23 382.83 377.23C382.82 377.23 382.8 377.23 382.79 377.23C382.78 377.23 382.76 377.23 382.75 377.23C382.69 377.23 382.64 377.24 382.59 377.24C382.54 377.24 382.5 377.24 382.46 377.24C382.42 377.24 382.38 377.22 382.35 377.21C382.32 377.2 382.28 377.18 382.25 377.15C382.22 377.13 382.19 377.1 382.17 377.07C382.15 377.04 382.12 377 382.09 376.96C382.06 376.92 382.04 376.87 382.01 376.82C381.98 376.77 381.96 376.71 381.93 376.64C381.91 376.57 381.88 376.5 381.85 376.42C381.82 376.34 381.8 376.25 381.77 376.16C381.74 376.07 381.72 375.97 381.69 375.87C381.66 375.77 381.63 375.67 381.6 375.56L376.92 358.62L321.22 372.1L326.67 392.13L326.1 392.29C325.96 392.33 325.82 392.36 325.69 392.4C325.56 392.44 325.41 392.47 325.28 392.51C325.15 392.55 325 392.58 324.87 392.61C324.74 392.64 324.59 392.67 324.46 392.7L324.36 392.68L324.22 392.61L324 392.39C324 392.39 323.96 392.33 323.95 392.3C323.94 392.27 323.92 392.24 323.91 392.21C323.9 392.18 323.89 392.15 323.88 392.13C323.87 392.11 323.87 392.08 323.86 392.07L322.46 386.85C322.09 385.5 321.72 384.15 321.36 382.79C321 381.43 320.62 380.09 320.25 378.74C319.88 377.39 319.51 376.04 319.14 374.69C318.77 373.34 318.4 371.99 318.03 370.65C318.01 370.57 317.99 370.5 317.97 370.42C317.95 370.34 317.94 370.27 317.93 370.19C317.92 370.11 317.93 370.04 317.93 369.98C317.93 369.92 317.95 369.85 317.98 369.8C318.01 369.74 318.04 369.69 318.09 369.65C318.14 369.61 318.19 369.57 318.25 369.54C318.31 369.51 318.37 369.48 318.44 369.46C318.51 369.44 318.57 369.42 318.64 369.41C323.11 368.35 327.53 367.3 331.91 366.26C336.29 365.22 340.55 364.21 344.8 363.19C349.02 362.19 353.19 361.19 357.33 360.2C361.47 359.21 365.49 358.25 369.52 357.29L376.11 355.72L371.97 340.73L371.64 339.78L314.08 352.37C314.08 352.37 314.01 352.39 313.98 352.39C313.95 352.39 313.91 352.41 313.88 352.41C313.85 352.41 313.81 352.42 313.78 352.43C313.75 352.44 313.71 352.44 313.68 352.45M372.35 334.61C372.35 334.61 372.27 334.62 372.23 334.63C372.19 334.64 372.15 334.64 372.11 334.65C372.07 334.66 372.03 334.66 371.99 334.67C371.95 334.68 371.91 334.69 371.87 334.69L372.09 335.67L371.83 334.7L313.31 347.17C313.21 347.19 313.11 347.21 313.02 347.23C312.93 347.25 312.83 347.27 312.74 347.29C312.65 347.31 312.56 347.33 312.47 347.36C312.38 347.39 312.3 347.41 312.22 347.44C312.16 347.46 312.08 347.49 311.97 347.54C311.86 347.59 311.74 347.65 311.61 347.74C311.48 347.83 311.35 347.93 311.22 348.07C311.09 348.21 310.97 348.37 310.87 348.57C310.77 348.77 310.7 348.98 310.65 349.17C310.6 349.36 310.59 349.56 310.58 349.74C310.57 349.92 310.58 350.08 310.6 350.21C310.62 350.34 310.63 350.45 310.65 350.52C310.65 350.57 310.67 350.62 310.68 350.67C310.69 350.72 310.7 350.78 310.71 350.83C310.72 350.88 310.74 350.94 310.75 351C310.76 351.06 310.78 351.12 310.79 351.18L310.97 351.87C310.99 351.94 311.01 352.02 311.03 352.09C311.05 352.16 311.07 352.24 311.09 352.31C311.11 352.38 311.13 352.45 311.16 352.52C311.19 352.59 311.21 352.65 311.23 352.72C311.29 352.87 311.35 353.02 311.43 353.16C311.51 353.3 311.58 353.43 311.67 353.54C311.76 353.65 311.85 353.77 311.95 353.87C312.05 353.97 312.16 354.06 312.28 354.15C312.4 354.24 312.52 354.3 312.64 354.36C312.76 354.42 312.89 354.47 313.02 354.5C313.15 354.53 313.28 354.56 313.42 354.57C313.56 354.58 313.7 354.58 313.84 354.57C313.86 354.57 313.87 354.57 313.89 354.57C313.91 354.57 313.93 354.57 313.94 354.57C313.95 354.57 313.98 354.57 313.99 354.57C314 354.57 314.03 354.57 314.04 354.57C314.08 354.57 314.13 354.56 314.18 354.55C314.23 354.54 314.27 354.53 314.32 354.52C314.37 354.51 314.41 354.5 314.46 354.49C314.51 354.48 314.56 354.47 314.61 354.46L370.59 342.07L373.93 354.18L368.91 355.37C364.88 356.32 360.82 357.28 356.72 358.25C352.62 359.22 348.4 360.21 344.18 361.21C339.96 362.21 335.62 363.23 331.28 364.25C326.9 365.28 322.47 366.32 318.01 367.37C317.93 367.39 317.81 367.42 317.67 367.47C317.53 367.52 317.36 367.59 317.19 367.68C317.02 367.77 316.84 367.9 316.68 368.06C316.52 368.22 316.37 368.43 316.25 368.68C316.13 368.93 316.06 369.18 316.03 369.42C316 369.66 315.99 369.9 316 370.12C316.01 370.34 316.05 370.54 316.08 370.71C316.11 370.88 316.15 371.02 316.18 371.12C316.55 372.47 316.92 373.82 317.29 375.17C317.66 376.52 318.03 377.87 318.4 379.22C318.77 380.57 319.14 381.93 319.5 383.28C319.86 384.63 320.24 385.99 320.6 387.34L321.94 392.31L322 392.53C322 392.53 322.02 392.62 322.05 392.7C322.08 392.78 322.1 392.86 322.13 392.95C322.16 393.04 322.21 393.15 322.26 393.26C322.31 393.37 322.38 393.49 322.45 393.6C322.52 393.7 322.59 393.79 322.66 393.88C322.73 393.97 322.8 394.04 322.87 394.11C322.94 394.18 323.01 394.24 323.08 394.29C323.15 394.34 323.21 394.39 323.26 394.43C323.31 394.46 323.35 394.49 323.4 394.52C323.45 394.55 323.49 394.57 323.54 394.6C323.59 394.63 323.64 394.65 323.68 394.67C323.72 394.69 323.78 394.71 323.83 394.73C323.92 394.76 324 394.78 324.09 394.8C324.18 394.82 324.26 394.83 324.35 394.84C324.44 394.85 324.52 394.84 324.6 394.84C324.68 394.84 324.77 394.83 324.85 394.81H324.87L324.98 394.78C325.12 394.75 325.26 394.72 325.39 394.69C325.52 394.66 325.66 394.62 325.8 394.59C325.94 394.56 326.07 394.52 326.21 394.48C326.35 394.44 326.48 394.4 326.62 394.36L328.95 393.73L323.5 373.74L375.83 360.95L379.99 375.99C380.02 376.11 380.05 376.23 380.09 376.34C380.13 376.45 380.15 376.56 380.18 376.67C380.21 376.78 380.24 376.88 380.28 376.98C380.32 377.08 380.35 377.18 380.38 377.27C380.4 377.33 380.44 377.43 380.49 377.55C380.54 377.67 380.61 377.81 380.7 377.95C380.79 378.09 380.89 378.25 381.02 378.4C381.15 378.55 381.29 378.69 381.47 378.82C381.64 378.95 381.82 379.04 381.98 379.1C382.14 379.16 382.3 379.2 382.44 379.22C382.58 379.24 382.71 379.24 382.81 379.24C382.91 379.24 383 379.22 383.05 379.22C383.07 379.22 383.09 379.22 383.1 379.22C383.11 379.22 383.14 379.22 383.15 379.22C383.16 379.22 383.19 379.22 383.21 379.22C383.23 379.22 383.25 379.22 383.27 379.21C383.33 379.2 383.4 379.18 383.47 379.17C383.54 379.16 383.61 379.14 383.68 379.12C383.75 379.1 383.82 379.08 383.9 379.07C383.98 379.06 384.05 379.03 384.13 379.01C384.18 379 384.23 378.98 384.29 378.97C384.35 378.96 384.4 378.94 384.45 378.92C384.5 378.9 384.55 378.89 384.6 378.87C384.65 378.85 384.7 378.83 384.74 378.81C384.86 378.76 384.96 378.7 385.06 378.63C385.16 378.56 385.25 378.49 385.33 378.4C385.41 378.31 385.49 378.22 385.55 378.12C385.61 378.02 385.67 377.91 385.72 377.79C385.77 377.68 385.8 377.56 385.83 377.43C385.86 377.3 385.88 377.18 385.89 377.05C385.9 376.92 385.89 376.78 385.89 376.64C385.89 376.5 385.86 376.36 385.83 376.21C385.82 376.15 385.8 376.08 385.79 376.02C385.78 375.96 385.76 375.88 385.74 375.81C385.72 375.74 385.7 375.67 385.69 375.6C385.68 375.53 385.65 375.46 385.64 375.39L375.05 337.15C375.03 337.08 375.01 337.01 374.99 336.95C374.97 336.89 374.95 336.81 374.93 336.75C374.91 336.69 374.89 336.62 374.87 336.55C374.85 336.48 374.83 336.42 374.81 336.37C374.76 336.22 374.69 336.09 374.63 335.96C374.57 335.83 374.49 335.71 374.41 335.6C374.33 335.49 374.25 335.39 374.16 335.29C374.07 335.19 373.97 335.11 373.87 335.03C373.77 334.95 373.66 334.88 373.55 334.82C373.44 334.76 373.33 334.71 373.21 334.68C373.09 334.65 372.98 334.62 372.85 334.61C372.72 334.6 372.6 334.59 372.47 334.61C372.46 334.61 372.44 334.61 372.43 334.61C372.42 334.61 372.4 334.61 372.39 334.61C372.38 334.61 372.36 334.61 372.35 334.61C372.34 334.61 372.32 334.61 372.31 334.61Z" fill="#68707B"/>
<path d="M486.79 311.95C486.79 311.95 486.76 311.95 486.74 311.95C486.72 311.95 486.71 311.95 486.7 311.95C486.69 311.95 486.67 311.95 486.66 311.95C486.65 311.95 486.63 311.95 486.62 311.95C484.87 312.33 483.11 312.71 481.35 313.09C479.59 313.47 477.8 313.86 476.01 314.25C474.22 314.64 472.41 315.03 470.59 315.42C468.77 315.81 466.93 316.21 465.09 316.61L441.64 321.66L442.38 324.28L486.1 314.71L490.05 328.57L446.5 338.95L452.12 358.88C452.12 358.88 452.21 358.86 452.25 358.84C452.29 358.82 452.33 358.82 452.37 358.81C452.41 358.8 452.45 358.79 452.48 358.78C452.51 358.77 452.55 358.76 452.59 358.75C452.65 358.73 452.71 358.72 452.76 358.7C452.81 358.68 452.87 358.67 452.93 358.65C452.99 358.63 453.04 358.62 453.1 358.61C453.16 358.6 453.21 358.59 453.27 358.57C453.28 358.57 453.3 358.57 453.31 358.57C453.32 358.57 453.34 358.57 453.35 358.57C453.36 358.57 453.38 358.57 453.39 358.57C453.4 358.57 453.42 358.57 453.43 358.57C453.43 358.57 453.43 358.57 453.44 358.57C453.45 358.57 453.44 358.57 453.45 358.57C453.46 358.57 453.45 358.57 453.46 358.57C453.47 358.57 453.46 358.57 453.47 358.57C453.55 358.56 453.61 358.54 453.66 358.51C453.71 358.48 453.75 358.46 453.77 358.43C453.79 358.4 453.82 358.38 453.83 358.35C453.84 358.32 453.85 358.3 453.85 358.29C453.85 358.26 453.86 358.23 453.87 358.2C453.88 358.17 453.87 358.13 453.87 358.09C453.87 358.05 453.87 358 453.86 357.96C453.85 357.92 453.84 357.86 453.83 357.81L453.77 357.58C453.48 356.58 453.2 355.58 452.92 354.58C452.64 353.58 452.35 352.58 452.07 351.57C451.79 350.56 451.5 349.56 451.22 348.56C450.94 347.56 450.66 346.55 450.37 345.55L449.13 341.18L449.87 340.96L457.22 339.18C460.24 338.45 463.24 337.72 466.21 337C469.18 336.28 472.09 335.58 475 334.87C477.91 334.16 480.75 333.48 483.6 332.79C486.45 332.1 489.22 331.43 492.01 330.76C492.05 330.75 492.1 330.74 492.14 330.72C492.18 330.7 492.22 330.69 492.26 330.67C492.3 330.65 492.33 330.62 492.36 330.59C492.39 330.56 492.41 330.52 492.43 330.48C492.45 330.44 492.45 330.39 492.46 330.33C492.47 330.27 492.46 330.22 492.45 330.16C492.44 330.1 492.43 330.04 492.41 329.98C492.39 329.92 492.38 329.85 492.36 329.79L491.13 325.52C490.82 324.45 490.52 323.38 490.21 322.31C489.9 321.24 489.6 320.17 489.3 319.1C489 318.03 488.69 316.96 488.39 315.89C488.09 314.82 487.79 313.75 487.49 312.68C487.46 312.59 487.44 312.51 487.41 312.43C487.38 312.35 487.36 312.3 487.33 312.24C487.3 312.18 487.27 312.14 487.24 312.1C487.21 312.06 487.18 312.03 487.14 312.01C487.11 311.99 487.08 311.97 487.05 311.96C487.02 311.95 486.99 311.94 486.96 311.93C486.93 311.92 486.9 311.93 486.87 311.93C486.84 311.93 486.81 311.93 486.78 311.93" fill="#68707B"/>
<path d="M442.38 324.3L441.64 321.68L465.09 316.63C466.93 316.23 468.76 315.84 470.59 315.44C472.42 315.04 474.21 314.66 476.01 314.27C477.81 313.88 479.58 313.5 481.35 313.11C483.12 312.72 484.87 312.35 486.62 311.97C486.63 311.97 486.64 311.97 486.66 311.97C486.68 311.97 486.69 311.97 486.7 311.97C486.71 311.97 486.73 311.97 486.74 311.97C486.75 311.97 486.77 311.97 486.79 311.97C486.82 311.97 486.85 311.97 486.88 311.97C486.91 311.97 486.94 311.97 486.97 311.97C487 311.97 487.03 311.98 487.06 312C487.09 312.02 487.12 312.03 487.15 312.05C487.18 312.07 487.22 312.11 487.25 312.14C487.28 312.17 487.31 312.22 487.34 312.28C487.37 312.34 487.39 312.4 487.42 312.47C487.45 312.54 487.47 312.62 487.5 312.72C487.8 313.79 488.1 314.86 488.4 315.93C488.7 317 489 318.07 489.31 319.14C489.62 320.21 489.92 321.28 490.22 322.35C490.52 323.42 490.83 324.49 491.14 325.56L492.37 329.83C492.39 329.89 492.41 329.96 492.42 330.02C492.43 330.08 492.45 330.15 492.46 330.2C492.47 330.25 492.47 330.32 492.47 330.37C492.47 330.42 492.46 330.47 492.44 330.52C492.42 330.56 492.4 330.6 492.37 330.63C492.34 330.66 492.31 330.69 492.27 330.71C492.23 330.73 492.19 330.75 492.15 330.76C492.11 330.77 492.06 330.79 492.02 330.8C489.24 331.47 486.44 332.14 483.61 332.83C480.78 333.52 477.9 334.21 475.01 334.91C472.12 335.61 469.17 336.32 466.22 337.04C463.27 337.76 460.25 338.49 457.23 339.22L449.88 341L449.14 341.22L450.38 345.59C450.66 346.59 450.94 347.6 451.23 348.6C451.52 349.6 451.8 350.61 452.08 351.61C452.36 352.61 452.65 353.62 452.93 354.62C453.21 355.62 453.5 356.62 453.78 357.62L453.84 357.85C453.85 357.9 453.86 357.96 453.87 358C453.88 358.04 453.88 358.09 453.88 358.13C453.88 358.17 453.88 358.21 453.88 358.24C453.88 358.27 453.88 358.3 453.86 358.33C453.86 358.35 453.86 358.37 453.84 358.39C453.82 358.41 453.81 358.44 453.78 358.47C453.75 358.5 453.72 358.52 453.67 358.55C453.62 358.58 453.56 358.59 453.48 358.61C453.48 358.61 453.48 358.61 453.47 358.61C453.46 358.61 453.47 358.61 453.46 358.61C453.45 358.61 453.46 358.61 453.45 358.61C453.44 358.61 453.45 358.61 453.44 358.61C453.43 358.61 453.41 358.61 453.4 358.61C453.39 358.61 453.37 358.61 453.36 358.61C453.35 358.61 453.33 358.61 453.32 358.61C453.31 358.61 453.29 358.61 453.28 358.61C453.22 358.62 453.16 358.63 453.11 358.65C453.06 358.67 453 358.68 452.94 358.69C452.88 358.7 452.83 358.72 452.77 358.74C452.71 358.76 452.66 358.77 452.6 358.79C452.56 358.8 452.53 358.81 452.49 358.82C452.45 358.83 452.42 358.84 452.38 358.85C452.34 358.86 452.3 358.87 452.26 358.88C452.22 358.89 452.18 358.9 452.13 358.92L446.51 338.99L490.06 328.61L486.11 314.75L442.39 324.32M486.38 310.26C486.38 310.26 486.33 310.26 486.31 310.26C486.29 310.26 486.27 310.26 486.25 310.27C486.23 310.28 486.21 310.27 486.19 310.28C486.17 310.29 486.16 310.28 486.14 310.29C484.39 310.66 482.63 311.04 480.87 311.42C479.11 311.8 477.31 312.18 475.52 312.56C473.73 312.94 471.91 313.33 470.1 313.72C468.29 314.11 466.44 314.5 464.6 314.9L439.8 320.18L441.53 326.36L485.37 316.66L488.37 327.18L444.66 337.5L451.29 361.04L452.61 360.68C452.61 360.68 452.7 360.65 452.75 360.64C452.8 360.63 452.84 360.62 452.88 360.6C452.92 360.58 452.96 360.58 453 360.57C453.04 360.56 453.08 360.55 453.11 360.54C453.17 360.52 453.22 360.51 453.27 360.49C453.32 360.47 453.37 360.46 453.42 360.45C453.47 360.44 453.52 360.42 453.56 360.41C453.6 360.4 453.65 360.39 453.7 360.38C453.7 360.38 453.71 360.38 453.72 360.38C453.73 360.38 453.73 360.38 453.74 360.38C453.75 360.38 453.75 360.38 453.76 360.38C453.77 360.38 453.77 360.38 453.78 360.38C453.78 360.38 453.8 360.38 453.81 360.38C453.82 360.38 453.83 360.38 453.84 360.38C453.85 360.38 453.86 360.38 453.87 360.38C453.88 360.38 453.89 360.38 453.9 360.38C454.1 360.34 454.28 360.28 454.42 360.2C454.56 360.12 454.69 360.02 454.79 359.91C454.89 359.8 454.97 359.68 455.04 359.56C455.11 359.44 455.15 359.32 455.19 359.2C455.22 359.08 455.25 358.96 455.26 358.84C455.27 358.72 455.28 358.58 455.28 358.44C455.28 358.3 455.27 358.16 455.25 358.01C455.23 357.86 455.2 357.71 455.16 357.54L455.09 357.25C454.8 356.25 454.52 355.25 454.23 354.25C453.94 353.25 453.66 352.25 453.38 351.25C453.1 350.25 452.81 349.25 452.53 348.25C452.25 347.25 451.96 346.25 451.68 345.25L450.94 342.62L457.72 340.96C460.74 340.22 463.73 339.49 466.71 338.77C469.69 338.05 472.59 337.34 475.49 336.63C478.39 335.92 481.24 335.23 484.08 334.54C486.92 333.85 489.7 333.17 492.48 332.5C492.54 332.49 492.62 332.47 492.71 332.43C492.8 332.39 492.91 332.35 493.02 332.28C493.13 332.21 493.24 332.12 493.34 331.99C493.44 331.86 493.53 331.71 493.6 331.52C493.67 331.33 493.71 331.12 493.72 330.93C493.73 330.74 493.72 330.54 493.71 330.36C493.7 330.18 493.66 330.02 493.63 329.88C493.6 329.74 493.57 329.63 493.54 329.56L492.31 325.3C492 324.23 491.7 323.17 491.39 322.1C491.08 321.03 490.78 319.97 490.48 318.9C490.18 317.83 489.87 316.77 489.57 315.7C489.27 314.63 488.97 313.57 488.67 312.5C488.65 312.42 488.61 312.3 488.56 312.15C488.51 312 488.44 311.84 488.36 311.66C488.28 311.48 488.17 311.3 488.03 311.13C487.89 310.96 487.74 310.79 487.55 310.65C487.43 310.56 487.32 310.49 487.21 310.44C487.1 310.39 486.99 310.36 486.89 310.33C486.79 310.3 486.69 310.3 486.6 310.3C486.51 310.3 486.43 310.3 486.36 310.31" fill="#68707B"/>
<path d="M433.599 323.41C433.599 323.41 433.579 323.41 433.569 323.41C433.559 323.41 433.549 323.41 433.539 323.41C433.529 323.41 433.519 323.41 433.509 323.41C433.499 323.41 433.489 323.41 433.479 323.41C430.389 324.08 427.269 324.76 424.129 325.44C420.989 326.12 417.769 326.81 414.559 327.51C411.349 328.21 408.049 328.91 404.759 329.62C401.469 330.33 398.099 331.06 394.729 331.78L382.419 334.43C382.419 334.43 382.339 334.45 382.299 334.46C382.259 334.47 382.219 334.48 382.169 334.49C382.119 334.5 382.089 334.51 382.049 334.53C382.009 334.55 381.969 334.55 381.939 334.56L381.779 334.61L382.559 337.42L432.809 326.42L436.969 341.24L386.929 353.17L392.859 374.57L394.939 374.01L389.799 355.46L439.019 343.56C439.019 343.56 439.089 343.54 439.129 343.53C439.169 343.52 439.199 343.51 439.239 343.5C439.279 343.49 439.309 343.48 439.339 343.47C439.369 343.46 439.399 343.45 439.429 343.43C439.459 343.42 439.479 343.41 439.499 343.4C439.519 343.39 439.539 343.38 439.559 343.36C439.579 343.34 439.589 343.33 439.599 343.32C439.609 343.31 439.619 343.29 439.629 343.27C439.629 343.25 439.639 343.22 439.649 343.2C439.659 343.18 439.649 343.15 439.649 343.12C439.649 343.09 439.649 343.06 439.649 343.04C439.649 343.02 439.649 342.98 439.639 342.96C439.639 342.92 439.619 342.88 439.609 342.84C439.599 342.8 439.589 342.75 439.579 342.71C439.569 342.67 439.559 342.62 439.539 342.58C439.519 342.54 439.519 342.49 439.499 342.45L438.309 338.24C437.979 337.06 437.649 335.89 437.319 334.71C436.989 333.53 436.659 332.36 436.329 331.19C435.999 330.02 435.669 328.84 435.339 327.67C435.009 326.5 434.679 325.32 434.359 324.15C434.339 324.09 434.319 324.03 434.299 323.97C434.279 323.91 434.259 323.85 434.229 323.79C434.199 323.73 434.179 323.68 434.149 323.63C434.119 323.58 434.089 323.54 434.049 323.51C434.019 323.48 433.989 323.46 433.959 323.45C433.929 323.44 433.889 323.42 433.849 323.41C433.809 323.4 433.769 323.4 433.729 323.4C433.689 323.4 433.639 323.4 433.579 323.41" fill="#68707B"/>
<path d="M382.569 337.43L381.789 334.62L381.949 334.57C381.949 334.57 382.019 334.55 382.059 334.54C382.099 334.53 382.139 334.52 382.179 334.5C382.219 334.48 382.259 334.48 382.309 334.47C382.359 334.46 382.389 334.45 382.429 334.44L394.739 331.79C398.109 331.06 401.449 330.34 404.769 329.63C408.089 328.92 411.329 328.22 414.569 327.52C417.809 326.82 420.979 326.14 424.139 325.45C427.299 324.76 430.399 324.1 433.489 323.42C433.489 323.42 433.509 323.42 433.519 323.42C433.529 323.42 433.539 323.42 433.549 323.42C433.559 323.42 433.569 323.42 433.579 323.42C433.589 323.42 433.599 323.42 433.609 323.42C433.659 323.42 433.709 323.41 433.759 323.41C433.809 323.41 433.849 323.41 433.879 323.42C433.909 323.43 433.949 323.44 433.989 323.46C434.029 323.48 434.049 323.5 434.079 323.52C434.119 323.55 434.149 323.59 434.179 323.64C434.209 323.69 434.239 323.74 434.259 323.8C434.279 323.86 434.309 323.92 434.329 323.98C434.349 324.04 434.369 324.1 434.389 324.16C434.719 325.33 435.049 326.51 435.369 327.68C435.689 328.85 436.029 330.03 436.359 331.2C436.689 332.37 437.019 333.55 437.349 334.72C437.679 335.89 438.009 337.07 438.339 338.25L439.529 342.46C439.529 342.46 439.549 342.55 439.569 342.59C439.589 342.63 439.589 342.68 439.609 342.72C439.629 342.76 439.629 342.81 439.639 342.85C439.649 342.89 439.659 342.93 439.669 342.97C439.669 343 439.669 343.02 439.679 343.05C439.689 343.08 439.679 343.11 439.679 343.13C439.679 343.15 439.679 343.19 439.679 343.21C439.679 343.23 439.679 343.26 439.659 343.28C439.659 343.3 439.639 343.31 439.629 343.33C439.619 343.35 439.609 343.36 439.589 343.37C439.569 343.38 439.559 343.4 439.529 343.41C439.499 343.42 439.489 343.43 439.459 343.44C439.429 343.45 439.399 343.46 439.369 343.48C439.339 343.5 439.299 343.5 439.269 343.51C439.239 343.52 439.199 343.53 439.159 343.54C439.119 343.55 439.089 343.56 439.049 343.57L389.829 355.47L394.969 374.02L392.889 374.58L386.959 353.18L436.999 341.25L432.839 326.43L382.589 337.43M433.189 321.59C433.189 321.59 433.149 321.59 433.129 321.59C433.109 321.59 433.089 321.59 433.069 321.59C433.049 321.59 433.039 321.59 433.019 321.59C432.999 321.59 432.989 321.59 432.979 321.59C429.889 322.25 426.769 322.92 423.619 323.6C420.469 324.28 417.259 324.96 414.049 325.65C410.839 326.34 407.539 327.04 404.249 327.74C400.959 328.44 397.589 329.16 394.209 329.88L381.899 332.51C381.849 332.52 381.799 332.53 381.749 332.55C381.699 332.57 381.649 332.58 381.599 332.59C381.549 332.6 381.499 332.62 381.449 332.63C381.399 332.64 381.359 332.66 381.309 332.67L379.739 333.12L381.549 339.66L431.949 328.5L435.109 339.74L384.859 351.6L391.869 376.88L396.989 375.51L391.849 356.99L439.539 345.34C439.539 345.34 439.639 345.32 439.679 345.3C439.719 345.28 439.779 345.27 439.829 345.26C439.879 345.25 439.929 345.23 439.969 345.22C440.009 345.21 440.059 345.19 440.099 345.17C440.199 345.13 440.299 345.08 440.379 345.02C440.459 344.96 440.549 344.9 440.619 344.82C440.689 344.74 440.759 344.66 440.809 344.57C440.859 344.48 440.909 344.38 440.959 344.28C440.999 344.18 441.029 344.07 441.049 343.95C441.069 343.83 441.089 343.72 441.089 343.6C441.089 343.48 441.089 343.35 441.089 343.22C441.089 343.09 441.059 342.95 441.039 342.81C441.029 342.76 441.019 342.7 440.999 342.64C440.979 342.58 440.969 342.52 440.949 342.45C440.929 342.38 440.909 342.32 440.899 342.25C440.889 342.18 440.859 342.11 440.839 342.03L439.649 337.8C439.319 336.64 438.999 335.47 438.669 334.31C438.339 333.15 438.009 331.98 437.689 330.82C437.369 329.66 437.039 328.49 436.709 327.33C436.379 326.17 436.059 325 435.729 323.84C435.709 323.76 435.669 323.64 435.629 323.51C435.589 323.38 435.519 323.22 435.449 323.05C435.379 322.88 435.279 322.71 435.159 322.54C435.039 322.37 434.899 322.21 434.739 322.06C434.589 321.93 434.439 321.83 434.289 321.75C434.139 321.67 433.999 321.63 433.869 321.59C433.739 321.55 433.609 321.55 433.499 321.54C433.389 321.53 433.279 321.54 433.199 321.56" fill="#68707B"/>
<path d="M268.349 359.05L268.109 359.09C268.039 359.09 267.969 359.11 267.899 359.12C267.829 359.13 267.759 359.15 267.679 359.16C267.599 359.17 267.529 359.19 267.449 359.2C267.369 359.21 267.289 359.23 267.209 359.24L267.139 359.26C267.049 359.28 266.979 359.3 266.909 359.32C266.839 359.34 266.779 359.37 266.729 359.4C266.679 359.43 266.639 359.46 266.599 359.5C266.559 359.54 266.539 359.58 266.519 359.62C266.489 359.67 266.479 359.73 266.469 359.79C266.459 359.85 266.469 359.92 266.469 359.99C266.469 360.06 266.489 360.13 266.499 360.2C266.509 360.27 266.529 360.34 266.549 360.41C266.819 361.4 267.089 362.4 267.359 363.4C267.629 364.4 267.899 365.39 268.169 366.39C268.439 367.39 268.709 368.39 268.969 369.39C269.229 370.39 269.499 371.39 269.769 372.39L274.679 390.65C274.709 390.78 274.749 390.91 274.779 391.02C274.809 391.13 274.839 391.25 274.869 391.36C274.899 391.47 274.929 391.57 274.959 391.66C274.989 391.75 275.019 391.84 275.039 391.91C275.069 391.99 275.099 392.06 275.129 392.12C275.159 392.18 275.189 392.24 275.219 392.28C275.249 392.32 275.279 392.37 275.319 392.41C275.359 392.45 275.389 392.48 275.429 392.5C275.469 392.52 275.509 392.54 275.549 392.56C275.589 392.58 275.639 392.59 275.689 392.59C275.739 392.59 275.799 392.6 275.859 392.59C275.919 392.58 275.989 392.59 276.069 392.58C276.099 392.58 276.119 392.58 276.149 392.58C276.179 392.58 276.199 392.58 276.229 392.58C276.259 392.58 276.289 392.58 276.309 392.57C276.329 392.56 276.369 392.57 276.399 392.56C276.449 392.56 276.499 392.54 276.559 392.53C276.619 392.52 276.669 392.51 276.719 392.49C276.769 392.47 276.829 392.46 276.889 392.45C276.949 392.44 276.999 392.42 277.059 392.41L277.209 392.38C277.309 392.36 277.399 392.33 277.479 392.3C277.559 392.27 277.629 392.24 277.689 392.21C277.749 392.18 277.799 392.14 277.839 392.1C277.879 392.06 277.909 392.01 277.939 391.96C277.969 391.9 277.979 391.83 277.989 391.76C277.999 391.69 277.989 391.61 277.989 391.53C277.989 391.45 277.969 391.37 277.949 391.29C277.929 391.21 277.909 391.12 277.889 391.04C277.349 389.06 276.819 387.09 276.289 385.11C275.759 383.13 275.229 381.16 274.689 379.19C274.149 377.22 273.629 375.24 273.099 373.27C272.569 371.3 272.039 369.33 271.509 367.36L269.809 361.06C269.769 360.93 269.739 360.8 269.709 360.68C269.679 360.56 269.649 360.44 269.609 360.34C269.569 360.24 269.549 360.13 269.519 360.04C269.489 359.95 269.459 359.86 269.429 359.79C269.399 359.71 269.369 359.64 269.339 359.58C269.309 359.52 269.279 359.46 269.239 359.41C269.199 359.36 269.169 359.32 269.139 359.28C269.109 359.24 269.069 359.21 269.029 359.18C268.989 359.15 268.949 359.13 268.899 359.11C268.849 359.09 268.799 359.08 268.749 359.07C268.699 359.06 268.629 359.06 268.569 359.06C268.509 359.06 268.429 359.06 268.349 359.06" fill="#68707B"/>
<path d="M276.409 392.54C276.409 392.54 276.349 392.55 276.319 392.55C276.289 392.55 276.259 392.55 276.239 392.56C276.219 392.57 276.189 392.56 276.159 392.56C276.129 392.56 276.109 392.56 276.079 392.56C275.999 392.56 275.939 392.57 275.869 392.57C275.799 392.57 275.749 392.57 275.699 392.57C275.649 392.57 275.599 392.55 275.559 392.54C275.519 392.53 275.479 392.5 275.439 392.48C275.399 392.45 275.369 392.42 275.329 392.39C275.289 392.36 275.259 392.31 275.229 392.26C275.199 392.21 275.169 392.16 275.139 392.1C275.109 392.04 275.079 391.97 275.049 391.89C275.019 391.82 274.989 391.73 274.969 391.64C274.949 391.55 274.909 391.45 274.879 391.34C274.849 391.23 274.819 391.12 274.789 391C274.759 390.88 274.719 390.76 274.689 390.63L269.779 372.37C269.509 371.37 269.249 370.37 268.979 369.37C268.709 368.37 268.439 367.37 268.179 366.37C267.919 365.37 267.639 364.38 267.369 363.38C267.099 362.38 266.829 361.39 266.559 360.39C266.539 360.32 266.519 360.25 266.509 360.18C266.499 360.11 266.479 360.04 266.479 359.97C266.479 359.9 266.479 359.84 266.479 359.77C266.479 359.7 266.499 359.65 266.529 359.6C266.549 359.56 266.579 359.52 266.609 359.48C266.639 359.44 266.689 359.41 266.739 359.38C266.789 359.35 266.849 359.33 266.919 359.3C266.989 359.27 267.069 359.26 267.149 359.24L267.219 359.22C267.299 359.21 267.379 359.19 267.459 359.18C267.539 359.17 267.609 359.15 267.689 359.14C267.769 359.13 267.839 359.11 267.909 359.1C267.979 359.09 268.049 359.08 268.119 359.07L268.359 359.03C268.439 359.03 268.509 359.03 268.579 359.03C268.649 359.03 268.709 359.03 268.759 359.04C268.809 359.05 268.869 359.06 268.909 359.08C268.949 359.1 268.999 359.12 269.039 359.15C269.079 359.18 269.119 359.21 269.149 359.25C269.179 359.29 269.219 359.33 269.249 359.38C269.279 359.43 269.309 359.49 269.349 359.55C269.389 359.61 269.409 359.68 269.439 359.76C269.469 359.84 269.499 359.92 269.529 360.01C269.559 360.1 269.589 360.2 269.619 360.31C269.649 360.42 269.679 360.53 269.719 360.65C269.759 360.77 269.789 360.9 269.819 361.03L271.519 367.33C272.049 369.3 272.579 371.27 273.109 373.24C273.639 375.21 274.169 377.18 274.699 379.16C275.229 381.14 275.759 383.11 276.299 385.08C276.839 387.05 277.369 389.03 277.899 391.01C277.919 391.09 277.949 391.18 277.959 391.26C277.969 391.34 277.989 391.42 277.999 391.5C278.009 391.58 277.999 391.65 277.999 391.73C277.999 391.81 277.979 391.87 277.949 391.93C277.929 391.98 277.889 392.03 277.849 392.07C277.809 392.11 277.759 392.15 277.699 392.18C277.639 392.21 277.569 392.24 277.489 392.27C277.409 392.3 277.319 392.32 277.219 392.35L277.069 392.38C277.009 392.39 276.959 392.41 276.899 392.42C276.839 392.43 276.789 392.45 276.729 392.46C276.669 392.47 276.619 392.48 276.569 392.5C276.519 392.52 276.469 392.52 276.409 392.53M267.709 356.88C267.629 356.89 267.549 356.91 267.459 356.92C267.369 356.93 267.289 356.95 267.199 356.97C267.109 356.99 267.019 357.01 266.929 357.02C266.839 357.03 266.739 357.06 266.649 357.08L266.859 358.18L266.579 357.1C266.349 357.15 266.139 357.21 265.939 357.29C265.739 357.37 265.559 357.47 265.399 357.58C265.239 357.69 265.099 357.83 264.969 357.98C264.839 358.13 264.739 358.29 264.649 358.48C264.529 358.72 264.459 358.97 264.419 359.21C264.379 359.45 264.379 359.68 264.389 359.89C264.399 360.1 264.429 360.3 264.459 360.46C264.489 360.62 264.529 360.76 264.549 360.86C264.819 361.86 265.089 362.86 265.369 363.86C265.649 364.86 265.909 365.86 266.179 366.86C266.449 367.86 266.719 368.86 266.989 369.86C267.259 370.86 267.529 371.86 267.799 372.86L272.729 391.22C272.759 391.35 272.799 391.48 272.829 391.61C272.859 391.74 272.899 391.86 272.929 391.98C272.959 392.1 272.999 392.22 273.039 392.33C273.079 392.44 273.109 392.55 273.149 392.65C273.179 392.72 273.219 392.84 273.279 392.97C273.339 393.1 273.419 393.26 273.519 393.43C273.619 393.6 273.749 393.77 273.899 393.94C274.049 394.11 274.239 394.27 274.449 394.41C274.659 394.55 274.869 394.64 275.069 394.71C275.269 394.78 275.459 394.82 275.639 394.84C275.819 394.86 275.969 394.86 276.099 394.86C276.229 394.86 276.329 394.84 276.399 394.84C276.429 394.84 276.469 394.84 276.499 394.83C276.529 394.82 276.569 394.82 276.609 394.81C276.649 394.8 276.679 394.8 276.719 394.79C276.759 394.78 276.789 394.78 276.829 394.77C276.889 394.76 276.949 394.75 277.009 394.74C277.069 394.73 277.129 394.72 277.199 394.7C277.269 394.68 277.329 394.68 277.389 394.66C277.449 394.64 277.519 394.63 277.589 394.62L277.749 394.58C277.839 394.56 277.979 394.53 278.139 394.48C278.299 394.43 278.489 394.35 278.689 394.24C278.889 394.13 279.089 393.99 279.269 393.8C279.449 393.61 279.629 393.38 279.759 393.09C279.879 392.83 279.949 392.57 279.989 392.32C280.029 392.07 280.029 391.82 280.019 391.6C280.009 391.38 279.969 391.17 279.939 391C279.909 390.83 279.859 390.68 279.839 390.58C279.309 388.61 278.769 386.65 278.239 384.68C277.709 382.71 277.179 380.75 276.649 378.79C276.119 376.83 275.589 374.86 275.069 372.9C274.549 370.94 274.019 368.98 273.489 367.02L271.759 360.6C271.719 360.47 271.689 360.34 271.649 360.21C271.609 360.08 271.579 359.96 271.539 359.83C271.499 359.7 271.469 359.59 271.429 359.47C271.389 359.35 271.349 359.24 271.309 359.14C271.279 359.07 271.239 358.95 271.179 358.82C271.119 358.69 271.039 358.53 270.929 358.36C270.819 358.19 270.699 358.01 270.539 357.84C270.379 357.67 270.199 357.5 269.979 357.35C269.769 357.21 269.549 357.11 269.349 357.04C269.149 356.97 268.949 356.93 268.769 356.9C268.589 356.87 268.429 356.87 268.289 356.87C268.149 356.87 268.049 356.87 267.979 356.88C267.959 356.88 267.939 356.88 267.909 356.88C267.879 356.88 267.859 356.88 267.839 356.88C267.819 356.88 267.789 356.88 267.769 356.88C267.749 356.88 267.719 356.88 267.699 356.88" fill="#68707B"/>
<path d="M301.95 351.82C301.8 351.84 301.65 351.87 301.5 351.9C301.35 351.93 301.2 351.96 301.05 351.99C300.9 352.02 300.75 352.05 300.6 352.08C300.45 352.11 300.3 352.14 300.16 352.17L299.63 352.29L308.36 384.5C308.42 384.49 308.49 384.47 308.55 384.46C308.61 384.45 308.67 384.43 308.72 384.41C308.77 384.39 308.83 384.38 308.88 384.36C308.93 384.34 308.98 384.33 309.03 384.32C309.11 384.3 309.18 384.28 309.26 384.26C309.34 384.24 309.41 384.22 309.48 384.2C309.55 384.18 309.62 384.17 309.7 384.15C309.78 384.13 309.84 384.12 309.92 384.11C309.94 384.11 309.96 384.11 309.98 384.1C310 384.09 310.02 384.1 310.04 384.09C310.06 384.08 310.08 384.09 310.1 384.09C310.12 384.09 310.14 384.09 310.16 384.09C310.17 384.09 310.18 384.09 310.19 384.09C310.2 384.09 310.21 384.09 310.22 384.09C310.23 384.09 310.24 384.09 310.25 384.09C310.26 384.09 310.27 384.09 310.28 384.09C310.38 384.07 310.46 384.05 310.52 384.02C310.58 383.99 310.64 383.96 310.68 383.93C310.72 383.9 310.75 383.86 310.78 383.83C310.81 383.8 310.82 383.76 310.83 383.73C310.86 383.66 310.87 383.59 310.87 383.5C310.87 383.41 310.87 383.33 310.86 383.25C310.85 383.17 310.83 383.09 310.82 383.01C310.81 382.93 310.79 382.87 310.77 382.82L308.72 375.29C308.35 373.93 307.98 372.57 307.61 371.21C307.24 369.85 306.87 368.49 306.5 367.13C306.13 365.77 305.76 364.41 305.39 363.05C305.02 361.69 304.65 360.33 304.28 358.97L302.52 352.46C302.52 352.46 302.52 352.43 302.51 352.41C302.5 352.39 302.5 352.37 302.49 352.34C302.48 352.31 302.47 352.29 302.46 352.26C302.45 352.23 302.43 352.21 302.42 352.18L302.35 352.08L302.2 351.94L302.08 351.86L301.97 351.84" fill="#68707B"/>
<path d="M308.35 384.5L299.62 352.29L300.15 352.17C300.3 352.14 300.44 352.11 300.59 352.08C300.74 352.05 300.89 352.02 301.04 351.99C301.19 351.96 301.34 351.93 301.49 351.9C301.64 351.87 301.79 351.85 301.94 351.82L302.05 351.84L302.17 351.92L302.32 352.06L302.39 352.16C302.39 352.16 302.42 352.21 302.43 352.24C302.44 352.27 302.45 352.29 302.46 352.32C302.47 352.35 302.47 352.37 302.48 352.39C302.49 352.41 302.48 352.43 302.49 352.44L304.25 358.95C304.62 360.31 304.99 361.67 305.36 363.03C305.73 364.39 306.1 365.75 306.47 367.11C306.84 368.47 307.21 369.83 307.58 371.19C307.95 372.55 308.32 373.91 308.69 375.27L310.74 382.8C310.74 382.8 310.77 382.91 310.79 382.99C310.81 383.07 310.82 383.14 310.83 383.23C310.84 383.32 310.85 383.4 310.84 383.48C310.83 383.56 310.82 383.64 310.8 383.71C310.79 383.74 310.77 383.78 310.75 383.81C310.73 383.84 310.7 383.88 310.65 383.91C310.6 383.94 310.56 383.97 310.49 384C310.42 384.03 310.34 384.05 310.25 384.07C310.25 384.07 310.23 384.07 310.22 384.07C310.21 384.07 310.2 384.07 310.19 384.07C310.18 384.07 310.17 384.07 310.16 384.07C310.15 384.07 310.14 384.07 310.13 384.07C310.11 384.07 310.09 384.07 310.07 384.07C310.05 384.07 310.03 384.07 310.01 384.07C309.99 384.07 309.97 384.07 309.95 384.08C309.93 384.09 309.91 384.08 309.89 384.09C309.82 384.1 309.74 384.12 309.67 384.13C309.6 384.14 309.53 384.16 309.45 384.18C309.37 384.2 309.31 384.22 309.23 384.24C309.15 384.26 309.08 384.28 309 384.3C308.95 384.31 308.9 384.33 308.85 384.34C308.8 384.35 308.75 384.37 308.69 384.39C308.63 384.41 308.58 384.42 308.52 384.44C308.46 384.46 308.4 384.47 308.33 384.48M301.46 349.7C301.3 349.73 301.14 349.76 300.98 349.79C300.82 349.82 300.66 349.85 300.51 349.88C300.36 349.91 300.2 349.95 300.04 349.98C299.88 350.01 299.73 350.05 299.58 350.08L297.21 350.58L307.1 387.06L308.94 386.59C309.01 386.57 309.07 386.56 309.13 386.54C309.19 386.52 309.25 386.51 309.31 386.49C309.37 386.47 309.42 386.46 309.48 386.44C309.54 386.42 309.59 386.41 309.64 386.4C309.71 386.38 309.77 386.36 309.84 386.34C309.91 386.32 309.96 386.31 310.02 386.29C310.08 386.27 310.13 386.26 310.19 386.25C310.25 386.24 310.3 386.23 310.35 386.22C310.37 386.22 310.38 386.22 310.4 386.22C310.42 386.22 310.43 386.22 310.45 386.22C310.47 386.22 310.48 386.22 310.5 386.22C310.52 386.22 310.53 386.22 310.55 386.22C310.56 386.22 310.58 386.22 310.59 386.22C310.6 386.22 310.62 386.22 310.63 386.22C310.64 386.22 310.66 386.22 310.67 386.22C310.68 386.22 310.7 386.22 310.71 386.22C311 386.17 311.25 386.09 311.46 385.98C311.67 385.87 311.85 385.75 312 385.62C312.15 385.49 312.27 385.34 312.37 385.19C312.47 385.04 312.54 384.89 312.6 384.75C312.7 384.51 312.75 384.26 312.78 384.02C312.81 383.78 312.8 383.55 312.78 383.34C312.76 383.13 312.73 382.93 312.7 382.77C312.67 382.61 312.63 382.47 312.6 382.37L310.55 374.87C310.18 373.51 309.81 372.15 309.44 370.79C309.07 369.43 308.7 368.07 308.33 366.72C307.96 365.37 307.59 364.01 307.23 362.65C306.87 361.29 306.49 359.94 306.13 358.59L304.44 352.35L304.39 352.17C304.39 352.17 304.37 352.08 304.35 352.02C304.33 351.96 304.31 351.88 304.28 351.79C304.25 351.7 304.21 351.6 304.16 351.5C304.11 351.4 304.06 351.29 303.99 351.18L303.77 350.86C303.77 350.86 303.69 350.76 303.65 350.72C303.61 350.68 303.57 350.63 303.52 350.58C303.47 350.53 303.43 350.49 303.38 350.45C303.33 350.41 303.28 350.37 303.23 350.33C303.19 350.29 303.14 350.26 303.09 350.22C303.04 350.18 303 350.15 302.95 350.12C302.9 350.09 302.85 350.06 302.8 350.03C302.75 350 302.7 349.98 302.65 349.96C302.55 349.91 302.46 349.87 302.36 349.84C302.26 349.81 302.16 349.79 302.06 349.77C301.96 349.75 301.86 349.75 301.76 349.75C301.66 349.75 301.56 349.75 301.47 349.76" fill="#68707B"/>
<path d="M441.21 350.9C441.21 350.9 441.16 350.9 441.13 350.91C441.1 350.92 441.07 350.92 441.04 350.93C441.01 350.94 440.98 350.94 440.95 350.95C440.92 350.96 440.88 350.96 440.85 350.97L440.36 351.09C440.31 351.1 440.26 351.12 440.22 351.13C440.18 351.14 440.14 351.17 440.11 351.19C440.08 351.21 440.05 351.24 440.03 351.26C440.01 351.28 439.99 351.32 439.98 351.35C439.97 351.39 439.96 351.43 439.96 351.48C439.96 351.53 439.96 351.58 439.97 351.63C439.98 351.68 439.99 351.73 440 351.78C440.01 351.83 440.03 351.88 440.04 351.93C440.17 352.39 440.3 352.85 440.44 353.31C440.58 353.77 440.7 354.23 440.83 354.69C440.96 355.15 441.09 355.61 441.22 356.07C441.35 356.53 441.48 356.99 441.61 357.45L442.16 359.45C442.19 359.57 442.23 359.68 442.26 359.79C442.29 359.9 442.32 360 442.35 360.1C442.38 360.2 442.41 360.29 442.43 360.37C442.45 360.45 442.48 360.53 442.51 360.6C442.54 360.67 442.56 360.74 442.59 360.79C442.62 360.84 442.64 360.9 442.67 360.94C442.7 360.98 442.72 361.02 442.75 361.05C442.78 361.08 442.81 361.11 442.84 361.13C442.87 361.15 442.9 361.17 442.94 361.19C442.98 361.21 443.01 361.22 443.05 361.22C443.09 361.22 443.14 361.23 443.18 361.23C443.22 361.23 443.28 361.23 443.34 361.23C443.34 361.23 443.35 361.23 443.36 361.23C443.37 361.23 443.37 361.23 443.38 361.23C443.39 361.23 443.39 361.23 443.4 361.23C443.41 361.23 443.41 361.23 443.42 361.23C443.47 361.23 443.53 361.21 443.59 361.19C443.65 361.17 443.71 361.16 443.78 361.14C443.85 361.12 443.91 361.11 443.98 361.09C444.05 361.07 444.12 361.05 444.19 361.03L444.3 360.99C444.3 360.99 444.39 360.95 444.42 360.93C444.45 360.91 444.48 360.89 444.5 360.87C444.52 360.85 444.54 360.83 444.55 360.81C444.56 360.79 444.57 360.77 444.57 360.75C444.57 360.73 444.57 360.72 444.58 360.69C444.59 360.66 444.58 360.64 444.58 360.61C444.58 360.58 444.58 360.54 444.58 360.5C444.58 360.46 444.57 360.41 444.55 360.35L444.5 360.15C444.43 359.9 444.35 359.65 444.28 359.39C444.21 359.13 444.13 358.88 444.06 358.62C443.99 358.36 443.91 358.1 443.84 357.84C443.77 357.58 443.69 357.32 443.62 357.06L442.38 352.63C442.35 352.52 442.32 352.41 442.29 352.3C442.26 352.19 442.23 352.1 442.2 352C442.17 351.9 442.14 351.82 442.12 351.74C442.1 351.66 442.07 351.58 442.04 351.51C442.01 351.44 441.99 351.38 441.96 351.33C441.93 351.28 441.91 351.23 441.88 351.18C441.85 351.13 441.83 351.1 441.8 351.07C441.77 351.04 441.74 351.01 441.71 350.98C441.68 350.96 441.65 350.94 441.62 350.92C441.59 350.9 441.55 350.89 441.51 350.89C441.47 350.89 441.43 350.88 441.38 350.88C441.33 350.88 441.28 350.88 441.22 350.88" fill="#68707B"/>
<path d="M443.41 361.22C443.41 361.22 443.4 361.22 443.39 361.22C443.38 361.22 443.38 361.22 443.37 361.22C443.36 361.22 443.36 361.22 443.35 361.22C443.34 361.22 443.34 361.22 443.33 361.22C443.27 361.22 443.22 361.22 443.17 361.22C443.12 361.22 443.08 361.22 443.04 361.21C443 361.2 442.96 361.19 442.93 361.18C442.9 361.17 442.86 361.14 442.83 361.12C442.8 361.1 442.77 361.07 442.74 361.04C442.71 361.01 442.68 360.97 442.66 360.93C442.64 360.89 442.61 360.84 442.58 360.78C442.55 360.72 442.53 360.66 442.5 360.59C442.47 360.52 442.45 360.45 442.42 360.36C442.39 360.27 442.37 360.19 442.34 360.09C442.31 359.99 442.28 359.89 442.25 359.78C442.22 359.67 442.19 359.56 442.15 359.44L441.6 357.44C441.47 356.98 441.34 356.52 441.21 356.06C441.08 355.6 440.95 355.14 440.82 354.68C440.69 354.22 440.56 353.76 440.43 353.3C440.3 352.84 440.17 352.38 440.03 351.92C440.02 351.87 440 351.82 439.99 351.77C439.98 351.72 439.97 351.67 439.96 351.62C439.95 351.57 439.95 351.52 439.95 351.47C439.95 351.42 439.95 351.38 439.97 351.34C439.98 351.31 440 351.28 440.02 351.25C440.04 351.22 440.07 351.2 440.1 351.18C440.13 351.16 440.17 351.14 440.21 351.12C440.25 351.1 440.3 351.09 440.35 351.08L440.84 350.96C440.84 350.96 440.91 350.95 440.94 350.94C440.97 350.93 441 350.93 441.03 350.92C441.06 350.91 441.09 350.91 441.12 350.9C441.15 350.89 441.18 350.9 441.2 350.89C441.26 350.89 441.31 350.89 441.36 350.89C441.41 350.89 441.45 350.89 441.49 350.9C441.53 350.91 441.57 350.92 441.6 350.93C441.63 350.94 441.67 350.96 441.69 350.99C441.72 351.01 441.75 351.04 441.78 351.08C441.81 351.12 441.84 351.15 441.86 351.19C441.88 351.23 441.91 351.28 441.94 351.34C441.97 351.4 441.99 351.46 442.02 351.52C442.05 351.59 442.07 351.66 442.1 351.75C442.13 351.84 442.15 351.92 442.18 352.01C442.21 352.1 442.24 352.2 442.27 352.31C442.3 352.42 442.33 352.52 442.36 352.64L443.6 357.07C443.67 357.33 443.75 357.59 443.82 357.85C443.89 358.11 443.97 358.37 444.04 358.63C444.11 358.89 444.19 359.15 444.26 359.4C444.33 359.65 444.41 359.91 444.48 360.16L444.53 360.36C444.54 360.42 444.55 360.47 444.56 360.51C444.57 360.55 444.56 360.59 444.56 360.62C444.56 360.65 444.56 360.68 444.56 360.7C444.56 360.72 444.56 360.74 444.55 360.76C444.55 360.78 444.54 360.8 444.53 360.82C444.52 360.84 444.5 360.86 444.48 360.88C444.46 360.9 444.43 360.92 444.4 360.94C444.37 360.96 444.33 360.98 444.28 361L444.17 361.04C444.1 361.06 444.03 361.08 443.96 361.1C443.89 361.12 443.82 361.14 443.76 361.15C443.7 361.16 443.63 361.18 443.57 361.2C443.51 361.22 443.45 361.23 443.4 361.24M440.71 349.09C440.71 349.09 440.65 349.09 440.63 349.1C440.61 349.11 440.57 349.11 440.54 349.12C440.51 349.13 440.48 349.13 440.45 349.14C440.42 349.15 440.39 349.15 440.36 349.16L439.85 349.29C439.7 349.33 439.56 349.38 439.43 349.45C439.3 349.52 439.19 349.6 439.09 349.69C438.99 349.78 438.9 349.89 438.82 350.02C438.74 350.15 438.68 350.28 438.63 350.43C438.57 350.63 438.53 350.82 438.52 351.02C438.51 351.22 438.52 351.4 438.54 351.57C438.56 351.74 438.59 351.89 438.62 352.02C438.65 352.15 438.68 352.25 438.7 352.32C438.83 352.78 438.96 353.24 439.1 353.7C439.24 354.16 439.36 354.62 439.49 355.08C439.62 355.54 439.75 356 439.88 356.46C440.01 356.92 440.14 357.38 440.27 357.85L440.84 359.87C440.87 359.99 440.9 360.11 440.94 360.22C440.98 360.33 441.01 360.45 441.04 360.55C441.07 360.65 441.11 360.76 441.14 360.87C441.17 360.98 441.21 361.07 441.24 361.16C441.26 361.22 441.3 361.32 441.35 361.44C441.4 361.56 441.47 361.7 441.55 361.84C441.63 361.98 441.74 362.14 441.86 362.28C441.98 362.42 442.12 362.57 442.29 362.69C442.45 362.81 442.61 362.89 442.76 362.95C442.91 363.01 443.05 363.04 443.18 363.06C443.31 363.08 443.43 363.08 443.52 363.08C443.61 363.08 443.69 363.07 443.75 363.06L443.89 363.04C443.95 363.03 444.02 363.01 444.09 363C444.16 362.99 444.23 362.97 444.31 362.95C444.39 362.93 444.46 362.91 444.54 362.89C444.62 362.87 444.7 362.85 444.79 362.82L444.9 362.78C445.03 362.74 445.15 362.68 445.26 362.61C445.37 362.54 445.47 362.46 445.55 362.37C445.63 362.28 445.71 362.18 445.78 362.06C445.85 361.94 445.9 361.82 445.95 361.68C445.99 361.57 446.02 361.45 446.04 361.33C446.06 361.21 446.07 361.08 446.07 360.95C446.07 360.82 446.07 360.68 446.05 360.53C446.03 360.38 446.01 360.24 445.97 360.08L445.9 359.81C445.82 359.55 445.75 359.3 445.67 359.04C445.59 358.78 445.52 358.53 445.45 358.27C445.38 358.01 445.3 357.76 445.23 357.5C445.16 357.24 445.09 356.99 445.02 356.73L443.77 352.26C443.74 352.14 443.7 352.03 443.67 351.91C443.64 351.79 443.61 351.69 443.57 351.58C443.53 351.47 443.51 351.37 443.47 351.27C443.43 351.17 443.4 351.07 443.37 350.98C443.35 350.92 443.31 350.82 443.26 350.71C443.21 350.6 443.15 350.46 443.06 350.32C442.97 350.18 442.88 350.03 442.76 349.88C442.64 349.73 442.5 349.59 442.34 349.47C442.18 349.35 442.03 349.26 441.88 349.2C441.73 349.14 441.59 349.1 441.46 349.08C441.33 349.06 441.22 349.05 441.12 349.05C441.02 349.05 440.95 349.05 440.89 349.06C440.88 349.06 440.87 349.06 440.86 349.06C440.85 349.06 440.84 349.06 440.83 349.06C440.82 349.06 440.81 349.06 440.8 349.06C440.79 349.06 440.78 349.06 440.77 349.06" fill="#68707B"/>
</g>
<mask id="mask5_1281_511" style="mask-type:luminance" maskUnits="userSpaceOnUse" x="522" y="288" width="50" height="54">
<path d="M534.929 341.81L522.569 296.67L559.289 288.6L571.499 332.97L534.929 341.81Z" fill="white"/>
</mask>
<g mask="url(#mask5_1281_511)">
<path d="M551.26 329.64C549.6 330.03 547.91 330 546.26 329.59C544.61 329.18 543.01 328.41 541.55 327.34C540.09 326.27 538.76 324.88 537.66 323.26C536.56 321.64 535.69 319.78 535.13 317.75C534.57 315.72 534.38 313.7 534.51 311.79C534.64 309.88 535.1 308.1 535.83 306.51C536.56 304.92 537.57 303.56 538.81 302.49C540.05 301.42 541.52 300.66 543.18 300.28C544.84 299.9 546.53 299.97 548.16 300.39C549.79 300.81 551.38 301.59 552.82 302.67C554.26 303.75 555.57 305.12 556.65 306.73C557.73 308.34 558.59 310.18 559.15 312.19C559.71 314.2 559.9 316.19 559.77 318.08C559.64 319.97 559.21 321.75 558.49 323.32C557.77 324.89 556.79 326.28 555.56 327.36C554.33 328.44 552.88 329.23 551.22 329.62M541.09 292.6C538.56 293.16 536.31 294.32 534.41 295.94C532.51 297.56 530.96 299.66 529.84 302.07C528.72 304.48 528.02 307.22 527.81 310.13C527.6 313.04 527.89 316.13 528.75 319.24C529.61 322.35 530.94 325.2 532.62 327.68C534.3 330.16 536.33 332.26 538.57 333.91C540.81 335.56 543.25 336.72 545.76 337.33C548.27 337.94 550.86 337.98 553.38 337.37C555.9 336.76 558.12 335.55 559.98 333.9C561.84 332.25 563.34 330.14 564.42 327.74C565.5 325.34 566.16 322.63 566.35 319.75C566.54 316.87 566.23 313.85 565.39 310.79C564.55 307.73 563.24 304.93 561.6 302.49C559.96 300.05 557.97 297.95 555.78 296.3C553.59 294.65 551.18 293.46 548.69 292.81C546.2 292.16 543.62 292.07 541.09 292.62" fill="#68707B"/>
</g>
</g>
<defs>
<clipPath id="clip0_1281_511">
<rect width="654.61" height="563.35" fill="white"/>
</clipPath>
</defs>
</svg>
