<svg width="645" height="457" viewBox="0 0 645 457" fill="none" xmlns="http://www.w3.org/2000/svg">
<path d="M566.5 0C581.703 0 594.363 -0.0268602 604.376 1.31934C614.748 2.7139 624.132 5.78391 631.674 13.3262C639.216 20.8684 642.286 30.2517 643.681 40.624C645.027 50.6369 645 63.297 645 78.5V378.5C645 393.703 645.027 406.363 643.681 416.376C642.286 426.748 639.216 436.132 631.674 443.674C624.132 451.216 614.748 454.286 604.376 455.681C594.363 457.027 581.703 457 566.5 457H78.5C63.297 457 50.6369 457.027 40.624 455.681C30.2517 454.286 20.8684 451.216 13.3262 443.674C5.78391 436.132 2.7139 426.748 1.31934 416.376C-0.0268602 406.363 0 393.703 0 378.5V78.5C0 63.297 -0.0268602 50.6369 1.31934 40.624C2.7139 30.2517 5.78391 20.8684 13.3262 13.3262C20.8684 5.78391 30.2517 2.7139 40.624 1.31934C50.6369 -0.0268602 63.297 0 78.5 0H566.5ZM78.5 25C62.5906 25 51.9159 25.0266 43.9561 26.0967C36.3558 27.1185 33.127 28.8808 31.0039 31.0039C28.8808 33.127 27.1185 36.3558 26.0967 43.9561C25.0266 51.9159 25 62.5906 25 78.5V378.5C25 394.409 25.0266 405.084 26.0967 413.044C27.1185 420.644 28.8808 423.873 31.0039 425.996C33.127 428.119 36.3558 429.882 43.9561 430.903C51.9158 431.973 62.5906 432 78.5 432H566.5C582.409 432 593.084 431.973 601.044 430.903C608.644 429.882 611.873 428.119 613.996 425.996C616.119 423.873 617.882 420.644 618.903 413.044C619.973 405.084 620 394.409 620 378.5V78.5C620 62.5906 619.973 51.9158 618.903 43.9561C617.882 36.3558 616.119 33.127 613.996 31.0039C611.873 28.8808 608.644 27.1185 601.044 26.0967C593.084 25.0266 582.409 25 566.5 25H78.5ZM64.5 376.5C72.232 376.5 78.5 382.768 78.5 390.5C78.5 398.232 72.232 404.5 64.5 404.5C56.768 404.5 50.5 398.232 50.5 390.5C50.5 382.768 56.768 376.5 64.5 376.5ZM580.5 376.5C588.232 376.5 594.5 382.768 594.5 390.5C594.5 398.232 588.232 404.5 580.5 404.5C572.768 404.5 566.5 398.232 566.5 390.5C566.5 382.768 572.768 376.5 580.5 376.5ZM522.5 325.5C535.203 325.5 545.5 335.797 545.5 348.5C545.5 361.203 535.203 371.5 522.5 371.5C509.797 371.5 499.5 361.203 499.5 348.5C499.5 335.797 509.797 325.5 522.5 325.5ZM424.992 324.633C425.313 324.633 426.331 324.607 427.133 325.302C428.027 326.076 428.06 327.169 428.057 327.66L428.058 327.661C428.027 332.755 428.022 337.852 428.034 342.948L428.053 348.045V348.047C428.054 348.465 428.041 349.488 427.257 350.266C426.576 350.94 425.712 351.033 425.233 351.046L425.054 351.048C402.882 351.028 380.708 351.031 358.533 351.031C358.532 355.084 358.528 359.131 358.535 363.177L358.549 367.539V367.54C358.55 367.849 358.568 368.82 357.904 369.598C357.101 370.538 355.977 370.514 355.453 370.461H355.452C354.943 370.409 354.583 370.458 353.669 370.458H351.669V344.098H420.936V331.591H351.688V324.649H354.676C378.117 324.649 401.554 324.653 424.992 324.633ZM340.347 355.181C340.84 355.18 341.38 355.175 341.815 355.22C342.23 355.262 343.013 355.382 343.652 356.001C344.303 356.631 344.44 357.42 344.488 357.849C344.538 358.29 344.535 358.83 344.535 359.321V362.907C344.535 364.539 344.518 366.1 344.546 367.677L344.54 368.011C344.514 368.433 344.395 369.082 343.894 369.639C343.275 370.324 342.472 370.447 342.013 370.469L341.839 370.474C341.334 370.478 340.786 370.486 340.343 370.443C339.921 370.403 339.129 370.286 338.482 369.661C337.827 369.027 337.69 368.232 337.642 367.799C337.591 367.351 337.594 366.801 337.594 366.297C337.594 363.512 337.608 360.762 337.583 358.004L337.584 358.003C337.58 357.698 337.568 356.785 338.225 356.04C338.945 355.223 339.928 355.181 340.346 355.181L340.347 355.18V355.181ZM258.227 324.674C258.448 324.674 258.787 324.671 259.08 324.704C259.363 324.736 260.045 324.84 260.606 325.416C261.158 325.982 261.253 326.656 261.282 326.927C261.314 327.216 261.311 327.555 261.311 327.785V367.367C261.311 367.591 261.313 367.922 261.283 368.205C261.255 368.467 261.166 369.133 260.627 369.696C260.07 370.278 259.389 370.386 259.106 370.419C258.818 370.453 258.486 370.45 258.279 370.45C257.853 370.451 257.361 370.453 256.955 370.408C256.562 370.364 255.806 370.238 255.191 369.618C254.581 369.002 254.459 368.248 254.416 367.858C254.371 367.453 254.374 366.961 254.374 366.528V351.081H191.817V370.442H189.817C188.99 370.442 188.087 370.463 187.222 370.422H187.214C186.721 370.397 186.353 370.209 186.155 370.088C185.939 369.956 185.771 369.806 185.649 369.682C185.425 369.451 185.19 369.13 185.042 368.744L185.04 368.738C184.865 368.278 184.865 367.859 184.869 367.674C184.871 367.575 184.878 367.476 184.88 367.437C184.882 367.404 184.883 367.388 184.883 367.382C184.882 360.603 184.895 353.836 184.864 347.068C184.863 346.676 184.864 345.657 185.627 344.874C186.403 344.078 187.434 344.062 187.853 344.062H187.854C210.012 344.083 232.172 344.079 254.334 344.079V331.602C232.212 331.602 210.089 331.602 187.968 331.602V331.601C187.746 331.601 187.407 331.604 187.115 331.571C186.834 331.539 186.152 331.437 185.59 330.863C185.035 330.298 184.941 329.622 184.911 329.351C184.895 329.206 184.888 329.049 184.885 328.899L184.882 328.494C184.882 328.089 184.879 327.613 184.923 327.219C184.966 326.836 185.09 326.086 185.707 325.478C186.318 324.874 187.064 324.755 187.441 324.714C187.836 324.671 188.313 324.674 188.726 324.674H258.227ZM108.242 326.209C108.266 326.371 108.282 326.421 108.332 326.711C108.361 326.876 108.395 327.097 108.411 327.347L108.42 327.605V327.608C108.428 339.574 108.427 351.539 108.427 363.504H174.823C175.05 363.504 175.389 363.501 175.681 363.533C175.957 363.564 176.634 363.662 177.198 364.224C177.764 364.787 177.863 365.466 177.895 365.744C177.927 366.036 177.925 366.375 177.925 366.6L177.921 367.249C177.916 367.47 177.906 367.69 177.884 367.889C177.841 368.273 177.716 369.024 177.1 369.635C176.487 370.241 175.739 370.36 175.358 370.402C174.961 370.446 174.48 370.443 174.062 370.443H104.726C104.469 370.443 104.103 370.447 103.791 370.411C103.489 370.377 102.793 370.268 102.222 369.683C101.661 369.108 101.563 368.42 101.531 368.129C101.498 367.819 101.5 367.454 101.5 367.188C101.5 353.995 101.497 340.798 101.513 327.603V327.602C101.514 327.084 101.65 326.649 101.73 326.411C101.855 326.044 101.852 326.094 101.894 325.949L102.309 324.5H107.99L108.242 326.209ZM341.809 324.635C342.317 324.652 343.198 324.768 343.862 325.505C344.566 326.286 344.552 327.272 344.551 327.606L344.552 327.607C344.528 334.376 344.538 341.143 344.538 347.92C344.538 348.15 344.541 348.489 344.509 348.78C344.479 349.053 344.383 349.727 343.83 350.292C343.269 350.865 342.587 350.969 342.305 351.001C342.012 351.034 341.672 351.031 341.45 351.031H275.034V370.429H268.303V344.105H337.53V331.634H268.298V324.803L270.188 324.699C270.331 324.691 270.789 324.651 271.144 324.651C294.634 324.649 318.125 324.654 341.615 324.632L341.809 324.635ZM273.033 368.429H273.034V349.031H273.033V368.429ZM522.5 336.5C515.873 336.5 510.5 341.873 510.5 348.5C510.5 355.127 515.873 360.5 522.5 360.5C529.127 360.5 534.5 355.127 534.5 348.5C534.5 341.873 529.127 336.5 522.5 336.5ZM173.021 324.655C173.816 324.655 174.729 324.638 175.613 324.678L175.614 324.677C176.183 324.7 176.59 324.942 176.783 325.077C177 325.228 177.159 325.393 177.265 325.517C177.418 325.696 177.557 325.903 177.667 326.122L177.766 326.344L177.77 326.352C177.955 326.828 177.944 327.261 177.938 327.427C177.934 327.516 177.926 327.613 177.925 327.637C177.923 327.658 177.923 327.667 177.923 327.667L177.922 342.005C177.922 344.398 177.924 346.791 177.927 349.184L177.94 356.361V356.362C177.941 356.709 177.951 357.702 177.275 358.49C176.457 359.444 175.312 359.421 174.752 359.361L174.75 359.36C174.274 359.309 173.956 359.358 173.021 359.358H171.021V324.655H173.021ZM139.089 324.633C139.561 324.639 140.083 324.641 140.504 324.688C140.905 324.734 141.67 324.857 142.297 325.466C142.938 326.089 143.073 326.865 143.121 327.284C143.17 327.713 143.167 328.237 143.167 328.705C143.167 337.93 143.157 347.148 143.184 356.366V356.367C143.185 356.74 143.188 357.746 142.461 358.531C141.676 359.379 140.614 359.39 140.146 359.377C139.71 359.365 139.208 359.357 138.805 359.306C138.415 359.256 137.663 359.123 137.052 358.509C136.436 357.89 136.309 357.131 136.265 356.728C136.219 356.311 136.222 355.803 136.222 355.348V341.963C136.222 337.142 136.233 332.335 136.208 327.527C136.206 327.193 136.201 326.237 136.897 325.475C137.647 324.655 138.656 324.627 139.089 324.633ZM342.535 337.761C342.535 341.147 342.537 344.534 342.537 347.92C342.537 348.181 342.536 348.38 342.521 348.533C342.528 348.462 342.534 348.38 342.536 348.287L342.538 347.92C342.538 344.533 342.535 341.146 342.535 337.76V337.761ZM255.267 329.603H256.334V329.602H187.969L255.267 329.603ZM342.516 327.143C342.542 327.268 342.552 327.419 342.551 327.601H342.552C342.553 327.419 342.542 327.268 342.516 327.144V327.143ZM64.5 54.5C72.232 54.5 78.5 60.768 78.5 68.5C78.5 76.232 72.232 82.5 64.5 82.5C56.768 82.5 50.5 76.232 50.5 68.5C50.5 60.768 56.768 54.5 64.5 54.5ZM580.5 54.5C588.232 54.5 594.5 60.768 594.5 68.5C594.5 76.232 588.232 82.5 580.5 82.5C572.768 82.5 566.5 76.232 566.5 68.5C566.5 60.768 572.768 54.5 580.5 54.5Z" fill="#68707B"/>
</svg>
