<?xml version="1.0" encoding="UTF-8" standalone="no"?>
<!-- Created with Inkscape (http://www.inkscape.org/) -->

<svg
   xmlns:dc="http://purl.org/dc/elements/1.1/"
   xmlns:cc="http://creativecommons.org/ns#"
   xmlns:rdf="http://www.w3.org/1999/02/22-rdf-syntax-ns#"
   xmlns:svg="http://www.w3.org/2000/svg"
   xmlns="http://www.w3.org/2000/svg"
   xmlns:sodipodi="http://sodipodi.sourceforge.net/DTD/sodipodi-0.dtd"
   xmlns:inkscape="http://www.inkscape.org/namespaces/inkscape"
   width="210mm"
   height="210mm"
   viewBox="0 0 744.09449 744.09448"
   id="svg2"
   version="1.1"
   inkscape:version="0.91 r13725"
   sodipodi:docname="blatt_white_OK.svg">
  <defs
     id="defs4" />
  <sodipodi:namedview
     id="base"
     pagecolor="#ff2dff"
     bordercolor="#666666"
     borderopacity="1.0"
     inkscape:pageopacity="0"
     inkscape:pageshadow="2"
     inkscape:zoom="0.7"
     inkscape:cx="513.60567"
     inkscape:cy="344.52045"
     inkscape:document-units="px"
     inkscape:current-layer="layer1"
     showgrid="false"
     inkscape:window-width="1863"
     inkscape:window-height="1056"
     inkscape:window-x="57"
     inkscape:window-y="24"
     inkscape:window-maximized="1"
     showguides="false" />
  <metadata
     id="metadata7">
    <rdf:RDF>
      <cc:Work
         rdf:about="">
        <dc:format>image/svg+xml</dc:format>
        <dc:type
           rdf:resource="http://purl.org/dc/dcmitype/StillImage" />
        <dc:title></dc:title>
      </cc:Work>
    </rdf:RDF>
  </metadata>
  <g
     inkscape:label="Ebene 1"
     inkscape:groupmode="layer"
     id="layer1"
     transform="translate(0,-308.26772)">
    <g
       id="g4164"
       transform="matrix(0.88319899,0,0,0.88319899,43.4554,79.463188)"
       style="stroke-width:33.96743011;stroke-miterlimit:4;stroke-dasharray:none">
      <path
         sodipodi:nodetypes="caaaacaaaaac"
         inkscape:connector-curvature="0"
         id="path4197"
         d="m 238.45335,803.09011 c 0,0 -1.03466,-92.62844 8.42113,-137.59626 8.97655,-42.68886 19.04172,-87.9392 45.29094,-122.7802 20.27314,-26.90886 51.24975,-44.94654 81.50033,-59.77854 38.21245,-18.73574 80.71094,-28.47006 122.74243,-35.14642 26.64965,-4.23308 80.89832,-2.92744 80.89832,-2.92744 0,0 3.42222,64.30253 -0.48162,96.09622 -4.1642,33.91408 -12.08806,67.67245 -24.30012,99.58438 -9.76485,25.51699 -23.04414,49.86098 -38.69298,72.25703 -9.00776,12.89158 -18.78966,25.81525 -31.39682,35.21695 -28.70931,21.40976 -62.57213,36.73994 -97.25893,45.65215 -47.46658,12.19579 -146.72268,9.42213 -146.72268,9.42213 z"
         style="fill:#62be00;fill-opacity:1;fill-rule:evenodd;stroke:#ffffff;stroke-width:33.96743011;stroke-linecap:butt;stroke-linejoin:round;stroke-miterlimit:4;stroke-dasharray:none;stroke-opacity:1" />
      <path
         sodipodi:nodetypes="caaac"
         inkscape:connector-curvature="0"
         id="path4199"
         d="m 457.981,556.13067 c 0,0 -47.91064,44.68677 -70.93467,67.97603 -23.24258,23.51032 -46.31045,47.26354 -67.79656,72.38921 -30.09481,35.19262 -58.90685,71.58641 -85.42448,109.54735 -24.69755,35.35544 -68.41956,109.81145 -68.41956,109.81145"
         style="fill:none;fill-rule:evenodd;stroke:#ffffff;stroke-width:33.96743011;stroke-linecap:round;stroke-linejoin:miter;stroke-miterlimit:4;stroke-dasharray:none;stroke-opacity:1" />
    </g>
  </g>
</svg>
