<?xml version="1.0" encoding="UTF-8" standalone="no"?>
<!-- Created with Inkscape (http://www.inkscape.org/) -->

<svg
   xmlns:dc="http://purl.org/dc/elements/1.1/"
   xmlns:cc="http://creativecommons.org/ns#"
   xmlns:rdf="http://www.w3.org/1999/02/22-rdf-syntax-ns#"
   xmlns:svg="http://www.w3.org/2000/svg"
   xmlns="http://www.w3.org/2000/svg"
   xmlns:sodipodi="http://sodipodi.sourceforge.net/DTD/sodipodi-0.dtd"
   xmlns:inkscape="http://www.inkscape.org/namespaces/inkscape"
   width="210mm"
   height="210mm"
   viewBox="0 0 744.09449 744.09448"
   id="svg2"
   version="1.1"
   inkscape:version="0.91 r13725"
   sodipodi:docname="ohr_white_OK.svg">
  <defs
     id="defs4" />
  <sodipodi:namedview
     id="base"
     pagecolor="#47ffff"
     bordercolor="#666666"
     borderopacity="1.0"
     inkscape:pageopacity="0"
     inkscape:pageshadow="2"
     inkscape:zoom="0.49497475"
     inkscape:cx="564.15745"
     inkscape:cy="370.46922"
     inkscape:document-units="px"
     inkscape:current-layer="layer1"
     showgrid="false"
     inkscape:window-width="1863"
     inkscape:window-height="1056"
     inkscape:window-x="57"
     inkscape:window-y="24"
     inkscape:window-maximized="1" />
  <metadata
     id="metadata7">
    <rdf:RDF>
      <cc:Work
         rdf:about="">
        <dc:format>image/svg+xml</dc:format>
        <dc:type
           rdf:resource="http://purl.org/dc/dcmitype/StillImage" />
        <dc:title></dc:title>
      </cc:Work>
    </rdf:RDF>
  </metadata>
  <g
     inkscape:label="Ebene 1"
     inkscape:groupmode="layer"
     id="layer1"
     transform="translate(0,-308.26772)">
    <ellipse
       style="opacity:1;fill:none;fill-opacity:1;stroke:#000000;stroke-width:21.141;stroke-linecap:round;stroke-linejoin:round;stroke-miterlimit:4;stroke-dasharray:none;stroke-dashoffset:0;stroke-opacity:1"
       id="path4136"
       cx="373.75647"
       cy="680.62604"
       r="360.92627" />
    <path
       style="fill:none;fill-rule:evenodd;stroke:#ffffff;stroke-width:30;stroke-linecap:round;stroke-linejoin:round;stroke-miterlimit:4;stroke-dasharray:none;stroke-opacity:1"
       d="m 212.07818,563.9641 c 0,0 26.28105,-47.58998 46.84756,-64.35404 22.86273,-18.63574 51.39795,-32.2278 80.57013,-36.58433 39.28945,-5.86742 84.48323,-5.62921 118.17375,15.41921 38.16865,23.84616 72.57297,67.69408 74.40856,112.66202 1.65257,40.48425 -47.77393,67.47856 -58.49964,106.55111 -9.40276,34.25319 5.4646,72.15416 -3.59246,106.50037 -6.72067,25.48612 -16.63202,52.9192 -36.64984,70.06553 -20.58162,17.62925 -50.0848,29.55298 -76.97235,26.1687 -36.24321,-4.56186 -69.59113,-30.86597 -91.77768,-59.88559 -18.56672,-24.28494 -28.22232,-87.25727 -28.22232,-87.25727"
       id="path4213"
       inkscape:connector-curvature="0"
       sodipodi:nodetypes="caaaaaaaaac" />
    <path
       style="fill:none;fill-rule:evenodd;stroke:#ffffff;stroke-width:30;stroke-linecap:round;stroke-linejoin:round;stroke-miterlimit:4;stroke-dasharray:none;stroke-opacity:1;fill-opacity:1"
       d="m 453.33344,600.53696 c 0,0 -6.3502,-21.47279 -13.74588,-29.34582 -12.38153,-13.18069 -29.88418,-22.38673 -47.59604,-26.0367 -18.13115,-3.73638 -38.33895,-2.22046 -55.29068,5.21847 -15.80795,6.937 -29.50958,19.90694 -38.48997,34.65027 -11.27046,18.503 -16.47931,62.87201 -16.47931,62.87201 0,0 20.50386,-20.37776 33.86113,-23.92422 24.53175,-6.51337 53.97307,-5.66106 75.79405,7.30333 15.45588,9.18274 26.17888,27.15614 30.2161,44.67492 5.44308,23.61929 1.1159,50.58787 -10.26833,71.98639 -7.58031,14.24842 -20.63786,27.29491 -35.93001,32.45522 -15.78653,5.32714 -35.84236,4.90529 -49.80825,-4.18025 -12.01059,-7.81352 -20.64605,-37.70264 -20.64605,-37.70264"
       id="path4215"
       inkscape:connector-curvature="0"
       sodipodi:nodetypes="caaaacaaacccc" />
    <path
       style="fill:none;fill-rule:evenodd;stroke:#ff0000;stroke-width:30;stroke-linecap:round;stroke-linejoin:miter;stroke-miterlimit:4;stroke-dasharray:none;stroke-opacity:1"
       d="M 159.1901,467.45782 584.90439,893.1721"
       id="path4142"
       inkscape:connector-curvature="0" />
    <path
       style="fill:none;fill-rule:evenodd;stroke:#ff0000;stroke-width:30;stroke-linecap:round;stroke-linejoin:miter;stroke-miterlimit:4;stroke-dasharray:none;stroke-opacity:1"
       d="M 584.90439,467.45782 159.1901,893.1721"
       id="path4142-1"
       inkscape:connector-curvature="0" />
  </g>
</svg>
