<?xml version="1.0" encoding="UTF-8" standalone="no"?>
<!-- Created with Inkscape (http://www.inkscape.org/) -->

<svg
   xmlns:dc="http://purl.org/dc/elements/1.1/"
   xmlns:cc="http://creativecommons.org/ns#"
   xmlns:rdf="http://www.w3.org/1999/02/22-rdf-syntax-ns#"
   xmlns:svg="http://www.w3.org/2000/svg"
   xmlns="http://www.w3.org/2000/svg"
   xmlns:sodipodi="http://sodipodi.sourceforge.net/DTD/sodipodi-0.dtd"
   xmlns:inkscape="http://www.inkscape.org/namespaces/inkscape"
   width="210mm"
   height="210mm"
   viewBox="0 0 744.09449 744.09448"
   id="svg2"
   version="1.1"
   inkscape:version="0.91 r13725"
   sodipodi:docname="wolke_white_OK.svg">
  <defs
     id="defs4" />
  <sodipodi:namedview
     id="base"
     pagecolor="#44ffff"
     bordercolor="#666666"
     borderopacity="1.0"
     inkscape:pageopacity="0"
     inkscape:pageshadow="2"
     inkscape:zoom="0.7"
     inkscape:cx="327.67792"
     inkscape:cy="324.26826"
     inkscape:document-units="px"
     inkscape:current-layer="layer1"
     showgrid="false"
     inkscape:window-width="1863"
     inkscape:window-height="1056"
     inkscape:window-x="57"
     inkscape:window-y="24"
     inkscape:window-maximized="1" />
  <metadata
     id="metadata7">
    <rdf:RDF>
      <cc:Work
         rdf:about="">
        <dc:format>image/svg+xml</dc:format>
        <dc:type
           rdf:resource="http://purl.org/dc/dcmitype/StillImage" />
        <dc:title></dc:title>
      </cc:Work>
    </rdf:RDF>
  </metadata>
  <g
     inkscape:label="Ebene 1"
     inkscape:groupmode="layer"
     id="layer1"
     transform="translate(0,-308.26772)">
    <path
       style="fill:#00beff;fill-opacity:1;fill-rule:evenodd;stroke:#ffffff;stroke-width:30;stroke-linecap:butt;stroke-linejoin:round;stroke-miterlimit:4;stroke-dasharray:none;stroke-opacity:1"
       d="m 180.77991,807.27904 395.81761,0 c 21.96146,0 40.72787,-22.4359 50.39088,-42.06732 11.04674,-22.44261 9.96825,-50.9671 2.97314,-74.98312 -5.91721,-20.31533 -19.00391,-39.80244 -36.18167,-52.15763 -16.26391,-11.69791 -37.69553,-16.00961 -57.71502,-16.76837 -19.59404,-0.74263 -57.56867,12.08914 -57.56867,12.08914 0,0 -11.22629,-27.87395 -20.91978,-38.99069 -11.60489,-13.30878 -26.53971,-24.3644 -42.83462,-31.16682 -18.85875,-7.87273 -40.07024,-9.87957 -60.5063,-9.88333 -20.35644,-0.003 -41.19553,2.72414 -60.27419,9.82269 -14.6529,5.45186 -28.35721,14.0761 -39.96499,24.54938 -11.46636,10.34569 -20.19272,23.56003 -28.16858,36.78487 -6.81431,11.29887 -16.56875,35.94957 -16.56875,35.94957 0,0 -27.6404,-6.99639 -41.3,-4.67925 -15.45843,2.62227 -32.28589,8.41298 -42.3778,20.41269 -13.10672,15.58446 -17.85178,38.43808 -16.68264,58.76773 1.03815,18.05187 8.02421,37.24446 20.69807,50.14102 13.03299,13.26201 32.58923,22.17944 51.18331,22.17944 z"
       id="path4138"
       inkscape:connector-curvature="0"
       sodipodi:nodetypes="ssaaaacaaaaaacaaaas" />
    <path
       style="fill:none;fill-rule:evenodd;stroke:#ff0000;stroke-width:30;stroke-linecap:round;stroke-linejoin:miter;stroke-miterlimit:4;stroke-dasharray:none;stroke-opacity:1"
       d="M 159.1901,467.45782 584.90439,893.1721"
       id="path4142"
       inkscape:connector-curvature="0" />
    <path
       style="fill:none;fill-rule:evenodd;stroke:#ff0000;stroke-width:30;stroke-linecap:round;stroke-linejoin:miter;stroke-miterlimit:4;stroke-dasharray:none;stroke-opacity:1"
       d="M 584.90439,467.45782 159.1901,893.1721"
       id="path4142-1"
       inkscape:connector-curvature="0" />
  </g>
</svg>
