<?xml version="1.0" encoding="UTF-8"?>
<!-- Generator: Adobe Illustrator 24.0.3, SVG Export Plug-In . SVG Version: 6.00 Build 0)  -->
<svg version="1.1" id="Ebene_1" xmlns="http://www.w3.org/2000/svg" xmlns:xlink="http://www.w3.org/1999/xlink" x="0px" y="0px" width="1024px" height="540px" viewBox="0 0 1024 540" style="enable-background:new 0 0 1024 540;" xml:space="preserve">
<style type="text/css">
	.st0{fill:none;stroke:#FF6666;stroke-width:3;stroke-miterlimit:10;}
	.st1{fill:#FF6666;}
	.st2{fill:none;}
	.st3{fill:none;stroke:#AAAAAA;stroke-width:2;stroke-miterlimit:10;}
	.st4{fill:#AAAAAA;}
	.st5{fill:none;stroke:#0FDD42;stroke-width:2;stroke-linecap:round;stroke-miterlimit:10;}
	.st6{fill:none;stroke:#0FDD42;stroke-width:2;stroke-linecap:round;stroke-miterlimit:10;stroke-dasharray:0.503,6.0355;}
	.st7{fill:#0FDD42;}
	.st8{fill:none;stroke:#AAAAAA;stroke-width:2;stroke-linecap:round;stroke-miterlimit:10;}
	.st9{fill:none;stroke:#AAAAAA;stroke-width:2;stroke-linecap:round;stroke-miterlimit:10;stroke-dasharray:0.5043,6.0519;}
	.st10{fill:#FFFFFF;}
	.st11{fill:#000066;}
	.st12{fill:#006600;}
	.st13{fill:#00E207;}
	.st14{fill:#000066;stroke:#FFFFFF;stroke-miterlimit:10;}
	.st15{fill:#FFFF00;}
	.st16{fill:#FFE000;}
	.st17{fill:none;stroke:#FFFFFF;stroke-linecap:round;stroke-miterlimit:10;}
	.st18{fill:#666666;}
	.st19{enable-background:new    ;}
	.st20{fill:none;stroke:#AAAAAA;stroke-width:2;stroke-linecap:round;stroke-miterlimit:10;stroke-dasharray:0.5,6;}
	.st21{fill:#FFFFFF;stroke:#AAAAAA;stroke-width:2;stroke-miterlimit:10;}
	.st22{fill:none;stroke:#00E207;stroke-width:6;stroke-linecap:round;stroke-miterlimit:10;}
</style>
<g id="Ebene_1_1_">
</g>
<g>
	<path class="st0" d="M520.8,395.6V424c0,8.8-7.1,16-16,16l0,0c-8.8,0-16-7.1-16-16v-39.3l-1.1,27.6"/>
	<path class="st1" d="M501.6,375h13l10.1,22.2l-5.4,3l-8.6-12c-4.2,6.6-9.1,5.9-9.1,5.9L501.6,375L501.6,375z"/>
	<g>
		<line class="st2" x1="292" y1="391.1" x2="432" y2="391.1"/>
		<g>
			<line class="st3" x1="292" y1="391.1" x2="429.7" y2="391.1"/>
			<g>
				<polygon class="st4" points="425.7,394.5 429.1,391.1 425.7,387.7 428.6,387.7 432,391.1 428.6,394.5     "/>
			</g>
		</g>
	</g>
	<g>
		<line class="st2" x1="212" y1="330" x2="212" y2="210"/>
		<g>
			<line class="st3" x1="212" y1="327.7" x2="212" y2="210"/>
			<g>
				<polygon class="st4" points="215.4,323.7 212,327.1 208.6,323.7 208.6,326.6 212,330 215.4,326.6     "/>
			</g>
		</g>
	</g>
	<g>
		<g>
			<line class="st5" x1="497" y1="327.7" x2="497" y2="327.5"/>
			<line class="st6" x1="497" y1="321.4" x2="497" y2="213.3"/>
			<line class="st5" x1="497" y1="210.3" x2="497" y2="210"/>
			<g>
				<polygon class="st7" points="500.4,323.7 497,327.1 493.6,323.7 493.6,326.6 497,330 500.4,326.6     "/>
			</g>
		</g>
	</g>
	<g>
		<g>
			<line class="st8" x1="429.7" y1="148.1" x2="429.5" y2="148.1"/>
			<line class="st9" x1="423.4" y1="148.1" x2="295.3" y2="148.1"/>
			<line class="st8" x1="292.3" y1="148.1" x2="292.1" y2="148.1"/>
			<g>
				<polygon class="st4" points="425.7,144.7 429.1,148.1 425.7,151.5 428.6,151.5 432,148.1 428.6,144.7     "/>
			</g>
		</g>
	</g>
	<g>
		<line class="st2" x1="552" y1="391.1" x2="682" y2="391.1"/>
		<g>
			<line class="st3" x1="552" y1="391.1" x2="679.7" y2="391.1"/>
			<g>
				<polygon class="st4" points="675.7,394.5 679.1,391.1 675.7,387.7 678.6,387.7 682,391.1 678.6,394.5     "/>
			</g>
		</g>
	</g>
	<path class="st7" d="M902.9,409c0,0-1,0.2,0,2.1s1.6,2.7-0.2,4c-1.7,1.3-9.8,2.9-11.4,4.4H725.2c0,0-1.5-3.3-3.6-4   c-2.1-0.8-4.4-5.2-4.8-5.9c-0.3-0.8-4.3-9-4.3-13.6c0-0.2,2.9-6.8,2.9-9.9s1-8.6,1.6-9.6s-2.2-1.9-0.7-2.9   c1.6-1,31.6-14.3,49.6-16.5s55.3-6.1,90.4,22.6c0,0,32,0.2,46.8,15.1c2.2,2.1,1.2,4.4,0.7,5.9s-0.3,6.1,0,6.7   C904.1,408,902.9,409,902.9,409z"/>
	<path class="st1" d="M727.9,377.4l-11.3,0.1c-0.5,1.8-1.1,5.4-1.2,7.9C722.3,383.7,727.9,377.4,727.9,377.4z"/>
	<path class="st1" d="M898.2,395.7c2.2,0,3.1-1.5,3.4-2.2c-5-4.4-11.5-7.4-18-9.4C885.5,386.5,893.3,395.7,898.2,395.7z"/>
	<g>
		<polygon class="st2" points="787.3,360.4 787.3,355.7 787.3,355.7   "/>
		<path class="st10" d="M787.3,362.9c-8.4,0-15.8,0.9-20.6,1.4c-6.2,0.7-14.4,3.1-22.2,5.7c10.5,5,32.6,5.6,32.6,5.6l66.6,3.8    C827.3,368.3,808.7,362.9,787.3,362.9L787.3,362.9"/>
		<path class="st7" d="M787.3,355.7L787.3,355.7L787.3,355.7z"/>
	</g>
	<ellipse class="st11" cx="743.2" cy="411.1" rx="15.8" ry="16.1"/>
	<path class="st12" d="M843.1,381.5l-10-0.9c0,0-1.7-0.9-1.7-1.5s1.7-4.3,1.7-4.3s5.2-1,6.4,1.2s2.3,3.6,2.8,3.6   S843.1,381.5,843.1,381.5z"/>
	<ellipse class="st11" cx="873.4" cy="411.1" rx="15.8" ry="16.1"/>
	<ellipse class="st10" cx="873.4" cy="411.1" rx="9.8" ry="9.9"/>
	<ellipse class="st10" cx="743.3" cy="411.1" rx="9.8" ry="9.9"/>
	<polygon class="st1" points="190.5,355.2 238.5,355.2 208.5,403.2 160.5,403.2  "/>
	<polygon class="st13" points="238.5,355.2 208.5,403.2 160.5,403.2 160.5,427.2 208.5,427.2 268.5,427.2 268.5,403.2  "/>
	<path class="st11" d="M498.5,427.2h-26v-72h26c5.5,0,10,4.5,10,10v52C508.5,422.7,504,427.2,498.5,427.2z"/>
	<polygon class="st14" points="220.5,131.2 268.5,131.2 238.5,179.2 190.5,179.2  "/>
	<polygon class="st15" points="172.5,87.2 175.5,106.4 184.3,89.1 181.2,108.3 194.9,94.5 186,111.8 203.3,102.9 189.5,116.6    208.7,113.5 191.3,122.3 210.6,125.2 191.3,128.2 208.7,137 189.5,133.9 203.3,147.6 186,138.7 194.9,156 181.2,142.2 184.3,161.4    175.5,144 172.5,163.3 169.6,144 160.8,161.4 163.9,142.2 150.2,156 159.1,138.7 141.8,147.6 155.6,133.9 136.4,137 153.7,128.2    134.5,125.2 153.7,122.3 136.4,113.5 155.6,116.6 141.8,102.9 159.1,111.8 150.2,94.5 163.9,108.3 160.8,89.1 169.6,106.4  "/>
	<circle class="st16" cx="172.5" cy="125.2" r="18"/>
	<line class="st17" x1="198.4" y1="167.2" x2="246.4" y2="167.2"/>
	<line class="st17" x1="205.5" y1="155.2" x2="253.5" y2="155.2"/>
	<line class="st17" x1="212.3" y1="143.2" x2="260.3" y2="143.2"/>
	<path class="st18" d="M285,79.8H139c-14.8,0-27-12.2-27-27l0,0c0-14.8,12.2-27,27-27h146c14.9,0,27,12.2,27,27l0,0   C312,67.7,299.9,79.8,285,79.8z"/>
	<g class="st19">
		<path class="st10" d="M135.1,44.8v4h-2.3V37.4h4.4c0.9,0,1.6,0.2,2.3,0.5s1.1,0.8,1.5,1.3c0.3,0.6,0.5,1.2,0.5,2    c0,1.1-0.4,2-1.1,2.6c-0.8,0.6-1.8,1-3.2,1H135.1z M135.1,42.9h2.1c0.6,0,1.1-0.1,1.4-0.4c0.3-0.3,0.5-0.7,0.5-1.2    c0-0.6-0.2-1-0.5-1.4s-0.8-0.5-1.4-0.5h-2.1V42.9z"/>
		<path class="st10" d="M145.1,41.3c0.6-0.7,1.4-1.1,2.3-1.1c1.8,0,2.8,1.1,2.8,3.2v5.4h-2.3v-5.4c0-0.5-0.1-0.8-0.3-1.1    c-0.2-0.2-0.6-0.3-1-0.3c-0.7,0-1.1,0.3-1.4,0.8v6h-2.3v-12h2.3V41.3z"/>
		<path class="st10" d="M151.5,44.5c0-0.8,0.2-1.6,0.5-2.2c0.3-0.7,0.8-1.2,1.4-1.5c0.6-0.4,1.3-0.5,2.1-0.5c1.1,0,2.1,0.3,2.8,1    c0.7,0.7,1.1,1.6,1.2,2.8l0,0.6c0,1.3-0.4,2.3-1.1,3.1c-0.7,0.8-1.7,1.2-2.9,1.2s-2.2-0.4-2.9-1.2s-1.1-1.8-1.1-3.2V44.5z     M153.7,44.7c0,0.8,0.2,1.4,0.5,1.8c0.3,0.4,0.7,0.6,1.3,0.6c0.5,0,1-0.2,1.3-0.6c0.3-0.4,0.5-1.1,0.5-2c0-0.8-0.2-1.4-0.5-1.8    c-0.3-0.4-0.7-0.6-1.3-0.6c-0.6,0-1,0.2-1.3,0.6C153.9,43.1,153.7,43.8,153.7,44.7z"/>
		<path class="st10" d="M163.6,38.3v2.1h1.4V42h-1.4v4.2c0,0.3,0.1,0.5,0.2,0.7c0.1,0.1,0.3,0.2,0.7,0.2c0.2,0,0.5,0,0.7-0.1v1.7    c-0.4,0.1-0.9,0.2-1.4,0.2c-1.6,0-2.4-0.8-2.4-2.4V42h-1.2v-1.7h1.2v-2.1H163.6z"/>
		<path class="st10" d="M165.7,44.5c0-0.8,0.2-1.6,0.5-2.2c0.3-0.7,0.8-1.2,1.4-1.5c0.6-0.4,1.3-0.5,2.1-0.5c1.1,0,2.1,0.3,2.8,1    c0.7,0.7,1.1,1.6,1.2,2.8l0,0.6c0,1.3-0.4,2.3-1.1,3.1c-0.7,0.8-1.7,1.2-2.9,1.2s-2.2-0.4-2.9-1.2s-1.1-1.8-1.1-3.2V44.5z     M168,44.7c0,0.8,0.2,1.4,0.5,1.8c0.3,0.4,0.7,0.6,1.3,0.6c0.5,0,1-0.2,1.3-0.6c0.3-0.4,0.5-1.1,0.5-2c0-0.8-0.2-1.4-0.5-1.8    c-0.3-0.4-0.7-0.6-1.3-0.6c-0.6,0-1,0.2-1.3,0.6C168.1,43.1,168,43.8,168,44.7z"/>
		<path class="st10" d="M178.1,46.1l1.6-5.7h2.4l-2.9,8.5h-2.2l-2.9-8.5h2.4L178.1,46.1z"/>
		<path class="st10" d="M182.6,44.5c0-0.8,0.2-1.6,0.5-2.2c0.3-0.7,0.8-1.2,1.4-1.5c0.6-0.4,1.3-0.5,2.1-0.5c1.1,0,2.1,0.3,2.8,1    c0.7,0.7,1.1,1.6,1.2,2.8l0,0.6c0,1.3-0.4,2.3-1.1,3.1c-0.7,0.8-1.7,1.2-2.9,1.2s-2.2-0.4-2.9-1.2s-1.1-1.8-1.1-3.2V44.5z     M184.9,44.7c0,0.8,0.2,1.4,0.5,1.8c0.3,0.4,0.7,0.6,1.3,0.6c0.5,0,1-0.2,1.3-0.6c0.3-0.4,0.5-1.1,0.5-2c0-0.8-0.2-1.4-0.5-1.8    c-0.3-0.4-0.7-0.6-1.3-0.6c-0.6,0-1,0.2-1.3,0.6C185,43.1,184.9,43.8,184.9,44.7z"/>
		<path class="st10" d="M194.4,48.8h-2.3v-12h2.3V48.8z"/>
		<path class="st10" d="M198.9,38.3v2.1h1.4V42h-1.4v4.2c0,0.3,0.1,0.5,0.2,0.7c0.1,0.1,0.3,0.2,0.7,0.2c0.2,0,0.5,0,0.7-0.1v1.7    c-0.4,0.1-0.9,0.2-1.4,0.2c-1.6,0-2.4-0.8-2.4-2.4V42h-1.2v-1.7h1.2v-2.1H198.9z"/>
		<path class="st10" d="M206.5,48.8c-0.1-0.2-0.2-0.5-0.2-0.8c-0.5,0.6-1.3,0.9-2.1,0.9c-0.8,0-1.5-0.2-2.1-0.7    c-0.5-0.5-0.8-1.1-0.8-1.8c0-0.9,0.3-1.6,1-2.1s1.6-0.7,2.9-0.7h1v-0.5c0-0.4-0.1-0.7-0.3-0.9c-0.2-0.2-0.5-0.4-0.9-0.4    c-0.4,0-0.7,0.1-0.9,0.3c-0.2,0.2-0.3,0.4-0.3,0.8h-2.3c0-0.5,0.2-0.9,0.5-1.4c0.3-0.4,0.7-0.7,1.3-1c0.6-0.2,1.2-0.4,1.9-0.4    c1,0,1.9,0.3,2.5,0.8c0.6,0.5,0.9,1.3,0.9,2.2v3.7c0,0.8,0.1,1.4,0.3,1.8v0.1H206.5z M204.7,47.2c0.3,0,0.6-0.1,0.9-0.2    s0.5-0.3,0.6-0.6V45h-0.8c-1.1,0-1.7,0.4-1.8,1.2l0,0.1c0,0.3,0.1,0.5,0.3,0.7C204.1,47.2,204.3,47.2,204.7,47.2z"/>
		<path class="st10" d="M210.2,38.2c0-0.3,0.1-0.6,0.3-0.8s0.5-0.3,0.9-0.3c0.4,0,0.7,0.1,0.9,0.3c0.2,0.2,0.3,0.5,0.3,0.8    c0,0.3-0.1,0.6-0.3,0.8c-0.2,0.2-0.5,0.3-0.9,0.3c-0.4,0-0.7-0.1-0.9-0.3C210.3,38.8,210.2,38.5,210.2,38.2z M212.6,48.8h-2.3    v-8.5h2.3V48.8z"/>
		<path class="st10" d="M217.5,45.4l-0.8,0.8v2.6h-2.3v-12h2.3v6.6l0.4-0.6l2.2-2.5h2.7l-3.1,3.5l3.3,4.9h-2.6L217.5,45.4z"/>
		<path class="st10" d="M227.4,44.9H223V43h4.4V44.9z"/>
		<path class="st10" d="M235.8,46.5h-4.1l-0.8,2.3h-2.5l4.2-11.4h2.2l4.3,11.4h-2.5L235.8,46.5z M232.3,44.6h2.8l-1.4-4.3    L232.3,44.6z"/>
		<path class="st10" d="M241.7,40.4l0.1,1c0.6-0.8,1.4-1.1,2.4-1.1c0.9,0,1.6,0.3,2,0.8s0.7,1.3,0.7,2.4v5.5h-2.3v-5.4    c0-0.5-0.1-0.8-0.3-1c-0.2-0.2-0.6-0.3-1-0.3c-0.6,0-1.1,0.3-1.4,0.8v6h-2.3v-8.5H241.7z"/>
		<path class="st10" d="M251,48.8h-2.3v-12h2.3V48.8z"/>
		<path class="st10" d="M257.7,48.8c-0.1-0.2-0.2-0.5-0.2-0.8c-0.5,0.6-1.3,0.9-2.1,0.9c-0.8,0-1.5-0.2-2.1-0.7    c-0.5-0.5-0.8-1.1-0.8-1.8c0-0.9,0.3-1.6,1-2.1s1.6-0.7,2.9-0.7h1v-0.5c0-0.4-0.1-0.7-0.3-0.9c-0.2-0.2-0.5-0.4-0.9-0.4    c-0.4,0-0.7,0.1-0.9,0.3c-0.2,0.2-0.3,0.4-0.3,0.8h-2.3c0-0.5,0.2-0.9,0.5-1.4c0.3-0.4,0.7-0.7,1.3-1c0.6-0.2,1.2-0.4,1.9-0.4    c1,0,1.9,0.3,2.5,0.8c0.6,0.5,0.9,1.3,0.9,2.2v3.7c0,0.8,0.1,1.4,0.3,1.8v0.1H257.7z M255.8,47.2c0.3,0,0.6-0.1,0.9-0.2    s0.5-0.3,0.6-0.6V45h-0.8c-1.1,0-1.7,0.4-1.8,1.2l0,0.1c0,0.3,0.1,0.5,0.3,0.7C255.2,47.2,255.5,47.2,255.8,47.2z"/>
		<path class="st10" d="M261.1,44.5c0-1.3,0.3-2.3,0.9-3.1s1.4-1.2,2.5-1.2c0.9,0,1.6,0.3,2.2,1l0.1-0.8h2v8.2    c0,0.7-0.2,1.4-0.5,1.9s-0.8,1-1.4,1.2s-1.3,0.4-2.1,0.4c-0.6,0-1.2-0.1-1.8-0.4c-0.6-0.2-1-0.6-1.3-1l1-1.4    c0.6,0.6,1.2,0.9,2,0.9c0.6,0,1.1-0.2,1.4-0.5c0.3-0.3,0.5-0.8,0.5-1.4v-0.5c-0.5,0.6-1.2,0.9-2.1,0.9c-1,0-1.8-0.4-2.5-1.2    C261.4,47,261.1,45.9,261.1,44.5L261.1,44.5z M263.3,44.7c0,0.8,0.2,1.4,0.5,1.8c0.3,0.4,0.7,0.7,1.3,0.7c0.7,0,1.2-0.3,1.5-0.8    v-3.6c-0.3-0.5-0.8-0.8-1.5-0.8c-0.5,0-1,0.2-1.3,0.7C263.5,43.1,263.3,43.8,263.3,44.7z"/>
		<path class="st10" d="M274.4,49c-1.2,0-2.2-0.4-3-1.1c-0.8-0.8-1.2-1.8-1.2-3v-0.2c0-0.8,0.2-1.6,0.5-2.3s0.8-1.2,1.4-1.5    s1.3-0.5,2.1-0.5c1.2,0,2.1,0.4,2.7,1.1s1,1.8,1,3.1v0.9h-5.4c0.1,0.6,0.3,1,0.7,1.3s0.8,0.5,1.4,0.5c0.9,0,1.5-0.3,2-0.9l1.1,1.2    c-0.3,0.5-0.8,0.9-1.4,1.1S275.1,49,274.4,49z M274.2,42c-0.4,0-0.8,0.2-1.1,0.5c-0.3,0.3-0.5,0.7-0.5,1.3h3.1v-0.2    c0-0.5-0.1-0.9-0.4-1.2C275,42.2,274.6,42,274.2,42z"/>
		<path class="st10" d="M283.9,49.8h-1.7l4.2-12.4h1.7L283.9,49.8z"/>
	</g>
	<g class="st19">
		<path class="st10" d="M166.7,64.7l1.5-8.1h2.3L168,68h-2.4l-1.9-7.6L162,68h-2.4l-2.5-11.4h2.3l1.5,8.1l1.9-8.1h2L166.7,64.7z"/>
		<path class="st10" d="M175.3,68.2c-1.2,0-2.2-0.4-3-1.1c-0.8-0.8-1.2-1.8-1.2-3v-0.2c0-0.8,0.2-1.6,0.5-2.3s0.8-1.2,1.4-1.5    s1.3-0.5,2.1-0.5c1.2,0,2.1,0.4,2.7,1.1s1,1.8,1,3.1v0.9h-5.4c0.1,0.6,0.3,1,0.7,1.3s0.8,0.5,1.4,0.5c0.9,0,1.5-0.3,2-0.9l1.1,1.2    c-0.3,0.5-0.8,0.9-1.4,1.1S176,68.2,175.3,68.2z M175,61.2c-0.4,0-0.8,0.2-1.1,0.5c-0.3,0.3-0.5,0.7-0.5,1.3h3.1v-0.2    c0-0.5-0.1-0.9-0.4-1.2C175.9,61.4,175.5,61.2,175,61.2z"/>
		<path class="st10" d="M183.6,66.4c0.4,0,0.8-0.1,1-0.3c0.3-0.2,0.4-0.5,0.4-0.9h2.1c0,0.6-0.2,1.1-0.5,1.6    c-0.3,0.5-0.7,0.8-1.3,1.1c-0.5,0.3-1.1,0.4-1.8,0.4c-1.2,0-2.2-0.4-2.9-1.2c-0.7-0.8-1-1.8-1-3.2v-0.1c0-1.3,0.3-2.3,1-3.1    c0.7-0.8,1.6-1.2,2.9-1.2c1.1,0,1.9,0.3,2.5,0.9c0.6,0.6,1,1.4,1,2.4H185c0-0.4-0.1-0.8-0.4-1.1c-0.3-0.3-0.6-0.4-1-0.4    c-0.5,0-0.9,0.2-1.2,0.6c-0.3,0.4-0.4,1-0.4,1.9v0.2c0,0.9,0.1,1.5,0.4,1.9S183,66.4,183.6,66.4z"/>
		<path class="st10" d="M190.6,60.5c0.6-0.7,1.4-1.1,2.3-1.1c1.8,0,2.8,1.1,2.8,3.2V68h-2.3v-5.4c0-0.5-0.1-0.8-0.3-1.1    c-0.2-0.2-0.6-0.3-1-0.3c-0.7,0-1.1,0.3-1.4,0.8v6h-2.3V56h2.3V60.5z"/>
		<path class="st10" d="M201.9,65.7c0-0.3-0.1-0.5-0.4-0.7s-0.7-0.3-1.3-0.4c-2-0.4-3-1.3-3-2.6c0-0.8,0.3-1.4,0.9-1.9    c0.6-0.5,1.4-0.8,2.4-0.8c1.1,0,1.9,0.3,2.6,0.8c0.6,0.5,1,1.2,1,2h-2.3c0-0.3-0.1-0.6-0.3-0.8c-0.2-0.2-0.5-0.3-1-0.3    c-0.4,0-0.7,0.1-0.9,0.3c-0.2,0.2-0.3,0.4-0.3,0.7c0,0.2,0.1,0.5,0.4,0.6c0.2,0.2,0.6,0.3,1.2,0.4s1,0.2,1.4,0.4    c1.2,0.4,1.8,1.2,1.8,2.3c0,0.8-0.3,1.4-1,1.9c-0.7,0.5-1.5,0.7-2.6,0.7c-0.7,0-1.3-0.1-1.9-0.4c-0.5-0.3-1-0.6-1.3-1    s-0.5-0.9-0.5-1.4h2.1c0,0.4,0.2,0.7,0.4,0.9c0.3,0.2,0.6,0.3,1.1,0.3c0.4,0,0.8-0.1,1-0.2C201.8,66.2,201.9,65.9,201.9,65.7z"/>
		<path class="st10" d="M209.5,68.2c-1.2,0-2.2-0.4-3-1.1c-0.8-0.8-1.2-1.8-1.2-3v-0.2c0-0.8,0.2-1.6,0.5-2.3s0.8-1.2,1.4-1.5    s1.3-0.5,2.1-0.5c1.2,0,2.1,0.4,2.7,1.1s1,1.8,1,3.1v0.9h-5.4c0.1,0.6,0.3,1,0.7,1.3s0.8,0.5,1.4,0.5c0.9,0,1.5-0.3,2-0.9l1.1,1.2    c-0.3,0.5-0.8,0.9-1.4,1.1S210.2,68.2,209.5,68.2z M209.2,61.2c-0.4,0-0.8,0.2-1.1,0.5c-0.3,0.3-0.5,0.7-0.5,1.3h3.1v-0.2    c0-0.5-0.1-0.9-0.4-1.2C210.1,61.4,209.7,61.2,209.2,61.2z"/>
		<path class="st10" d="M216.6,68h-2.3V56h2.3V68z"/>
		<path class="st10" d="M223.2,61.7c-0.3,0-0.6-0.1-0.8-0.1c-0.9,0-1.4,0.3-1.7,0.9V68h-2.3v-8.5h2.1l0.1,1c0.5-0.8,1.1-1.2,1.9-1.2    c0.2,0,0.5,0,0.7,0.1L223.2,61.7z"/>
		<path class="st10" d="M224.3,57.4c0-0.3,0.1-0.6,0.3-0.8s0.5-0.3,0.9-0.3c0.4,0,0.7,0.1,0.9,0.3c0.2,0.2,0.3,0.5,0.3,0.8    c0,0.3-0.1,0.6-0.3,0.8c-0.2,0.2-0.5,0.3-0.9,0.3c-0.4,0-0.7-0.1-0.9-0.3C224.4,58,224.3,57.7,224.3,57.4z M226.7,68h-2.3v-8.5    h2.3V68z"/>
		<path class="st10" d="M232.1,66.4c0.4,0,0.8-0.1,1-0.3c0.3-0.2,0.4-0.5,0.4-0.9h2.1c0,0.6-0.2,1.1-0.5,1.6    c-0.3,0.5-0.7,0.8-1.3,1.1c-0.5,0.3-1.1,0.4-1.8,0.4c-1.2,0-2.2-0.4-2.9-1.2c-0.7-0.8-1-1.8-1-3.2v-0.1c0-1.3,0.3-2.3,1-3.1    c0.7-0.8,1.6-1.2,2.9-1.2c1.1,0,1.9,0.3,2.5,0.9c0.6,0.6,1,1.4,1,2.4h-2.1c0-0.4-0.1-0.8-0.4-1.1c-0.3-0.3-0.6-0.4-1-0.4    c-0.5,0-0.9,0.2-1.2,0.6c-0.3,0.4-0.4,1-0.4,1.9v0.2c0,0.9,0.1,1.5,0.4,1.9S231.5,66.4,232.1,66.4z"/>
		<path class="st10" d="M239.1,60.5c0.6-0.7,1.4-1.1,2.3-1.1c1.8,0,2.8,1.1,2.8,3.2V68h-2.3v-5.4c0-0.5-0.1-0.8-0.3-1.1    c-0.2-0.2-0.6-0.3-1-0.3c-0.7,0-1.1,0.3-1.4,0.8v6h-2.3V56h2.3V60.5z"/>
		<path class="st10" d="M248.6,57.5v2.1h1.4v1.7h-1.4v4.2c0,0.3,0.1,0.5,0.2,0.7c0.1,0.1,0.3,0.2,0.7,0.2c0.2,0,0.5,0,0.7-0.1V68    c-0.4,0.1-0.9,0.2-1.4,0.2c-1.6,0-2.4-0.8-2.4-2.4v-4.6h-1.2v-1.7h1.2v-2.1H248.6z"/>
		<path class="st10" d="M255.2,68.2c-1.2,0-2.2-0.4-3-1.1c-0.8-0.8-1.2-1.8-1.2-3v-0.2c0-0.8,0.2-1.6,0.5-2.3s0.8-1.2,1.4-1.5    s1.3-0.5,2.1-0.5c1.2,0,2.1,0.4,2.7,1.1s1,1.8,1,3.1v0.9h-5.4c0.1,0.6,0.3,1,0.7,1.3s0.8,0.5,1.4,0.5c0.9,0,1.5-0.3,2-0.9l1.1,1.2    c-0.3,0.5-0.8,0.9-1.4,1.1S255.9,68.2,255.2,68.2z M254.9,61.2c-0.4,0-0.8,0.2-1.1,0.5c-0.3,0.3-0.5,0.7-0.5,1.3h3.1v-0.2    c0-0.5-0.1-0.9-0.4-1.2C255.7,61.4,255.4,61.2,254.9,61.2z"/>
		<path class="st10" d="M264.7,61.7c-0.3,0-0.6-0.1-0.8-0.1c-0.9,0-1.4,0.3-1.7,0.9V68h-2.3v-8.5h2.1l0.1,1c0.5-0.8,1.1-1.2,1.9-1.2    c0.2,0,0.5,0,0.7,0.1L264.7,61.7z"/>
	</g>
	<polygon class="st18" points="212,88.3 222,78.3 202,78.3  "/>
	<path class="st18" d="M570,79.8H424c-14.9,0-27-12.2-27-27l0,0c0-14.8,12.1-27,27-27h146c14.8,0,27,12.2,27,27l0,0   C597,67.7,584.8,79.8,570,79.8z"/>
	<g class="st19">
		<path class="st10" d="M484.8,56.8c-1.2,0-2.2-0.4-3-1.1c-0.8-0.8-1.2-1.8-1.2-3v-0.2c0-0.8,0.2-1.6,0.5-2.3s0.8-1.2,1.4-1.5    s1.3-0.5,2.1-0.5c1.2,0,2.1,0.4,2.7,1.1s1,1.8,1,3.1v0.9h-5.4c0.1,0.6,0.3,1,0.7,1.3s0.8,0.5,1.4,0.5c0.9,0,1.5-0.3,2-0.9l1.1,1.2    c-0.3,0.5-0.8,0.9-1.4,1.1S485.5,56.8,484.8,56.8z M484.6,49.8c-0.4,0-0.8,0.2-1.1,0.5c-0.3,0.3-0.5,0.7-0.5,1.3h3.1v-0.2    c0-0.5-0.1-0.9-0.4-1.2C485.4,50,485,49.8,484.6,49.8z"/>
		<path class="st10" d="M492.6,53.9l1.6-5.7h2.4l-2.9,8.5h-2.2l-2.9-8.5h2.4L492.6,53.9z"/>
		<path class="st10" d="M501,55c0.4,0,0.8-0.1,1-0.3c0.3-0.2,0.4-0.5,0.4-0.9h2.1c0,0.6-0.2,1.1-0.5,1.6c-0.3,0.5-0.7,0.8-1.3,1.1    c-0.5,0.3-1.1,0.4-1.8,0.4c-1.2,0-2.2-0.4-2.9-1.2c-0.7-0.8-1-1.8-1-3.2v-0.1c0-1.3,0.3-2.3,1-3.1c0.7-0.8,1.6-1.2,2.9-1.2    c1.1,0,1.9,0.3,2.5,0.9c0.6,0.6,1,1.4,1,2.4h-2.1c0-0.4-0.1-0.8-0.4-1.1c-0.3-0.3-0.6-0.4-1-0.4c-0.5,0-0.9,0.2-1.2,0.6    c-0.3,0.4-0.4,1-0.4,1.9v0.2c0,0.9,0.1,1.5,0.4,1.9S500.4,55,501,55z"/>
		<path class="st10" d="M509.3,55c0.4,0,0.8-0.1,1-0.3c0.3-0.2,0.4-0.5,0.4-0.9h2.1c0,0.6-0.2,1.1-0.5,1.6c-0.3,0.5-0.7,0.8-1.3,1.1    c-0.5,0.3-1.1,0.4-1.8,0.4c-1.2,0-2.2-0.4-2.9-1.2c-0.7-0.8-1-1.8-1-3.2v-0.1c0-1.3,0.3-2.3,1-3.1c0.7-0.8,1.6-1.2,2.9-1.2    c1.1,0,1.9,0.3,2.5,0.9c0.6,0.6,1,1.4,1,2.4h-2.1c0-0.4-0.1-0.8-0.4-1.1c-0.3-0.3-0.6-0.4-1-0.4c-0.5,0-0.9,0.2-1.2,0.6    c-0.3,0.4-0.4,1-0.4,1.9v0.2c0,0.9,0.1,1.5,0.4,1.9S508.8,55,509.3,55z"/>
	</g>
	<polygon class="st18" points="497,88.3 507,78.3 487,78.3  "/>
	<path class="st18" d="M139,460.2h146c14.9,0,27,12.1,27,27l0,0c0,14.9-12.1,27-27,27H139c-14.8,0-27-12.1-27-27l0,0   C112,472.3,124.2,460.2,139,460.2z"/>
	<g class="st19">
		<path class="st10" d="M171.5,491h-2.3l-4.6-7.5v7.5h-2.3v-11.4h2.3l4.6,7.5v-7.5h2.3V491z"/>
		<path class="st10" d="M177.3,491.1c-1.2,0-2.2-0.4-3-1.1c-0.8-0.8-1.2-1.8-1.2-3v-0.2c0-0.8,0.2-1.6,0.5-2.3s0.8-1.2,1.4-1.5    s1.3-0.5,2.1-0.5c1.2,0,2.1,0.4,2.7,1.1s1,1.8,1,3.1v0.9h-5.4c0.1,0.6,0.3,1,0.7,1.3s0.8,0.5,1.4,0.5c0.9,0,1.5-0.3,2-0.9l1.1,1.2    c-0.3,0.5-0.8,0.9-1.4,1.1S178,491.1,177.3,491.1z M177,484.2c-0.4,0-0.8,0.2-1.1,0.5c-0.3,0.3-0.5,0.7-0.5,1.3h3.1v-0.2    c0-0.5-0.1-0.9-0.4-1.2C177.8,484.3,177.5,484.2,177,484.2z"/>
		<path class="st10" d="M184.7,480.4v2.1h1.4v1.7h-1.4v4.2c0,0.3,0.1,0.5,0.2,0.7c0.1,0.1,0.3,0.2,0.7,0.2c0.2,0,0.5,0,0.7-0.1v1.7    c-0.4,0.1-0.9,0.2-1.4,0.2c-1.6,0-2.4-0.8-2.4-2.4v-4.6h-1.2v-1.7h1.2v-2.1H184.7z"/>
		<path class="st10" d="M190,489.2h4.1v1.8h-7v-1.4l4-5.3h-3.9v-1.8h6.8v1.3L190,489.2z"/>
		<path class="st10" d="M200.5,491c-0.1-0.2-0.2-0.5-0.2-0.8c-0.5,0.6-1.3,0.9-2.1,0.9c-0.8,0-1.5-0.2-2.1-0.7    c-0.5-0.5-0.8-1.1-0.8-1.8c0-0.9,0.3-1.6,1-2.1s1.6-0.7,2.9-0.7h1v-0.5c0-0.4-0.1-0.7-0.3-0.9c-0.2-0.2-0.5-0.4-0.9-0.4    c-0.4,0-0.7,0.1-0.9,0.3c-0.2,0.2-0.3,0.4-0.3,0.8h-2.3c0-0.5,0.2-0.9,0.5-1.4c0.3-0.4,0.7-0.7,1.3-1c0.6-0.2,1.2-0.4,1.9-0.4    c1,0,1.9,0.3,2.5,0.8c0.6,0.5,0.9,1.3,0.9,2.2v3.7c0,0.8,0.1,1.4,0.3,1.8v0.1H200.5z M198.6,489.4c0.3,0,0.6-0.1,0.9-0.2    s0.5-0.3,0.6-0.6v-1.5h-0.8c-1.1,0-1.7,0.4-1.8,1.2l0,0.1c0,0.3,0.1,0.5,0.3,0.7C198,489.3,198.2,489.4,198.6,489.4z"/>
		<path class="st10" d="M206.2,482.5l0.1,1c0.6-0.8,1.4-1.1,2.4-1.1c0.9,0,1.6,0.3,2,0.8s0.7,1.3,0.7,2.4v5.5h-2.3v-5.4    c0-0.5-0.1-0.8-0.3-1c-0.2-0.2-0.6-0.3-1-0.3c-0.6,0-1.1,0.3-1.4,0.8v6h-2.3v-8.5H206.2z"/>
		<path class="st10" d="M217.7,488.6c0-0.3-0.1-0.5-0.4-0.7s-0.7-0.3-1.3-0.4c-2-0.4-3-1.3-3-2.6c0-0.8,0.3-1.4,0.9-1.9    c0.6-0.5,1.4-0.8,2.4-0.8c1.1,0,1.9,0.3,2.6,0.8c0.6,0.5,1,1.2,1,2h-2.3c0-0.3-0.1-0.6-0.3-0.8c-0.2-0.2-0.5-0.3-1-0.3    c-0.4,0-0.7,0.1-0.9,0.3c-0.2,0.2-0.3,0.4-0.3,0.7c0,0.2,0.1,0.5,0.4,0.6c0.2,0.2,0.6,0.3,1.2,0.4s1,0.2,1.4,0.4    c1.2,0.4,1.8,1.2,1.8,2.3c0,0.8-0.3,1.4-1,1.9c-0.7,0.5-1.5,0.7-2.6,0.7c-0.7,0-1.3-0.1-1.9-0.4c-0.5-0.3-1-0.6-1.3-1    s-0.5-0.9-0.5-1.4h2.1c0,0.4,0.2,0.7,0.4,0.9c0.3,0.2,0.6,0.3,1.1,0.3c0.4,0,0.8-0.1,1-0.2C217.6,489.1,217.7,488.9,217.7,488.6z"/>
		<path class="st10" d="M224.8,489.3c0.4,0,0.8-0.1,1-0.3c0.3-0.2,0.4-0.5,0.4-0.9h2.1c0,0.6-0.2,1.1-0.5,1.6    c-0.3,0.5-0.7,0.8-1.3,1.1c-0.5,0.3-1.1,0.4-1.8,0.4c-1.2,0-2.2-0.4-2.9-1.2c-0.7-0.8-1-1.8-1-3.2v-0.1c0-1.3,0.3-2.3,1-3.1    c0.7-0.8,1.6-1.2,2.9-1.2c1.1,0,1.9,0.3,2.5,0.9c0.6,0.6,1,1.4,1,2.4h-2.1c0-0.4-0.1-0.8-0.4-1.1c-0.3-0.3-0.6-0.4-1-0.4    c-0.5,0-0.9,0.2-1.2,0.6c-0.3,0.4-0.4,1-0.4,1.9v0.2c0,0.9,0.1,1.5,0.4,1.9S224.3,489.3,224.8,489.3z"/>
		<path class="st10" d="M231.9,483.4c0.6-0.7,1.4-1.1,2.3-1.1c1.8,0,2.8,1.1,2.8,3.2v5.4h-2.3v-5.4c0-0.5-0.1-0.8-0.3-1.1    c-0.2-0.2-0.6-0.3-1-0.3c-0.7,0-1.1,0.3-1.4,0.8v6h-2.3v-12h2.3V483.4z"/>
		<path class="st10" d="M241,491h-2.3v-12h2.3V491z"/>
		<path class="st10" d="M247.9,490.1c-0.6,0.7-1.3,1-2.3,1c-0.9,0-1.6-0.3-2.1-0.8s-0.7-1.3-0.7-2.3v-5.5h2.3v5.5    c0,0.9,0.4,1.3,1.2,1.3c0.8,0,1.3-0.3,1.6-0.8v-6h2.3v8.5H248L247.9,490.1z"/>
		<path class="st10" d="M254.3,491H252v-8.6c0-1.1,0.3-2,1-2.6c0.6-0.6,1.6-0.9,2.7-0.9c1,0,1.8,0.3,2.4,0.8s0.9,1.2,0.9,2.1    c0,0.6-0.1,1.1-0.4,1.5c-0.3,0.5-0.4,0.9-0.4,1.3c0,0.2,0.1,0.4,0.2,0.6c0.2,0.2,0.5,0.5,0.9,0.9c0.8,0.7,1.2,1.4,1.2,2.2    c0,0.9-0.3,1.6-0.9,2.2c-0.6,0.5-1.5,0.8-2.6,0.8c-0.4,0-0.8,0-1.2-0.1c-0.4-0.1-0.7-0.2-0.9-0.3l0.4-1.8c0.5,0.3,1.1,0.4,1.7,0.4    c0.4,0,0.7-0.1,0.9-0.3s0.3-0.4,0.3-0.8c0-0.2-0.1-0.5-0.3-0.7s-0.5-0.5-0.9-0.9c-0.8-0.6-1.2-1.3-1.2-2.1c0-0.5,0.1-1,0.4-1.5    c0.3-0.5,0.4-0.9,0.4-1.3c0-0.4-0.1-0.7-0.3-0.9c-0.2-0.2-0.5-0.3-0.9-0.3c-0.8,0-1.3,0.6-1.3,1.7V491z"/>
	</g>
	<polygon class="st18" points="212,451.7 202,461.7 222,461.7  "/>
	<path class="st18" d="M423.5,460.2h146c14.8,0,27,12.1,27,27l0,0c0,14.9-12.2,27-27,27h-146c-14.9,0-27-12.1-27-27l0,0   C396.5,472.3,408.6,460.2,423.5,460.2z"/>
	<g class="st19">
		<path class="st10" d="M431.7,488c0-0.4-0.2-0.8-0.5-1s-0.9-0.5-1.7-0.8s-1.5-0.5-1.9-0.8c-1.3-0.7-1.9-1.6-1.9-2.8    c0-0.6,0.2-1.2,0.5-1.6c0.3-0.5,0.8-0.9,1.5-1.1s1.4-0.4,2.2-0.4c0.8,0,1.5,0.1,2.2,0.4c0.6,0.3,1.1,0.7,1.5,1.2s0.5,1.1,0.5,1.8    h-2.3c0-0.5-0.2-0.9-0.5-1.2s-0.8-0.4-1.4-0.4c-0.6,0-1,0.1-1.3,0.4c-0.3,0.2-0.5,0.6-0.5,1c0,0.4,0.2,0.7,0.6,0.9    c0.4,0.2,0.9,0.5,1.6,0.7c1.3,0.4,2.3,0.9,2.9,1.5s0.9,1.3,0.9,2.2c0,1-0.4,1.8-1.1,2.3c-0.7,0.6-1.7,0.8-3,0.8    c-0.9,0-1.7-0.2-2.4-0.5s-1.3-0.8-1.6-1.3c-0.4-0.6-0.6-1.2-0.6-1.9h2.4c0,1.3,0.8,1.9,2.2,1.9c0.6,0,1-0.1,1.3-0.3    S431.7,488.4,431.7,488z"/>
		<path class="st10" d="M438.2,480.4v2.1h1.4v1.7h-1.4v4.2c0,0.3,0.1,0.5,0.2,0.7c0.1,0.1,0.3,0.2,0.7,0.2c0.2,0,0.5,0,0.7-0.1v1.7    c-0.4,0.1-0.9,0.2-1.4,0.2c-1.6,0-2.4-0.8-2.4-2.4v-4.6h-1.2v-1.7h1.2v-2.1H438.2z"/>
		<path class="st10" d="M444.8,491.1c-1.2,0-2.2-0.4-3-1.1c-0.8-0.8-1.2-1.8-1.2-3v-0.2c0-0.8,0.2-1.6,0.5-2.3s0.8-1.2,1.4-1.5    s1.3-0.5,2.1-0.5c1.2,0,2.1,0.4,2.7,1.1s1,1.8,1,3.1v0.9h-5.4c0.1,0.6,0.3,1,0.7,1.3s0.8,0.5,1.4,0.5c0.9,0,1.5-0.3,2-0.9l1.1,1.2    c-0.3,0.5-0.8,0.9-1.4,1.1S445.5,491.1,444.8,491.1z M444.6,484.2c-0.4,0-0.8,0.2-1.1,0.5c-0.3,0.3-0.5,0.7-0.5,1.3h3.1v-0.2    c0-0.5-0.1-0.9-0.4-1.2C445.4,484.3,445,484.2,444.6,484.2z"/>
		<path class="st10" d="M454.6,490.1c-0.6,0.7-1.3,1-2.3,1c-0.9,0-1.6-0.3-2.1-0.8s-0.7-1.3-0.7-2.3v-5.5h2.3v5.5    c0,0.9,0.4,1.3,1.2,1.3c0.8,0,1.3-0.3,1.6-0.8v-6h2.3v8.5h-2.1L454.6,490.1z"/>
		<path class="st10" d="M462.4,491.1c-1.2,0-2.2-0.4-3-1.1c-0.8-0.8-1.2-1.8-1.2-3v-0.2c0-0.8,0.2-1.6,0.5-2.3s0.8-1.2,1.4-1.5    s1.3-0.5,2.1-0.5c1.2,0,2.1,0.4,2.7,1.1s1,1.8,1,3.1v0.9h-5.4c0.1,0.6,0.3,1,0.7,1.3s0.8,0.5,1.4,0.5c0.9,0,1.5-0.3,2-0.9l1.1,1.2    c-0.3,0.5-0.8,0.9-1.4,1.1S463.1,491.1,462.4,491.1z M462.2,484.2c-0.4,0-0.8,0.2-1.1,0.5c-0.3,0.3-0.5,0.7-0.5,1.3h3.1v-0.2    c0-0.5-0.1-0.9-0.4-1.2C463,484.3,462.6,484.2,462.2,484.2z"/>
		<path class="st10" d="M471.9,484.6c-0.3,0-0.6-0.1-0.8-0.1c-0.9,0-1.4,0.3-1.7,0.9v5.5h-2.3v-8.5h2.1l0.1,1    c0.5-0.8,1.1-1.2,1.9-1.2c0.2,0,0.5,0,0.7,0.1L471.9,484.6z"/>
		<path class="st10" d="M480.6,486.8c0,1.4-0.3,2.4-0.9,3.2s-1.4,1.1-2.4,1.1c-0.9,0-1.6-0.4-2.2-1.1l-0.1,0.9h-2v-12h2.3v4.3    c0.5-0.6,1.2-0.9,2.1-0.9c1,0,1.8,0.4,2.4,1.1s0.9,1.8,0.9,3.2V486.8z M478.4,486.7c0-0.9-0.1-1.5-0.4-1.9    c-0.3-0.4-0.7-0.6-1.2-0.6c-0.7,0-1.2,0.3-1.5,0.9v3.3c0.3,0.6,0.8,0.9,1.5,0.9c0.7,0,1.2-0.4,1.4-1.1    C478.3,487.9,478.4,487.4,478.4,486.7z"/>
		<path class="st10" d="M486.9,491c-0.1-0.2-0.2-0.5-0.2-0.8c-0.5,0.6-1.3,0.9-2.1,0.9c-0.8,0-1.5-0.2-2.1-0.7    c-0.5-0.5-0.8-1.1-0.8-1.8c0-0.9,0.3-1.6,1-2.1s1.6-0.7,2.9-0.7h1v-0.5c0-0.4-0.1-0.7-0.3-0.9c-0.2-0.2-0.5-0.4-0.9-0.4    c-0.4,0-0.7,0.1-0.9,0.3c-0.2,0.2-0.3,0.4-0.3,0.8h-2.3c0-0.5,0.2-0.9,0.5-1.4c0.3-0.4,0.7-0.7,1.3-1c0.6-0.2,1.2-0.4,1.9-0.4    c1,0,1.9,0.3,2.5,0.8c0.6,0.5,0.9,1.3,0.9,2.2v3.7c0,0.8,0.1,1.4,0.3,1.8v0.1H486.9z M485.1,489.4c0.3,0,0.6-0.1,0.9-0.2    s0.5-0.3,0.6-0.6v-1.5h-0.8c-1.1,0-1.7,0.4-1.8,1.2l0,0.1c0,0.3,0.1,0.5,0.3,0.7C484.4,489.3,484.7,489.4,485.1,489.4z"/>
		<path class="st10" d="M495.4,484.6c-0.3,0-0.6-0.1-0.8-0.1c-0.9,0-1.4,0.3-1.7,0.9v5.5h-2.3v-8.5h2.1l0.1,1    c0.5-0.8,1.1-1.2,1.9-1.2c0.2,0,0.5,0,0.7,0.1L495.4,484.6z"/>
		<path class="st10" d="M500.2,491.1c-1.2,0-2.2-0.4-3-1.1c-0.8-0.8-1.2-1.8-1.2-3v-0.2c0-0.8,0.2-1.6,0.5-2.3s0.8-1.2,1.4-1.5    s1.3-0.5,2.1-0.5c1.2,0,2.1,0.4,2.7,1.1s1,1.8,1,3.1v0.9h-5.4c0.1,0.6,0.3,1,0.7,1.3s0.8,0.5,1.4,0.5c0.9,0,1.5-0.3,2-0.9l1.1,1.2    c-0.3,0.5-0.8,0.9-1.4,1.1S500.9,491.1,500.2,491.1z M499.9,484.2c-0.4,0-0.8,0.2-1.1,0.5c-0.3,0.3-0.5,0.7-0.5,1.3h3.1v-0.2    c0-0.5-0.1-0.9-0.4-1.2C500.8,484.3,500.4,484.2,499.9,484.2z"/>
		<path class="st10" d="M517.9,487.7l1.5-8.1h2.3l-2.5,11.4h-2.4l-1.9-7.6l-1.9,7.6h-2.4l-2.5-11.4h2.3l1.5,8.1l1.9-8.1h2    L517.9,487.7z"/>
		<path class="st10" d="M527.6,491c-0.1-0.2-0.2-0.5-0.2-0.8c-0.5,0.6-1.3,0.9-2.1,0.9c-0.8,0-1.5-0.2-2.1-0.7    c-0.5-0.5-0.8-1.1-0.8-1.8c0-0.9,0.3-1.6,1-2.1s1.6-0.7,2.9-0.7h1v-0.5c0-0.4-0.1-0.7-0.3-0.9c-0.2-0.2-0.5-0.4-0.9-0.4    c-0.4,0-0.7,0.1-0.9,0.3c-0.2,0.2-0.3,0.4-0.3,0.8h-2.3c0-0.5,0.2-0.9,0.5-1.4c0.3-0.4,0.7-0.7,1.3-1c0.6-0.2,1.2-0.4,1.9-0.4    c1,0,1.9,0.3,2.5,0.8c0.6,0.5,0.9,1.3,0.9,2.2v3.7c0,0.8,0.1,1.4,0.3,1.8v0.1H527.6z M525.7,489.4c0.3,0,0.6-0.1,0.9-0.2    s0.5-0.3,0.6-0.6v-1.5h-0.8c-1.1,0-1.7,0.4-1.8,1.2l0,0.1c0,0.3,0.1,0.5,0.3,0.7C525.1,489.3,525.3,489.4,525.7,489.4z"/>
		<path class="st10" d="M533.6,491h-2.3v-12h2.3V491z"/>
		<path class="st10" d="M537.9,491h-2.3v-12h2.3V491z"/>
		<path class="st10" d="M547.3,486.8c0,1.4-0.3,2.4-0.9,3.2s-1.4,1.1-2.4,1.1c-0.9,0-1.6-0.4-2.2-1.1l-0.1,0.9h-2v-12h2.3v4.3    c0.5-0.6,1.2-0.9,2.1-0.9c1,0,1.8,0.4,2.4,1.1s0.9,1.8,0.9,3.2V486.8z M545.1,486.7c0-0.9-0.1-1.5-0.4-1.9    c-0.3-0.4-0.7-0.6-1.2-0.6c-0.7,0-1.2,0.3-1.5,0.9v3.3c0.3,0.6,0.8,0.9,1.5,0.9c0.7,0,1.2-0.4,1.4-1.1    C545,487.9,545.1,487.4,545.1,486.7z"/>
		<path class="st10" d="M548.4,486.7c0-0.8,0.2-1.6,0.5-2.2c0.3-0.7,0.8-1.2,1.4-1.5c0.6-0.4,1.3-0.5,2.1-0.5c1.1,0,2.1,0.3,2.8,1    c0.7,0.7,1.1,1.6,1.2,2.8l0,0.6c0,1.3-0.4,2.3-1.1,3.1c-0.7,0.8-1.7,1.2-2.9,1.2s-2.2-0.4-2.9-1.2s-1.1-1.8-1.1-3.2V486.7z     M550.6,486.8c0,0.8,0.2,1.4,0.5,1.8c0.3,0.4,0.7,0.6,1.3,0.6c0.5,0,1-0.2,1.3-0.6c0.3-0.4,0.5-1.1,0.5-2c0-0.8-0.2-1.4-0.5-1.8    c-0.3-0.4-0.7-0.6-1.3-0.6c-0.6,0-1,0.2-1.3,0.6C550.8,485.3,550.6,485.9,550.6,486.8z"/>
		<path class="st10" d="M560.8,485l1.4-2.5h2.4l-2.4,4.1l2.5,4.3h-2.4l-1.5-2.7l-1.5,2.7h-2.4l2.5-4.3l-2.4-4.1h2.4L560.8,485z"/>
	</g>
	<polygon class="st18" points="496.5,451.7 486.5,461.7 506.5,461.7  "/>
	<path class="st18" d="M739,460.2h146c14.8,0,27,12.1,27,27l0,0c0,14.9-12.2,27-27,27H739c-14.8,0-27-12.1-27-27l0,0   C712,472.3,724.2,460.2,739,460.2z"/>
	<g class="st19">
		<path class="st10" d="M777.7,486h-4.5v3.1h5.3v1.9h-7.6v-11.4h7.6v1.9h-5.3v2.7h4.5V486z"/>
		<path class="st10" d="M782.1,491h-2.3v-12h2.3V491z"/>
		<path class="st10" d="M787.8,491.1c-1.2,0-2.2-0.4-3-1.1s-1.2-1.8-1.2-3v-0.2c0-0.8,0.2-1.6,0.5-2.3s0.8-1.2,1.4-1.5    s1.3-0.5,2.1-0.5c1.2,0,2.1,0.4,2.7,1.1s1,1.8,1,3.1v0.9h-5.4c0.1,0.6,0.3,1,0.7,1.3s0.8,0.5,1.4,0.5c0.9,0,1.5-0.3,2-0.9l1.1,1.2    c-0.3,0.5-0.8,0.9-1.4,1.1S788.5,491.1,787.8,491.1z M787.6,484.2c-0.4,0-0.8,0.2-1.1,0.5s-0.5,0.7-0.5,1.3h3.1v-0.2    c0-0.5-0.1-0.9-0.4-1.2S788.1,484.2,787.6,484.2z"/>
		<path class="st10" d="M795.7,487.6l-0.8,0.8v2.6h-2.3v-12h2.3v6.6l0.4-0.6l2.2-2.5h2.7l-3.1,3.5l3.3,4.9h-2.6L795.7,487.6z"/>
		<path class="st10" d="M803.9,480.4v2.1h1.4v1.7h-1.4v4.2c0,0.3,0.1,0.5,0.2,0.7s0.3,0.2,0.7,0.2c0.2,0,0.5,0,0.7-0.1v1.7    c-0.4,0.1-0.9,0.2-1.4,0.2c-1.6,0-2.4-0.8-2.4-2.4v-4.6h-1.2v-1.7h1.2v-2.1H803.9z"/>
		<path class="st10" d="M811.3,484.6c-0.3,0-0.6-0.1-0.8-0.1c-0.9,0-1.4,0.3-1.7,0.9v5.5h-2.3v-8.5h2.1l0.1,1    c0.5-0.8,1.1-1.2,1.9-1.2c0.2,0,0.5,0,0.7,0.1L811.3,484.6z"/>
		<path class="st10" d="M811.8,486.7c0-0.8,0.2-1.6,0.5-2.2s0.8-1.2,1.4-1.5s1.3-0.5,2.1-0.5c1.1,0,2.1,0.3,2.8,1s1.1,1.6,1.2,2.8    l0,0.6c0,1.3-0.4,2.3-1.1,3.1s-1.7,1.2-2.9,1.2s-2.2-0.4-2.9-1.2s-1.1-1.8-1.1-3.2V486.7z M814,486.8c0,0.8,0.2,1.4,0.5,1.8    s0.7,0.6,1.3,0.6c0.5,0,1-0.2,1.3-0.6s0.5-1.1,0.5-2c0-0.8-0.2-1.4-0.5-1.8s-0.7-0.6-1.3-0.6c-0.6,0-1,0.2-1.3,0.6    S814,485.9,814,486.8z"/>
		<path class="st10" d="M826.1,491c-0.1-0.2-0.2-0.5-0.2-0.8c-0.5,0.6-1.3,0.9-2.1,0.9c-0.8,0-1.5-0.2-2.1-0.7s-0.8-1.1-0.8-1.8    c0-0.9,0.3-1.6,1-2.1s1.6-0.7,2.9-0.7h1v-0.5c0-0.4-0.1-0.7-0.3-0.9s-0.5-0.4-0.9-0.4c-0.4,0-0.7,0.1-0.9,0.3s-0.3,0.4-0.3,0.8    H821c0-0.5,0.2-0.9,0.5-1.4s0.7-0.7,1.3-1s1.2-0.4,1.9-0.4c1,0,1.9,0.3,2.5,0.8s0.9,1.3,0.9,2.2v3.7c0,0.8,0.1,1.4,0.3,1.8v0.1    H826.1z M824.2,489.4c0.3,0,0.6-0.1,0.9-0.2s0.5-0.3,0.6-0.6v-1.5h-0.8c-1.1,0-1.7,0.4-1.8,1.2l0,0.1c0,0.3,0.1,0.5,0.3,0.7    S823.8,489.4,824.2,489.4z"/>
		<path class="st10" d="M834.8,490.1c-0.6,0.7-1.3,1-2.3,1c-0.9,0-1.6-0.3-2.1-0.8s-0.7-1.3-0.7-2.3v-5.5h2.3v5.5    c0,0.9,0.4,1.3,1.2,1.3c0.8,0,1.3-0.3,1.6-0.8v-6h2.3v8.5h-2.1L834.8,490.1z"/>
		<path class="st10" d="M841.4,480.4v2.1h1.4v1.7h-1.4v4.2c0,0.3,0.1,0.5,0.2,0.7s0.3,0.2,0.7,0.2c0.2,0,0.5,0,0.7-0.1v1.7    c-0.4,0.1-0.9,0.2-1.4,0.2c-1.6,0-2.4-0.8-2.4-2.4v-4.6h-1.2v-1.7h1.2v-2.1H841.4z"/>
		<path class="st10" d="M843.5,486.7c0-0.8,0.2-1.6,0.5-2.2s0.8-1.2,1.4-1.5s1.3-0.5,2.1-0.5c1.1,0,2.1,0.3,2.8,1s1.1,1.6,1.2,2.8    l0,0.6c0,1.3-0.4,2.3-1.1,3.1s-1.7,1.2-2.9,1.2s-2.2-0.4-2.9-1.2s-1.1-1.8-1.1-3.2V486.7z M845.8,486.8c0,0.8,0.2,1.4,0.5,1.8    s0.7,0.6,1.3,0.6c0.5,0,1-0.2,1.3-0.6s0.5-1.1,0.5-2c0-0.8-0.2-1.4-0.5-1.8s-0.7-0.6-1.3-0.6c-0.6,0-1,0.2-1.3,0.6    S845.8,485.9,845.8,486.8z"/>
	</g>
	<g class="st19">
		<path class="st4" d="M320.9,126.1v4h-2.3v-11.4h4.4c0.9,0,1.6,0.2,2.3,0.5s1.1,0.8,1.5,1.3c0.3,0.6,0.5,1.2,0.5,2    c0,1.1-0.4,2-1.1,2.6c-0.8,0.6-1.8,1-3.2,1H320.9z M320.9,124.2h2.1c0.6,0,1.1-0.1,1.4-0.4c0.3-0.3,0.5-0.7,0.5-1.2    c0-0.6-0.2-1-0.5-1.4s-0.8-0.5-1.4-0.5h-2.1V124.2z"/>
		<path class="st4" d="M333.5,123.7c-0.3,0-0.6-0.1-0.8-0.1c-0.9,0-1.4,0.3-1.7,0.9v5.5h-2.3v-8.5h2.1l0.1,1    c0.5-0.8,1.1-1.2,1.9-1.2c0.2,0,0.5,0,0.7,0.1L333.5,123.7z"/>
		<path class="st4" d="M333.9,125.8c0-0.8,0.2-1.6,0.5-2.2c0.3-0.7,0.8-1.2,1.4-1.5c0.6-0.4,1.3-0.5,2.1-0.5c1.1,0,2.1,0.3,2.8,1    c0.7,0.7,1.1,1.6,1.2,2.8l0,0.6c0,1.3-0.4,2.3-1.1,3.1c-0.7,0.8-1.7,1.2-2.9,1.2s-2.2-0.4-2.9-1.2s-1.1-1.8-1.1-3.2V125.8z     M336.2,125.9c0,0.8,0.2,1.4,0.5,1.8c0.3,0.4,0.7,0.6,1.3,0.6c0.5,0,1-0.2,1.3-0.6c0.3-0.4,0.5-1.1,0.5-2c0-0.8-0.2-1.4-0.5-1.8    c-0.3-0.4-0.7-0.6-1.3-0.6c-0.6,0-1,0.2-1.3,0.6C336.3,124.3,336.2,125,336.2,125.9z"/>
		<path class="st4" d="M343,125.8c0-1.3,0.3-2.4,0.9-3.1c0.6-0.8,1.4-1.2,2.4-1.2c0.8,0,1.5,0.3,2,0.9v-4.3h2.3v12h-2l-0.1-0.9    c-0.6,0.7-1.3,1.1-2.2,1.1c-1,0-1.8-0.4-2.4-1.2S343,127.2,343,125.8z M345.2,125.9c0,0.8,0.1,1.4,0.4,1.8    c0.3,0.4,0.7,0.6,1.2,0.6c0.7,0,1.2-0.3,1.5-0.9v-3.4c-0.3-0.6-0.8-0.9-1.5-0.9C345.8,123.3,345.2,124.2,345.2,125.9z"/>
		<path class="st4" d="M357.4,129.2c-0.6,0.7-1.3,1-2.3,1c-0.9,0-1.6-0.3-2.1-0.8s-0.7-1.3-0.7-2.3v-5.5h2.3v5.5    c0,0.9,0.4,1.3,1.2,1.3c0.8,0,1.3-0.3,1.6-0.8v-6h2.3v8.5h-2.1L357.4,129.2z"/>
		<path class="st4" d="M364.4,126.7l-0.8,0.8v2.6h-2.3v-12h2.3v6.6l0.4-0.6l2.2-2.5h2.7l-3.1,3.5l3.3,4.9h-2.6L364.4,126.7z"/>
		<path class="st4" d="M372.6,119.5v2.1h1.4v1.7h-1.4v4.2c0,0.3,0.1,0.5,0.2,0.7c0.1,0.1,0.3,0.2,0.7,0.2c0.2,0,0.5,0,0.7-0.1v1.7    c-0.4,0.1-0.9,0.2-1.4,0.2c-1.6,0-2.4-0.8-2.4-2.4v-4.6h-1.2v-1.7h1.2v-2.1H372.6z"/>
		<path class="st4" d="M375.2,119.4c0-0.3,0.1-0.6,0.3-0.8s0.5-0.3,0.9-0.3c0.4,0,0.7,0.1,0.9,0.3c0.2,0.2,0.3,0.5,0.3,0.8    c0,0.3-0.1,0.6-0.3,0.8c-0.2,0.2-0.5,0.3-0.9,0.3c-0.4,0-0.7-0.1-0.9-0.3C375.4,120,375.2,119.8,375.2,119.4z M377.6,130.1h-2.3    v-8.5h2.3V130.1z"/>
		<path class="st4" d="M379.1,125.8c0-0.8,0.2-1.6,0.5-2.2c0.3-0.7,0.8-1.2,1.4-1.5c0.6-0.4,1.3-0.5,2.1-0.5c1.1,0,2.1,0.3,2.8,1    c0.7,0.7,1.1,1.6,1.2,2.8l0,0.6c0,1.3-0.4,2.3-1.1,3.1c-0.7,0.8-1.7,1.2-2.9,1.2s-2.2-0.4-2.9-1.2s-1.1-1.8-1.1-3.2V125.8z     M381.4,125.9c0,0.8,0.2,1.4,0.5,1.8c0.3,0.4,0.7,0.6,1.3,0.6c0.5,0,1-0.2,1.3-0.6c0.3-0.4,0.5-1.1,0.5-2c0-0.8-0.2-1.4-0.5-1.8    c-0.3-0.4-0.7-0.6-1.3-0.6c-0.6,0-1,0.2-1.3,0.6C381.6,124.3,381.4,125,381.4,125.9z"/>
		<path class="st4" d="M390.6,121.6l0.1,1c0.6-0.8,1.4-1.1,2.4-1.1c0.9,0,1.6,0.3,2,0.8s0.7,1.3,0.7,2.4v5.5h-2.3v-5.4    c0-0.5-0.1-0.8-0.3-1c-0.2-0.2-0.6-0.3-1-0.3c-0.6,0-1.1,0.3-1.4,0.8v6h-2.3v-8.5H390.6z"/>
	</g>
	<g class="st19">
		<path class="st7" d="M521.7,275.7h-1.9v4.2h-2.3v-11.4h4.2c1.3,0,2.4,0.3,3.1,0.9s1.1,1.4,1.1,2.5c0,0.8-0.2,1.4-0.5,1.9    s-0.8,0.9-1.5,1.2l2.5,4.6v0.1h-2.5L521.7,275.7z M519.9,273.8h1.9c0.6,0,1-0.1,1.4-0.4s0.5-0.7,0.5-1.2c0-0.5-0.2-1-0.5-1.3    s-0.8-0.5-1.4-0.5h-1.9V273.8z"/>
		<path class="st7" d="M531.5,280c-1.2,0-2.2-0.4-3-1.1s-1.2-1.8-1.2-3v-0.2c0-0.8,0.2-1.6,0.5-2.3s0.8-1.2,1.4-1.5s1.3-0.5,2.1-0.5    c1.2,0,2.1,0.4,2.7,1.1s1,1.8,1,3.1v0.9h-5.4c0.1,0.6,0.3,1,0.7,1.3s0.8,0.5,1.4,0.5c0.9,0,1.5-0.3,2-0.9l1.1,1.2    c-0.3,0.5-0.8,0.9-1.4,1.1S532.2,280,531.5,280z M531.2,273.1c-0.4,0-0.8,0.2-1.1,0.5s-0.5,0.7-0.5,1.3h3.1v-0.2    c0-0.5-0.1-0.9-0.4-1.2S531.7,273.1,531.2,273.1z"/>
		<path class="st7" d="M535.9,275.6c0-1.3,0.3-2.3,0.9-3.1s1.4-1.2,2.5-1.2c0.9,0,1.6,0.3,2.2,1l0.1-0.8h2v8.2    c0,0.7-0.2,1.4-0.5,1.9s-0.8,1-1.4,1.2s-1.3,0.4-2.1,0.4c-0.6,0-1.2-0.1-1.8-0.4s-1-0.6-1.3-1l1-1.4c0.6,0.6,1.2,0.9,2,0.9    c0.6,0,1.1-0.2,1.4-0.5s0.5-0.8,0.5-1.4v-0.5c-0.5,0.6-1.2,0.9-2.1,0.9c-1,0-1.8-0.4-2.5-1.2S535.9,277,535.9,275.6L535.9,275.6z     M538.2,275.8c0,0.8,0.2,1.4,0.5,1.8s0.7,0.7,1.3,0.7c0.7,0,1.2-0.3,1.5-0.8v-3.6c-0.3-0.5-0.8-0.8-1.5-0.8c-0.5,0-1,0.2-1.3,0.7    C538.3,274.2,538.2,274.9,538.2,275.8z"/>
		<path class="st7" d="M549.3,280c-1.2,0-2.2-0.4-3-1.1s-1.2-1.8-1.2-3v-0.2c0-0.8,0.2-1.6,0.5-2.3s0.8-1.2,1.4-1.5s1.3-0.5,2.1-0.5    c1.2,0,2.1,0.4,2.7,1.1s1,1.8,1,3.1v0.9h-5.4c0.1,0.6,0.3,1,0.7,1.3s0.8,0.5,1.4,0.5c0.9,0,1.5-0.3,2-0.9l1.1,1.2    c-0.3,0.5-0.8,0.9-1.4,1.1S550,280,549.3,280z M549,273.1c-0.4,0-0.8,0.2-1.1,0.5s-0.5,0.7-0.5,1.3h3.1v-0.2    c0-0.5-0.1-0.9-0.4-1.2S549.5,273.1,549,273.1z"/>
		<path class="st7" d="M556.4,279.9h-2.3v-12h2.3V279.9z"/>
		<path class="st7" d="M563.3,279c-0.6,0.7-1.3,1-2.3,1c-0.9,0-1.6-0.3-2.1-0.8s-0.7-1.3-0.7-2.3v-5.5h2.3v5.5    c0,0.9,0.4,1.3,1.2,1.3c0.8,0,1.3-0.3,1.6-0.8v-6h2.3v8.5h-2.1L563.3,279z"/>
		<path class="st7" d="M569.3,271.4l0.1,1c0.6-0.8,1.4-1.1,2.4-1.1c0.9,0,1.6,0.3,2,0.8s0.7,1.3,0.7,2.4v5.5h-2.3v-5.4    c0-0.5-0.1-0.8-0.3-1s-0.6-0.3-1-0.3c-0.6,0-1.1,0.3-1.4,0.8v6h-2.3v-8.5H569.3z"/>
		<path class="st7" d="M575.8,275.6c0-1.3,0.3-2.3,0.9-3.1s1.4-1.2,2.5-1.2c0.9,0,1.6,0.3,2.2,1l0.1-0.8h2v8.2    c0,0.7-0.2,1.4-0.5,1.9s-0.8,1-1.4,1.2s-1.3,0.4-2.1,0.4c-0.6,0-1.2-0.1-1.8-0.4s-1-0.6-1.3-1l1-1.4c0.6,0.6,1.2,0.9,2,0.9    c0.6,0,1.1-0.2,1.4-0.5s0.5-0.8,0.5-1.4v-0.5c-0.5,0.6-1.2,0.9-2.1,0.9c-1,0-1.8-0.4-2.5-1.2S575.8,277,575.8,275.6L575.8,275.6z     M578.1,275.8c0,0.8,0.2,1.4,0.5,1.8s0.7,0.7,1.3,0.7c0.7,0,1.2-0.3,1.5-0.8v-3.6c-0.3-0.5-0.8-0.8-1.5-0.8c-0.5,0-1,0.2-1.3,0.7    C578.2,274.2,578.1,274.9,578.1,275.8z"/>
	</g>
	<g class="st19">
		<path class="st4" d="M325.9,270.9l-4.2-7.9l1.8-1.8l5.2,10.8l-1.7,1.7l-10.8-5.3l1.8-1.8L325.9,270.9z"/>
		<path class="st4" d="M334.8,266.1c-0.9,0.9-1.9,1.3-2.9,1.3c-1.1,0-2.1-0.4-3-1.3l-0.2-0.2c-0.6-0.6-1-1.3-1.3-2    c-0.2-0.7-0.3-1.4-0.1-2.1c0.2-0.7,0.5-1.3,1.1-1.8c0.8-0.8,1.7-1.2,2.7-1.2s2,0.5,2.9,1.5l0.7,0.7l-3.8,3.8    c0.4,0.3,0.9,0.5,1.4,0.5c0.5,0,0.9-0.2,1.3-0.6c0.6-0.6,0.9-1.3,0.8-2.1l1.7,0.1c0.1,0.6,0,1.2-0.2,1.8S335.3,265.7,334.8,266.1z     M329.7,261.4c-0.3,0.3-0.5,0.7-0.4,1.1c0,0.4,0.2,0.8,0.5,1.3l2.2-2.2l-0.1-0.1c-0.4-0.3-0.7-0.5-1.1-0.5    C330.4,260.9,330.1,261.1,329.7,261.4z"/>
		<path class="st4" d="M336.9,254.8c-0.2,0.2-0.5,0.4-0.6,0.5c-0.6,0.6-0.8,1.2-0.6,1.8l3.9,3.9l-1.6,1.6l-6-6l1.5-1.5l0.8,0.7    c-0.2-0.9-0.1-1.6,0.5-2.2c0.2-0.2,0.4-0.3,0.6-0.4L336.9,254.8z"/>
		<path class="st4" d="M344.6,250.2c1,1,1.5,1.9,1.6,2.9c0.1,0.9-0.2,1.8-0.9,2.5c-0.6,0.6-1.4,0.9-2.3,0.8l0.6,0.7l-1.4,1.4    l-8.5-8.5l1.6-1.6l3,3c-0.1-0.8,0.2-1.5,0.8-2.1c0.7-0.7,1.6-1,2.5-0.9C342.6,248.6,343.6,249.2,344.6,250.2L344.6,250.2z     M342.9,251.7c-0.6-0.6-1.1-1-1.6-1c-0.5-0.1-0.9,0.1-1.3,0.4c-0.5,0.5-0.6,1.1-0.4,1.7l2.4,2.4c0.6,0.2,1.2,0.1,1.7-0.4    c0.5-0.5,0.6-1.1,0.3-1.8C343.8,252.6,343.4,252.2,342.9,251.7z"/>
		<path class="st4" d="M347.4,244.3c-0.2,0.2-0.5,0.4-0.6,0.5c-0.6,0.6-0.8,1.2-0.6,1.8l3.9,3.9l-1.6,1.6l-6-6l1.5-1.5l0.8,0.7    c-0.2-0.9-0.1-1.6,0.5-2.2c0.2-0.2,0.4-0.3,0.6-0.4L347.4,244.3z"/>
		<path class="st4" d="M356,244.8c-0.2-0.1-0.4-0.2-0.7-0.4c0,0.8-0.2,1.5-0.9,2.2c-0.6,0.6-1.2,0.9-2,0.9c-0.7,0-1.3-0.2-1.9-0.7    c-0.6-0.6-0.9-1.4-0.8-2.2c0.1-0.8,0.6-1.7,1.5-2.5l0.7-0.7l-0.3-0.3c-0.3-0.3-0.6-0.4-0.9-0.5c-0.3,0-0.6,0.1-0.9,0.4    c-0.3,0.3-0.4,0.5-0.4,0.8c0,0.3,0.1,0.5,0.3,0.8l-1.6,1.6c-0.3-0.3-0.6-0.8-0.6-1.3c-0.1-0.5,0-1,0.2-1.6    c0.2-0.6,0.6-1.1,1.1-1.6c0.7-0.7,1.5-1.1,2.3-1.2c0.8-0.1,1.5,0.2,2.2,0.9l2.6,2.6c0.6,0.6,1.1,0.9,1.5,1l0.1,0.1L356,244.8z     M353.5,245c0.2-0.2,0.4-0.5,0.5-0.8s0.1-0.6,0-0.9l-1-1l-0.6,0.6c-0.8,0.8-0.9,1.5-0.4,2.1l0.1,0.1c0.2,0.2,0.4,0.3,0.7,0.3    C353,245.3,353.3,245.2,353.5,245z"/>
		<path class="st4" d="M361.6,238c0.1,0.9-0.2,1.7-0.9,2.4c-0.6,0.6-1.3,0.9-2,0.9s-1.4-0.4-2.1-1.1l-3.9-3.9l1.6-1.6l3.9,3.9    c0.6,0.6,1.2,0.7,1.8,0.1c0.5-0.5,0.7-1.1,0.6-1.7l-4.2-4.2l1.6-1.6l6,6l-1.5,1.5L361.6,238z"/>
		<path class="st4" d="M366.2,232.2c0.3-0.3,0.5-0.6,0.5-1s-0.1-0.7-0.4-0.9l1.5-1.5c0.4,0.4,0.7,0.9,0.8,1.4    c0.1,0.6,0.1,1.1-0.1,1.7c-0.2,0.6-0.5,1.1-1,1.5c-0.9,0.9-1.8,1.3-2.8,1.2c-1,0-2-0.6-3-1.5l-0.1-0.1c-0.9-0.9-1.4-1.9-1.5-2.9    c-0.1-1,0.3-2,1.2-2.8c0.7-0.7,1.6-1.1,2.4-1.2c0.9,0,1.7,0.3,2.4,1l-1.5,1.5c-0.3-0.3-0.7-0.5-1-0.5c-0.4,0-0.7,0.1-1,0.4    c-0.4,0.4-0.5,0.8-0.4,1.2c0.1,0.5,0.4,1,1,1.6l0.2,0.2c0.6,0.6,1.2,1,1.6,1C365.4,232.7,365.8,232.5,366.2,232.2z"/>
		<path class="st4" d="M367,223c-0.1-0.9,0.2-1.7,0.8-2.4c1.3-1.3,2.7-1.2,4.2,0.3l3.8,3.8l-1.6,1.6l-3.8-3.8    c-0.3-0.3-0.7-0.5-1-0.5c-0.3,0-0.6,0.1-1,0.5c-0.5,0.5-0.6,1-0.5,1.6l4.3,4.3l-1.6,1.6l-8.5-8.5l1.6-1.6L367,223z"/>
	</g>
	<polygon class="st18" points="812,451.7 802,461.7 822,461.7  "/>
	<g>
		<g>
			<line class="st20" x1="307.3" y1="325.3" x2="429.9" y2="202.7"/>
			<g>
				<polygon class="st4" points="429.4,208 429.4,203.2 424.6,203.2 426.7,201.1 431.5,201.1 431.5,205.9     "/>
			</g>
		</g>
	</g>
	<g class="st19">
		<path class="st4" d="M634.1,222.9l3.5,3.5l-1.3,1.3l-5.2-5.2l8-8l1.7,1.7L634.1,222.9z"/>
		<path class="st4" d="M640.6,232.1c0.1-0.2,0.2-0.4,0.4-0.7c-0.8,0-1.5-0.2-2.2-0.9c-0.6-0.6-0.9-1.2-0.9-2c0-0.7,0.2-1.3,0.7-1.9    c0.6-0.6,1.4-0.9,2.2-0.8s1.7,0.6,2.5,1.5l0.7,0.7l0.3-0.3c0.3-0.3,0.4-0.6,0.4-0.9c0-0.3-0.1-0.6-0.4-0.9    c-0.3-0.3-0.5-0.4-0.8-0.4c-0.3,0-0.5,0.1-0.8,0.3l-1.6-1.6c0.3-0.3,0.8-0.6,1.3-0.6s1,0,1.6,0.2c0.6,0.2,1.1,0.6,1.6,1.1    c0.7,0.7,1.1,1.5,1.2,2.3c0.1,0.8-0.2,1.5-0.9,2.2l-2.6,2.6c-0.6,0.6-0.9,1.1-1,1.5l-0.1,0.1L640.6,232.1z M640.4,229.7    c0.2,0.2,0.5,0.4,0.8,0.5c0.3,0.1,0.6,0.1,0.9,0l1-1l-0.6-0.6c-0.8-0.8-1.5-0.9-2.1-0.4l-0.1,0.1c-0.2,0.2-0.3,0.4-0.3,0.7    C640,229.2,640.1,229.4,640.4,229.7z"/>
		<path class="st4" d="M646,231.4c0.9-0.9,1.9-1.5,2.9-1.6c1-0.1,1.8,0.2,2.5,0.9c0.6,0.6,0.8,1.3,0.8,2.1l3-3l1.6,1.6l-8.5,8.5    l-1.4-1.4l0.6-0.7c-0.9,0.1-1.7-0.2-2.3-0.8c-0.7-0.7-1-1.5-0.9-2.5C644.4,233.4,645,232.4,646,231.4z M647.5,233.1    c-0.6,0.6-0.9,1.1-1,1.6c-0.1,0.5,0,0.9,0.4,1.3c0.5,0.5,1.1,0.6,1.7,0.4l2.4-2.4c0.2-0.6,0.1-1.2-0.4-1.7    C649.7,231.6,648.7,231.9,647.5,233.1z"/>
		<path class="st4" d="M652.2,243.9c-0.9-0.9-1.3-1.9-1.3-2.9c0-1.1,0.4-2.1,1.3-3l0.2-0.2c0.6-0.6,1.3-1,2-1.3    c0.7-0.2,1.4-0.3,2.1-0.1s1.3,0.5,1.8,1.1c0.8,0.8,1.2,1.7,1.2,2.7c0,1-0.5,2-1.5,2.9l-0.7,0.7l-3.8-3.8c-0.3,0.4-0.5,0.9-0.5,1.4    c0,0.5,0.2,0.9,0.6,1.3c0.6,0.6,1.3,0.9,2.1,0.8l-0.1,1.7c-0.6,0.1-1.2,0-1.8-0.2C653.3,244.8,652.7,244.4,652.2,243.9z     M656.9,238.9c-0.3-0.3-0.7-0.5-1.1-0.4c-0.4,0-0.8,0.2-1.3,0.5l2.2,2.2l0.1-0.1c0.3-0.4,0.5-0.7,0.5-1.1    C657.4,239.6,657.3,239.2,656.9,238.9z"/>
		<path class="st4" d="M660.6,248.8c0.2-0.2,0.3-0.4,0.2-0.8c-0.1-0.3-0.3-0.7-0.6-1.2c-1.1-1.7-1.2-3-0.3-3.9    c0.5-0.5,1.2-0.8,2-0.7c0.8,0.1,1.5,0.5,2.3,1.2c0.8,0.8,1.2,1.5,1.3,2.4c0.1,0.8-0.1,1.5-0.7,2.1l-1.6-1.6    c0.2-0.2,0.3-0.5,0.3-0.8c0-0.3-0.2-0.6-0.5-0.9c-0.3-0.3-0.5-0.4-0.8-0.4c-0.3,0-0.5,0.1-0.7,0.2c-0.2,0.2-0.2,0.4-0.2,0.7    c0.1,0.3,0.2,0.7,0.6,1.1s0.6,0.9,0.7,1.3c0.5,1.2,0.4,2.1-0.3,2.9c-0.5,0.5-1.2,0.8-2,0.6c-0.8-0.1-1.6-0.6-2.3-1.3    c-0.5-0.5-0.9-1-1.1-1.6c-0.2-0.6-0.3-1.1-0.2-1.6c0.1-0.5,0.3-1,0.7-1.3l1.5,1.5c-0.3,0.3-0.4,0.6-0.3,1c0,0.3,0.2,0.7,0.6,1    c0.3,0.3,0.6,0.5,0.9,0.5S660.4,249,660.6,248.8z"/>
		<path class="st4" d="M670.9,247.5l-1.5,1.5l1,1l-1.2,1.2l-1-1l-3,3c-0.2,0.2-0.3,0.4-0.3,0.6c0,0.2,0.1,0.4,0.3,0.6    c0.2,0.2,0.3,0.3,0.5,0.4l-1.2,1.2c-0.4-0.2-0.8-0.5-1.1-0.8c-1.1-1.1-1.1-2.3,0-3.4l3.2-3.2l-0.9-0.9l1.2-1.2l0.9,0.9l1.5-1.5    L670.9,247.5z"/>
		<path class="st4" d="M668.8,260.3c0.1-0.2,0.2-0.4,0.4-0.7c-0.8,0-1.5-0.2-2.2-0.9c-0.6-0.6-0.9-1.2-0.9-2c0-0.7,0.2-1.3,0.7-1.9    c0.6-0.6,1.4-0.9,2.2-0.8s1.7,0.6,2.5,1.5l0.7,0.7l0.3-0.3c0.3-0.3,0.4-0.6,0.5-0.9c0-0.3-0.1-0.6-0.4-0.9    c-0.3-0.3-0.5-0.4-0.8-0.4c-0.3,0-0.5,0.1-0.8,0.3l-1.6-1.6c0.3-0.3,0.8-0.6,1.3-0.6c0.5-0.1,1,0,1.6,0.2c0.6,0.2,1.1,0.6,1.6,1.1    c0.7,0.7,1.1,1.5,1.2,2.3c0.1,0.8-0.2,1.5-0.9,2.2l-2.6,2.6c-0.6,0.6-0.9,1.1-1,1.5l-0.1,0.1L668.8,260.3z M668.6,257.9    c0.2,0.2,0.5,0.4,0.8,0.5c0.3,0.1,0.6,0.1,0.9,0l1-1l-0.6-0.6c-0.8-0.8-1.5-0.9-2.1-0.4l-0.1,0.1c-0.2,0.2-0.3,0.4-0.3,0.7    S668.3,257.6,668.6,257.9z"/>
		<path class="st4" d="M678.8,258.4l-0.6,0.7c1-0.1,1.8,0.2,2.5,0.9c0.6,0.6,0.9,1.3,0.9,2c-0.1,0.7-0.5,1.4-1.2,2.1l-3.9,3.9    l-1.6-1.6l3.8-3.8c0.3-0.3,0.5-0.7,0.5-1c0-0.3-0.2-0.6-0.5-1c-0.4-0.4-1-0.6-1.6-0.4l-4.2,4.2l-1.6-1.6l6-6L678.8,258.4z"/>
		<path class="st4" d="M680.5,266c0.9-0.9,1.9-1.5,2.9-1.6c1-0.1,1.8,0.2,2.5,0.9c0.6,0.6,0.8,1.3,0.8,2.1l3-3l1.6,1.6l-8.5,8.5    l-1.4-1.4l0.6-0.7c-0.9,0.1-1.7-0.2-2.3-0.8c-0.7-0.7-1-1.5-0.9-2.5C679,267.9,679.5,266.9,680.5,266z M682,267.7    c-0.6,0.6-0.9,1.1-1,1.6c-0.1,0.5,0,0.9,0.4,1.3c0.5,0.5,1,0.6,1.7,0.4l2.4-2.4c0.2-0.6,0.1-1.2-0.4-1.7    C684.3,266.2,683.2,266.4,682,267.7z"/>
	</g>
	<g>
		<g>
			<line class="st20" x1="576.8" y1="200.2" x2="702.8" y2="326.2"/>
			<g>
				<polygon class="st4" points="577.2,205.4 577.2,200.6 582,200.6 580,198.5 575.2,198.5 575.2,203.3     "/>
			</g>
		</g>
	</g>
	<path class="st21" d="M512.5,177.4h-32c-11,0-20-9-20-20v-32c0-11,9-20,20-20h32c11,0,20,9,20,20v32   C532.5,168.4,523.5,177.4,512.5,177.4z"/>
	<path class="st7" d="M495.7,124h9.5l-6.3,12.7h6.3l-11.9,22.1l2.4-15.8h-7.9L495.7,124z"/>
	<line class="st22" x1="490.5" y1="379.2" x2="490.5" y2="403.2"/>
</g>
</svg>